G04 EAGLE Gerber RS-274X export*
G75*
%MOMM*%
%FSLAX34Y34*%
%LPD*%
%INSolderpaste Top*%
%IPPOS*%
%AMOC8*
5,1,8,0,0,1.08239X$1,22.5*%
G01*
%ADD10R,0.250000X0.700000*%
%ADD11R,0.700000X0.250000*%
%ADD12R,1.000000X1.500000*%
%ADD13R,0.250000X0.800000*%
%ADD14R,0.800000X0.250000*%
%ADD15R,0.600000X0.600000*%
%ADD16R,0.450000X0.950000*%
%ADD17R,0.800000X0.850000*%
%ADD18R,0.700000X2.000000*%
%ADD19R,0.660400X0.355600*%
%ADD20R,0.355600X0.660400*%
%ADD21R,0.600000X0.400000*%
%ADD22R,0.550000X1.150000*%
%ADD23R,1.000000X1.100000*%
%ADD24C,0.180000*%
%ADD25R,0.900000X0.800000*%
%ADD26R,0.400000X0.800000*%
%ADD27R,0.250000X0.650000*%


D10*
X24570Y133640D03*
X29570Y133640D03*
X34570Y133640D03*
X39570Y133640D03*
X44570Y133640D03*
X49570Y133640D03*
X54570Y133640D03*
X59570Y133640D03*
X64570Y133640D03*
X69570Y133640D03*
X74570Y133640D03*
X79570Y133640D03*
D11*
X86070Y140140D03*
X86070Y145140D03*
X86070Y150140D03*
X86070Y155140D03*
X86070Y160140D03*
X86070Y165140D03*
X86070Y170140D03*
X86070Y175140D03*
X86070Y180140D03*
X86070Y185140D03*
X86070Y190140D03*
X86070Y195140D03*
D10*
X79570Y201640D03*
X74570Y201640D03*
X69570Y201640D03*
X64570Y201640D03*
X59570Y201640D03*
X54570Y201640D03*
X49570Y201640D03*
X44570Y201640D03*
X39570Y201640D03*
X34570Y201640D03*
X29570Y201640D03*
X24570Y201640D03*
D11*
X18070Y195140D03*
X18070Y190140D03*
X18070Y185140D03*
X18070Y180140D03*
X18070Y175140D03*
X18070Y170140D03*
X18070Y165140D03*
X18070Y160140D03*
X18070Y155140D03*
X18070Y150140D03*
X18070Y145140D03*
X18070Y140140D03*
D12*
X37070Y155140D03*
X37070Y180140D03*
X67070Y180140D03*
X67070Y155140D03*
X52070Y155140D03*
X52070Y180140D03*
D13*
X24250Y280140D03*
X29250Y280140D03*
X34250Y280140D03*
X39250Y280140D03*
D14*
X46250Y287140D03*
X46250Y292140D03*
X46250Y297140D03*
X46250Y302140D03*
D13*
X39250Y309140D03*
X34250Y309140D03*
X29250Y309140D03*
X24250Y309140D03*
D14*
X17250Y302140D03*
X17250Y297140D03*
X17250Y292140D03*
X17250Y287140D03*
D15*
X26750Y289640D03*
X26750Y299640D03*
X36750Y299640D03*
X36750Y289640D03*
D16*
X58270Y333170D03*
X64770Y333170D03*
X71270Y333170D03*
X71270Y355170D03*
X64770Y355170D03*
X58270Y355170D03*
D15*
X46355Y333455D03*
X46355Y343455D03*
X74295Y292020D03*
X74295Y282020D03*
X54690Y365760D03*
X64690Y365760D03*
D17*
X43180Y369560D03*
D18*
X57180Y385810D03*
X29180Y385810D03*
D15*
X44370Y356235D03*
X34370Y356235D03*
X83820Y355680D03*
X83820Y365680D03*
X7620Y109935D03*
X7620Y119935D03*
X26670Y119935D03*
X26670Y109935D03*
X17145Y119935D03*
X17145Y109935D03*
X36195Y116760D03*
X36195Y106760D03*
X55245Y119935D03*
X55245Y109935D03*
X45720Y116760D03*
X45720Y106760D03*
X14605Y257890D03*
X14605Y267890D03*
X14685Y220345D03*
X24685Y220345D03*
X14685Y234315D03*
X24685Y234315D03*
X14685Y248285D03*
X24685Y248285D03*
X34290Y213440D03*
X34290Y223440D03*
X34290Y243920D03*
X34290Y253920D03*
X44370Y233680D03*
X34370Y233680D03*
D19*
X34290Y262382D03*
X34290Y271018D03*
D20*
X28067Y319405D03*
X36703Y319405D03*
D19*
X36830Y327152D03*
X36830Y335788D03*
D20*
X83058Y219710D03*
X74422Y219710D03*
X83058Y270510D03*
X74422Y270510D03*
D21*
X74295Y241110D03*
X74295Y249110D03*
D15*
X26750Y343535D03*
X36750Y343535D03*
X57785Y275035D03*
X57785Y285035D03*
X57785Y299165D03*
X57785Y309165D03*
D22*
X15430Y373355D03*
X7430Y373355D03*
X7430Y354355D03*
X15430Y354355D03*
D15*
X57785Y260270D03*
X57785Y250270D03*
X57785Y226140D03*
X57785Y236140D03*
X31035Y92075D03*
X21035Y92075D03*
D23*
X86360Y81525D03*
X86360Y64525D03*
D15*
X7620Y100250D03*
X7620Y90250D03*
D24*
X41070Y84235D02*
X49770Y84235D01*
X41070Y84235D02*
X41070Y88435D01*
X49770Y88435D01*
X49770Y84235D01*
X49770Y85945D02*
X41070Y85945D01*
X41070Y87655D02*
X49770Y87655D01*
X49770Y74735D02*
X41070Y74735D01*
X41070Y78935D01*
X49770Y78935D01*
X49770Y74735D01*
X49770Y76445D02*
X41070Y76445D01*
X41070Y78155D02*
X49770Y78155D01*
X49770Y65235D02*
X41070Y65235D01*
X41070Y69435D01*
X49770Y69435D01*
X49770Y65235D01*
X49770Y66945D02*
X41070Y66945D01*
X41070Y68655D02*
X49770Y68655D01*
X67070Y65235D02*
X75770Y65235D01*
X67070Y65235D02*
X67070Y69435D01*
X75770Y69435D01*
X75770Y65235D01*
X75770Y66945D02*
X67070Y66945D01*
X67070Y68655D02*
X75770Y68655D01*
X75770Y74735D02*
X67070Y74735D01*
X67070Y78935D01*
X75770Y78935D01*
X75770Y74735D01*
X75770Y76445D02*
X67070Y76445D01*
X67070Y78155D02*
X75770Y78155D01*
X75770Y84235D02*
X67070Y84235D01*
X67070Y88435D01*
X75770Y88435D01*
X75770Y84235D01*
X75770Y85945D02*
X67070Y85945D01*
X67070Y87655D02*
X75770Y87655D01*
D25*
X68105Y121895D03*
X68105Y102895D03*
X89105Y112395D03*
D15*
X7620Y80565D03*
X7620Y70565D03*
X31035Y81915D03*
X21035Y81915D03*
X31035Y71755D03*
X21035Y71755D03*
D26*
X100840Y32455D03*
D27*
X90840Y7455D03*
X85840Y7455D03*
D26*
X5840Y32455D03*
D27*
X80840Y7455D03*
X75840Y7455D03*
X70840Y7455D03*
X65840Y7455D03*
X60840Y7455D03*
X55840Y7455D03*
X50840Y7455D03*
X45840Y7455D03*
X40840Y7455D03*
X35840Y7455D03*
X30840Y7455D03*
X25840Y7455D03*
X20840Y7455D03*
X15840Y7455D03*
D15*
X5795Y324485D03*
X15795Y324485D03*
X5715Y304880D03*
X5715Y314880D03*
X8255Y389335D03*
X8255Y399335D03*
X98425Y389335D03*
X98425Y399335D03*
D10*
X187130Y133640D03*
X192130Y133640D03*
X197130Y133640D03*
X202130Y133640D03*
X207130Y133640D03*
X212130Y133640D03*
X217130Y133640D03*
X222130Y133640D03*
X227130Y133640D03*
X232130Y133640D03*
X237130Y133640D03*
X242130Y133640D03*
D11*
X248630Y140140D03*
X248630Y145140D03*
X248630Y150140D03*
X248630Y155140D03*
X248630Y160140D03*
X248630Y165140D03*
X248630Y170140D03*
X248630Y175140D03*
X248630Y180140D03*
X248630Y185140D03*
X248630Y190140D03*
X248630Y195140D03*
D10*
X242130Y201640D03*
X237130Y201640D03*
X232130Y201640D03*
X227130Y201640D03*
X222130Y201640D03*
X217130Y201640D03*
X212130Y201640D03*
X207130Y201640D03*
X202130Y201640D03*
X197130Y201640D03*
X192130Y201640D03*
X187130Y201640D03*
D11*
X180630Y195140D03*
X180630Y190140D03*
X180630Y185140D03*
X180630Y180140D03*
X180630Y175140D03*
X180630Y170140D03*
X180630Y165140D03*
X180630Y160140D03*
X180630Y155140D03*
X180630Y150140D03*
X180630Y145140D03*
X180630Y140140D03*
D12*
X199630Y155140D03*
X199630Y180140D03*
X229630Y180140D03*
X229630Y155140D03*
X214630Y155140D03*
X214630Y180140D03*
D13*
X186810Y280140D03*
X191810Y280140D03*
X196810Y280140D03*
X201810Y280140D03*
D14*
X208810Y287140D03*
X208810Y292140D03*
X208810Y297140D03*
X208810Y302140D03*
D13*
X201810Y309140D03*
X196810Y309140D03*
X191810Y309140D03*
X186810Y309140D03*
D14*
X179810Y302140D03*
X179810Y297140D03*
X179810Y292140D03*
X179810Y287140D03*
D15*
X189310Y289640D03*
X189310Y299640D03*
X199310Y299640D03*
X199310Y289640D03*
D16*
X220830Y333170D03*
X227330Y333170D03*
X233830Y333170D03*
X233830Y355170D03*
X227330Y355170D03*
X220830Y355170D03*
D15*
X208915Y333455D03*
X208915Y343455D03*
X236855Y292020D03*
X236855Y282020D03*
X217250Y365760D03*
X227250Y365760D03*
D17*
X205740Y369560D03*
D18*
X219740Y385810D03*
X191740Y385810D03*
D15*
X206930Y356235D03*
X196930Y356235D03*
X246380Y355680D03*
X246380Y365680D03*
X170180Y109935D03*
X170180Y119935D03*
X189230Y119935D03*
X189230Y109935D03*
X179705Y119935D03*
X179705Y109935D03*
X198755Y116760D03*
X198755Y106760D03*
X217805Y119935D03*
X217805Y109935D03*
X208280Y116760D03*
X208280Y106760D03*
X177165Y257890D03*
X177165Y267890D03*
X177245Y220345D03*
X187245Y220345D03*
X177245Y234315D03*
X187245Y234315D03*
X177245Y248285D03*
X187245Y248285D03*
X196850Y213440D03*
X196850Y223440D03*
X196850Y243920D03*
X196850Y253920D03*
X206930Y233680D03*
X196930Y233680D03*
D19*
X196850Y262382D03*
X196850Y271018D03*
D20*
X190627Y319405D03*
X199263Y319405D03*
D19*
X199390Y327152D03*
X199390Y335788D03*
D20*
X245618Y219710D03*
X236982Y219710D03*
X245618Y270510D03*
X236982Y270510D03*
D21*
X236855Y241110D03*
X236855Y249110D03*
D15*
X189310Y343535D03*
X199310Y343535D03*
X220345Y275035D03*
X220345Y285035D03*
X220345Y299165D03*
X220345Y309165D03*
D22*
X177990Y373355D03*
X169990Y373355D03*
X169990Y354355D03*
X177990Y354355D03*
D15*
X220345Y260270D03*
X220345Y250270D03*
X220345Y226140D03*
X220345Y236140D03*
X193595Y92075D03*
X183595Y92075D03*
D23*
X248920Y81525D03*
X248920Y64525D03*
D15*
X170180Y100250D03*
X170180Y90250D03*
D24*
X203630Y84235D02*
X212330Y84235D01*
X203630Y84235D02*
X203630Y88435D01*
X212330Y88435D01*
X212330Y84235D01*
X212330Y85945D02*
X203630Y85945D01*
X203630Y87655D02*
X212330Y87655D01*
X212330Y74735D02*
X203630Y74735D01*
X203630Y78935D01*
X212330Y78935D01*
X212330Y74735D01*
X212330Y76445D02*
X203630Y76445D01*
X203630Y78155D02*
X212330Y78155D01*
X212330Y65235D02*
X203630Y65235D01*
X203630Y69435D01*
X212330Y69435D01*
X212330Y65235D01*
X212330Y66945D02*
X203630Y66945D01*
X203630Y68655D02*
X212330Y68655D01*
X229630Y65235D02*
X238330Y65235D01*
X229630Y65235D02*
X229630Y69435D01*
X238330Y69435D01*
X238330Y65235D01*
X238330Y66945D02*
X229630Y66945D01*
X229630Y68655D02*
X238330Y68655D01*
X238330Y74735D02*
X229630Y74735D01*
X229630Y78935D01*
X238330Y78935D01*
X238330Y74735D01*
X238330Y76445D02*
X229630Y76445D01*
X229630Y78155D02*
X238330Y78155D01*
X238330Y84235D02*
X229630Y84235D01*
X229630Y88435D01*
X238330Y88435D01*
X238330Y84235D01*
X238330Y85945D02*
X229630Y85945D01*
X229630Y87655D02*
X238330Y87655D01*
D25*
X230665Y121895D03*
X230665Y102895D03*
X251665Y112395D03*
D15*
X170180Y80565D03*
X170180Y70565D03*
X193595Y81915D03*
X183595Y81915D03*
X193595Y71755D03*
X183595Y71755D03*
D26*
X263400Y32455D03*
D27*
X253400Y7455D03*
X248400Y7455D03*
D26*
X168400Y32455D03*
D27*
X243400Y7455D03*
X238400Y7455D03*
X233400Y7455D03*
X228400Y7455D03*
X223400Y7455D03*
X218400Y7455D03*
X213400Y7455D03*
X208400Y7455D03*
X203400Y7455D03*
X198400Y7455D03*
X193400Y7455D03*
X188400Y7455D03*
X183400Y7455D03*
X178400Y7455D03*
D15*
X168355Y324485D03*
X178355Y324485D03*
X168275Y304880D03*
X168275Y314880D03*
X170815Y389335D03*
X170815Y399335D03*
X260985Y389335D03*
X260985Y399335D03*
D10*
X349690Y133640D03*
X354690Y133640D03*
X359690Y133640D03*
X364690Y133640D03*
X369690Y133640D03*
X374690Y133640D03*
X379690Y133640D03*
X384690Y133640D03*
X389690Y133640D03*
X394690Y133640D03*
X399690Y133640D03*
X404690Y133640D03*
D11*
X411190Y140140D03*
X411190Y145140D03*
X411190Y150140D03*
X411190Y155140D03*
X411190Y160140D03*
X411190Y165140D03*
X411190Y170140D03*
X411190Y175140D03*
X411190Y180140D03*
X411190Y185140D03*
X411190Y190140D03*
X411190Y195140D03*
D10*
X404690Y201640D03*
X399690Y201640D03*
X394690Y201640D03*
X389690Y201640D03*
X384690Y201640D03*
X379690Y201640D03*
X374690Y201640D03*
X369690Y201640D03*
X364690Y201640D03*
X359690Y201640D03*
X354690Y201640D03*
X349690Y201640D03*
D11*
X343190Y195140D03*
X343190Y190140D03*
X343190Y185140D03*
X343190Y180140D03*
X343190Y175140D03*
X343190Y170140D03*
X343190Y165140D03*
X343190Y160140D03*
X343190Y155140D03*
X343190Y150140D03*
X343190Y145140D03*
X343190Y140140D03*
D12*
X362190Y155140D03*
X362190Y180140D03*
X392190Y180140D03*
X392190Y155140D03*
X377190Y155140D03*
X377190Y180140D03*
D13*
X349370Y280140D03*
X354370Y280140D03*
X359370Y280140D03*
X364370Y280140D03*
D14*
X371370Y287140D03*
X371370Y292140D03*
X371370Y297140D03*
X371370Y302140D03*
D13*
X364370Y309140D03*
X359370Y309140D03*
X354370Y309140D03*
X349370Y309140D03*
D14*
X342370Y302140D03*
X342370Y297140D03*
X342370Y292140D03*
X342370Y287140D03*
D15*
X351870Y289640D03*
X351870Y299640D03*
X361870Y299640D03*
X361870Y289640D03*
D16*
X383390Y333170D03*
X389890Y333170D03*
X396390Y333170D03*
X396390Y355170D03*
X389890Y355170D03*
X383390Y355170D03*
D15*
X371475Y333455D03*
X371475Y343455D03*
X399415Y292020D03*
X399415Y282020D03*
X379810Y365760D03*
X389810Y365760D03*
D17*
X368300Y369560D03*
D18*
X382300Y385810D03*
X354300Y385810D03*
D15*
X369490Y356235D03*
X359490Y356235D03*
X408940Y355680D03*
X408940Y365680D03*
X332740Y109935D03*
X332740Y119935D03*
X351790Y119935D03*
X351790Y109935D03*
X342265Y119935D03*
X342265Y109935D03*
X361315Y116760D03*
X361315Y106760D03*
X380365Y119935D03*
X380365Y109935D03*
X370840Y116760D03*
X370840Y106760D03*
X339725Y257890D03*
X339725Y267890D03*
X339805Y220345D03*
X349805Y220345D03*
X339805Y234315D03*
X349805Y234315D03*
X339805Y248285D03*
X349805Y248285D03*
X359410Y213440D03*
X359410Y223440D03*
X359410Y243920D03*
X359410Y253920D03*
X369490Y233680D03*
X359490Y233680D03*
D19*
X359410Y262382D03*
X359410Y271018D03*
D20*
X353187Y319405D03*
X361823Y319405D03*
D19*
X361950Y327152D03*
X361950Y335788D03*
D20*
X408178Y219710D03*
X399542Y219710D03*
X408178Y270510D03*
X399542Y270510D03*
D21*
X399415Y241110D03*
X399415Y249110D03*
D15*
X351870Y343535D03*
X361870Y343535D03*
X382905Y275035D03*
X382905Y285035D03*
X382905Y299165D03*
X382905Y309165D03*
D22*
X340550Y373355D03*
X332550Y373355D03*
X332550Y354355D03*
X340550Y354355D03*
D15*
X382905Y260270D03*
X382905Y250270D03*
X382905Y226140D03*
X382905Y236140D03*
X356155Y92075D03*
X346155Y92075D03*
D23*
X411480Y81525D03*
X411480Y64525D03*
D15*
X332740Y100250D03*
X332740Y90250D03*
D24*
X366190Y84235D02*
X374890Y84235D01*
X366190Y84235D02*
X366190Y88435D01*
X374890Y88435D01*
X374890Y84235D01*
X374890Y85945D02*
X366190Y85945D01*
X366190Y87655D02*
X374890Y87655D01*
X374890Y74735D02*
X366190Y74735D01*
X366190Y78935D01*
X374890Y78935D01*
X374890Y74735D01*
X374890Y76445D02*
X366190Y76445D01*
X366190Y78155D02*
X374890Y78155D01*
X374890Y65235D02*
X366190Y65235D01*
X366190Y69435D01*
X374890Y69435D01*
X374890Y65235D01*
X374890Y66945D02*
X366190Y66945D01*
X366190Y68655D02*
X374890Y68655D01*
X392190Y65235D02*
X400890Y65235D01*
X392190Y65235D02*
X392190Y69435D01*
X400890Y69435D01*
X400890Y65235D01*
X400890Y66945D02*
X392190Y66945D01*
X392190Y68655D02*
X400890Y68655D01*
X400890Y74735D02*
X392190Y74735D01*
X392190Y78935D01*
X400890Y78935D01*
X400890Y74735D01*
X400890Y76445D02*
X392190Y76445D01*
X392190Y78155D02*
X400890Y78155D01*
X400890Y84235D02*
X392190Y84235D01*
X392190Y88435D01*
X400890Y88435D01*
X400890Y84235D01*
X400890Y85945D02*
X392190Y85945D01*
X392190Y87655D02*
X400890Y87655D01*
D25*
X393225Y121895D03*
X393225Y102895D03*
X414225Y112395D03*
D15*
X332740Y80565D03*
X332740Y70565D03*
X356155Y81915D03*
X346155Y81915D03*
X356155Y71755D03*
X346155Y71755D03*
D26*
X425960Y32455D03*
D27*
X415960Y7455D03*
X410960Y7455D03*
D26*
X330960Y32455D03*
D27*
X405960Y7455D03*
X400960Y7455D03*
X395960Y7455D03*
X390960Y7455D03*
X385960Y7455D03*
X380960Y7455D03*
X375960Y7455D03*
X370960Y7455D03*
X365960Y7455D03*
X360960Y7455D03*
X355960Y7455D03*
X350960Y7455D03*
X345960Y7455D03*
X340960Y7455D03*
D15*
X330915Y324485D03*
X340915Y324485D03*
X330835Y304880D03*
X330835Y314880D03*
X333375Y389335D03*
X333375Y399335D03*
X423545Y389335D03*
X423545Y399335D03*
D10*
X512250Y133640D03*
X517250Y133640D03*
X522250Y133640D03*
X527250Y133640D03*
X532250Y133640D03*
X537250Y133640D03*
X542250Y133640D03*
X547250Y133640D03*
X552250Y133640D03*
X557250Y133640D03*
X562250Y133640D03*
X567250Y133640D03*
D11*
X573750Y140140D03*
X573750Y145140D03*
X573750Y150140D03*
X573750Y155140D03*
X573750Y160140D03*
X573750Y165140D03*
X573750Y170140D03*
X573750Y175140D03*
X573750Y180140D03*
X573750Y185140D03*
X573750Y190140D03*
X573750Y195140D03*
D10*
X567250Y201640D03*
X562250Y201640D03*
X557250Y201640D03*
X552250Y201640D03*
X547250Y201640D03*
X542250Y201640D03*
X537250Y201640D03*
X532250Y201640D03*
X527250Y201640D03*
X522250Y201640D03*
X517250Y201640D03*
X512250Y201640D03*
D11*
X505750Y195140D03*
X505750Y190140D03*
X505750Y185140D03*
X505750Y180140D03*
X505750Y175140D03*
X505750Y170140D03*
X505750Y165140D03*
X505750Y160140D03*
X505750Y155140D03*
X505750Y150140D03*
X505750Y145140D03*
X505750Y140140D03*
D12*
X524750Y155140D03*
X524750Y180140D03*
X554750Y180140D03*
X554750Y155140D03*
X539750Y155140D03*
X539750Y180140D03*
D13*
X511930Y280140D03*
X516930Y280140D03*
X521930Y280140D03*
X526930Y280140D03*
D14*
X533930Y287140D03*
X533930Y292140D03*
X533930Y297140D03*
X533930Y302140D03*
D13*
X526930Y309140D03*
X521930Y309140D03*
X516930Y309140D03*
X511930Y309140D03*
D14*
X504930Y302140D03*
X504930Y297140D03*
X504930Y292140D03*
X504930Y287140D03*
D15*
X514430Y289640D03*
X514430Y299640D03*
X524430Y299640D03*
X524430Y289640D03*
D16*
X545950Y333170D03*
X552450Y333170D03*
X558950Y333170D03*
X558950Y355170D03*
X552450Y355170D03*
X545950Y355170D03*
D15*
X534035Y333455D03*
X534035Y343455D03*
X561975Y292020D03*
X561975Y282020D03*
X542370Y365760D03*
X552370Y365760D03*
D17*
X530860Y369560D03*
D18*
X544860Y385810D03*
X516860Y385810D03*
D15*
X532050Y356235D03*
X522050Y356235D03*
X571500Y355680D03*
X571500Y365680D03*
X495300Y109935D03*
X495300Y119935D03*
X514350Y119935D03*
X514350Y109935D03*
X504825Y119935D03*
X504825Y109935D03*
X523875Y116760D03*
X523875Y106760D03*
X542925Y119935D03*
X542925Y109935D03*
X533400Y116760D03*
X533400Y106760D03*
X502285Y257890D03*
X502285Y267890D03*
X502365Y220345D03*
X512365Y220345D03*
X502365Y234315D03*
X512365Y234315D03*
X502365Y248285D03*
X512365Y248285D03*
X521970Y213440D03*
X521970Y223440D03*
X521970Y243920D03*
X521970Y253920D03*
X532050Y233680D03*
X522050Y233680D03*
D19*
X521970Y262382D03*
X521970Y271018D03*
D20*
X515747Y319405D03*
X524383Y319405D03*
D19*
X524510Y327152D03*
X524510Y335788D03*
D20*
X570738Y219710D03*
X562102Y219710D03*
X570738Y270510D03*
X562102Y270510D03*
D21*
X561975Y241110D03*
X561975Y249110D03*
D15*
X514430Y343535D03*
X524430Y343535D03*
X545465Y275035D03*
X545465Y285035D03*
X545465Y299165D03*
X545465Y309165D03*
D22*
X503110Y373355D03*
X495110Y373355D03*
X495110Y354355D03*
X503110Y354355D03*
D15*
X545465Y260270D03*
X545465Y250270D03*
X545465Y226140D03*
X545465Y236140D03*
X518715Y92075D03*
X508715Y92075D03*
D23*
X574040Y81525D03*
X574040Y64525D03*
D15*
X495300Y100250D03*
X495300Y90250D03*
D24*
X528750Y84235D02*
X537450Y84235D01*
X528750Y84235D02*
X528750Y88435D01*
X537450Y88435D01*
X537450Y84235D01*
X537450Y85945D02*
X528750Y85945D01*
X528750Y87655D02*
X537450Y87655D01*
X537450Y74735D02*
X528750Y74735D01*
X528750Y78935D01*
X537450Y78935D01*
X537450Y74735D01*
X537450Y76445D02*
X528750Y76445D01*
X528750Y78155D02*
X537450Y78155D01*
X537450Y65235D02*
X528750Y65235D01*
X528750Y69435D01*
X537450Y69435D01*
X537450Y65235D01*
X537450Y66945D02*
X528750Y66945D01*
X528750Y68655D02*
X537450Y68655D01*
X554750Y65235D02*
X563450Y65235D01*
X554750Y65235D02*
X554750Y69435D01*
X563450Y69435D01*
X563450Y65235D01*
X563450Y66945D02*
X554750Y66945D01*
X554750Y68655D02*
X563450Y68655D01*
X563450Y74735D02*
X554750Y74735D01*
X554750Y78935D01*
X563450Y78935D01*
X563450Y74735D01*
X563450Y76445D02*
X554750Y76445D01*
X554750Y78155D02*
X563450Y78155D01*
X563450Y84235D02*
X554750Y84235D01*
X554750Y88435D01*
X563450Y88435D01*
X563450Y84235D01*
X563450Y85945D02*
X554750Y85945D01*
X554750Y87655D02*
X563450Y87655D01*
D25*
X555785Y121895D03*
X555785Y102895D03*
X576785Y112395D03*
D15*
X495300Y80565D03*
X495300Y70565D03*
X518715Y81915D03*
X508715Y81915D03*
X518715Y71755D03*
X508715Y71755D03*
D26*
X588520Y32455D03*
D27*
X578520Y7455D03*
X573520Y7455D03*
D26*
X493520Y32455D03*
D27*
X568520Y7455D03*
X563520Y7455D03*
X558520Y7455D03*
X553520Y7455D03*
X548520Y7455D03*
X543520Y7455D03*
X538520Y7455D03*
X533520Y7455D03*
X528520Y7455D03*
X523520Y7455D03*
X518520Y7455D03*
X513520Y7455D03*
X508520Y7455D03*
X503520Y7455D03*
D15*
X493475Y324485D03*
X503475Y324485D03*
X493395Y304880D03*
X493395Y314880D03*
X495935Y389335D03*
X495935Y399335D03*
X586105Y389335D03*
X586105Y399335D03*
D10*
X674810Y133640D03*
X679810Y133640D03*
X684810Y133640D03*
X689810Y133640D03*
X694810Y133640D03*
X699810Y133640D03*
X704810Y133640D03*
X709810Y133640D03*
X714810Y133640D03*
X719810Y133640D03*
X724810Y133640D03*
X729810Y133640D03*
D11*
X736310Y140140D03*
X736310Y145140D03*
X736310Y150140D03*
X736310Y155140D03*
X736310Y160140D03*
X736310Y165140D03*
X736310Y170140D03*
X736310Y175140D03*
X736310Y180140D03*
X736310Y185140D03*
X736310Y190140D03*
X736310Y195140D03*
D10*
X729810Y201640D03*
X724810Y201640D03*
X719810Y201640D03*
X714810Y201640D03*
X709810Y201640D03*
X704810Y201640D03*
X699810Y201640D03*
X694810Y201640D03*
X689810Y201640D03*
X684810Y201640D03*
X679810Y201640D03*
X674810Y201640D03*
D11*
X668310Y195140D03*
X668310Y190140D03*
X668310Y185140D03*
X668310Y180140D03*
X668310Y175140D03*
X668310Y170140D03*
X668310Y165140D03*
X668310Y160140D03*
X668310Y155140D03*
X668310Y150140D03*
X668310Y145140D03*
X668310Y140140D03*
D12*
X687310Y155140D03*
X687310Y180140D03*
X717310Y180140D03*
X717310Y155140D03*
X702310Y155140D03*
X702310Y180140D03*
D13*
X674490Y280140D03*
X679490Y280140D03*
X684490Y280140D03*
X689490Y280140D03*
D14*
X696490Y287140D03*
X696490Y292140D03*
X696490Y297140D03*
X696490Y302140D03*
D13*
X689490Y309140D03*
X684490Y309140D03*
X679490Y309140D03*
X674490Y309140D03*
D14*
X667490Y302140D03*
X667490Y297140D03*
X667490Y292140D03*
X667490Y287140D03*
D15*
X676990Y289640D03*
X676990Y299640D03*
X686990Y299640D03*
X686990Y289640D03*
D16*
X708510Y333170D03*
X715010Y333170D03*
X721510Y333170D03*
X721510Y355170D03*
X715010Y355170D03*
X708510Y355170D03*
D15*
X696595Y333455D03*
X696595Y343455D03*
X724535Y292020D03*
X724535Y282020D03*
X704930Y365760D03*
X714930Y365760D03*
D17*
X693420Y369560D03*
D18*
X707420Y385810D03*
X679420Y385810D03*
D15*
X694610Y356235D03*
X684610Y356235D03*
X734060Y355680D03*
X734060Y365680D03*
X657860Y109935D03*
X657860Y119935D03*
X676910Y119935D03*
X676910Y109935D03*
X667385Y119935D03*
X667385Y109935D03*
X686435Y116760D03*
X686435Y106760D03*
X705485Y119935D03*
X705485Y109935D03*
X695960Y116760D03*
X695960Y106760D03*
X664845Y257890D03*
X664845Y267890D03*
X664925Y220345D03*
X674925Y220345D03*
X664925Y234315D03*
X674925Y234315D03*
X664925Y248285D03*
X674925Y248285D03*
X684530Y213440D03*
X684530Y223440D03*
X684530Y243920D03*
X684530Y253920D03*
X694610Y233680D03*
X684610Y233680D03*
D19*
X684530Y262382D03*
X684530Y271018D03*
D20*
X678307Y319405D03*
X686943Y319405D03*
D19*
X687070Y327152D03*
X687070Y335788D03*
D20*
X733298Y219710D03*
X724662Y219710D03*
X733298Y270510D03*
X724662Y270510D03*
D21*
X724535Y241110D03*
X724535Y249110D03*
D15*
X676990Y343535D03*
X686990Y343535D03*
X708025Y275035D03*
X708025Y285035D03*
X708025Y299165D03*
X708025Y309165D03*
D22*
X665670Y373355D03*
X657670Y373355D03*
X657670Y354355D03*
X665670Y354355D03*
D15*
X708025Y260270D03*
X708025Y250270D03*
X708025Y226140D03*
X708025Y236140D03*
X681275Y92075D03*
X671275Y92075D03*
D23*
X736600Y81525D03*
X736600Y64525D03*
D15*
X657860Y100250D03*
X657860Y90250D03*
D24*
X691310Y84235D02*
X700010Y84235D01*
X691310Y84235D02*
X691310Y88435D01*
X700010Y88435D01*
X700010Y84235D01*
X700010Y85945D02*
X691310Y85945D01*
X691310Y87655D02*
X700010Y87655D01*
X700010Y74735D02*
X691310Y74735D01*
X691310Y78935D01*
X700010Y78935D01*
X700010Y74735D01*
X700010Y76445D02*
X691310Y76445D01*
X691310Y78155D02*
X700010Y78155D01*
X700010Y65235D02*
X691310Y65235D01*
X691310Y69435D01*
X700010Y69435D01*
X700010Y65235D01*
X700010Y66945D02*
X691310Y66945D01*
X691310Y68655D02*
X700010Y68655D01*
X717310Y65235D02*
X726010Y65235D01*
X717310Y65235D02*
X717310Y69435D01*
X726010Y69435D01*
X726010Y65235D01*
X726010Y66945D02*
X717310Y66945D01*
X717310Y68655D02*
X726010Y68655D01*
X726010Y74735D02*
X717310Y74735D01*
X717310Y78935D01*
X726010Y78935D01*
X726010Y74735D01*
X726010Y76445D02*
X717310Y76445D01*
X717310Y78155D02*
X726010Y78155D01*
X726010Y84235D02*
X717310Y84235D01*
X717310Y88435D01*
X726010Y88435D01*
X726010Y84235D01*
X726010Y85945D02*
X717310Y85945D01*
X717310Y87655D02*
X726010Y87655D01*
D25*
X718345Y121895D03*
X718345Y102895D03*
X739345Y112395D03*
D15*
X657860Y80565D03*
X657860Y70565D03*
X681275Y81915D03*
X671275Y81915D03*
X681275Y71755D03*
X671275Y71755D03*
D26*
X751080Y32455D03*
D27*
X741080Y7455D03*
X736080Y7455D03*
D26*
X656080Y32455D03*
D27*
X731080Y7455D03*
X726080Y7455D03*
X721080Y7455D03*
X716080Y7455D03*
X711080Y7455D03*
X706080Y7455D03*
X701080Y7455D03*
X696080Y7455D03*
X691080Y7455D03*
X686080Y7455D03*
X681080Y7455D03*
X676080Y7455D03*
X671080Y7455D03*
X666080Y7455D03*
D15*
X656035Y324485D03*
X666035Y324485D03*
X655955Y304880D03*
X655955Y314880D03*
X658495Y389335D03*
X658495Y399335D03*
X748665Y389335D03*
X748665Y399335D03*
D10*
X837370Y133640D03*
X842370Y133640D03*
X847370Y133640D03*
X852370Y133640D03*
X857370Y133640D03*
X862370Y133640D03*
X867370Y133640D03*
X872370Y133640D03*
X877370Y133640D03*
X882370Y133640D03*
X887370Y133640D03*
X892370Y133640D03*
D11*
X898870Y140140D03*
X898870Y145140D03*
X898870Y150140D03*
X898870Y155140D03*
X898870Y160140D03*
X898870Y165140D03*
X898870Y170140D03*
X898870Y175140D03*
X898870Y180140D03*
X898870Y185140D03*
X898870Y190140D03*
X898870Y195140D03*
D10*
X892370Y201640D03*
X887370Y201640D03*
X882370Y201640D03*
X877370Y201640D03*
X872370Y201640D03*
X867370Y201640D03*
X862370Y201640D03*
X857370Y201640D03*
X852370Y201640D03*
X847370Y201640D03*
X842370Y201640D03*
X837370Y201640D03*
D11*
X830870Y195140D03*
X830870Y190140D03*
X830870Y185140D03*
X830870Y180140D03*
X830870Y175140D03*
X830870Y170140D03*
X830870Y165140D03*
X830870Y160140D03*
X830870Y155140D03*
X830870Y150140D03*
X830870Y145140D03*
X830870Y140140D03*
D12*
X849870Y155140D03*
X849870Y180140D03*
X879870Y180140D03*
X879870Y155140D03*
X864870Y155140D03*
X864870Y180140D03*
D13*
X837050Y280140D03*
X842050Y280140D03*
X847050Y280140D03*
X852050Y280140D03*
D14*
X859050Y287140D03*
X859050Y292140D03*
X859050Y297140D03*
X859050Y302140D03*
D13*
X852050Y309140D03*
X847050Y309140D03*
X842050Y309140D03*
X837050Y309140D03*
D14*
X830050Y302140D03*
X830050Y297140D03*
X830050Y292140D03*
X830050Y287140D03*
D15*
X839550Y289640D03*
X839550Y299640D03*
X849550Y299640D03*
X849550Y289640D03*
D16*
X871070Y333170D03*
X877570Y333170D03*
X884070Y333170D03*
X884070Y355170D03*
X877570Y355170D03*
X871070Y355170D03*
D15*
X859155Y333455D03*
X859155Y343455D03*
X887095Y292020D03*
X887095Y282020D03*
X867490Y365760D03*
X877490Y365760D03*
D17*
X855980Y369560D03*
D18*
X869980Y385810D03*
X841980Y385810D03*
D15*
X857170Y356235D03*
X847170Y356235D03*
X896620Y355680D03*
X896620Y365680D03*
X820420Y109935D03*
X820420Y119935D03*
X839470Y119935D03*
X839470Y109935D03*
X829945Y119935D03*
X829945Y109935D03*
X848995Y116760D03*
X848995Y106760D03*
X868045Y119935D03*
X868045Y109935D03*
X858520Y116760D03*
X858520Y106760D03*
X827405Y257890D03*
X827405Y267890D03*
X827485Y220345D03*
X837485Y220345D03*
X827485Y234315D03*
X837485Y234315D03*
X827485Y248285D03*
X837485Y248285D03*
X847090Y213440D03*
X847090Y223440D03*
X847090Y243920D03*
X847090Y253920D03*
X857170Y233680D03*
X847170Y233680D03*
D19*
X847090Y262382D03*
X847090Y271018D03*
D20*
X840867Y319405D03*
X849503Y319405D03*
D19*
X849630Y327152D03*
X849630Y335788D03*
D20*
X895858Y219710D03*
X887222Y219710D03*
X895858Y270510D03*
X887222Y270510D03*
D21*
X887095Y241110D03*
X887095Y249110D03*
D15*
X839550Y343535D03*
X849550Y343535D03*
X870585Y275035D03*
X870585Y285035D03*
X870585Y299165D03*
X870585Y309165D03*
D22*
X828230Y373355D03*
X820230Y373355D03*
X820230Y354355D03*
X828230Y354355D03*
D15*
X870585Y260270D03*
X870585Y250270D03*
X870585Y226140D03*
X870585Y236140D03*
X843835Y92075D03*
X833835Y92075D03*
D23*
X899160Y81525D03*
X899160Y64525D03*
D15*
X820420Y100250D03*
X820420Y90250D03*
D24*
X853870Y84235D02*
X862570Y84235D01*
X853870Y84235D02*
X853870Y88435D01*
X862570Y88435D01*
X862570Y84235D01*
X862570Y85945D02*
X853870Y85945D01*
X853870Y87655D02*
X862570Y87655D01*
X862570Y74735D02*
X853870Y74735D01*
X853870Y78935D01*
X862570Y78935D01*
X862570Y74735D01*
X862570Y76445D02*
X853870Y76445D01*
X853870Y78155D02*
X862570Y78155D01*
X862570Y65235D02*
X853870Y65235D01*
X853870Y69435D01*
X862570Y69435D01*
X862570Y65235D01*
X862570Y66945D02*
X853870Y66945D01*
X853870Y68655D02*
X862570Y68655D01*
X879870Y65235D02*
X888570Y65235D01*
X879870Y65235D02*
X879870Y69435D01*
X888570Y69435D01*
X888570Y65235D01*
X888570Y66945D02*
X879870Y66945D01*
X879870Y68655D02*
X888570Y68655D01*
X888570Y74735D02*
X879870Y74735D01*
X879870Y78935D01*
X888570Y78935D01*
X888570Y74735D01*
X888570Y76445D02*
X879870Y76445D01*
X879870Y78155D02*
X888570Y78155D01*
X888570Y84235D02*
X879870Y84235D01*
X879870Y88435D01*
X888570Y88435D01*
X888570Y84235D01*
X888570Y85945D02*
X879870Y85945D01*
X879870Y87655D02*
X888570Y87655D01*
D25*
X880905Y121895D03*
X880905Y102895D03*
X901905Y112395D03*
D15*
X820420Y80565D03*
X820420Y70565D03*
X843835Y81915D03*
X833835Y81915D03*
X843835Y71755D03*
X833835Y71755D03*
D26*
X913640Y32455D03*
D27*
X903640Y7455D03*
X898640Y7455D03*
D26*
X818640Y32455D03*
D27*
X893640Y7455D03*
X888640Y7455D03*
X883640Y7455D03*
X878640Y7455D03*
X873640Y7455D03*
X868640Y7455D03*
X863640Y7455D03*
X858640Y7455D03*
X853640Y7455D03*
X848640Y7455D03*
X843640Y7455D03*
X838640Y7455D03*
X833640Y7455D03*
X828640Y7455D03*
D15*
X818595Y324485D03*
X828595Y324485D03*
X818515Y304880D03*
X818515Y314880D03*
X821055Y389335D03*
X821055Y399335D03*
X911225Y389335D03*
X911225Y399335D03*
D10*
X999930Y133640D03*
X1004930Y133640D03*
X1009930Y133640D03*
X1014930Y133640D03*
X1019930Y133640D03*
X1024930Y133640D03*
X1029930Y133640D03*
X1034930Y133640D03*
X1039930Y133640D03*
X1044930Y133640D03*
X1049930Y133640D03*
X1054930Y133640D03*
D11*
X1061430Y140140D03*
X1061430Y145140D03*
X1061430Y150140D03*
X1061430Y155140D03*
X1061430Y160140D03*
X1061430Y165140D03*
X1061430Y170140D03*
X1061430Y175140D03*
X1061430Y180140D03*
X1061430Y185140D03*
X1061430Y190140D03*
X1061430Y195140D03*
D10*
X1054930Y201640D03*
X1049930Y201640D03*
X1044930Y201640D03*
X1039930Y201640D03*
X1034930Y201640D03*
X1029930Y201640D03*
X1024930Y201640D03*
X1019930Y201640D03*
X1014930Y201640D03*
X1009930Y201640D03*
X1004930Y201640D03*
X999930Y201640D03*
D11*
X993430Y195140D03*
X993430Y190140D03*
X993430Y185140D03*
X993430Y180140D03*
X993430Y175140D03*
X993430Y170140D03*
X993430Y165140D03*
X993430Y160140D03*
X993430Y155140D03*
X993430Y150140D03*
X993430Y145140D03*
X993430Y140140D03*
D12*
X1012430Y155140D03*
X1012430Y180140D03*
X1042430Y180140D03*
X1042430Y155140D03*
X1027430Y155140D03*
X1027430Y180140D03*
D13*
X999610Y280140D03*
X1004610Y280140D03*
X1009610Y280140D03*
X1014610Y280140D03*
D14*
X1021610Y287140D03*
X1021610Y292140D03*
X1021610Y297140D03*
X1021610Y302140D03*
D13*
X1014610Y309140D03*
X1009610Y309140D03*
X1004610Y309140D03*
X999610Y309140D03*
D14*
X992610Y302140D03*
X992610Y297140D03*
X992610Y292140D03*
X992610Y287140D03*
D15*
X1002110Y289640D03*
X1002110Y299640D03*
X1012110Y299640D03*
X1012110Y289640D03*
D16*
X1033630Y333170D03*
X1040130Y333170D03*
X1046630Y333170D03*
X1046630Y355170D03*
X1040130Y355170D03*
X1033630Y355170D03*
D15*
X1021715Y333455D03*
X1021715Y343455D03*
X1049655Y292020D03*
X1049655Y282020D03*
X1030050Y365760D03*
X1040050Y365760D03*
D17*
X1018540Y369560D03*
D18*
X1032540Y385810D03*
X1004540Y385810D03*
D15*
X1019730Y356235D03*
X1009730Y356235D03*
X1059180Y355680D03*
X1059180Y365680D03*
X982980Y109935D03*
X982980Y119935D03*
X1002030Y119935D03*
X1002030Y109935D03*
X992505Y119935D03*
X992505Y109935D03*
X1011555Y116760D03*
X1011555Y106760D03*
X1030605Y119935D03*
X1030605Y109935D03*
X1021080Y116760D03*
X1021080Y106760D03*
X989965Y257890D03*
X989965Y267890D03*
X990045Y220345D03*
X1000045Y220345D03*
X990045Y234315D03*
X1000045Y234315D03*
X990045Y248285D03*
X1000045Y248285D03*
X1009650Y213440D03*
X1009650Y223440D03*
X1009650Y243920D03*
X1009650Y253920D03*
X1019730Y233680D03*
X1009730Y233680D03*
D19*
X1009650Y262382D03*
X1009650Y271018D03*
D20*
X1003427Y319405D03*
X1012063Y319405D03*
D19*
X1012190Y327152D03*
X1012190Y335788D03*
D20*
X1058418Y219710D03*
X1049782Y219710D03*
X1058418Y270510D03*
X1049782Y270510D03*
D21*
X1049655Y241110D03*
X1049655Y249110D03*
D15*
X1002110Y343535D03*
X1012110Y343535D03*
X1033145Y275035D03*
X1033145Y285035D03*
X1033145Y299165D03*
X1033145Y309165D03*
D22*
X990790Y373355D03*
X982790Y373355D03*
X982790Y354355D03*
X990790Y354355D03*
D15*
X1033145Y260270D03*
X1033145Y250270D03*
X1033145Y226140D03*
X1033145Y236140D03*
X1006395Y92075D03*
X996395Y92075D03*
D23*
X1061720Y81525D03*
X1061720Y64525D03*
D15*
X982980Y100250D03*
X982980Y90250D03*
D24*
X1016430Y84235D02*
X1025130Y84235D01*
X1016430Y84235D02*
X1016430Y88435D01*
X1025130Y88435D01*
X1025130Y84235D01*
X1025130Y85945D02*
X1016430Y85945D01*
X1016430Y87655D02*
X1025130Y87655D01*
X1025130Y74735D02*
X1016430Y74735D01*
X1016430Y78935D01*
X1025130Y78935D01*
X1025130Y74735D01*
X1025130Y76445D02*
X1016430Y76445D01*
X1016430Y78155D02*
X1025130Y78155D01*
X1025130Y65235D02*
X1016430Y65235D01*
X1016430Y69435D01*
X1025130Y69435D01*
X1025130Y65235D01*
X1025130Y66945D02*
X1016430Y66945D01*
X1016430Y68655D02*
X1025130Y68655D01*
X1042430Y65235D02*
X1051130Y65235D01*
X1042430Y65235D02*
X1042430Y69435D01*
X1051130Y69435D01*
X1051130Y65235D01*
X1051130Y66945D02*
X1042430Y66945D01*
X1042430Y68655D02*
X1051130Y68655D01*
X1051130Y74735D02*
X1042430Y74735D01*
X1042430Y78935D01*
X1051130Y78935D01*
X1051130Y74735D01*
X1051130Y76445D02*
X1042430Y76445D01*
X1042430Y78155D02*
X1051130Y78155D01*
X1051130Y84235D02*
X1042430Y84235D01*
X1042430Y88435D01*
X1051130Y88435D01*
X1051130Y84235D01*
X1051130Y85945D02*
X1042430Y85945D01*
X1042430Y87655D02*
X1051130Y87655D01*
D25*
X1043465Y121895D03*
X1043465Y102895D03*
X1064465Y112395D03*
D15*
X982980Y80565D03*
X982980Y70565D03*
X1006395Y81915D03*
X996395Y81915D03*
X1006395Y71755D03*
X996395Y71755D03*
D26*
X1076200Y32455D03*
D27*
X1066200Y7455D03*
X1061200Y7455D03*
D26*
X981200Y32455D03*
D27*
X1056200Y7455D03*
X1051200Y7455D03*
X1046200Y7455D03*
X1041200Y7455D03*
X1036200Y7455D03*
X1031200Y7455D03*
X1026200Y7455D03*
X1021200Y7455D03*
X1016200Y7455D03*
X1011200Y7455D03*
X1006200Y7455D03*
X1001200Y7455D03*
X996200Y7455D03*
X991200Y7455D03*
D15*
X981155Y324485D03*
X991155Y324485D03*
X981075Y304880D03*
X981075Y314880D03*
X983615Y389335D03*
X983615Y399335D03*
X1073785Y389335D03*
X1073785Y399335D03*
D10*
X1162490Y133640D03*
X1167490Y133640D03*
X1172490Y133640D03*
X1177490Y133640D03*
X1182490Y133640D03*
X1187490Y133640D03*
X1192490Y133640D03*
X1197490Y133640D03*
X1202490Y133640D03*
X1207490Y133640D03*
X1212490Y133640D03*
X1217490Y133640D03*
D11*
X1223990Y140140D03*
X1223990Y145140D03*
X1223990Y150140D03*
X1223990Y155140D03*
X1223990Y160140D03*
X1223990Y165140D03*
X1223990Y170140D03*
X1223990Y175140D03*
X1223990Y180140D03*
X1223990Y185140D03*
X1223990Y190140D03*
X1223990Y195140D03*
D10*
X1217490Y201640D03*
X1212490Y201640D03*
X1207490Y201640D03*
X1202490Y201640D03*
X1197490Y201640D03*
X1192490Y201640D03*
X1187490Y201640D03*
X1182490Y201640D03*
X1177490Y201640D03*
X1172490Y201640D03*
X1167490Y201640D03*
X1162490Y201640D03*
D11*
X1155990Y195140D03*
X1155990Y190140D03*
X1155990Y185140D03*
X1155990Y180140D03*
X1155990Y175140D03*
X1155990Y170140D03*
X1155990Y165140D03*
X1155990Y160140D03*
X1155990Y155140D03*
X1155990Y150140D03*
X1155990Y145140D03*
X1155990Y140140D03*
D12*
X1174990Y155140D03*
X1174990Y180140D03*
X1204990Y180140D03*
X1204990Y155140D03*
X1189990Y155140D03*
X1189990Y180140D03*
D13*
X1162170Y280140D03*
X1167170Y280140D03*
X1172170Y280140D03*
X1177170Y280140D03*
D14*
X1184170Y287140D03*
X1184170Y292140D03*
X1184170Y297140D03*
X1184170Y302140D03*
D13*
X1177170Y309140D03*
X1172170Y309140D03*
X1167170Y309140D03*
X1162170Y309140D03*
D14*
X1155170Y302140D03*
X1155170Y297140D03*
X1155170Y292140D03*
X1155170Y287140D03*
D15*
X1164670Y289640D03*
X1164670Y299640D03*
X1174670Y299640D03*
X1174670Y289640D03*
D16*
X1196190Y333170D03*
X1202690Y333170D03*
X1209190Y333170D03*
X1209190Y355170D03*
X1202690Y355170D03*
X1196190Y355170D03*
D15*
X1184275Y333455D03*
X1184275Y343455D03*
X1212215Y292020D03*
X1212215Y282020D03*
X1192610Y365760D03*
X1202610Y365760D03*
D17*
X1181100Y369560D03*
D18*
X1195100Y385810D03*
X1167100Y385810D03*
D15*
X1182290Y356235D03*
X1172290Y356235D03*
X1221740Y355680D03*
X1221740Y365680D03*
X1145540Y109935D03*
X1145540Y119935D03*
X1164590Y119935D03*
X1164590Y109935D03*
X1155065Y119935D03*
X1155065Y109935D03*
X1174115Y116760D03*
X1174115Y106760D03*
X1193165Y119935D03*
X1193165Y109935D03*
X1183640Y116760D03*
X1183640Y106760D03*
X1152525Y257890D03*
X1152525Y267890D03*
X1152605Y220345D03*
X1162605Y220345D03*
X1152605Y234315D03*
X1162605Y234315D03*
X1152605Y248285D03*
X1162605Y248285D03*
X1172210Y213440D03*
X1172210Y223440D03*
X1172210Y243920D03*
X1172210Y253920D03*
X1182290Y233680D03*
X1172290Y233680D03*
D19*
X1172210Y262382D03*
X1172210Y271018D03*
D20*
X1165987Y319405D03*
X1174623Y319405D03*
D19*
X1174750Y327152D03*
X1174750Y335788D03*
D20*
X1220978Y219710D03*
X1212342Y219710D03*
X1220978Y270510D03*
X1212342Y270510D03*
D21*
X1212215Y241110D03*
X1212215Y249110D03*
D15*
X1164670Y343535D03*
X1174670Y343535D03*
X1195705Y275035D03*
X1195705Y285035D03*
X1195705Y299165D03*
X1195705Y309165D03*
D22*
X1153350Y373355D03*
X1145350Y373355D03*
X1145350Y354355D03*
X1153350Y354355D03*
D15*
X1195705Y260270D03*
X1195705Y250270D03*
X1195705Y226140D03*
X1195705Y236140D03*
X1168955Y92075D03*
X1158955Y92075D03*
D23*
X1224280Y81525D03*
X1224280Y64525D03*
D15*
X1145540Y100250D03*
X1145540Y90250D03*
D24*
X1178990Y84235D02*
X1187690Y84235D01*
X1178990Y84235D02*
X1178990Y88435D01*
X1187690Y88435D01*
X1187690Y84235D01*
X1187690Y85945D02*
X1178990Y85945D01*
X1178990Y87655D02*
X1187690Y87655D01*
X1187690Y74735D02*
X1178990Y74735D01*
X1178990Y78935D01*
X1187690Y78935D01*
X1187690Y74735D01*
X1187690Y76445D02*
X1178990Y76445D01*
X1178990Y78155D02*
X1187690Y78155D01*
X1187690Y65235D02*
X1178990Y65235D01*
X1178990Y69435D01*
X1187690Y69435D01*
X1187690Y65235D01*
X1187690Y66945D02*
X1178990Y66945D01*
X1178990Y68655D02*
X1187690Y68655D01*
X1204990Y65235D02*
X1213690Y65235D01*
X1204990Y65235D02*
X1204990Y69435D01*
X1213690Y69435D01*
X1213690Y65235D01*
X1213690Y66945D02*
X1204990Y66945D01*
X1204990Y68655D02*
X1213690Y68655D01*
X1213690Y74735D02*
X1204990Y74735D01*
X1204990Y78935D01*
X1213690Y78935D01*
X1213690Y74735D01*
X1213690Y76445D02*
X1204990Y76445D01*
X1204990Y78155D02*
X1213690Y78155D01*
X1213690Y84235D02*
X1204990Y84235D01*
X1204990Y88435D01*
X1213690Y88435D01*
X1213690Y84235D01*
X1213690Y85945D02*
X1204990Y85945D01*
X1204990Y87655D02*
X1213690Y87655D01*
D25*
X1206025Y121895D03*
X1206025Y102895D03*
X1227025Y112395D03*
D15*
X1145540Y80565D03*
X1145540Y70565D03*
X1168955Y81915D03*
X1158955Y81915D03*
X1168955Y71755D03*
X1158955Y71755D03*
D26*
X1238760Y32455D03*
D27*
X1228760Y7455D03*
X1223760Y7455D03*
D26*
X1143760Y32455D03*
D27*
X1218760Y7455D03*
X1213760Y7455D03*
X1208760Y7455D03*
X1203760Y7455D03*
X1198760Y7455D03*
X1193760Y7455D03*
X1188760Y7455D03*
X1183760Y7455D03*
X1178760Y7455D03*
X1173760Y7455D03*
X1168760Y7455D03*
X1163760Y7455D03*
X1158760Y7455D03*
X1153760Y7455D03*
D15*
X1143715Y324485D03*
X1153715Y324485D03*
X1143635Y304880D03*
X1143635Y314880D03*
X1146175Y389335D03*
X1146175Y399335D03*
X1236345Y389335D03*
X1236345Y399335D03*
D10*
X1325050Y133640D03*
X1330050Y133640D03*
X1335050Y133640D03*
X1340050Y133640D03*
X1345050Y133640D03*
X1350050Y133640D03*
X1355050Y133640D03*
X1360050Y133640D03*
X1365050Y133640D03*
X1370050Y133640D03*
X1375050Y133640D03*
X1380050Y133640D03*
D11*
X1386550Y140140D03*
X1386550Y145140D03*
X1386550Y150140D03*
X1386550Y155140D03*
X1386550Y160140D03*
X1386550Y165140D03*
X1386550Y170140D03*
X1386550Y175140D03*
X1386550Y180140D03*
X1386550Y185140D03*
X1386550Y190140D03*
X1386550Y195140D03*
D10*
X1380050Y201640D03*
X1375050Y201640D03*
X1370050Y201640D03*
X1365050Y201640D03*
X1360050Y201640D03*
X1355050Y201640D03*
X1350050Y201640D03*
X1345050Y201640D03*
X1340050Y201640D03*
X1335050Y201640D03*
X1330050Y201640D03*
X1325050Y201640D03*
D11*
X1318550Y195140D03*
X1318550Y190140D03*
X1318550Y185140D03*
X1318550Y180140D03*
X1318550Y175140D03*
X1318550Y170140D03*
X1318550Y165140D03*
X1318550Y160140D03*
X1318550Y155140D03*
X1318550Y150140D03*
X1318550Y145140D03*
X1318550Y140140D03*
D12*
X1337550Y155140D03*
X1337550Y180140D03*
X1367550Y180140D03*
X1367550Y155140D03*
X1352550Y155140D03*
X1352550Y180140D03*
D13*
X1324730Y280140D03*
X1329730Y280140D03*
X1334730Y280140D03*
X1339730Y280140D03*
D14*
X1346730Y287140D03*
X1346730Y292140D03*
X1346730Y297140D03*
X1346730Y302140D03*
D13*
X1339730Y309140D03*
X1334730Y309140D03*
X1329730Y309140D03*
X1324730Y309140D03*
D14*
X1317730Y302140D03*
X1317730Y297140D03*
X1317730Y292140D03*
X1317730Y287140D03*
D15*
X1327230Y289640D03*
X1327230Y299640D03*
X1337230Y299640D03*
X1337230Y289640D03*
D16*
X1358750Y333170D03*
X1365250Y333170D03*
X1371750Y333170D03*
X1371750Y355170D03*
X1365250Y355170D03*
X1358750Y355170D03*
D15*
X1346835Y333455D03*
X1346835Y343455D03*
X1374775Y292020D03*
X1374775Y282020D03*
X1355170Y365760D03*
X1365170Y365760D03*
D17*
X1343660Y369560D03*
D18*
X1357660Y385810D03*
X1329660Y385810D03*
D15*
X1344850Y356235D03*
X1334850Y356235D03*
X1384300Y355680D03*
X1384300Y365680D03*
X1308100Y109935D03*
X1308100Y119935D03*
X1327150Y119935D03*
X1327150Y109935D03*
X1317625Y119935D03*
X1317625Y109935D03*
X1336675Y116760D03*
X1336675Y106760D03*
X1355725Y119935D03*
X1355725Y109935D03*
X1346200Y116760D03*
X1346200Y106760D03*
X1315085Y257890D03*
X1315085Y267890D03*
X1315165Y220345D03*
X1325165Y220345D03*
X1315165Y234315D03*
X1325165Y234315D03*
X1315165Y248285D03*
X1325165Y248285D03*
X1334770Y213440D03*
X1334770Y223440D03*
X1334770Y243920D03*
X1334770Y253920D03*
X1344850Y233680D03*
X1334850Y233680D03*
D19*
X1334770Y262382D03*
X1334770Y271018D03*
D20*
X1328547Y319405D03*
X1337183Y319405D03*
D19*
X1337310Y327152D03*
X1337310Y335788D03*
D20*
X1383538Y219710D03*
X1374902Y219710D03*
X1383538Y270510D03*
X1374902Y270510D03*
D21*
X1374775Y241110D03*
X1374775Y249110D03*
D15*
X1327230Y343535D03*
X1337230Y343535D03*
X1358265Y275035D03*
X1358265Y285035D03*
X1358265Y299165D03*
X1358265Y309165D03*
D22*
X1315910Y373355D03*
X1307910Y373355D03*
X1307910Y354355D03*
X1315910Y354355D03*
D15*
X1358265Y260270D03*
X1358265Y250270D03*
X1358265Y226140D03*
X1358265Y236140D03*
X1331515Y92075D03*
X1321515Y92075D03*
D23*
X1386840Y81525D03*
X1386840Y64525D03*
D15*
X1308100Y100250D03*
X1308100Y90250D03*
D24*
X1341550Y84235D02*
X1350250Y84235D01*
X1341550Y84235D02*
X1341550Y88435D01*
X1350250Y88435D01*
X1350250Y84235D01*
X1350250Y85945D02*
X1341550Y85945D01*
X1341550Y87655D02*
X1350250Y87655D01*
X1350250Y74735D02*
X1341550Y74735D01*
X1341550Y78935D01*
X1350250Y78935D01*
X1350250Y74735D01*
X1350250Y76445D02*
X1341550Y76445D01*
X1341550Y78155D02*
X1350250Y78155D01*
X1350250Y65235D02*
X1341550Y65235D01*
X1341550Y69435D01*
X1350250Y69435D01*
X1350250Y65235D01*
X1350250Y66945D02*
X1341550Y66945D01*
X1341550Y68655D02*
X1350250Y68655D01*
X1367550Y65235D02*
X1376250Y65235D01*
X1367550Y65235D02*
X1367550Y69435D01*
X1376250Y69435D01*
X1376250Y65235D01*
X1376250Y66945D02*
X1367550Y66945D01*
X1367550Y68655D02*
X1376250Y68655D01*
X1376250Y74735D02*
X1367550Y74735D01*
X1367550Y78935D01*
X1376250Y78935D01*
X1376250Y74735D01*
X1376250Y76445D02*
X1367550Y76445D01*
X1367550Y78155D02*
X1376250Y78155D01*
X1376250Y84235D02*
X1367550Y84235D01*
X1367550Y88435D01*
X1376250Y88435D01*
X1376250Y84235D01*
X1376250Y85945D02*
X1367550Y85945D01*
X1367550Y87655D02*
X1376250Y87655D01*
D25*
X1368585Y121895D03*
X1368585Y102895D03*
X1389585Y112395D03*
D15*
X1308100Y80565D03*
X1308100Y70565D03*
X1331515Y81915D03*
X1321515Y81915D03*
X1331515Y71755D03*
X1321515Y71755D03*
D26*
X1401320Y32455D03*
D27*
X1391320Y7455D03*
X1386320Y7455D03*
D26*
X1306320Y32455D03*
D27*
X1381320Y7455D03*
X1376320Y7455D03*
X1371320Y7455D03*
X1366320Y7455D03*
X1361320Y7455D03*
X1356320Y7455D03*
X1351320Y7455D03*
X1346320Y7455D03*
X1341320Y7455D03*
X1336320Y7455D03*
X1331320Y7455D03*
X1326320Y7455D03*
X1321320Y7455D03*
X1316320Y7455D03*
D15*
X1306275Y324485D03*
X1316275Y324485D03*
X1306195Y304880D03*
X1306195Y314880D03*
X1308735Y389335D03*
X1308735Y399335D03*
X1398905Y389335D03*
X1398905Y399335D03*
D10*
X1487610Y133640D03*
X1492610Y133640D03*
X1497610Y133640D03*
X1502610Y133640D03*
X1507610Y133640D03*
X1512610Y133640D03*
X1517610Y133640D03*
X1522610Y133640D03*
X1527610Y133640D03*
X1532610Y133640D03*
X1537610Y133640D03*
X1542610Y133640D03*
D11*
X1549110Y140140D03*
X1549110Y145140D03*
X1549110Y150140D03*
X1549110Y155140D03*
X1549110Y160140D03*
X1549110Y165140D03*
X1549110Y170140D03*
X1549110Y175140D03*
X1549110Y180140D03*
X1549110Y185140D03*
X1549110Y190140D03*
X1549110Y195140D03*
D10*
X1542610Y201640D03*
X1537610Y201640D03*
X1532610Y201640D03*
X1527610Y201640D03*
X1522610Y201640D03*
X1517610Y201640D03*
X1512610Y201640D03*
X1507610Y201640D03*
X1502610Y201640D03*
X1497610Y201640D03*
X1492610Y201640D03*
X1487610Y201640D03*
D11*
X1481110Y195140D03*
X1481110Y190140D03*
X1481110Y185140D03*
X1481110Y180140D03*
X1481110Y175140D03*
X1481110Y170140D03*
X1481110Y165140D03*
X1481110Y160140D03*
X1481110Y155140D03*
X1481110Y150140D03*
X1481110Y145140D03*
X1481110Y140140D03*
D12*
X1500110Y155140D03*
X1500110Y180140D03*
X1530110Y180140D03*
X1530110Y155140D03*
X1515110Y155140D03*
X1515110Y180140D03*
D13*
X1487290Y280140D03*
X1492290Y280140D03*
X1497290Y280140D03*
X1502290Y280140D03*
D14*
X1509290Y287140D03*
X1509290Y292140D03*
X1509290Y297140D03*
X1509290Y302140D03*
D13*
X1502290Y309140D03*
X1497290Y309140D03*
X1492290Y309140D03*
X1487290Y309140D03*
D14*
X1480290Y302140D03*
X1480290Y297140D03*
X1480290Y292140D03*
X1480290Y287140D03*
D15*
X1489790Y289640D03*
X1489790Y299640D03*
X1499790Y299640D03*
X1499790Y289640D03*
D16*
X1521310Y333170D03*
X1527810Y333170D03*
X1534310Y333170D03*
X1534310Y355170D03*
X1527810Y355170D03*
X1521310Y355170D03*
D15*
X1509395Y333455D03*
X1509395Y343455D03*
X1537335Y292020D03*
X1537335Y282020D03*
X1517730Y365760D03*
X1527730Y365760D03*
D17*
X1506220Y369560D03*
D18*
X1520220Y385810D03*
X1492220Y385810D03*
D15*
X1507410Y356235D03*
X1497410Y356235D03*
X1546860Y355680D03*
X1546860Y365680D03*
X1470660Y109935D03*
X1470660Y119935D03*
X1489710Y119935D03*
X1489710Y109935D03*
X1480185Y119935D03*
X1480185Y109935D03*
X1499235Y116760D03*
X1499235Y106760D03*
X1518285Y119935D03*
X1518285Y109935D03*
X1508760Y116760D03*
X1508760Y106760D03*
X1477645Y257890D03*
X1477645Y267890D03*
X1477725Y220345D03*
X1487725Y220345D03*
X1477725Y234315D03*
X1487725Y234315D03*
X1477725Y248285D03*
X1487725Y248285D03*
X1497330Y213440D03*
X1497330Y223440D03*
X1497330Y243920D03*
X1497330Y253920D03*
X1507410Y233680D03*
X1497410Y233680D03*
D19*
X1497330Y262382D03*
X1497330Y271018D03*
D20*
X1491107Y319405D03*
X1499743Y319405D03*
D19*
X1499870Y327152D03*
X1499870Y335788D03*
D20*
X1546098Y219710D03*
X1537462Y219710D03*
X1546098Y270510D03*
X1537462Y270510D03*
D21*
X1537335Y241110D03*
X1537335Y249110D03*
D15*
X1489790Y343535D03*
X1499790Y343535D03*
X1520825Y275035D03*
X1520825Y285035D03*
X1520825Y299165D03*
X1520825Y309165D03*
D22*
X1478470Y373355D03*
X1470470Y373355D03*
X1470470Y354355D03*
X1478470Y354355D03*
D15*
X1520825Y260270D03*
X1520825Y250270D03*
X1520825Y226140D03*
X1520825Y236140D03*
X1494075Y92075D03*
X1484075Y92075D03*
D23*
X1549400Y81525D03*
X1549400Y64525D03*
D15*
X1470660Y100250D03*
X1470660Y90250D03*
D24*
X1504110Y84235D02*
X1512810Y84235D01*
X1504110Y84235D02*
X1504110Y88435D01*
X1512810Y88435D01*
X1512810Y84235D01*
X1512810Y85945D02*
X1504110Y85945D01*
X1504110Y87655D02*
X1512810Y87655D01*
X1512810Y74735D02*
X1504110Y74735D01*
X1504110Y78935D01*
X1512810Y78935D01*
X1512810Y74735D01*
X1512810Y76445D02*
X1504110Y76445D01*
X1504110Y78155D02*
X1512810Y78155D01*
X1512810Y65235D02*
X1504110Y65235D01*
X1504110Y69435D01*
X1512810Y69435D01*
X1512810Y65235D01*
X1512810Y66945D02*
X1504110Y66945D01*
X1504110Y68655D02*
X1512810Y68655D01*
X1530110Y65235D02*
X1538810Y65235D01*
X1530110Y65235D02*
X1530110Y69435D01*
X1538810Y69435D01*
X1538810Y65235D01*
X1538810Y66945D02*
X1530110Y66945D01*
X1530110Y68655D02*
X1538810Y68655D01*
X1538810Y74735D02*
X1530110Y74735D01*
X1530110Y78935D01*
X1538810Y78935D01*
X1538810Y74735D01*
X1538810Y76445D02*
X1530110Y76445D01*
X1530110Y78155D02*
X1538810Y78155D01*
X1538810Y84235D02*
X1530110Y84235D01*
X1530110Y88435D01*
X1538810Y88435D01*
X1538810Y84235D01*
X1538810Y85945D02*
X1530110Y85945D01*
X1530110Y87655D02*
X1538810Y87655D01*
D25*
X1531145Y121895D03*
X1531145Y102895D03*
X1552145Y112395D03*
D15*
X1470660Y80565D03*
X1470660Y70565D03*
X1494075Y81915D03*
X1484075Y81915D03*
X1494075Y71755D03*
X1484075Y71755D03*
D26*
X1563880Y32455D03*
D27*
X1553880Y7455D03*
X1548880Y7455D03*
D26*
X1468880Y32455D03*
D27*
X1543880Y7455D03*
X1538880Y7455D03*
X1533880Y7455D03*
X1528880Y7455D03*
X1523880Y7455D03*
X1518880Y7455D03*
X1513880Y7455D03*
X1508880Y7455D03*
X1503880Y7455D03*
X1498880Y7455D03*
X1493880Y7455D03*
X1488880Y7455D03*
X1483880Y7455D03*
X1478880Y7455D03*
D15*
X1468835Y324485D03*
X1478835Y324485D03*
X1468755Y304880D03*
X1468755Y314880D03*
X1471295Y389335D03*
X1471295Y399335D03*
X1561465Y389335D03*
X1561465Y399335D03*
D10*
X24570Y545120D03*
X29570Y545120D03*
X34570Y545120D03*
X39570Y545120D03*
X44570Y545120D03*
X49570Y545120D03*
X54570Y545120D03*
X59570Y545120D03*
X64570Y545120D03*
X69570Y545120D03*
X74570Y545120D03*
X79570Y545120D03*
D11*
X86070Y551620D03*
X86070Y556620D03*
X86070Y561620D03*
X86070Y566620D03*
X86070Y571620D03*
X86070Y576620D03*
X86070Y581620D03*
X86070Y586620D03*
X86070Y591620D03*
X86070Y596620D03*
X86070Y601620D03*
X86070Y606620D03*
D10*
X79570Y613120D03*
X74570Y613120D03*
X69570Y613120D03*
X64570Y613120D03*
X59570Y613120D03*
X54570Y613120D03*
X49570Y613120D03*
X44570Y613120D03*
X39570Y613120D03*
X34570Y613120D03*
X29570Y613120D03*
X24570Y613120D03*
D11*
X18070Y606620D03*
X18070Y601620D03*
X18070Y596620D03*
X18070Y591620D03*
X18070Y586620D03*
X18070Y581620D03*
X18070Y576620D03*
X18070Y571620D03*
X18070Y566620D03*
X18070Y561620D03*
X18070Y556620D03*
X18070Y551620D03*
D12*
X37070Y566620D03*
X37070Y591620D03*
X67070Y591620D03*
X67070Y566620D03*
X52070Y566620D03*
X52070Y591620D03*
D13*
X24250Y691620D03*
X29250Y691620D03*
X34250Y691620D03*
X39250Y691620D03*
D14*
X46250Y698620D03*
X46250Y703620D03*
X46250Y708620D03*
X46250Y713620D03*
D13*
X39250Y720620D03*
X34250Y720620D03*
X29250Y720620D03*
X24250Y720620D03*
D14*
X17250Y713620D03*
X17250Y708620D03*
X17250Y703620D03*
X17250Y698620D03*
D15*
X26750Y701120D03*
X26750Y711120D03*
X36750Y711120D03*
X36750Y701120D03*
D16*
X58270Y744650D03*
X64770Y744650D03*
X71270Y744650D03*
X71270Y766650D03*
X64770Y766650D03*
X58270Y766650D03*
D15*
X46355Y744935D03*
X46355Y754935D03*
X74295Y703500D03*
X74295Y693500D03*
X54690Y777240D03*
X64690Y777240D03*
D17*
X43180Y781040D03*
D18*
X57180Y797290D03*
X29180Y797290D03*
D15*
X44370Y767715D03*
X34370Y767715D03*
X83820Y767160D03*
X83820Y777160D03*
X7620Y521415D03*
X7620Y531415D03*
X26670Y531415D03*
X26670Y521415D03*
X17145Y531415D03*
X17145Y521415D03*
X36195Y528240D03*
X36195Y518240D03*
X55245Y531415D03*
X55245Y521415D03*
X45720Y528240D03*
X45720Y518240D03*
X14605Y669370D03*
X14605Y679370D03*
X14685Y631825D03*
X24685Y631825D03*
X14685Y645795D03*
X24685Y645795D03*
X14685Y659765D03*
X24685Y659765D03*
X34290Y624920D03*
X34290Y634920D03*
X34290Y655400D03*
X34290Y665400D03*
X44370Y645160D03*
X34370Y645160D03*
D19*
X34290Y673862D03*
X34290Y682498D03*
D20*
X28067Y730885D03*
X36703Y730885D03*
D19*
X36830Y738632D03*
X36830Y747268D03*
D20*
X83058Y631190D03*
X74422Y631190D03*
X83058Y681990D03*
X74422Y681990D03*
D21*
X74295Y652590D03*
X74295Y660590D03*
D15*
X26750Y755015D03*
X36750Y755015D03*
X57785Y686515D03*
X57785Y696515D03*
X57785Y710645D03*
X57785Y720645D03*
D22*
X15430Y784835D03*
X7430Y784835D03*
X7430Y765835D03*
X15430Y765835D03*
D15*
X57785Y671750D03*
X57785Y661750D03*
X57785Y637620D03*
X57785Y647620D03*
X31035Y503555D03*
X21035Y503555D03*
D23*
X86360Y493005D03*
X86360Y476005D03*
D15*
X7620Y511730D03*
X7620Y501730D03*
D24*
X41070Y495715D02*
X49770Y495715D01*
X41070Y495715D02*
X41070Y499915D01*
X49770Y499915D01*
X49770Y495715D01*
X49770Y497425D02*
X41070Y497425D01*
X41070Y499135D02*
X49770Y499135D01*
X49770Y486215D02*
X41070Y486215D01*
X41070Y490415D01*
X49770Y490415D01*
X49770Y486215D01*
X49770Y487925D02*
X41070Y487925D01*
X41070Y489635D02*
X49770Y489635D01*
X49770Y476715D02*
X41070Y476715D01*
X41070Y480915D01*
X49770Y480915D01*
X49770Y476715D01*
X49770Y478425D02*
X41070Y478425D01*
X41070Y480135D02*
X49770Y480135D01*
X67070Y476715D02*
X75770Y476715D01*
X67070Y476715D02*
X67070Y480915D01*
X75770Y480915D01*
X75770Y476715D01*
X75770Y478425D02*
X67070Y478425D01*
X67070Y480135D02*
X75770Y480135D01*
X75770Y486215D02*
X67070Y486215D01*
X67070Y490415D01*
X75770Y490415D01*
X75770Y486215D01*
X75770Y487925D02*
X67070Y487925D01*
X67070Y489635D02*
X75770Y489635D01*
X75770Y495715D02*
X67070Y495715D01*
X67070Y499915D01*
X75770Y499915D01*
X75770Y495715D01*
X75770Y497425D02*
X67070Y497425D01*
X67070Y499135D02*
X75770Y499135D01*
D25*
X68105Y533375D03*
X68105Y514375D03*
X89105Y523875D03*
D15*
X7620Y492045D03*
X7620Y482045D03*
X31035Y493395D03*
X21035Y493395D03*
X31035Y483235D03*
X21035Y483235D03*
D26*
X100840Y443935D03*
D27*
X90840Y418935D03*
X85840Y418935D03*
D26*
X5840Y443935D03*
D27*
X80840Y418935D03*
X75840Y418935D03*
X70840Y418935D03*
X65840Y418935D03*
X60840Y418935D03*
X55840Y418935D03*
X50840Y418935D03*
X45840Y418935D03*
X40840Y418935D03*
X35840Y418935D03*
X30840Y418935D03*
X25840Y418935D03*
X20840Y418935D03*
X15840Y418935D03*
D15*
X5795Y735965D03*
X15795Y735965D03*
X5715Y716360D03*
X5715Y726360D03*
X8255Y800815D03*
X8255Y810815D03*
X98425Y800815D03*
X98425Y810815D03*
D10*
X187130Y545120D03*
X192130Y545120D03*
X197130Y545120D03*
X202130Y545120D03*
X207130Y545120D03*
X212130Y545120D03*
X217130Y545120D03*
X222130Y545120D03*
X227130Y545120D03*
X232130Y545120D03*
X237130Y545120D03*
X242130Y545120D03*
D11*
X248630Y551620D03*
X248630Y556620D03*
X248630Y561620D03*
X248630Y566620D03*
X248630Y571620D03*
X248630Y576620D03*
X248630Y581620D03*
X248630Y586620D03*
X248630Y591620D03*
X248630Y596620D03*
X248630Y601620D03*
X248630Y606620D03*
D10*
X242130Y613120D03*
X237130Y613120D03*
X232130Y613120D03*
X227130Y613120D03*
X222130Y613120D03*
X217130Y613120D03*
X212130Y613120D03*
X207130Y613120D03*
X202130Y613120D03*
X197130Y613120D03*
X192130Y613120D03*
X187130Y613120D03*
D11*
X180630Y606620D03*
X180630Y601620D03*
X180630Y596620D03*
X180630Y591620D03*
X180630Y586620D03*
X180630Y581620D03*
X180630Y576620D03*
X180630Y571620D03*
X180630Y566620D03*
X180630Y561620D03*
X180630Y556620D03*
X180630Y551620D03*
D12*
X199630Y566620D03*
X199630Y591620D03*
X229630Y591620D03*
X229630Y566620D03*
X214630Y566620D03*
X214630Y591620D03*
D13*
X186810Y691620D03*
X191810Y691620D03*
X196810Y691620D03*
X201810Y691620D03*
D14*
X208810Y698620D03*
X208810Y703620D03*
X208810Y708620D03*
X208810Y713620D03*
D13*
X201810Y720620D03*
X196810Y720620D03*
X191810Y720620D03*
X186810Y720620D03*
D14*
X179810Y713620D03*
X179810Y708620D03*
X179810Y703620D03*
X179810Y698620D03*
D15*
X189310Y701120D03*
X189310Y711120D03*
X199310Y711120D03*
X199310Y701120D03*
D16*
X220830Y744650D03*
X227330Y744650D03*
X233830Y744650D03*
X233830Y766650D03*
X227330Y766650D03*
X220830Y766650D03*
D15*
X208915Y744935D03*
X208915Y754935D03*
X236855Y703500D03*
X236855Y693500D03*
X217250Y777240D03*
X227250Y777240D03*
D17*
X205740Y781040D03*
D18*
X219740Y797290D03*
X191740Y797290D03*
D15*
X206930Y767715D03*
X196930Y767715D03*
X246380Y767160D03*
X246380Y777160D03*
X170180Y521415D03*
X170180Y531415D03*
X189230Y531415D03*
X189230Y521415D03*
X179705Y531415D03*
X179705Y521415D03*
X198755Y528240D03*
X198755Y518240D03*
X217805Y531415D03*
X217805Y521415D03*
X208280Y528240D03*
X208280Y518240D03*
X177165Y669370D03*
X177165Y679370D03*
X177245Y631825D03*
X187245Y631825D03*
X177245Y645795D03*
X187245Y645795D03*
X177245Y659765D03*
X187245Y659765D03*
X196850Y624920D03*
X196850Y634920D03*
X196850Y655400D03*
X196850Y665400D03*
X206930Y645160D03*
X196930Y645160D03*
D19*
X196850Y673862D03*
X196850Y682498D03*
D20*
X190627Y730885D03*
X199263Y730885D03*
D19*
X199390Y738632D03*
X199390Y747268D03*
D20*
X245618Y631190D03*
X236982Y631190D03*
X245618Y681990D03*
X236982Y681990D03*
D21*
X236855Y652590D03*
X236855Y660590D03*
D15*
X189310Y755015D03*
X199310Y755015D03*
X220345Y686515D03*
X220345Y696515D03*
X220345Y710645D03*
X220345Y720645D03*
D22*
X177990Y784835D03*
X169990Y784835D03*
X169990Y765835D03*
X177990Y765835D03*
D15*
X220345Y671750D03*
X220345Y661750D03*
X220345Y637620D03*
X220345Y647620D03*
X193595Y503555D03*
X183595Y503555D03*
D23*
X248920Y493005D03*
X248920Y476005D03*
D15*
X170180Y511730D03*
X170180Y501730D03*
D24*
X203630Y495715D02*
X212330Y495715D01*
X203630Y495715D02*
X203630Y499915D01*
X212330Y499915D01*
X212330Y495715D01*
X212330Y497425D02*
X203630Y497425D01*
X203630Y499135D02*
X212330Y499135D01*
X212330Y486215D02*
X203630Y486215D01*
X203630Y490415D01*
X212330Y490415D01*
X212330Y486215D01*
X212330Y487925D02*
X203630Y487925D01*
X203630Y489635D02*
X212330Y489635D01*
X212330Y476715D02*
X203630Y476715D01*
X203630Y480915D01*
X212330Y480915D01*
X212330Y476715D01*
X212330Y478425D02*
X203630Y478425D01*
X203630Y480135D02*
X212330Y480135D01*
X229630Y476715D02*
X238330Y476715D01*
X229630Y476715D02*
X229630Y480915D01*
X238330Y480915D01*
X238330Y476715D01*
X238330Y478425D02*
X229630Y478425D01*
X229630Y480135D02*
X238330Y480135D01*
X238330Y486215D02*
X229630Y486215D01*
X229630Y490415D01*
X238330Y490415D01*
X238330Y486215D01*
X238330Y487925D02*
X229630Y487925D01*
X229630Y489635D02*
X238330Y489635D01*
X238330Y495715D02*
X229630Y495715D01*
X229630Y499915D01*
X238330Y499915D01*
X238330Y495715D01*
X238330Y497425D02*
X229630Y497425D01*
X229630Y499135D02*
X238330Y499135D01*
D25*
X230665Y533375D03*
X230665Y514375D03*
X251665Y523875D03*
D15*
X170180Y492045D03*
X170180Y482045D03*
X193595Y493395D03*
X183595Y493395D03*
X193595Y483235D03*
X183595Y483235D03*
D26*
X263400Y443935D03*
D27*
X253400Y418935D03*
X248400Y418935D03*
D26*
X168400Y443935D03*
D27*
X243400Y418935D03*
X238400Y418935D03*
X233400Y418935D03*
X228400Y418935D03*
X223400Y418935D03*
X218400Y418935D03*
X213400Y418935D03*
X208400Y418935D03*
X203400Y418935D03*
X198400Y418935D03*
X193400Y418935D03*
X188400Y418935D03*
X183400Y418935D03*
X178400Y418935D03*
D15*
X168355Y735965D03*
X178355Y735965D03*
X168275Y716360D03*
X168275Y726360D03*
X170815Y800815D03*
X170815Y810815D03*
X260985Y800815D03*
X260985Y810815D03*
D10*
X349690Y545120D03*
X354690Y545120D03*
X359690Y545120D03*
X364690Y545120D03*
X369690Y545120D03*
X374690Y545120D03*
X379690Y545120D03*
X384690Y545120D03*
X389690Y545120D03*
X394690Y545120D03*
X399690Y545120D03*
X404690Y545120D03*
D11*
X411190Y551620D03*
X411190Y556620D03*
X411190Y561620D03*
X411190Y566620D03*
X411190Y571620D03*
X411190Y576620D03*
X411190Y581620D03*
X411190Y586620D03*
X411190Y591620D03*
X411190Y596620D03*
X411190Y601620D03*
X411190Y606620D03*
D10*
X404690Y613120D03*
X399690Y613120D03*
X394690Y613120D03*
X389690Y613120D03*
X384690Y613120D03*
X379690Y613120D03*
X374690Y613120D03*
X369690Y613120D03*
X364690Y613120D03*
X359690Y613120D03*
X354690Y613120D03*
X349690Y613120D03*
D11*
X343190Y606620D03*
X343190Y601620D03*
X343190Y596620D03*
X343190Y591620D03*
X343190Y586620D03*
X343190Y581620D03*
X343190Y576620D03*
X343190Y571620D03*
X343190Y566620D03*
X343190Y561620D03*
X343190Y556620D03*
X343190Y551620D03*
D12*
X362190Y566620D03*
X362190Y591620D03*
X392190Y591620D03*
X392190Y566620D03*
X377190Y566620D03*
X377190Y591620D03*
D13*
X349370Y691620D03*
X354370Y691620D03*
X359370Y691620D03*
X364370Y691620D03*
D14*
X371370Y698620D03*
X371370Y703620D03*
X371370Y708620D03*
X371370Y713620D03*
D13*
X364370Y720620D03*
X359370Y720620D03*
X354370Y720620D03*
X349370Y720620D03*
D14*
X342370Y713620D03*
X342370Y708620D03*
X342370Y703620D03*
X342370Y698620D03*
D15*
X351870Y701120D03*
X351870Y711120D03*
X361870Y711120D03*
X361870Y701120D03*
D16*
X383390Y744650D03*
X389890Y744650D03*
X396390Y744650D03*
X396390Y766650D03*
X389890Y766650D03*
X383390Y766650D03*
D15*
X371475Y744935D03*
X371475Y754935D03*
X399415Y703500D03*
X399415Y693500D03*
X379810Y777240D03*
X389810Y777240D03*
D17*
X368300Y781040D03*
D18*
X382300Y797290D03*
X354300Y797290D03*
D15*
X369490Y767715D03*
X359490Y767715D03*
X408940Y767160D03*
X408940Y777160D03*
X332740Y521415D03*
X332740Y531415D03*
X351790Y531415D03*
X351790Y521415D03*
X342265Y531415D03*
X342265Y521415D03*
X361315Y528240D03*
X361315Y518240D03*
X380365Y531415D03*
X380365Y521415D03*
X370840Y528240D03*
X370840Y518240D03*
X339725Y669370D03*
X339725Y679370D03*
X339805Y631825D03*
X349805Y631825D03*
X339805Y645795D03*
X349805Y645795D03*
X339805Y659765D03*
X349805Y659765D03*
X359410Y624920D03*
X359410Y634920D03*
X359410Y655400D03*
X359410Y665400D03*
X369490Y645160D03*
X359490Y645160D03*
D19*
X359410Y673862D03*
X359410Y682498D03*
D20*
X353187Y730885D03*
X361823Y730885D03*
D19*
X361950Y738632D03*
X361950Y747268D03*
D20*
X408178Y631190D03*
X399542Y631190D03*
X408178Y681990D03*
X399542Y681990D03*
D21*
X399415Y652590D03*
X399415Y660590D03*
D15*
X351870Y755015D03*
X361870Y755015D03*
X382905Y686515D03*
X382905Y696515D03*
X382905Y710645D03*
X382905Y720645D03*
D22*
X340550Y784835D03*
X332550Y784835D03*
X332550Y765835D03*
X340550Y765835D03*
D15*
X382905Y671750D03*
X382905Y661750D03*
X382905Y637620D03*
X382905Y647620D03*
X356155Y503555D03*
X346155Y503555D03*
D23*
X411480Y493005D03*
X411480Y476005D03*
D15*
X332740Y511730D03*
X332740Y501730D03*
D24*
X366190Y495715D02*
X374890Y495715D01*
X366190Y495715D02*
X366190Y499915D01*
X374890Y499915D01*
X374890Y495715D01*
X374890Y497425D02*
X366190Y497425D01*
X366190Y499135D02*
X374890Y499135D01*
X374890Y486215D02*
X366190Y486215D01*
X366190Y490415D01*
X374890Y490415D01*
X374890Y486215D01*
X374890Y487925D02*
X366190Y487925D01*
X366190Y489635D02*
X374890Y489635D01*
X374890Y476715D02*
X366190Y476715D01*
X366190Y480915D01*
X374890Y480915D01*
X374890Y476715D01*
X374890Y478425D02*
X366190Y478425D01*
X366190Y480135D02*
X374890Y480135D01*
X392190Y476715D02*
X400890Y476715D01*
X392190Y476715D02*
X392190Y480915D01*
X400890Y480915D01*
X400890Y476715D01*
X400890Y478425D02*
X392190Y478425D01*
X392190Y480135D02*
X400890Y480135D01*
X400890Y486215D02*
X392190Y486215D01*
X392190Y490415D01*
X400890Y490415D01*
X400890Y486215D01*
X400890Y487925D02*
X392190Y487925D01*
X392190Y489635D02*
X400890Y489635D01*
X400890Y495715D02*
X392190Y495715D01*
X392190Y499915D01*
X400890Y499915D01*
X400890Y495715D01*
X400890Y497425D02*
X392190Y497425D01*
X392190Y499135D02*
X400890Y499135D01*
D25*
X393225Y533375D03*
X393225Y514375D03*
X414225Y523875D03*
D15*
X332740Y492045D03*
X332740Y482045D03*
X356155Y493395D03*
X346155Y493395D03*
X356155Y483235D03*
X346155Y483235D03*
D26*
X425960Y443935D03*
D27*
X415960Y418935D03*
X410960Y418935D03*
D26*
X330960Y443935D03*
D27*
X405960Y418935D03*
X400960Y418935D03*
X395960Y418935D03*
X390960Y418935D03*
X385960Y418935D03*
X380960Y418935D03*
X375960Y418935D03*
X370960Y418935D03*
X365960Y418935D03*
X360960Y418935D03*
X355960Y418935D03*
X350960Y418935D03*
X345960Y418935D03*
X340960Y418935D03*
D15*
X330915Y735965D03*
X340915Y735965D03*
X330835Y716360D03*
X330835Y726360D03*
X333375Y800815D03*
X333375Y810815D03*
X423545Y800815D03*
X423545Y810815D03*
D10*
X512250Y545120D03*
X517250Y545120D03*
X522250Y545120D03*
X527250Y545120D03*
X532250Y545120D03*
X537250Y545120D03*
X542250Y545120D03*
X547250Y545120D03*
X552250Y545120D03*
X557250Y545120D03*
X562250Y545120D03*
X567250Y545120D03*
D11*
X573750Y551620D03*
X573750Y556620D03*
X573750Y561620D03*
X573750Y566620D03*
X573750Y571620D03*
X573750Y576620D03*
X573750Y581620D03*
X573750Y586620D03*
X573750Y591620D03*
X573750Y596620D03*
X573750Y601620D03*
X573750Y606620D03*
D10*
X567250Y613120D03*
X562250Y613120D03*
X557250Y613120D03*
X552250Y613120D03*
X547250Y613120D03*
X542250Y613120D03*
X537250Y613120D03*
X532250Y613120D03*
X527250Y613120D03*
X522250Y613120D03*
X517250Y613120D03*
X512250Y613120D03*
D11*
X505750Y606620D03*
X505750Y601620D03*
X505750Y596620D03*
X505750Y591620D03*
X505750Y586620D03*
X505750Y581620D03*
X505750Y576620D03*
X505750Y571620D03*
X505750Y566620D03*
X505750Y561620D03*
X505750Y556620D03*
X505750Y551620D03*
D12*
X524750Y566620D03*
X524750Y591620D03*
X554750Y591620D03*
X554750Y566620D03*
X539750Y566620D03*
X539750Y591620D03*
D13*
X511930Y691620D03*
X516930Y691620D03*
X521930Y691620D03*
X526930Y691620D03*
D14*
X533930Y698620D03*
X533930Y703620D03*
X533930Y708620D03*
X533930Y713620D03*
D13*
X526930Y720620D03*
X521930Y720620D03*
X516930Y720620D03*
X511930Y720620D03*
D14*
X504930Y713620D03*
X504930Y708620D03*
X504930Y703620D03*
X504930Y698620D03*
D15*
X514430Y701120D03*
X514430Y711120D03*
X524430Y711120D03*
X524430Y701120D03*
D16*
X545950Y744650D03*
X552450Y744650D03*
X558950Y744650D03*
X558950Y766650D03*
X552450Y766650D03*
X545950Y766650D03*
D15*
X534035Y744935D03*
X534035Y754935D03*
X561975Y703500D03*
X561975Y693500D03*
X542370Y777240D03*
X552370Y777240D03*
D17*
X530860Y781040D03*
D18*
X544860Y797290D03*
X516860Y797290D03*
D15*
X532050Y767715D03*
X522050Y767715D03*
X571500Y767160D03*
X571500Y777160D03*
X495300Y521415D03*
X495300Y531415D03*
X514350Y531415D03*
X514350Y521415D03*
X504825Y531415D03*
X504825Y521415D03*
X523875Y528240D03*
X523875Y518240D03*
X542925Y531415D03*
X542925Y521415D03*
X533400Y528240D03*
X533400Y518240D03*
X502285Y669370D03*
X502285Y679370D03*
X502365Y631825D03*
X512365Y631825D03*
X502365Y645795D03*
X512365Y645795D03*
X502365Y659765D03*
X512365Y659765D03*
X521970Y624920D03*
X521970Y634920D03*
X521970Y655400D03*
X521970Y665400D03*
X532050Y645160D03*
X522050Y645160D03*
D19*
X521970Y673862D03*
X521970Y682498D03*
D20*
X515747Y730885D03*
X524383Y730885D03*
D19*
X524510Y738632D03*
X524510Y747268D03*
D20*
X570738Y631190D03*
X562102Y631190D03*
X570738Y681990D03*
X562102Y681990D03*
D21*
X561975Y652590D03*
X561975Y660590D03*
D15*
X514430Y755015D03*
X524430Y755015D03*
X545465Y686515D03*
X545465Y696515D03*
X545465Y710645D03*
X545465Y720645D03*
D22*
X503110Y784835D03*
X495110Y784835D03*
X495110Y765835D03*
X503110Y765835D03*
D15*
X545465Y671750D03*
X545465Y661750D03*
X545465Y637620D03*
X545465Y647620D03*
X518715Y503555D03*
X508715Y503555D03*
D23*
X574040Y493005D03*
X574040Y476005D03*
D15*
X495300Y511730D03*
X495300Y501730D03*
D24*
X528750Y495715D02*
X537450Y495715D01*
X528750Y495715D02*
X528750Y499915D01*
X537450Y499915D01*
X537450Y495715D01*
X537450Y497425D02*
X528750Y497425D01*
X528750Y499135D02*
X537450Y499135D01*
X537450Y486215D02*
X528750Y486215D01*
X528750Y490415D01*
X537450Y490415D01*
X537450Y486215D01*
X537450Y487925D02*
X528750Y487925D01*
X528750Y489635D02*
X537450Y489635D01*
X537450Y476715D02*
X528750Y476715D01*
X528750Y480915D01*
X537450Y480915D01*
X537450Y476715D01*
X537450Y478425D02*
X528750Y478425D01*
X528750Y480135D02*
X537450Y480135D01*
X554750Y476715D02*
X563450Y476715D01*
X554750Y476715D02*
X554750Y480915D01*
X563450Y480915D01*
X563450Y476715D01*
X563450Y478425D02*
X554750Y478425D01*
X554750Y480135D02*
X563450Y480135D01*
X563450Y486215D02*
X554750Y486215D01*
X554750Y490415D01*
X563450Y490415D01*
X563450Y486215D01*
X563450Y487925D02*
X554750Y487925D01*
X554750Y489635D02*
X563450Y489635D01*
X563450Y495715D02*
X554750Y495715D01*
X554750Y499915D01*
X563450Y499915D01*
X563450Y495715D01*
X563450Y497425D02*
X554750Y497425D01*
X554750Y499135D02*
X563450Y499135D01*
D25*
X555785Y533375D03*
X555785Y514375D03*
X576785Y523875D03*
D15*
X495300Y492045D03*
X495300Y482045D03*
X518715Y493395D03*
X508715Y493395D03*
X518715Y483235D03*
X508715Y483235D03*
D26*
X588520Y443935D03*
D27*
X578520Y418935D03*
X573520Y418935D03*
D26*
X493520Y443935D03*
D27*
X568520Y418935D03*
X563520Y418935D03*
X558520Y418935D03*
X553520Y418935D03*
X548520Y418935D03*
X543520Y418935D03*
X538520Y418935D03*
X533520Y418935D03*
X528520Y418935D03*
X523520Y418935D03*
X518520Y418935D03*
X513520Y418935D03*
X508520Y418935D03*
X503520Y418935D03*
D15*
X493475Y735965D03*
X503475Y735965D03*
X493395Y716360D03*
X493395Y726360D03*
X495935Y800815D03*
X495935Y810815D03*
X586105Y800815D03*
X586105Y810815D03*
D10*
X674810Y545120D03*
X679810Y545120D03*
X684810Y545120D03*
X689810Y545120D03*
X694810Y545120D03*
X699810Y545120D03*
X704810Y545120D03*
X709810Y545120D03*
X714810Y545120D03*
X719810Y545120D03*
X724810Y545120D03*
X729810Y545120D03*
D11*
X736310Y551620D03*
X736310Y556620D03*
X736310Y561620D03*
X736310Y566620D03*
X736310Y571620D03*
X736310Y576620D03*
X736310Y581620D03*
X736310Y586620D03*
X736310Y591620D03*
X736310Y596620D03*
X736310Y601620D03*
X736310Y606620D03*
D10*
X729810Y613120D03*
X724810Y613120D03*
X719810Y613120D03*
X714810Y613120D03*
X709810Y613120D03*
X704810Y613120D03*
X699810Y613120D03*
X694810Y613120D03*
X689810Y613120D03*
X684810Y613120D03*
X679810Y613120D03*
X674810Y613120D03*
D11*
X668310Y606620D03*
X668310Y601620D03*
X668310Y596620D03*
X668310Y591620D03*
X668310Y586620D03*
X668310Y581620D03*
X668310Y576620D03*
X668310Y571620D03*
X668310Y566620D03*
X668310Y561620D03*
X668310Y556620D03*
X668310Y551620D03*
D12*
X687310Y566620D03*
X687310Y591620D03*
X717310Y591620D03*
X717310Y566620D03*
X702310Y566620D03*
X702310Y591620D03*
D13*
X674490Y691620D03*
X679490Y691620D03*
X684490Y691620D03*
X689490Y691620D03*
D14*
X696490Y698620D03*
X696490Y703620D03*
X696490Y708620D03*
X696490Y713620D03*
D13*
X689490Y720620D03*
X684490Y720620D03*
X679490Y720620D03*
X674490Y720620D03*
D14*
X667490Y713620D03*
X667490Y708620D03*
X667490Y703620D03*
X667490Y698620D03*
D15*
X676990Y701120D03*
X676990Y711120D03*
X686990Y711120D03*
X686990Y701120D03*
D16*
X708510Y744650D03*
X715010Y744650D03*
X721510Y744650D03*
X721510Y766650D03*
X715010Y766650D03*
X708510Y766650D03*
D15*
X696595Y744935D03*
X696595Y754935D03*
X724535Y703500D03*
X724535Y693500D03*
X704930Y777240D03*
X714930Y777240D03*
D17*
X693420Y781040D03*
D18*
X707420Y797290D03*
X679420Y797290D03*
D15*
X694610Y767715D03*
X684610Y767715D03*
X734060Y767160D03*
X734060Y777160D03*
X657860Y521415D03*
X657860Y531415D03*
X676910Y531415D03*
X676910Y521415D03*
X667385Y531415D03*
X667385Y521415D03*
X686435Y528240D03*
X686435Y518240D03*
X705485Y531415D03*
X705485Y521415D03*
X695960Y528240D03*
X695960Y518240D03*
X664845Y669370D03*
X664845Y679370D03*
X664925Y631825D03*
X674925Y631825D03*
X664925Y645795D03*
X674925Y645795D03*
X664925Y659765D03*
X674925Y659765D03*
X684530Y624920D03*
X684530Y634920D03*
X684530Y655400D03*
X684530Y665400D03*
X694610Y645160D03*
X684610Y645160D03*
D19*
X684530Y673862D03*
X684530Y682498D03*
D20*
X678307Y730885D03*
X686943Y730885D03*
D19*
X687070Y738632D03*
X687070Y747268D03*
D20*
X733298Y631190D03*
X724662Y631190D03*
X733298Y681990D03*
X724662Y681990D03*
D21*
X724535Y652590D03*
X724535Y660590D03*
D15*
X676990Y755015D03*
X686990Y755015D03*
X708025Y686515D03*
X708025Y696515D03*
X708025Y710645D03*
X708025Y720645D03*
D22*
X665670Y784835D03*
X657670Y784835D03*
X657670Y765835D03*
X665670Y765835D03*
D15*
X708025Y671750D03*
X708025Y661750D03*
X708025Y637620D03*
X708025Y647620D03*
X681275Y503555D03*
X671275Y503555D03*
D23*
X736600Y493005D03*
X736600Y476005D03*
D15*
X657860Y511730D03*
X657860Y501730D03*
D24*
X691310Y495715D02*
X700010Y495715D01*
X691310Y495715D02*
X691310Y499915D01*
X700010Y499915D01*
X700010Y495715D01*
X700010Y497425D02*
X691310Y497425D01*
X691310Y499135D02*
X700010Y499135D01*
X700010Y486215D02*
X691310Y486215D01*
X691310Y490415D01*
X700010Y490415D01*
X700010Y486215D01*
X700010Y487925D02*
X691310Y487925D01*
X691310Y489635D02*
X700010Y489635D01*
X700010Y476715D02*
X691310Y476715D01*
X691310Y480915D01*
X700010Y480915D01*
X700010Y476715D01*
X700010Y478425D02*
X691310Y478425D01*
X691310Y480135D02*
X700010Y480135D01*
X717310Y476715D02*
X726010Y476715D01*
X717310Y476715D02*
X717310Y480915D01*
X726010Y480915D01*
X726010Y476715D01*
X726010Y478425D02*
X717310Y478425D01*
X717310Y480135D02*
X726010Y480135D01*
X726010Y486215D02*
X717310Y486215D01*
X717310Y490415D01*
X726010Y490415D01*
X726010Y486215D01*
X726010Y487925D02*
X717310Y487925D01*
X717310Y489635D02*
X726010Y489635D01*
X726010Y495715D02*
X717310Y495715D01*
X717310Y499915D01*
X726010Y499915D01*
X726010Y495715D01*
X726010Y497425D02*
X717310Y497425D01*
X717310Y499135D02*
X726010Y499135D01*
D25*
X718345Y533375D03*
X718345Y514375D03*
X739345Y523875D03*
D15*
X657860Y492045D03*
X657860Y482045D03*
X681275Y493395D03*
X671275Y493395D03*
X681275Y483235D03*
X671275Y483235D03*
D26*
X751080Y443935D03*
D27*
X741080Y418935D03*
X736080Y418935D03*
D26*
X656080Y443935D03*
D27*
X731080Y418935D03*
X726080Y418935D03*
X721080Y418935D03*
X716080Y418935D03*
X711080Y418935D03*
X706080Y418935D03*
X701080Y418935D03*
X696080Y418935D03*
X691080Y418935D03*
X686080Y418935D03*
X681080Y418935D03*
X676080Y418935D03*
X671080Y418935D03*
X666080Y418935D03*
D15*
X656035Y735965D03*
X666035Y735965D03*
X655955Y716360D03*
X655955Y726360D03*
X658495Y800815D03*
X658495Y810815D03*
X748665Y800815D03*
X748665Y810815D03*
D10*
X837370Y545120D03*
X842370Y545120D03*
X847370Y545120D03*
X852370Y545120D03*
X857370Y545120D03*
X862370Y545120D03*
X867370Y545120D03*
X872370Y545120D03*
X877370Y545120D03*
X882370Y545120D03*
X887370Y545120D03*
X892370Y545120D03*
D11*
X898870Y551620D03*
X898870Y556620D03*
X898870Y561620D03*
X898870Y566620D03*
X898870Y571620D03*
X898870Y576620D03*
X898870Y581620D03*
X898870Y586620D03*
X898870Y591620D03*
X898870Y596620D03*
X898870Y601620D03*
X898870Y606620D03*
D10*
X892370Y613120D03*
X887370Y613120D03*
X882370Y613120D03*
X877370Y613120D03*
X872370Y613120D03*
X867370Y613120D03*
X862370Y613120D03*
X857370Y613120D03*
X852370Y613120D03*
X847370Y613120D03*
X842370Y613120D03*
X837370Y613120D03*
D11*
X830870Y606620D03*
X830870Y601620D03*
X830870Y596620D03*
X830870Y591620D03*
X830870Y586620D03*
X830870Y581620D03*
X830870Y576620D03*
X830870Y571620D03*
X830870Y566620D03*
X830870Y561620D03*
X830870Y556620D03*
X830870Y551620D03*
D12*
X849870Y566620D03*
X849870Y591620D03*
X879870Y591620D03*
X879870Y566620D03*
X864870Y566620D03*
X864870Y591620D03*
D13*
X837050Y691620D03*
X842050Y691620D03*
X847050Y691620D03*
X852050Y691620D03*
D14*
X859050Y698620D03*
X859050Y703620D03*
X859050Y708620D03*
X859050Y713620D03*
D13*
X852050Y720620D03*
X847050Y720620D03*
X842050Y720620D03*
X837050Y720620D03*
D14*
X830050Y713620D03*
X830050Y708620D03*
X830050Y703620D03*
X830050Y698620D03*
D15*
X839550Y701120D03*
X839550Y711120D03*
X849550Y711120D03*
X849550Y701120D03*
D16*
X871070Y744650D03*
X877570Y744650D03*
X884070Y744650D03*
X884070Y766650D03*
X877570Y766650D03*
X871070Y766650D03*
D15*
X859155Y744935D03*
X859155Y754935D03*
X887095Y703500D03*
X887095Y693500D03*
X867490Y777240D03*
X877490Y777240D03*
D17*
X855980Y781040D03*
D18*
X869980Y797290D03*
X841980Y797290D03*
D15*
X857170Y767715D03*
X847170Y767715D03*
X896620Y767160D03*
X896620Y777160D03*
X820420Y521415D03*
X820420Y531415D03*
X839470Y531415D03*
X839470Y521415D03*
X829945Y531415D03*
X829945Y521415D03*
X848995Y528240D03*
X848995Y518240D03*
X868045Y531415D03*
X868045Y521415D03*
X858520Y528240D03*
X858520Y518240D03*
X827405Y669370D03*
X827405Y679370D03*
X827485Y631825D03*
X837485Y631825D03*
X827485Y645795D03*
X837485Y645795D03*
X827485Y659765D03*
X837485Y659765D03*
X847090Y624920D03*
X847090Y634920D03*
X847090Y655400D03*
X847090Y665400D03*
X857170Y645160D03*
X847170Y645160D03*
D19*
X847090Y673862D03*
X847090Y682498D03*
D20*
X840867Y730885D03*
X849503Y730885D03*
D19*
X849630Y738632D03*
X849630Y747268D03*
D20*
X895858Y631190D03*
X887222Y631190D03*
X895858Y681990D03*
X887222Y681990D03*
D21*
X887095Y652590D03*
X887095Y660590D03*
D15*
X839550Y755015D03*
X849550Y755015D03*
X870585Y686515D03*
X870585Y696515D03*
X870585Y710645D03*
X870585Y720645D03*
D22*
X828230Y784835D03*
X820230Y784835D03*
X820230Y765835D03*
X828230Y765835D03*
D15*
X870585Y671750D03*
X870585Y661750D03*
X870585Y637620D03*
X870585Y647620D03*
X843835Y503555D03*
X833835Y503555D03*
D23*
X899160Y493005D03*
X899160Y476005D03*
D15*
X820420Y511730D03*
X820420Y501730D03*
D24*
X853870Y495715D02*
X862570Y495715D01*
X853870Y495715D02*
X853870Y499915D01*
X862570Y499915D01*
X862570Y495715D01*
X862570Y497425D02*
X853870Y497425D01*
X853870Y499135D02*
X862570Y499135D01*
X862570Y486215D02*
X853870Y486215D01*
X853870Y490415D01*
X862570Y490415D01*
X862570Y486215D01*
X862570Y487925D02*
X853870Y487925D01*
X853870Y489635D02*
X862570Y489635D01*
X862570Y476715D02*
X853870Y476715D01*
X853870Y480915D01*
X862570Y480915D01*
X862570Y476715D01*
X862570Y478425D02*
X853870Y478425D01*
X853870Y480135D02*
X862570Y480135D01*
X879870Y476715D02*
X888570Y476715D01*
X879870Y476715D02*
X879870Y480915D01*
X888570Y480915D01*
X888570Y476715D01*
X888570Y478425D02*
X879870Y478425D01*
X879870Y480135D02*
X888570Y480135D01*
X888570Y486215D02*
X879870Y486215D01*
X879870Y490415D01*
X888570Y490415D01*
X888570Y486215D01*
X888570Y487925D02*
X879870Y487925D01*
X879870Y489635D02*
X888570Y489635D01*
X888570Y495715D02*
X879870Y495715D01*
X879870Y499915D01*
X888570Y499915D01*
X888570Y495715D01*
X888570Y497425D02*
X879870Y497425D01*
X879870Y499135D02*
X888570Y499135D01*
D25*
X880905Y533375D03*
X880905Y514375D03*
X901905Y523875D03*
D15*
X820420Y492045D03*
X820420Y482045D03*
X843835Y493395D03*
X833835Y493395D03*
X843835Y483235D03*
X833835Y483235D03*
D26*
X913640Y443935D03*
D27*
X903640Y418935D03*
X898640Y418935D03*
D26*
X818640Y443935D03*
D27*
X893640Y418935D03*
X888640Y418935D03*
X883640Y418935D03*
X878640Y418935D03*
X873640Y418935D03*
X868640Y418935D03*
X863640Y418935D03*
X858640Y418935D03*
X853640Y418935D03*
X848640Y418935D03*
X843640Y418935D03*
X838640Y418935D03*
X833640Y418935D03*
X828640Y418935D03*
D15*
X818595Y735965D03*
X828595Y735965D03*
X818515Y716360D03*
X818515Y726360D03*
X821055Y800815D03*
X821055Y810815D03*
X911225Y800815D03*
X911225Y810815D03*
D10*
X999930Y545120D03*
X1004930Y545120D03*
X1009930Y545120D03*
X1014930Y545120D03*
X1019930Y545120D03*
X1024930Y545120D03*
X1029930Y545120D03*
X1034930Y545120D03*
X1039930Y545120D03*
X1044930Y545120D03*
X1049930Y545120D03*
X1054930Y545120D03*
D11*
X1061430Y551620D03*
X1061430Y556620D03*
X1061430Y561620D03*
X1061430Y566620D03*
X1061430Y571620D03*
X1061430Y576620D03*
X1061430Y581620D03*
X1061430Y586620D03*
X1061430Y591620D03*
X1061430Y596620D03*
X1061430Y601620D03*
X1061430Y606620D03*
D10*
X1054930Y613120D03*
X1049930Y613120D03*
X1044930Y613120D03*
X1039930Y613120D03*
X1034930Y613120D03*
X1029930Y613120D03*
X1024930Y613120D03*
X1019930Y613120D03*
X1014930Y613120D03*
X1009930Y613120D03*
X1004930Y613120D03*
X999930Y613120D03*
D11*
X993430Y606620D03*
X993430Y601620D03*
X993430Y596620D03*
X993430Y591620D03*
X993430Y586620D03*
X993430Y581620D03*
X993430Y576620D03*
X993430Y571620D03*
X993430Y566620D03*
X993430Y561620D03*
X993430Y556620D03*
X993430Y551620D03*
D12*
X1012430Y566620D03*
X1012430Y591620D03*
X1042430Y591620D03*
X1042430Y566620D03*
X1027430Y566620D03*
X1027430Y591620D03*
D13*
X999610Y691620D03*
X1004610Y691620D03*
X1009610Y691620D03*
X1014610Y691620D03*
D14*
X1021610Y698620D03*
X1021610Y703620D03*
X1021610Y708620D03*
X1021610Y713620D03*
D13*
X1014610Y720620D03*
X1009610Y720620D03*
X1004610Y720620D03*
X999610Y720620D03*
D14*
X992610Y713620D03*
X992610Y708620D03*
X992610Y703620D03*
X992610Y698620D03*
D15*
X1002110Y701120D03*
X1002110Y711120D03*
X1012110Y711120D03*
X1012110Y701120D03*
D16*
X1033630Y744650D03*
X1040130Y744650D03*
X1046630Y744650D03*
X1046630Y766650D03*
X1040130Y766650D03*
X1033630Y766650D03*
D15*
X1021715Y744935D03*
X1021715Y754935D03*
X1049655Y703500D03*
X1049655Y693500D03*
X1030050Y777240D03*
X1040050Y777240D03*
D17*
X1018540Y781040D03*
D18*
X1032540Y797290D03*
X1004540Y797290D03*
D15*
X1019730Y767715D03*
X1009730Y767715D03*
X1059180Y767160D03*
X1059180Y777160D03*
X982980Y521415D03*
X982980Y531415D03*
X1002030Y531415D03*
X1002030Y521415D03*
X992505Y531415D03*
X992505Y521415D03*
X1011555Y528240D03*
X1011555Y518240D03*
X1030605Y531415D03*
X1030605Y521415D03*
X1021080Y528240D03*
X1021080Y518240D03*
X989965Y669370D03*
X989965Y679370D03*
X990045Y631825D03*
X1000045Y631825D03*
X990045Y645795D03*
X1000045Y645795D03*
X990045Y659765D03*
X1000045Y659765D03*
X1009650Y624920D03*
X1009650Y634920D03*
X1009650Y655400D03*
X1009650Y665400D03*
X1019730Y645160D03*
X1009730Y645160D03*
D19*
X1009650Y673862D03*
X1009650Y682498D03*
D20*
X1003427Y730885D03*
X1012063Y730885D03*
D19*
X1012190Y738632D03*
X1012190Y747268D03*
D20*
X1058418Y631190D03*
X1049782Y631190D03*
X1058418Y681990D03*
X1049782Y681990D03*
D21*
X1049655Y652590D03*
X1049655Y660590D03*
D15*
X1002110Y755015D03*
X1012110Y755015D03*
X1033145Y686515D03*
X1033145Y696515D03*
X1033145Y710645D03*
X1033145Y720645D03*
D22*
X990790Y784835D03*
X982790Y784835D03*
X982790Y765835D03*
X990790Y765835D03*
D15*
X1033145Y671750D03*
X1033145Y661750D03*
X1033145Y637620D03*
X1033145Y647620D03*
X1006395Y503555D03*
X996395Y503555D03*
D23*
X1061720Y493005D03*
X1061720Y476005D03*
D15*
X982980Y511730D03*
X982980Y501730D03*
D24*
X1016430Y495715D02*
X1025130Y495715D01*
X1016430Y495715D02*
X1016430Y499915D01*
X1025130Y499915D01*
X1025130Y495715D01*
X1025130Y497425D02*
X1016430Y497425D01*
X1016430Y499135D02*
X1025130Y499135D01*
X1025130Y486215D02*
X1016430Y486215D01*
X1016430Y490415D01*
X1025130Y490415D01*
X1025130Y486215D01*
X1025130Y487925D02*
X1016430Y487925D01*
X1016430Y489635D02*
X1025130Y489635D01*
X1025130Y476715D02*
X1016430Y476715D01*
X1016430Y480915D01*
X1025130Y480915D01*
X1025130Y476715D01*
X1025130Y478425D02*
X1016430Y478425D01*
X1016430Y480135D02*
X1025130Y480135D01*
X1042430Y476715D02*
X1051130Y476715D01*
X1042430Y476715D02*
X1042430Y480915D01*
X1051130Y480915D01*
X1051130Y476715D01*
X1051130Y478425D02*
X1042430Y478425D01*
X1042430Y480135D02*
X1051130Y480135D01*
X1051130Y486215D02*
X1042430Y486215D01*
X1042430Y490415D01*
X1051130Y490415D01*
X1051130Y486215D01*
X1051130Y487925D02*
X1042430Y487925D01*
X1042430Y489635D02*
X1051130Y489635D01*
X1051130Y495715D02*
X1042430Y495715D01*
X1042430Y499915D01*
X1051130Y499915D01*
X1051130Y495715D01*
X1051130Y497425D02*
X1042430Y497425D01*
X1042430Y499135D02*
X1051130Y499135D01*
D25*
X1043465Y533375D03*
X1043465Y514375D03*
X1064465Y523875D03*
D15*
X982980Y492045D03*
X982980Y482045D03*
X1006395Y493395D03*
X996395Y493395D03*
X1006395Y483235D03*
X996395Y483235D03*
D26*
X1076200Y443935D03*
D27*
X1066200Y418935D03*
X1061200Y418935D03*
D26*
X981200Y443935D03*
D27*
X1056200Y418935D03*
X1051200Y418935D03*
X1046200Y418935D03*
X1041200Y418935D03*
X1036200Y418935D03*
X1031200Y418935D03*
X1026200Y418935D03*
X1021200Y418935D03*
X1016200Y418935D03*
X1011200Y418935D03*
X1006200Y418935D03*
X1001200Y418935D03*
X996200Y418935D03*
X991200Y418935D03*
D15*
X981155Y735965D03*
X991155Y735965D03*
X981075Y716360D03*
X981075Y726360D03*
X983615Y800815D03*
X983615Y810815D03*
X1073785Y800815D03*
X1073785Y810815D03*
D10*
X1162490Y545120D03*
X1167490Y545120D03*
X1172490Y545120D03*
X1177490Y545120D03*
X1182490Y545120D03*
X1187490Y545120D03*
X1192490Y545120D03*
X1197490Y545120D03*
X1202490Y545120D03*
X1207490Y545120D03*
X1212490Y545120D03*
X1217490Y545120D03*
D11*
X1223990Y551620D03*
X1223990Y556620D03*
X1223990Y561620D03*
X1223990Y566620D03*
X1223990Y571620D03*
X1223990Y576620D03*
X1223990Y581620D03*
X1223990Y586620D03*
X1223990Y591620D03*
X1223990Y596620D03*
X1223990Y601620D03*
X1223990Y606620D03*
D10*
X1217490Y613120D03*
X1212490Y613120D03*
X1207490Y613120D03*
X1202490Y613120D03*
X1197490Y613120D03*
X1192490Y613120D03*
X1187490Y613120D03*
X1182490Y613120D03*
X1177490Y613120D03*
X1172490Y613120D03*
X1167490Y613120D03*
X1162490Y613120D03*
D11*
X1155990Y606620D03*
X1155990Y601620D03*
X1155990Y596620D03*
X1155990Y591620D03*
X1155990Y586620D03*
X1155990Y581620D03*
X1155990Y576620D03*
X1155990Y571620D03*
X1155990Y566620D03*
X1155990Y561620D03*
X1155990Y556620D03*
X1155990Y551620D03*
D12*
X1174990Y566620D03*
X1174990Y591620D03*
X1204990Y591620D03*
X1204990Y566620D03*
X1189990Y566620D03*
X1189990Y591620D03*
D13*
X1162170Y691620D03*
X1167170Y691620D03*
X1172170Y691620D03*
X1177170Y691620D03*
D14*
X1184170Y698620D03*
X1184170Y703620D03*
X1184170Y708620D03*
X1184170Y713620D03*
D13*
X1177170Y720620D03*
X1172170Y720620D03*
X1167170Y720620D03*
X1162170Y720620D03*
D14*
X1155170Y713620D03*
X1155170Y708620D03*
X1155170Y703620D03*
X1155170Y698620D03*
D15*
X1164670Y701120D03*
X1164670Y711120D03*
X1174670Y711120D03*
X1174670Y701120D03*
D16*
X1196190Y744650D03*
X1202690Y744650D03*
X1209190Y744650D03*
X1209190Y766650D03*
X1202690Y766650D03*
X1196190Y766650D03*
D15*
X1184275Y744935D03*
X1184275Y754935D03*
X1212215Y703500D03*
X1212215Y693500D03*
X1192610Y777240D03*
X1202610Y777240D03*
D17*
X1181100Y781040D03*
D18*
X1195100Y797290D03*
X1167100Y797290D03*
D15*
X1182290Y767715D03*
X1172290Y767715D03*
X1221740Y767160D03*
X1221740Y777160D03*
X1145540Y521415D03*
X1145540Y531415D03*
X1164590Y531415D03*
X1164590Y521415D03*
X1155065Y531415D03*
X1155065Y521415D03*
X1174115Y528240D03*
X1174115Y518240D03*
X1193165Y531415D03*
X1193165Y521415D03*
X1183640Y528240D03*
X1183640Y518240D03*
X1152525Y669370D03*
X1152525Y679370D03*
X1152605Y631825D03*
X1162605Y631825D03*
X1152605Y645795D03*
X1162605Y645795D03*
X1152605Y659765D03*
X1162605Y659765D03*
X1172210Y624920D03*
X1172210Y634920D03*
X1172210Y655400D03*
X1172210Y665400D03*
X1182290Y645160D03*
X1172290Y645160D03*
D19*
X1172210Y673862D03*
X1172210Y682498D03*
D20*
X1165987Y730885D03*
X1174623Y730885D03*
D19*
X1174750Y738632D03*
X1174750Y747268D03*
D20*
X1220978Y631190D03*
X1212342Y631190D03*
X1220978Y681990D03*
X1212342Y681990D03*
D21*
X1212215Y652590D03*
X1212215Y660590D03*
D15*
X1164670Y755015D03*
X1174670Y755015D03*
X1195705Y686515D03*
X1195705Y696515D03*
X1195705Y710645D03*
X1195705Y720645D03*
D22*
X1153350Y784835D03*
X1145350Y784835D03*
X1145350Y765835D03*
X1153350Y765835D03*
D15*
X1195705Y671750D03*
X1195705Y661750D03*
X1195705Y637620D03*
X1195705Y647620D03*
X1168955Y503555D03*
X1158955Y503555D03*
D23*
X1224280Y493005D03*
X1224280Y476005D03*
D15*
X1145540Y511730D03*
X1145540Y501730D03*
D24*
X1178990Y495715D02*
X1187690Y495715D01*
X1178990Y495715D02*
X1178990Y499915D01*
X1187690Y499915D01*
X1187690Y495715D01*
X1187690Y497425D02*
X1178990Y497425D01*
X1178990Y499135D02*
X1187690Y499135D01*
X1187690Y486215D02*
X1178990Y486215D01*
X1178990Y490415D01*
X1187690Y490415D01*
X1187690Y486215D01*
X1187690Y487925D02*
X1178990Y487925D01*
X1178990Y489635D02*
X1187690Y489635D01*
X1187690Y476715D02*
X1178990Y476715D01*
X1178990Y480915D01*
X1187690Y480915D01*
X1187690Y476715D01*
X1187690Y478425D02*
X1178990Y478425D01*
X1178990Y480135D02*
X1187690Y480135D01*
X1204990Y476715D02*
X1213690Y476715D01*
X1204990Y476715D02*
X1204990Y480915D01*
X1213690Y480915D01*
X1213690Y476715D01*
X1213690Y478425D02*
X1204990Y478425D01*
X1204990Y480135D02*
X1213690Y480135D01*
X1213690Y486215D02*
X1204990Y486215D01*
X1204990Y490415D01*
X1213690Y490415D01*
X1213690Y486215D01*
X1213690Y487925D02*
X1204990Y487925D01*
X1204990Y489635D02*
X1213690Y489635D01*
X1213690Y495715D02*
X1204990Y495715D01*
X1204990Y499915D01*
X1213690Y499915D01*
X1213690Y495715D01*
X1213690Y497425D02*
X1204990Y497425D01*
X1204990Y499135D02*
X1213690Y499135D01*
D25*
X1206025Y533375D03*
X1206025Y514375D03*
X1227025Y523875D03*
D15*
X1145540Y492045D03*
X1145540Y482045D03*
X1168955Y493395D03*
X1158955Y493395D03*
X1168955Y483235D03*
X1158955Y483235D03*
D26*
X1238760Y443935D03*
D27*
X1228760Y418935D03*
X1223760Y418935D03*
D26*
X1143760Y443935D03*
D27*
X1218760Y418935D03*
X1213760Y418935D03*
X1208760Y418935D03*
X1203760Y418935D03*
X1198760Y418935D03*
X1193760Y418935D03*
X1188760Y418935D03*
X1183760Y418935D03*
X1178760Y418935D03*
X1173760Y418935D03*
X1168760Y418935D03*
X1163760Y418935D03*
X1158760Y418935D03*
X1153760Y418935D03*
D15*
X1143715Y735965D03*
X1153715Y735965D03*
X1143635Y716360D03*
X1143635Y726360D03*
X1146175Y800815D03*
X1146175Y810815D03*
X1236345Y800815D03*
X1236345Y810815D03*
D10*
X1325050Y545120D03*
X1330050Y545120D03*
X1335050Y545120D03*
X1340050Y545120D03*
X1345050Y545120D03*
X1350050Y545120D03*
X1355050Y545120D03*
X1360050Y545120D03*
X1365050Y545120D03*
X1370050Y545120D03*
X1375050Y545120D03*
X1380050Y545120D03*
D11*
X1386550Y551620D03*
X1386550Y556620D03*
X1386550Y561620D03*
X1386550Y566620D03*
X1386550Y571620D03*
X1386550Y576620D03*
X1386550Y581620D03*
X1386550Y586620D03*
X1386550Y591620D03*
X1386550Y596620D03*
X1386550Y601620D03*
X1386550Y606620D03*
D10*
X1380050Y613120D03*
X1375050Y613120D03*
X1370050Y613120D03*
X1365050Y613120D03*
X1360050Y613120D03*
X1355050Y613120D03*
X1350050Y613120D03*
X1345050Y613120D03*
X1340050Y613120D03*
X1335050Y613120D03*
X1330050Y613120D03*
X1325050Y613120D03*
D11*
X1318550Y606620D03*
X1318550Y601620D03*
X1318550Y596620D03*
X1318550Y591620D03*
X1318550Y586620D03*
X1318550Y581620D03*
X1318550Y576620D03*
X1318550Y571620D03*
X1318550Y566620D03*
X1318550Y561620D03*
X1318550Y556620D03*
X1318550Y551620D03*
D12*
X1337550Y566620D03*
X1337550Y591620D03*
X1367550Y591620D03*
X1367550Y566620D03*
X1352550Y566620D03*
X1352550Y591620D03*
D13*
X1324730Y691620D03*
X1329730Y691620D03*
X1334730Y691620D03*
X1339730Y691620D03*
D14*
X1346730Y698620D03*
X1346730Y703620D03*
X1346730Y708620D03*
X1346730Y713620D03*
D13*
X1339730Y720620D03*
X1334730Y720620D03*
X1329730Y720620D03*
X1324730Y720620D03*
D14*
X1317730Y713620D03*
X1317730Y708620D03*
X1317730Y703620D03*
X1317730Y698620D03*
D15*
X1327230Y701120D03*
X1327230Y711120D03*
X1337230Y711120D03*
X1337230Y701120D03*
D16*
X1358750Y744650D03*
X1365250Y744650D03*
X1371750Y744650D03*
X1371750Y766650D03*
X1365250Y766650D03*
X1358750Y766650D03*
D15*
X1346835Y744935D03*
X1346835Y754935D03*
X1374775Y703500D03*
X1374775Y693500D03*
X1355170Y777240D03*
X1365170Y777240D03*
D17*
X1343660Y781040D03*
D18*
X1357660Y797290D03*
X1329660Y797290D03*
D15*
X1344850Y767715D03*
X1334850Y767715D03*
X1384300Y767160D03*
X1384300Y777160D03*
X1308100Y521415D03*
X1308100Y531415D03*
X1327150Y531415D03*
X1327150Y521415D03*
X1317625Y531415D03*
X1317625Y521415D03*
X1336675Y528240D03*
X1336675Y518240D03*
X1355725Y531415D03*
X1355725Y521415D03*
X1346200Y528240D03*
X1346200Y518240D03*
X1315085Y669370D03*
X1315085Y679370D03*
X1315165Y631825D03*
X1325165Y631825D03*
X1315165Y645795D03*
X1325165Y645795D03*
X1315165Y659765D03*
X1325165Y659765D03*
X1334770Y624920D03*
X1334770Y634920D03*
X1334770Y655400D03*
X1334770Y665400D03*
X1344850Y645160D03*
X1334850Y645160D03*
D19*
X1334770Y673862D03*
X1334770Y682498D03*
D20*
X1328547Y730885D03*
X1337183Y730885D03*
D19*
X1337310Y738632D03*
X1337310Y747268D03*
D20*
X1383538Y631190D03*
X1374902Y631190D03*
X1383538Y681990D03*
X1374902Y681990D03*
D21*
X1374775Y652590D03*
X1374775Y660590D03*
D15*
X1327230Y755015D03*
X1337230Y755015D03*
X1358265Y686515D03*
X1358265Y696515D03*
X1358265Y710645D03*
X1358265Y720645D03*
D22*
X1315910Y784835D03*
X1307910Y784835D03*
X1307910Y765835D03*
X1315910Y765835D03*
D15*
X1358265Y671750D03*
X1358265Y661750D03*
X1358265Y637620D03*
X1358265Y647620D03*
X1331515Y503555D03*
X1321515Y503555D03*
D23*
X1386840Y493005D03*
X1386840Y476005D03*
D15*
X1308100Y511730D03*
X1308100Y501730D03*
D24*
X1341550Y495715D02*
X1350250Y495715D01*
X1341550Y495715D02*
X1341550Y499915D01*
X1350250Y499915D01*
X1350250Y495715D01*
X1350250Y497425D02*
X1341550Y497425D01*
X1341550Y499135D02*
X1350250Y499135D01*
X1350250Y486215D02*
X1341550Y486215D01*
X1341550Y490415D01*
X1350250Y490415D01*
X1350250Y486215D01*
X1350250Y487925D02*
X1341550Y487925D01*
X1341550Y489635D02*
X1350250Y489635D01*
X1350250Y476715D02*
X1341550Y476715D01*
X1341550Y480915D01*
X1350250Y480915D01*
X1350250Y476715D01*
X1350250Y478425D02*
X1341550Y478425D01*
X1341550Y480135D02*
X1350250Y480135D01*
X1367550Y476715D02*
X1376250Y476715D01*
X1367550Y476715D02*
X1367550Y480915D01*
X1376250Y480915D01*
X1376250Y476715D01*
X1376250Y478425D02*
X1367550Y478425D01*
X1367550Y480135D02*
X1376250Y480135D01*
X1376250Y486215D02*
X1367550Y486215D01*
X1367550Y490415D01*
X1376250Y490415D01*
X1376250Y486215D01*
X1376250Y487925D02*
X1367550Y487925D01*
X1367550Y489635D02*
X1376250Y489635D01*
X1376250Y495715D02*
X1367550Y495715D01*
X1367550Y499915D01*
X1376250Y499915D01*
X1376250Y495715D01*
X1376250Y497425D02*
X1367550Y497425D01*
X1367550Y499135D02*
X1376250Y499135D01*
D25*
X1368585Y533375D03*
X1368585Y514375D03*
X1389585Y523875D03*
D15*
X1308100Y492045D03*
X1308100Y482045D03*
X1331515Y493395D03*
X1321515Y493395D03*
X1331515Y483235D03*
X1321515Y483235D03*
D26*
X1401320Y443935D03*
D27*
X1391320Y418935D03*
X1386320Y418935D03*
D26*
X1306320Y443935D03*
D27*
X1381320Y418935D03*
X1376320Y418935D03*
X1371320Y418935D03*
X1366320Y418935D03*
X1361320Y418935D03*
X1356320Y418935D03*
X1351320Y418935D03*
X1346320Y418935D03*
X1341320Y418935D03*
X1336320Y418935D03*
X1331320Y418935D03*
X1326320Y418935D03*
X1321320Y418935D03*
X1316320Y418935D03*
D15*
X1306275Y735965D03*
X1316275Y735965D03*
X1306195Y716360D03*
X1306195Y726360D03*
X1308735Y800815D03*
X1308735Y810815D03*
X1398905Y800815D03*
X1398905Y810815D03*
D10*
X1487610Y545120D03*
X1492610Y545120D03*
X1497610Y545120D03*
X1502610Y545120D03*
X1507610Y545120D03*
X1512610Y545120D03*
X1517610Y545120D03*
X1522610Y545120D03*
X1527610Y545120D03*
X1532610Y545120D03*
X1537610Y545120D03*
X1542610Y545120D03*
D11*
X1549110Y551620D03*
X1549110Y556620D03*
X1549110Y561620D03*
X1549110Y566620D03*
X1549110Y571620D03*
X1549110Y576620D03*
X1549110Y581620D03*
X1549110Y586620D03*
X1549110Y591620D03*
X1549110Y596620D03*
X1549110Y601620D03*
X1549110Y606620D03*
D10*
X1542610Y613120D03*
X1537610Y613120D03*
X1532610Y613120D03*
X1527610Y613120D03*
X1522610Y613120D03*
X1517610Y613120D03*
X1512610Y613120D03*
X1507610Y613120D03*
X1502610Y613120D03*
X1497610Y613120D03*
X1492610Y613120D03*
X1487610Y613120D03*
D11*
X1481110Y606620D03*
X1481110Y601620D03*
X1481110Y596620D03*
X1481110Y591620D03*
X1481110Y586620D03*
X1481110Y581620D03*
X1481110Y576620D03*
X1481110Y571620D03*
X1481110Y566620D03*
X1481110Y561620D03*
X1481110Y556620D03*
X1481110Y551620D03*
D12*
X1500110Y566620D03*
X1500110Y591620D03*
X1530110Y591620D03*
X1530110Y566620D03*
X1515110Y566620D03*
X1515110Y591620D03*
D13*
X1487290Y691620D03*
X1492290Y691620D03*
X1497290Y691620D03*
X1502290Y691620D03*
D14*
X1509290Y698620D03*
X1509290Y703620D03*
X1509290Y708620D03*
X1509290Y713620D03*
D13*
X1502290Y720620D03*
X1497290Y720620D03*
X1492290Y720620D03*
X1487290Y720620D03*
D14*
X1480290Y713620D03*
X1480290Y708620D03*
X1480290Y703620D03*
X1480290Y698620D03*
D15*
X1489790Y701120D03*
X1489790Y711120D03*
X1499790Y711120D03*
X1499790Y701120D03*
D16*
X1521310Y744650D03*
X1527810Y744650D03*
X1534310Y744650D03*
X1534310Y766650D03*
X1527810Y766650D03*
X1521310Y766650D03*
D15*
X1509395Y744935D03*
X1509395Y754935D03*
X1537335Y703500D03*
X1537335Y693500D03*
X1517730Y777240D03*
X1527730Y777240D03*
D17*
X1506220Y781040D03*
D18*
X1520220Y797290D03*
X1492220Y797290D03*
D15*
X1507410Y767715D03*
X1497410Y767715D03*
X1546860Y767160D03*
X1546860Y777160D03*
X1470660Y521415D03*
X1470660Y531415D03*
X1489710Y531415D03*
X1489710Y521415D03*
X1480185Y531415D03*
X1480185Y521415D03*
X1499235Y528240D03*
X1499235Y518240D03*
X1518285Y531415D03*
X1518285Y521415D03*
X1508760Y528240D03*
X1508760Y518240D03*
X1477645Y669370D03*
X1477645Y679370D03*
X1477725Y631825D03*
X1487725Y631825D03*
X1477725Y645795D03*
X1487725Y645795D03*
X1477725Y659765D03*
X1487725Y659765D03*
X1497330Y624920D03*
X1497330Y634920D03*
X1497330Y655400D03*
X1497330Y665400D03*
X1507410Y645160D03*
X1497410Y645160D03*
D19*
X1497330Y673862D03*
X1497330Y682498D03*
D20*
X1491107Y730885D03*
X1499743Y730885D03*
D19*
X1499870Y738632D03*
X1499870Y747268D03*
D20*
X1546098Y631190D03*
X1537462Y631190D03*
X1546098Y681990D03*
X1537462Y681990D03*
D21*
X1537335Y652590D03*
X1537335Y660590D03*
D15*
X1489790Y755015D03*
X1499790Y755015D03*
X1520825Y686515D03*
X1520825Y696515D03*
X1520825Y710645D03*
X1520825Y720645D03*
D22*
X1478470Y784835D03*
X1470470Y784835D03*
X1470470Y765835D03*
X1478470Y765835D03*
D15*
X1520825Y671750D03*
X1520825Y661750D03*
X1520825Y637620D03*
X1520825Y647620D03*
X1494075Y503555D03*
X1484075Y503555D03*
D23*
X1549400Y493005D03*
X1549400Y476005D03*
D15*
X1470660Y511730D03*
X1470660Y501730D03*
D24*
X1504110Y495715D02*
X1512810Y495715D01*
X1504110Y495715D02*
X1504110Y499915D01*
X1512810Y499915D01*
X1512810Y495715D01*
X1512810Y497425D02*
X1504110Y497425D01*
X1504110Y499135D02*
X1512810Y499135D01*
X1512810Y486215D02*
X1504110Y486215D01*
X1504110Y490415D01*
X1512810Y490415D01*
X1512810Y486215D01*
X1512810Y487925D02*
X1504110Y487925D01*
X1504110Y489635D02*
X1512810Y489635D01*
X1512810Y476715D02*
X1504110Y476715D01*
X1504110Y480915D01*
X1512810Y480915D01*
X1512810Y476715D01*
X1512810Y478425D02*
X1504110Y478425D01*
X1504110Y480135D02*
X1512810Y480135D01*
X1530110Y476715D02*
X1538810Y476715D01*
X1530110Y476715D02*
X1530110Y480915D01*
X1538810Y480915D01*
X1538810Y476715D01*
X1538810Y478425D02*
X1530110Y478425D01*
X1530110Y480135D02*
X1538810Y480135D01*
X1538810Y486215D02*
X1530110Y486215D01*
X1530110Y490415D01*
X1538810Y490415D01*
X1538810Y486215D01*
X1538810Y487925D02*
X1530110Y487925D01*
X1530110Y489635D02*
X1538810Y489635D01*
X1538810Y495715D02*
X1530110Y495715D01*
X1530110Y499915D01*
X1538810Y499915D01*
X1538810Y495715D01*
X1538810Y497425D02*
X1530110Y497425D01*
X1530110Y499135D02*
X1538810Y499135D01*
D25*
X1531145Y533375D03*
X1531145Y514375D03*
X1552145Y523875D03*
D15*
X1470660Y492045D03*
X1470660Y482045D03*
X1494075Y493395D03*
X1484075Y493395D03*
X1494075Y483235D03*
X1484075Y483235D03*
D26*
X1563880Y443935D03*
D27*
X1553880Y418935D03*
X1548880Y418935D03*
D26*
X1468880Y443935D03*
D27*
X1543880Y418935D03*
X1538880Y418935D03*
X1533880Y418935D03*
X1528880Y418935D03*
X1523880Y418935D03*
X1518880Y418935D03*
X1513880Y418935D03*
X1508880Y418935D03*
X1503880Y418935D03*
X1498880Y418935D03*
X1493880Y418935D03*
X1488880Y418935D03*
X1483880Y418935D03*
X1478880Y418935D03*
D15*
X1468835Y735965D03*
X1478835Y735965D03*
X1468755Y716360D03*
X1468755Y726360D03*
X1471295Y800815D03*
X1471295Y810815D03*
X1561465Y800815D03*
X1561465Y810815D03*
D10*
X24570Y956600D03*
X29570Y956600D03*
X34570Y956600D03*
X39570Y956600D03*
X44570Y956600D03*
X49570Y956600D03*
X54570Y956600D03*
X59570Y956600D03*
X64570Y956600D03*
X69570Y956600D03*
X74570Y956600D03*
X79570Y956600D03*
D11*
X86070Y963100D03*
X86070Y968100D03*
X86070Y973100D03*
X86070Y978100D03*
X86070Y983100D03*
X86070Y988100D03*
X86070Y993100D03*
X86070Y998100D03*
X86070Y1003100D03*
X86070Y1008100D03*
X86070Y1013100D03*
X86070Y1018100D03*
D10*
X79570Y1024600D03*
X74570Y1024600D03*
X69570Y1024600D03*
X64570Y1024600D03*
X59570Y1024600D03*
X54570Y1024600D03*
X49570Y1024600D03*
X44570Y1024600D03*
X39570Y1024600D03*
X34570Y1024600D03*
X29570Y1024600D03*
X24570Y1024600D03*
D11*
X18070Y1018100D03*
X18070Y1013100D03*
X18070Y1008100D03*
X18070Y1003100D03*
X18070Y998100D03*
X18070Y993100D03*
X18070Y988100D03*
X18070Y983100D03*
X18070Y978100D03*
X18070Y973100D03*
X18070Y968100D03*
X18070Y963100D03*
D12*
X37070Y978100D03*
X37070Y1003100D03*
X67070Y1003100D03*
X67070Y978100D03*
X52070Y978100D03*
X52070Y1003100D03*
D13*
X24250Y1103100D03*
X29250Y1103100D03*
X34250Y1103100D03*
X39250Y1103100D03*
D14*
X46250Y1110100D03*
X46250Y1115100D03*
X46250Y1120100D03*
X46250Y1125100D03*
D13*
X39250Y1132100D03*
X34250Y1132100D03*
X29250Y1132100D03*
X24250Y1132100D03*
D14*
X17250Y1125100D03*
X17250Y1120100D03*
X17250Y1115100D03*
X17250Y1110100D03*
D15*
X26750Y1112600D03*
X26750Y1122600D03*
X36750Y1122600D03*
X36750Y1112600D03*
D16*
X58270Y1156130D03*
X64770Y1156130D03*
X71270Y1156130D03*
X71270Y1178130D03*
X64770Y1178130D03*
X58270Y1178130D03*
D15*
X46355Y1156415D03*
X46355Y1166415D03*
X74295Y1114980D03*
X74295Y1104980D03*
X54690Y1188720D03*
X64690Y1188720D03*
D17*
X43180Y1192520D03*
D18*
X57180Y1208770D03*
X29180Y1208770D03*
D15*
X44370Y1179195D03*
X34370Y1179195D03*
X83820Y1178640D03*
X83820Y1188640D03*
X7620Y932895D03*
X7620Y942895D03*
X26670Y942895D03*
X26670Y932895D03*
X17145Y942895D03*
X17145Y932895D03*
X36195Y939720D03*
X36195Y929720D03*
X55245Y942895D03*
X55245Y932895D03*
X45720Y939720D03*
X45720Y929720D03*
X14605Y1080850D03*
X14605Y1090850D03*
X14685Y1043305D03*
X24685Y1043305D03*
X14685Y1057275D03*
X24685Y1057275D03*
X14685Y1071245D03*
X24685Y1071245D03*
X34290Y1036400D03*
X34290Y1046400D03*
X34290Y1066880D03*
X34290Y1076880D03*
X44370Y1056640D03*
X34370Y1056640D03*
D19*
X34290Y1085342D03*
X34290Y1093978D03*
D20*
X28067Y1142365D03*
X36703Y1142365D03*
D19*
X36830Y1150112D03*
X36830Y1158748D03*
D20*
X83058Y1042670D03*
X74422Y1042670D03*
X83058Y1093470D03*
X74422Y1093470D03*
D21*
X74295Y1064070D03*
X74295Y1072070D03*
D15*
X26750Y1166495D03*
X36750Y1166495D03*
X57785Y1097995D03*
X57785Y1107995D03*
X57785Y1122125D03*
X57785Y1132125D03*
D22*
X15430Y1196315D03*
X7430Y1196315D03*
X7430Y1177315D03*
X15430Y1177315D03*
D15*
X57785Y1083230D03*
X57785Y1073230D03*
X57785Y1049100D03*
X57785Y1059100D03*
X31035Y915035D03*
X21035Y915035D03*
D23*
X86360Y904485D03*
X86360Y887485D03*
D15*
X7620Y923210D03*
X7620Y913210D03*
D24*
X41070Y907195D02*
X49770Y907195D01*
X41070Y907195D02*
X41070Y911395D01*
X49770Y911395D01*
X49770Y907195D01*
X49770Y908905D02*
X41070Y908905D01*
X41070Y910615D02*
X49770Y910615D01*
X49770Y897695D02*
X41070Y897695D01*
X41070Y901895D01*
X49770Y901895D01*
X49770Y897695D01*
X49770Y899405D02*
X41070Y899405D01*
X41070Y901115D02*
X49770Y901115D01*
X49770Y888195D02*
X41070Y888195D01*
X41070Y892395D01*
X49770Y892395D01*
X49770Y888195D01*
X49770Y889905D02*
X41070Y889905D01*
X41070Y891615D02*
X49770Y891615D01*
X67070Y888195D02*
X75770Y888195D01*
X67070Y888195D02*
X67070Y892395D01*
X75770Y892395D01*
X75770Y888195D01*
X75770Y889905D02*
X67070Y889905D01*
X67070Y891615D02*
X75770Y891615D01*
X75770Y897695D02*
X67070Y897695D01*
X67070Y901895D01*
X75770Y901895D01*
X75770Y897695D01*
X75770Y899405D02*
X67070Y899405D01*
X67070Y901115D02*
X75770Y901115D01*
X75770Y907195D02*
X67070Y907195D01*
X67070Y911395D01*
X75770Y911395D01*
X75770Y907195D01*
X75770Y908905D02*
X67070Y908905D01*
X67070Y910615D02*
X75770Y910615D01*
D25*
X68105Y944855D03*
X68105Y925855D03*
X89105Y935355D03*
D15*
X7620Y903525D03*
X7620Y893525D03*
X31035Y904875D03*
X21035Y904875D03*
X31035Y894715D03*
X21035Y894715D03*
D26*
X100840Y855415D03*
D27*
X90840Y830415D03*
X85840Y830415D03*
D26*
X5840Y855415D03*
D27*
X80840Y830415D03*
X75840Y830415D03*
X70840Y830415D03*
X65840Y830415D03*
X60840Y830415D03*
X55840Y830415D03*
X50840Y830415D03*
X45840Y830415D03*
X40840Y830415D03*
X35840Y830415D03*
X30840Y830415D03*
X25840Y830415D03*
X20840Y830415D03*
X15840Y830415D03*
D15*
X5795Y1147445D03*
X15795Y1147445D03*
X5715Y1127840D03*
X5715Y1137840D03*
X8255Y1212295D03*
X8255Y1222295D03*
X98425Y1212295D03*
X98425Y1222295D03*
D10*
X187130Y956600D03*
X192130Y956600D03*
X197130Y956600D03*
X202130Y956600D03*
X207130Y956600D03*
X212130Y956600D03*
X217130Y956600D03*
X222130Y956600D03*
X227130Y956600D03*
X232130Y956600D03*
X237130Y956600D03*
X242130Y956600D03*
D11*
X248630Y963100D03*
X248630Y968100D03*
X248630Y973100D03*
X248630Y978100D03*
X248630Y983100D03*
X248630Y988100D03*
X248630Y993100D03*
X248630Y998100D03*
X248630Y1003100D03*
X248630Y1008100D03*
X248630Y1013100D03*
X248630Y1018100D03*
D10*
X242130Y1024600D03*
X237130Y1024600D03*
X232130Y1024600D03*
X227130Y1024600D03*
X222130Y1024600D03*
X217130Y1024600D03*
X212130Y1024600D03*
X207130Y1024600D03*
X202130Y1024600D03*
X197130Y1024600D03*
X192130Y1024600D03*
X187130Y1024600D03*
D11*
X180630Y1018100D03*
X180630Y1013100D03*
X180630Y1008100D03*
X180630Y1003100D03*
X180630Y998100D03*
X180630Y993100D03*
X180630Y988100D03*
X180630Y983100D03*
X180630Y978100D03*
X180630Y973100D03*
X180630Y968100D03*
X180630Y963100D03*
D12*
X199630Y978100D03*
X199630Y1003100D03*
X229630Y1003100D03*
X229630Y978100D03*
X214630Y978100D03*
X214630Y1003100D03*
D13*
X186810Y1103100D03*
X191810Y1103100D03*
X196810Y1103100D03*
X201810Y1103100D03*
D14*
X208810Y1110100D03*
X208810Y1115100D03*
X208810Y1120100D03*
X208810Y1125100D03*
D13*
X201810Y1132100D03*
X196810Y1132100D03*
X191810Y1132100D03*
X186810Y1132100D03*
D14*
X179810Y1125100D03*
X179810Y1120100D03*
X179810Y1115100D03*
X179810Y1110100D03*
D15*
X189310Y1112600D03*
X189310Y1122600D03*
X199310Y1122600D03*
X199310Y1112600D03*
D16*
X220830Y1156130D03*
X227330Y1156130D03*
X233830Y1156130D03*
X233830Y1178130D03*
X227330Y1178130D03*
X220830Y1178130D03*
D15*
X208915Y1156415D03*
X208915Y1166415D03*
X236855Y1114980D03*
X236855Y1104980D03*
X217250Y1188720D03*
X227250Y1188720D03*
D17*
X205740Y1192520D03*
D18*
X219740Y1208770D03*
X191740Y1208770D03*
D15*
X206930Y1179195D03*
X196930Y1179195D03*
X246380Y1178640D03*
X246380Y1188640D03*
X170180Y932895D03*
X170180Y942895D03*
X189230Y942895D03*
X189230Y932895D03*
X179705Y942895D03*
X179705Y932895D03*
X198755Y939720D03*
X198755Y929720D03*
X217805Y942895D03*
X217805Y932895D03*
X208280Y939720D03*
X208280Y929720D03*
X177165Y1080850D03*
X177165Y1090850D03*
X177245Y1043305D03*
X187245Y1043305D03*
X177245Y1057275D03*
X187245Y1057275D03*
X177245Y1071245D03*
X187245Y1071245D03*
X196850Y1036400D03*
X196850Y1046400D03*
X196850Y1066880D03*
X196850Y1076880D03*
X206930Y1056640D03*
X196930Y1056640D03*
D19*
X196850Y1085342D03*
X196850Y1093978D03*
D20*
X190627Y1142365D03*
X199263Y1142365D03*
D19*
X199390Y1150112D03*
X199390Y1158748D03*
D20*
X245618Y1042670D03*
X236982Y1042670D03*
X245618Y1093470D03*
X236982Y1093470D03*
D21*
X236855Y1064070D03*
X236855Y1072070D03*
D15*
X189310Y1166495D03*
X199310Y1166495D03*
X220345Y1097995D03*
X220345Y1107995D03*
X220345Y1122125D03*
X220345Y1132125D03*
D22*
X177990Y1196315D03*
X169990Y1196315D03*
X169990Y1177315D03*
X177990Y1177315D03*
D15*
X220345Y1083230D03*
X220345Y1073230D03*
X220345Y1049100D03*
X220345Y1059100D03*
X193595Y915035D03*
X183595Y915035D03*
D23*
X248920Y904485D03*
X248920Y887485D03*
D15*
X170180Y923210D03*
X170180Y913210D03*
D24*
X203630Y907195D02*
X212330Y907195D01*
X203630Y907195D02*
X203630Y911395D01*
X212330Y911395D01*
X212330Y907195D01*
X212330Y908905D02*
X203630Y908905D01*
X203630Y910615D02*
X212330Y910615D01*
X212330Y897695D02*
X203630Y897695D01*
X203630Y901895D01*
X212330Y901895D01*
X212330Y897695D01*
X212330Y899405D02*
X203630Y899405D01*
X203630Y901115D02*
X212330Y901115D01*
X212330Y888195D02*
X203630Y888195D01*
X203630Y892395D01*
X212330Y892395D01*
X212330Y888195D01*
X212330Y889905D02*
X203630Y889905D01*
X203630Y891615D02*
X212330Y891615D01*
X229630Y888195D02*
X238330Y888195D01*
X229630Y888195D02*
X229630Y892395D01*
X238330Y892395D01*
X238330Y888195D01*
X238330Y889905D02*
X229630Y889905D01*
X229630Y891615D02*
X238330Y891615D01*
X238330Y897695D02*
X229630Y897695D01*
X229630Y901895D01*
X238330Y901895D01*
X238330Y897695D01*
X238330Y899405D02*
X229630Y899405D01*
X229630Y901115D02*
X238330Y901115D01*
X238330Y907195D02*
X229630Y907195D01*
X229630Y911395D01*
X238330Y911395D01*
X238330Y907195D01*
X238330Y908905D02*
X229630Y908905D01*
X229630Y910615D02*
X238330Y910615D01*
D25*
X230665Y944855D03*
X230665Y925855D03*
X251665Y935355D03*
D15*
X170180Y903525D03*
X170180Y893525D03*
X193595Y904875D03*
X183595Y904875D03*
X193595Y894715D03*
X183595Y894715D03*
D26*
X263400Y855415D03*
D27*
X253400Y830415D03*
X248400Y830415D03*
D26*
X168400Y855415D03*
D27*
X243400Y830415D03*
X238400Y830415D03*
X233400Y830415D03*
X228400Y830415D03*
X223400Y830415D03*
X218400Y830415D03*
X213400Y830415D03*
X208400Y830415D03*
X203400Y830415D03*
X198400Y830415D03*
X193400Y830415D03*
X188400Y830415D03*
X183400Y830415D03*
X178400Y830415D03*
D15*
X168355Y1147445D03*
X178355Y1147445D03*
X168275Y1127840D03*
X168275Y1137840D03*
X170815Y1212295D03*
X170815Y1222295D03*
X260985Y1212295D03*
X260985Y1222295D03*
D10*
X349690Y956600D03*
X354690Y956600D03*
X359690Y956600D03*
X364690Y956600D03*
X369690Y956600D03*
X374690Y956600D03*
X379690Y956600D03*
X384690Y956600D03*
X389690Y956600D03*
X394690Y956600D03*
X399690Y956600D03*
X404690Y956600D03*
D11*
X411190Y963100D03*
X411190Y968100D03*
X411190Y973100D03*
X411190Y978100D03*
X411190Y983100D03*
X411190Y988100D03*
X411190Y993100D03*
X411190Y998100D03*
X411190Y1003100D03*
X411190Y1008100D03*
X411190Y1013100D03*
X411190Y1018100D03*
D10*
X404690Y1024600D03*
X399690Y1024600D03*
X394690Y1024600D03*
X389690Y1024600D03*
X384690Y1024600D03*
X379690Y1024600D03*
X374690Y1024600D03*
X369690Y1024600D03*
X364690Y1024600D03*
X359690Y1024600D03*
X354690Y1024600D03*
X349690Y1024600D03*
D11*
X343190Y1018100D03*
X343190Y1013100D03*
X343190Y1008100D03*
X343190Y1003100D03*
X343190Y998100D03*
X343190Y993100D03*
X343190Y988100D03*
X343190Y983100D03*
X343190Y978100D03*
X343190Y973100D03*
X343190Y968100D03*
X343190Y963100D03*
D12*
X362190Y978100D03*
X362190Y1003100D03*
X392190Y1003100D03*
X392190Y978100D03*
X377190Y978100D03*
X377190Y1003100D03*
D13*
X349370Y1103100D03*
X354370Y1103100D03*
X359370Y1103100D03*
X364370Y1103100D03*
D14*
X371370Y1110100D03*
X371370Y1115100D03*
X371370Y1120100D03*
X371370Y1125100D03*
D13*
X364370Y1132100D03*
X359370Y1132100D03*
X354370Y1132100D03*
X349370Y1132100D03*
D14*
X342370Y1125100D03*
X342370Y1120100D03*
X342370Y1115100D03*
X342370Y1110100D03*
D15*
X351870Y1112600D03*
X351870Y1122600D03*
X361870Y1122600D03*
X361870Y1112600D03*
D16*
X383390Y1156130D03*
X389890Y1156130D03*
X396390Y1156130D03*
X396390Y1178130D03*
X389890Y1178130D03*
X383390Y1178130D03*
D15*
X371475Y1156415D03*
X371475Y1166415D03*
X399415Y1114980D03*
X399415Y1104980D03*
X379810Y1188720D03*
X389810Y1188720D03*
D17*
X368300Y1192520D03*
D18*
X382300Y1208770D03*
X354300Y1208770D03*
D15*
X369490Y1179195D03*
X359490Y1179195D03*
X408940Y1178640D03*
X408940Y1188640D03*
X332740Y932895D03*
X332740Y942895D03*
X351790Y942895D03*
X351790Y932895D03*
X342265Y942895D03*
X342265Y932895D03*
X361315Y939720D03*
X361315Y929720D03*
X380365Y942895D03*
X380365Y932895D03*
X370840Y939720D03*
X370840Y929720D03*
X339725Y1080850D03*
X339725Y1090850D03*
X339805Y1043305D03*
X349805Y1043305D03*
X339805Y1057275D03*
X349805Y1057275D03*
X339805Y1071245D03*
X349805Y1071245D03*
X359410Y1036400D03*
X359410Y1046400D03*
X359410Y1066880D03*
X359410Y1076880D03*
X369490Y1056640D03*
X359490Y1056640D03*
D19*
X359410Y1085342D03*
X359410Y1093978D03*
D20*
X353187Y1142365D03*
X361823Y1142365D03*
D19*
X361950Y1150112D03*
X361950Y1158748D03*
D20*
X408178Y1042670D03*
X399542Y1042670D03*
X408178Y1093470D03*
X399542Y1093470D03*
D21*
X399415Y1064070D03*
X399415Y1072070D03*
D15*
X351870Y1166495D03*
X361870Y1166495D03*
X382905Y1097995D03*
X382905Y1107995D03*
X382905Y1122125D03*
X382905Y1132125D03*
D22*
X340550Y1196315D03*
X332550Y1196315D03*
X332550Y1177315D03*
X340550Y1177315D03*
D15*
X382905Y1083230D03*
X382905Y1073230D03*
X382905Y1049100D03*
X382905Y1059100D03*
X356155Y915035D03*
X346155Y915035D03*
D23*
X411480Y904485D03*
X411480Y887485D03*
D15*
X332740Y923210D03*
X332740Y913210D03*
D24*
X366190Y907195D02*
X374890Y907195D01*
X366190Y907195D02*
X366190Y911395D01*
X374890Y911395D01*
X374890Y907195D01*
X374890Y908905D02*
X366190Y908905D01*
X366190Y910615D02*
X374890Y910615D01*
X374890Y897695D02*
X366190Y897695D01*
X366190Y901895D01*
X374890Y901895D01*
X374890Y897695D01*
X374890Y899405D02*
X366190Y899405D01*
X366190Y901115D02*
X374890Y901115D01*
X374890Y888195D02*
X366190Y888195D01*
X366190Y892395D01*
X374890Y892395D01*
X374890Y888195D01*
X374890Y889905D02*
X366190Y889905D01*
X366190Y891615D02*
X374890Y891615D01*
X392190Y888195D02*
X400890Y888195D01*
X392190Y888195D02*
X392190Y892395D01*
X400890Y892395D01*
X400890Y888195D01*
X400890Y889905D02*
X392190Y889905D01*
X392190Y891615D02*
X400890Y891615D01*
X400890Y897695D02*
X392190Y897695D01*
X392190Y901895D01*
X400890Y901895D01*
X400890Y897695D01*
X400890Y899405D02*
X392190Y899405D01*
X392190Y901115D02*
X400890Y901115D01*
X400890Y907195D02*
X392190Y907195D01*
X392190Y911395D01*
X400890Y911395D01*
X400890Y907195D01*
X400890Y908905D02*
X392190Y908905D01*
X392190Y910615D02*
X400890Y910615D01*
D25*
X393225Y944855D03*
X393225Y925855D03*
X414225Y935355D03*
D15*
X332740Y903525D03*
X332740Y893525D03*
X356155Y904875D03*
X346155Y904875D03*
X356155Y894715D03*
X346155Y894715D03*
D26*
X425960Y855415D03*
D27*
X415960Y830415D03*
X410960Y830415D03*
D26*
X330960Y855415D03*
D27*
X405960Y830415D03*
X400960Y830415D03*
X395960Y830415D03*
X390960Y830415D03*
X385960Y830415D03*
X380960Y830415D03*
X375960Y830415D03*
X370960Y830415D03*
X365960Y830415D03*
X360960Y830415D03*
X355960Y830415D03*
X350960Y830415D03*
X345960Y830415D03*
X340960Y830415D03*
D15*
X330915Y1147445D03*
X340915Y1147445D03*
X330835Y1127840D03*
X330835Y1137840D03*
X333375Y1212295D03*
X333375Y1222295D03*
X423545Y1212295D03*
X423545Y1222295D03*
D10*
X512250Y956600D03*
X517250Y956600D03*
X522250Y956600D03*
X527250Y956600D03*
X532250Y956600D03*
X537250Y956600D03*
X542250Y956600D03*
X547250Y956600D03*
X552250Y956600D03*
X557250Y956600D03*
X562250Y956600D03*
X567250Y956600D03*
D11*
X573750Y963100D03*
X573750Y968100D03*
X573750Y973100D03*
X573750Y978100D03*
X573750Y983100D03*
X573750Y988100D03*
X573750Y993100D03*
X573750Y998100D03*
X573750Y1003100D03*
X573750Y1008100D03*
X573750Y1013100D03*
X573750Y1018100D03*
D10*
X567250Y1024600D03*
X562250Y1024600D03*
X557250Y1024600D03*
X552250Y1024600D03*
X547250Y1024600D03*
X542250Y1024600D03*
X537250Y1024600D03*
X532250Y1024600D03*
X527250Y1024600D03*
X522250Y1024600D03*
X517250Y1024600D03*
X512250Y1024600D03*
D11*
X505750Y1018100D03*
X505750Y1013100D03*
X505750Y1008100D03*
X505750Y1003100D03*
X505750Y998100D03*
X505750Y993100D03*
X505750Y988100D03*
X505750Y983100D03*
X505750Y978100D03*
X505750Y973100D03*
X505750Y968100D03*
X505750Y963100D03*
D12*
X524750Y978100D03*
X524750Y1003100D03*
X554750Y1003100D03*
X554750Y978100D03*
X539750Y978100D03*
X539750Y1003100D03*
D13*
X511930Y1103100D03*
X516930Y1103100D03*
X521930Y1103100D03*
X526930Y1103100D03*
D14*
X533930Y1110100D03*
X533930Y1115100D03*
X533930Y1120100D03*
X533930Y1125100D03*
D13*
X526930Y1132100D03*
X521930Y1132100D03*
X516930Y1132100D03*
X511930Y1132100D03*
D14*
X504930Y1125100D03*
X504930Y1120100D03*
X504930Y1115100D03*
X504930Y1110100D03*
D15*
X514430Y1112600D03*
X514430Y1122600D03*
X524430Y1122600D03*
X524430Y1112600D03*
D16*
X545950Y1156130D03*
X552450Y1156130D03*
X558950Y1156130D03*
X558950Y1178130D03*
X552450Y1178130D03*
X545950Y1178130D03*
D15*
X534035Y1156415D03*
X534035Y1166415D03*
X561975Y1114980D03*
X561975Y1104980D03*
X542370Y1188720D03*
X552370Y1188720D03*
D17*
X530860Y1192520D03*
D18*
X544860Y1208770D03*
X516860Y1208770D03*
D15*
X532050Y1179195D03*
X522050Y1179195D03*
X571500Y1178640D03*
X571500Y1188640D03*
X495300Y932895D03*
X495300Y942895D03*
X514350Y942895D03*
X514350Y932895D03*
X504825Y942895D03*
X504825Y932895D03*
X523875Y939720D03*
X523875Y929720D03*
X542925Y942895D03*
X542925Y932895D03*
X533400Y939720D03*
X533400Y929720D03*
X502285Y1080850D03*
X502285Y1090850D03*
X502365Y1043305D03*
X512365Y1043305D03*
X502365Y1057275D03*
X512365Y1057275D03*
X502365Y1071245D03*
X512365Y1071245D03*
X521970Y1036400D03*
X521970Y1046400D03*
X521970Y1066880D03*
X521970Y1076880D03*
X532050Y1056640D03*
X522050Y1056640D03*
D19*
X521970Y1085342D03*
X521970Y1093978D03*
D20*
X515747Y1142365D03*
X524383Y1142365D03*
D19*
X524510Y1150112D03*
X524510Y1158748D03*
D20*
X570738Y1042670D03*
X562102Y1042670D03*
X570738Y1093470D03*
X562102Y1093470D03*
D21*
X561975Y1064070D03*
X561975Y1072070D03*
D15*
X514430Y1166495D03*
X524430Y1166495D03*
X545465Y1097995D03*
X545465Y1107995D03*
X545465Y1122125D03*
X545465Y1132125D03*
D22*
X503110Y1196315D03*
X495110Y1196315D03*
X495110Y1177315D03*
X503110Y1177315D03*
D15*
X545465Y1083230D03*
X545465Y1073230D03*
X545465Y1049100D03*
X545465Y1059100D03*
X518715Y915035D03*
X508715Y915035D03*
D23*
X574040Y904485D03*
X574040Y887485D03*
D15*
X495300Y923210D03*
X495300Y913210D03*
D24*
X528750Y907195D02*
X537450Y907195D01*
X528750Y907195D02*
X528750Y911395D01*
X537450Y911395D01*
X537450Y907195D01*
X537450Y908905D02*
X528750Y908905D01*
X528750Y910615D02*
X537450Y910615D01*
X537450Y897695D02*
X528750Y897695D01*
X528750Y901895D01*
X537450Y901895D01*
X537450Y897695D01*
X537450Y899405D02*
X528750Y899405D01*
X528750Y901115D02*
X537450Y901115D01*
X537450Y888195D02*
X528750Y888195D01*
X528750Y892395D01*
X537450Y892395D01*
X537450Y888195D01*
X537450Y889905D02*
X528750Y889905D01*
X528750Y891615D02*
X537450Y891615D01*
X554750Y888195D02*
X563450Y888195D01*
X554750Y888195D02*
X554750Y892395D01*
X563450Y892395D01*
X563450Y888195D01*
X563450Y889905D02*
X554750Y889905D01*
X554750Y891615D02*
X563450Y891615D01*
X563450Y897695D02*
X554750Y897695D01*
X554750Y901895D01*
X563450Y901895D01*
X563450Y897695D01*
X563450Y899405D02*
X554750Y899405D01*
X554750Y901115D02*
X563450Y901115D01*
X563450Y907195D02*
X554750Y907195D01*
X554750Y911395D01*
X563450Y911395D01*
X563450Y907195D01*
X563450Y908905D02*
X554750Y908905D01*
X554750Y910615D02*
X563450Y910615D01*
D25*
X555785Y944855D03*
X555785Y925855D03*
X576785Y935355D03*
D15*
X495300Y903525D03*
X495300Y893525D03*
X518715Y904875D03*
X508715Y904875D03*
X518715Y894715D03*
X508715Y894715D03*
D26*
X588520Y855415D03*
D27*
X578520Y830415D03*
X573520Y830415D03*
D26*
X493520Y855415D03*
D27*
X568520Y830415D03*
X563520Y830415D03*
X558520Y830415D03*
X553520Y830415D03*
X548520Y830415D03*
X543520Y830415D03*
X538520Y830415D03*
X533520Y830415D03*
X528520Y830415D03*
X523520Y830415D03*
X518520Y830415D03*
X513520Y830415D03*
X508520Y830415D03*
X503520Y830415D03*
D15*
X493475Y1147445D03*
X503475Y1147445D03*
X493395Y1127840D03*
X493395Y1137840D03*
X495935Y1212295D03*
X495935Y1222295D03*
X586105Y1212295D03*
X586105Y1222295D03*
D10*
X674810Y956600D03*
X679810Y956600D03*
X684810Y956600D03*
X689810Y956600D03*
X694810Y956600D03*
X699810Y956600D03*
X704810Y956600D03*
X709810Y956600D03*
X714810Y956600D03*
X719810Y956600D03*
X724810Y956600D03*
X729810Y956600D03*
D11*
X736310Y963100D03*
X736310Y968100D03*
X736310Y973100D03*
X736310Y978100D03*
X736310Y983100D03*
X736310Y988100D03*
X736310Y993100D03*
X736310Y998100D03*
X736310Y1003100D03*
X736310Y1008100D03*
X736310Y1013100D03*
X736310Y1018100D03*
D10*
X729810Y1024600D03*
X724810Y1024600D03*
X719810Y1024600D03*
X714810Y1024600D03*
X709810Y1024600D03*
X704810Y1024600D03*
X699810Y1024600D03*
X694810Y1024600D03*
X689810Y1024600D03*
X684810Y1024600D03*
X679810Y1024600D03*
X674810Y1024600D03*
D11*
X668310Y1018100D03*
X668310Y1013100D03*
X668310Y1008100D03*
X668310Y1003100D03*
X668310Y998100D03*
X668310Y993100D03*
X668310Y988100D03*
X668310Y983100D03*
X668310Y978100D03*
X668310Y973100D03*
X668310Y968100D03*
X668310Y963100D03*
D12*
X687310Y978100D03*
X687310Y1003100D03*
X717310Y1003100D03*
X717310Y978100D03*
X702310Y978100D03*
X702310Y1003100D03*
D13*
X674490Y1103100D03*
X679490Y1103100D03*
X684490Y1103100D03*
X689490Y1103100D03*
D14*
X696490Y1110100D03*
X696490Y1115100D03*
X696490Y1120100D03*
X696490Y1125100D03*
D13*
X689490Y1132100D03*
X684490Y1132100D03*
X679490Y1132100D03*
X674490Y1132100D03*
D14*
X667490Y1125100D03*
X667490Y1120100D03*
X667490Y1115100D03*
X667490Y1110100D03*
D15*
X676990Y1112600D03*
X676990Y1122600D03*
X686990Y1122600D03*
X686990Y1112600D03*
D16*
X708510Y1156130D03*
X715010Y1156130D03*
X721510Y1156130D03*
X721510Y1178130D03*
X715010Y1178130D03*
X708510Y1178130D03*
D15*
X696595Y1156415D03*
X696595Y1166415D03*
X724535Y1114980D03*
X724535Y1104980D03*
X704930Y1188720D03*
X714930Y1188720D03*
D17*
X693420Y1192520D03*
D18*
X707420Y1208770D03*
X679420Y1208770D03*
D15*
X694610Y1179195D03*
X684610Y1179195D03*
X734060Y1178640D03*
X734060Y1188640D03*
X657860Y932895D03*
X657860Y942895D03*
X676910Y942895D03*
X676910Y932895D03*
X667385Y942895D03*
X667385Y932895D03*
X686435Y939720D03*
X686435Y929720D03*
X705485Y942895D03*
X705485Y932895D03*
X695960Y939720D03*
X695960Y929720D03*
X664845Y1080850D03*
X664845Y1090850D03*
X664925Y1043305D03*
X674925Y1043305D03*
X664925Y1057275D03*
X674925Y1057275D03*
X664925Y1071245D03*
X674925Y1071245D03*
X684530Y1036400D03*
X684530Y1046400D03*
X684530Y1066880D03*
X684530Y1076880D03*
X694610Y1056640D03*
X684610Y1056640D03*
D19*
X684530Y1085342D03*
X684530Y1093978D03*
D20*
X678307Y1142365D03*
X686943Y1142365D03*
D19*
X687070Y1150112D03*
X687070Y1158748D03*
D20*
X733298Y1042670D03*
X724662Y1042670D03*
X733298Y1093470D03*
X724662Y1093470D03*
D21*
X724535Y1064070D03*
X724535Y1072070D03*
D15*
X676990Y1166495D03*
X686990Y1166495D03*
X708025Y1097995D03*
X708025Y1107995D03*
X708025Y1122125D03*
X708025Y1132125D03*
D22*
X665670Y1196315D03*
X657670Y1196315D03*
X657670Y1177315D03*
X665670Y1177315D03*
D15*
X708025Y1083230D03*
X708025Y1073230D03*
X708025Y1049100D03*
X708025Y1059100D03*
X681275Y915035D03*
X671275Y915035D03*
D23*
X736600Y904485D03*
X736600Y887485D03*
D15*
X657860Y923210D03*
X657860Y913210D03*
D24*
X691310Y907195D02*
X700010Y907195D01*
X691310Y907195D02*
X691310Y911395D01*
X700010Y911395D01*
X700010Y907195D01*
X700010Y908905D02*
X691310Y908905D01*
X691310Y910615D02*
X700010Y910615D01*
X700010Y897695D02*
X691310Y897695D01*
X691310Y901895D01*
X700010Y901895D01*
X700010Y897695D01*
X700010Y899405D02*
X691310Y899405D01*
X691310Y901115D02*
X700010Y901115D01*
X700010Y888195D02*
X691310Y888195D01*
X691310Y892395D01*
X700010Y892395D01*
X700010Y888195D01*
X700010Y889905D02*
X691310Y889905D01*
X691310Y891615D02*
X700010Y891615D01*
X717310Y888195D02*
X726010Y888195D01*
X717310Y888195D02*
X717310Y892395D01*
X726010Y892395D01*
X726010Y888195D01*
X726010Y889905D02*
X717310Y889905D01*
X717310Y891615D02*
X726010Y891615D01*
X726010Y897695D02*
X717310Y897695D01*
X717310Y901895D01*
X726010Y901895D01*
X726010Y897695D01*
X726010Y899405D02*
X717310Y899405D01*
X717310Y901115D02*
X726010Y901115D01*
X726010Y907195D02*
X717310Y907195D01*
X717310Y911395D01*
X726010Y911395D01*
X726010Y907195D01*
X726010Y908905D02*
X717310Y908905D01*
X717310Y910615D02*
X726010Y910615D01*
D25*
X718345Y944855D03*
X718345Y925855D03*
X739345Y935355D03*
D15*
X657860Y903525D03*
X657860Y893525D03*
X681275Y904875D03*
X671275Y904875D03*
X681275Y894715D03*
X671275Y894715D03*
D26*
X751080Y855415D03*
D27*
X741080Y830415D03*
X736080Y830415D03*
D26*
X656080Y855415D03*
D27*
X731080Y830415D03*
X726080Y830415D03*
X721080Y830415D03*
X716080Y830415D03*
X711080Y830415D03*
X706080Y830415D03*
X701080Y830415D03*
X696080Y830415D03*
X691080Y830415D03*
X686080Y830415D03*
X681080Y830415D03*
X676080Y830415D03*
X671080Y830415D03*
X666080Y830415D03*
D15*
X656035Y1147445D03*
X666035Y1147445D03*
X655955Y1127840D03*
X655955Y1137840D03*
X658495Y1212295D03*
X658495Y1222295D03*
X748665Y1212295D03*
X748665Y1222295D03*
D10*
X837370Y956600D03*
X842370Y956600D03*
X847370Y956600D03*
X852370Y956600D03*
X857370Y956600D03*
X862370Y956600D03*
X867370Y956600D03*
X872370Y956600D03*
X877370Y956600D03*
X882370Y956600D03*
X887370Y956600D03*
X892370Y956600D03*
D11*
X898870Y963100D03*
X898870Y968100D03*
X898870Y973100D03*
X898870Y978100D03*
X898870Y983100D03*
X898870Y988100D03*
X898870Y993100D03*
X898870Y998100D03*
X898870Y1003100D03*
X898870Y1008100D03*
X898870Y1013100D03*
X898870Y1018100D03*
D10*
X892370Y1024600D03*
X887370Y1024600D03*
X882370Y1024600D03*
X877370Y1024600D03*
X872370Y1024600D03*
X867370Y1024600D03*
X862370Y1024600D03*
X857370Y1024600D03*
X852370Y1024600D03*
X847370Y1024600D03*
X842370Y1024600D03*
X837370Y1024600D03*
D11*
X830870Y1018100D03*
X830870Y1013100D03*
X830870Y1008100D03*
X830870Y1003100D03*
X830870Y998100D03*
X830870Y993100D03*
X830870Y988100D03*
X830870Y983100D03*
X830870Y978100D03*
X830870Y973100D03*
X830870Y968100D03*
X830870Y963100D03*
D12*
X849870Y978100D03*
X849870Y1003100D03*
X879870Y1003100D03*
X879870Y978100D03*
X864870Y978100D03*
X864870Y1003100D03*
D13*
X837050Y1103100D03*
X842050Y1103100D03*
X847050Y1103100D03*
X852050Y1103100D03*
D14*
X859050Y1110100D03*
X859050Y1115100D03*
X859050Y1120100D03*
X859050Y1125100D03*
D13*
X852050Y1132100D03*
X847050Y1132100D03*
X842050Y1132100D03*
X837050Y1132100D03*
D14*
X830050Y1125100D03*
X830050Y1120100D03*
X830050Y1115100D03*
X830050Y1110100D03*
D15*
X839550Y1112600D03*
X839550Y1122600D03*
X849550Y1122600D03*
X849550Y1112600D03*
D16*
X871070Y1156130D03*
X877570Y1156130D03*
X884070Y1156130D03*
X884070Y1178130D03*
X877570Y1178130D03*
X871070Y1178130D03*
D15*
X859155Y1156415D03*
X859155Y1166415D03*
X887095Y1114980D03*
X887095Y1104980D03*
X867490Y1188720D03*
X877490Y1188720D03*
D17*
X855980Y1192520D03*
D18*
X869980Y1208770D03*
X841980Y1208770D03*
D15*
X857170Y1179195D03*
X847170Y1179195D03*
X896620Y1178640D03*
X896620Y1188640D03*
X820420Y932895D03*
X820420Y942895D03*
X839470Y942895D03*
X839470Y932895D03*
X829945Y942895D03*
X829945Y932895D03*
X848995Y939720D03*
X848995Y929720D03*
X868045Y942895D03*
X868045Y932895D03*
X858520Y939720D03*
X858520Y929720D03*
X827405Y1080850D03*
X827405Y1090850D03*
X827485Y1043305D03*
X837485Y1043305D03*
X827485Y1057275D03*
X837485Y1057275D03*
X827485Y1071245D03*
X837485Y1071245D03*
X847090Y1036400D03*
X847090Y1046400D03*
X847090Y1066880D03*
X847090Y1076880D03*
X857170Y1056640D03*
X847170Y1056640D03*
D19*
X847090Y1085342D03*
X847090Y1093978D03*
D20*
X840867Y1142365D03*
X849503Y1142365D03*
D19*
X849630Y1150112D03*
X849630Y1158748D03*
D20*
X895858Y1042670D03*
X887222Y1042670D03*
X895858Y1093470D03*
X887222Y1093470D03*
D21*
X887095Y1064070D03*
X887095Y1072070D03*
D15*
X839550Y1166495D03*
X849550Y1166495D03*
X870585Y1097995D03*
X870585Y1107995D03*
X870585Y1122125D03*
X870585Y1132125D03*
D22*
X828230Y1196315D03*
X820230Y1196315D03*
X820230Y1177315D03*
X828230Y1177315D03*
D15*
X870585Y1083230D03*
X870585Y1073230D03*
X870585Y1049100D03*
X870585Y1059100D03*
X843835Y915035D03*
X833835Y915035D03*
D23*
X899160Y904485D03*
X899160Y887485D03*
D15*
X820420Y923210D03*
X820420Y913210D03*
D24*
X853870Y907195D02*
X862570Y907195D01*
X853870Y907195D02*
X853870Y911395D01*
X862570Y911395D01*
X862570Y907195D01*
X862570Y908905D02*
X853870Y908905D01*
X853870Y910615D02*
X862570Y910615D01*
X862570Y897695D02*
X853870Y897695D01*
X853870Y901895D01*
X862570Y901895D01*
X862570Y897695D01*
X862570Y899405D02*
X853870Y899405D01*
X853870Y901115D02*
X862570Y901115D01*
X862570Y888195D02*
X853870Y888195D01*
X853870Y892395D01*
X862570Y892395D01*
X862570Y888195D01*
X862570Y889905D02*
X853870Y889905D01*
X853870Y891615D02*
X862570Y891615D01*
X879870Y888195D02*
X888570Y888195D01*
X879870Y888195D02*
X879870Y892395D01*
X888570Y892395D01*
X888570Y888195D01*
X888570Y889905D02*
X879870Y889905D01*
X879870Y891615D02*
X888570Y891615D01*
X888570Y897695D02*
X879870Y897695D01*
X879870Y901895D01*
X888570Y901895D01*
X888570Y897695D01*
X888570Y899405D02*
X879870Y899405D01*
X879870Y901115D02*
X888570Y901115D01*
X888570Y907195D02*
X879870Y907195D01*
X879870Y911395D01*
X888570Y911395D01*
X888570Y907195D01*
X888570Y908905D02*
X879870Y908905D01*
X879870Y910615D02*
X888570Y910615D01*
D25*
X880905Y944855D03*
X880905Y925855D03*
X901905Y935355D03*
D15*
X820420Y903525D03*
X820420Y893525D03*
X843835Y904875D03*
X833835Y904875D03*
X843835Y894715D03*
X833835Y894715D03*
D26*
X913640Y855415D03*
D27*
X903640Y830415D03*
X898640Y830415D03*
D26*
X818640Y855415D03*
D27*
X893640Y830415D03*
X888640Y830415D03*
X883640Y830415D03*
X878640Y830415D03*
X873640Y830415D03*
X868640Y830415D03*
X863640Y830415D03*
X858640Y830415D03*
X853640Y830415D03*
X848640Y830415D03*
X843640Y830415D03*
X838640Y830415D03*
X833640Y830415D03*
X828640Y830415D03*
D15*
X818595Y1147445D03*
X828595Y1147445D03*
X818515Y1127840D03*
X818515Y1137840D03*
X821055Y1212295D03*
X821055Y1222295D03*
X911225Y1212295D03*
X911225Y1222295D03*
D10*
X999930Y956600D03*
X1004930Y956600D03*
X1009930Y956600D03*
X1014930Y956600D03*
X1019930Y956600D03*
X1024930Y956600D03*
X1029930Y956600D03*
X1034930Y956600D03*
X1039930Y956600D03*
X1044930Y956600D03*
X1049930Y956600D03*
X1054930Y956600D03*
D11*
X1061430Y963100D03*
X1061430Y968100D03*
X1061430Y973100D03*
X1061430Y978100D03*
X1061430Y983100D03*
X1061430Y988100D03*
X1061430Y993100D03*
X1061430Y998100D03*
X1061430Y1003100D03*
X1061430Y1008100D03*
X1061430Y1013100D03*
X1061430Y1018100D03*
D10*
X1054930Y1024600D03*
X1049930Y1024600D03*
X1044930Y1024600D03*
X1039930Y1024600D03*
X1034930Y1024600D03*
X1029930Y1024600D03*
X1024930Y1024600D03*
X1019930Y1024600D03*
X1014930Y1024600D03*
X1009930Y1024600D03*
X1004930Y1024600D03*
X999930Y1024600D03*
D11*
X993430Y1018100D03*
X993430Y1013100D03*
X993430Y1008100D03*
X993430Y1003100D03*
X993430Y998100D03*
X993430Y993100D03*
X993430Y988100D03*
X993430Y983100D03*
X993430Y978100D03*
X993430Y973100D03*
X993430Y968100D03*
X993430Y963100D03*
D12*
X1012430Y978100D03*
X1012430Y1003100D03*
X1042430Y1003100D03*
X1042430Y978100D03*
X1027430Y978100D03*
X1027430Y1003100D03*
D13*
X999610Y1103100D03*
X1004610Y1103100D03*
X1009610Y1103100D03*
X1014610Y1103100D03*
D14*
X1021610Y1110100D03*
X1021610Y1115100D03*
X1021610Y1120100D03*
X1021610Y1125100D03*
D13*
X1014610Y1132100D03*
X1009610Y1132100D03*
X1004610Y1132100D03*
X999610Y1132100D03*
D14*
X992610Y1125100D03*
X992610Y1120100D03*
X992610Y1115100D03*
X992610Y1110100D03*
D15*
X1002110Y1112600D03*
X1002110Y1122600D03*
X1012110Y1122600D03*
X1012110Y1112600D03*
D16*
X1033630Y1156130D03*
X1040130Y1156130D03*
X1046630Y1156130D03*
X1046630Y1178130D03*
X1040130Y1178130D03*
X1033630Y1178130D03*
D15*
X1021715Y1156415D03*
X1021715Y1166415D03*
X1049655Y1114980D03*
X1049655Y1104980D03*
X1030050Y1188720D03*
X1040050Y1188720D03*
D17*
X1018540Y1192520D03*
D18*
X1032540Y1208770D03*
X1004540Y1208770D03*
D15*
X1019730Y1179195D03*
X1009730Y1179195D03*
X1059180Y1178640D03*
X1059180Y1188640D03*
X982980Y932895D03*
X982980Y942895D03*
X1002030Y942895D03*
X1002030Y932895D03*
X992505Y942895D03*
X992505Y932895D03*
X1011555Y939720D03*
X1011555Y929720D03*
X1030605Y942895D03*
X1030605Y932895D03*
X1021080Y939720D03*
X1021080Y929720D03*
X989965Y1080850D03*
X989965Y1090850D03*
X990045Y1043305D03*
X1000045Y1043305D03*
X990045Y1057275D03*
X1000045Y1057275D03*
X990045Y1071245D03*
X1000045Y1071245D03*
X1009650Y1036400D03*
X1009650Y1046400D03*
X1009650Y1066880D03*
X1009650Y1076880D03*
X1019730Y1056640D03*
X1009730Y1056640D03*
D19*
X1009650Y1085342D03*
X1009650Y1093978D03*
D20*
X1003427Y1142365D03*
X1012063Y1142365D03*
D19*
X1012190Y1150112D03*
X1012190Y1158748D03*
D20*
X1058418Y1042670D03*
X1049782Y1042670D03*
X1058418Y1093470D03*
X1049782Y1093470D03*
D21*
X1049655Y1064070D03*
X1049655Y1072070D03*
D15*
X1002110Y1166495D03*
X1012110Y1166495D03*
X1033145Y1097995D03*
X1033145Y1107995D03*
X1033145Y1122125D03*
X1033145Y1132125D03*
D22*
X990790Y1196315D03*
X982790Y1196315D03*
X982790Y1177315D03*
X990790Y1177315D03*
D15*
X1033145Y1083230D03*
X1033145Y1073230D03*
X1033145Y1049100D03*
X1033145Y1059100D03*
X1006395Y915035D03*
X996395Y915035D03*
D23*
X1061720Y904485D03*
X1061720Y887485D03*
D15*
X982980Y923210D03*
X982980Y913210D03*
D24*
X1016430Y907195D02*
X1025130Y907195D01*
X1016430Y907195D02*
X1016430Y911395D01*
X1025130Y911395D01*
X1025130Y907195D01*
X1025130Y908905D02*
X1016430Y908905D01*
X1016430Y910615D02*
X1025130Y910615D01*
X1025130Y897695D02*
X1016430Y897695D01*
X1016430Y901895D01*
X1025130Y901895D01*
X1025130Y897695D01*
X1025130Y899405D02*
X1016430Y899405D01*
X1016430Y901115D02*
X1025130Y901115D01*
X1025130Y888195D02*
X1016430Y888195D01*
X1016430Y892395D01*
X1025130Y892395D01*
X1025130Y888195D01*
X1025130Y889905D02*
X1016430Y889905D01*
X1016430Y891615D02*
X1025130Y891615D01*
X1042430Y888195D02*
X1051130Y888195D01*
X1042430Y888195D02*
X1042430Y892395D01*
X1051130Y892395D01*
X1051130Y888195D01*
X1051130Y889905D02*
X1042430Y889905D01*
X1042430Y891615D02*
X1051130Y891615D01*
X1051130Y897695D02*
X1042430Y897695D01*
X1042430Y901895D01*
X1051130Y901895D01*
X1051130Y897695D01*
X1051130Y899405D02*
X1042430Y899405D01*
X1042430Y901115D02*
X1051130Y901115D01*
X1051130Y907195D02*
X1042430Y907195D01*
X1042430Y911395D01*
X1051130Y911395D01*
X1051130Y907195D01*
X1051130Y908905D02*
X1042430Y908905D01*
X1042430Y910615D02*
X1051130Y910615D01*
D25*
X1043465Y944855D03*
X1043465Y925855D03*
X1064465Y935355D03*
D15*
X982980Y903525D03*
X982980Y893525D03*
X1006395Y904875D03*
X996395Y904875D03*
X1006395Y894715D03*
X996395Y894715D03*
D26*
X1076200Y855415D03*
D27*
X1066200Y830415D03*
X1061200Y830415D03*
D26*
X981200Y855415D03*
D27*
X1056200Y830415D03*
X1051200Y830415D03*
X1046200Y830415D03*
X1041200Y830415D03*
X1036200Y830415D03*
X1031200Y830415D03*
X1026200Y830415D03*
X1021200Y830415D03*
X1016200Y830415D03*
X1011200Y830415D03*
X1006200Y830415D03*
X1001200Y830415D03*
X996200Y830415D03*
X991200Y830415D03*
D15*
X981155Y1147445D03*
X991155Y1147445D03*
X981075Y1127840D03*
X981075Y1137840D03*
X983615Y1212295D03*
X983615Y1222295D03*
X1073785Y1212295D03*
X1073785Y1222295D03*
D10*
X1162490Y956600D03*
X1167490Y956600D03*
X1172490Y956600D03*
X1177490Y956600D03*
X1182490Y956600D03*
X1187490Y956600D03*
X1192490Y956600D03*
X1197490Y956600D03*
X1202490Y956600D03*
X1207490Y956600D03*
X1212490Y956600D03*
X1217490Y956600D03*
D11*
X1223990Y963100D03*
X1223990Y968100D03*
X1223990Y973100D03*
X1223990Y978100D03*
X1223990Y983100D03*
X1223990Y988100D03*
X1223990Y993100D03*
X1223990Y998100D03*
X1223990Y1003100D03*
X1223990Y1008100D03*
X1223990Y1013100D03*
X1223990Y1018100D03*
D10*
X1217490Y1024600D03*
X1212490Y1024600D03*
X1207490Y1024600D03*
X1202490Y1024600D03*
X1197490Y1024600D03*
X1192490Y1024600D03*
X1187490Y1024600D03*
X1182490Y1024600D03*
X1177490Y1024600D03*
X1172490Y1024600D03*
X1167490Y1024600D03*
X1162490Y1024600D03*
D11*
X1155990Y1018100D03*
X1155990Y1013100D03*
X1155990Y1008100D03*
X1155990Y1003100D03*
X1155990Y998100D03*
X1155990Y993100D03*
X1155990Y988100D03*
X1155990Y983100D03*
X1155990Y978100D03*
X1155990Y973100D03*
X1155990Y968100D03*
X1155990Y963100D03*
D12*
X1174990Y978100D03*
X1174990Y1003100D03*
X1204990Y1003100D03*
X1204990Y978100D03*
X1189990Y978100D03*
X1189990Y1003100D03*
D13*
X1162170Y1103100D03*
X1167170Y1103100D03*
X1172170Y1103100D03*
X1177170Y1103100D03*
D14*
X1184170Y1110100D03*
X1184170Y1115100D03*
X1184170Y1120100D03*
X1184170Y1125100D03*
D13*
X1177170Y1132100D03*
X1172170Y1132100D03*
X1167170Y1132100D03*
X1162170Y1132100D03*
D14*
X1155170Y1125100D03*
X1155170Y1120100D03*
X1155170Y1115100D03*
X1155170Y1110100D03*
D15*
X1164670Y1112600D03*
X1164670Y1122600D03*
X1174670Y1122600D03*
X1174670Y1112600D03*
D16*
X1196190Y1156130D03*
X1202690Y1156130D03*
X1209190Y1156130D03*
X1209190Y1178130D03*
X1202690Y1178130D03*
X1196190Y1178130D03*
D15*
X1184275Y1156415D03*
X1184275Y1166415D03*
X1212215Y1114980D03*
X1212215Y1104980D03*
X1192610Y1188720D03*
X1202610Y1188720D03*
D17*
X1181100Y1192520D03*
D18*
X1195100Y1208770D03*
X1167100Y1208770D03*
D15*
X1182290Y1179195D03*
X1172290Y1179195D03*
X1221740Y1178640D03*
X1221740Y1188640D03*
X1145540Y932895D03*
X1145540Y942895D03*
X1164590Y942895D03*
X1164590Y932895D03*
X1155065Y942895D03*
X1155065Y932895D03*
X1174115Y939720D03*
X1174115Y929720D03*
X1193165Y942895D03*
X1193165Y932895D03*
X1183640Y939720D03*
X1183640Y929720D03*
X1152525Y1080850D03*
X1152525Y1090850D03*
X1152605Y1043305D03*
X1162605Y1043305D03*
X1152605Y1057275D03*
X1162605Y1057275D03*
X1152605Y1071245D03*
X1162605Y1071245D03*
X1172210Y1036400D03*
X1172210Y1046400D03*
X1172210Y1066880D03*
X1172210Y1076880D03*
X1182290Y1056640D03*
X1172290Y1056640D03*
D19*
X1172210Y1085342D03*
X1172210Y1093978D03*
D20*
X1165987Y1142365D03*
X1174623Y1142365D03*
D19*
X1174750Y1150112D03*
X1174750Y1158748D03*
D20*
X1220978Y1042670D03*
X1212342Y1042670D03*
X1220978Y1093470D03*
X1212342Y1093470D03*
D21*
X1212215Y1064070D03*
X1212215Y1072070D03*
D15*
X1164670Y1166495D03*
X1174670Y1166495D03*
X1195705Y1097995D03*
X1195705Y1107995D03*
X1195705Y1122125D03*
X1195705Y1132125D03*
D22*
X1153350Y1196315D03*
X1145350Y1196315D03*
X1145350Y1177315D03*
X1153350Y1177315D03*
D15*
X1195705Y1083230D03*
X1195705Y1073230D03*
X1195705Y1049100D03*
X1195705Y1059100D03*
X1168955Y915035D03*
X1158955Y915035D03*
D23*
X1224280Y904485D03*
X1224280Y887485D03*
D15*
X1145540Y923210D03*
X1145540Y913210D03*
D24*
X1178990Y907195D02*
X1187690Y907195D01*
X1178990Y907195D02*
X1178990Y911395D01*
X1187690Y911395D01*
X1187690Y907195D01*
X1187690Y908905D02*
X1178990Y908905D01*
X1178990Y910615D02*
X1187690Y910615D01*
X1187690Y897695D02*
X1178990Y897695D01*
X1178990Y901895D01*
X1187690Y901895D01*
X1187690Y897695D01*
X1187690Y899405D02*
X1178990Y899405D01*
X1178990Y901115D02*
X1187690Y901115D01*
X1187690Y888195D02*
X1178990Y888195D01*
X1178990Y892395D01*
X1187690Y892395D01*
X1187690Y888195D01*
X1187690Y889905D02*
X1178990Y889905D01*
X1178990Y891615D02*
X1187690Y891615D01*
X1204990Y888195D02*
X1213690Y888195D01*
X1204990Y888195D02*
X1204990Y892395D01*
X1213690Y892395D01*
X1213690Y888195D01*
X1213690Y889905D02*
X1204990Y889905D01*
X1204990Y891615D02*
X1213690Y891615D01*
X1213690Y897695D02*
X1204990Y897695D01*
X1204990Y901895D01*
X1213690Y901895D01*
X1213690Y897695D01*
X1213690Y899405D02*
X1204990Y899405D01*
X1204990Y901115D02*
X1213690Y901115D01*
X1213690Y907195D02*
X1204990Y907195D01*
X1204990Y911395D01*
X1213690Y911395D01*
X1213690Y907195D01*
X1213690Y908905D02*
X1204990Y908905D01*
X1204990Y910615D02*
X1213690Y910615D01*
D25*
X1206025Y944855D03*
X1206025Y925855D03*
X1227025Y935355D03*
D15*
X1145540Y903525D03*
X1145540Y893525D03*
X1168955Y904875D03*
X1158955Y904875D03*
X1168955Y894715D03*
X1158955Y894715D03*
D26*
X1238760Y855415D03*
D27*
X1228760Y830415D03*
X1223760Y830415D03*
D26*
X1143760Y855415D03*
D27*
X1218760Y830415D03*
X1213760Y830415D03*
X1208760Y830415D03*
X1203760Y830415D03*
X1198760Y830415D03*
X1193760Y830415D03*
X1188760Y830415D03*
X1183760Y830415D03*
X1178760Y830415D03*
X1173760Y830415D03*
X1168760Y830415D03*
X1163760Y830415D03*
X1158760Y830415D03*
X1153760Y830415D03*
D15*
X1143715Y1147445D03*
X1153715Y1147445D03*
X1143635Y1127840D03*
X1143635Y1137840D03*
X1146175Y1212295D03*
X1146175Y1222295D03*
X1236345Y1212295D03*
X1236345Y1222295D03*
D10*
X1325050Y956600D03*
X1330050Y956600D03*
X1335050Y956600D03*
X1340050Y956600D03*
X1345050Y956600D03*
X1350050Y956600D03*
X1355050Y956600D03*
X1360050Y956600D03*
X1365050Y956600D03*
X1370050Y956600D03*
X1375050Y956600D03*
X1380050Y956600D03*
D11*
X1386550Y963100D03*
X1386550Y968100D03*
X1386550Y973100D03*
X1386550Y978100D03*
X1386550Y983100D03*
X1386550Y988100D03*
X1386550Y993100D03*
X1386550Y998100D03*
X1386550Y1003100D03*
X1386550Y1008100D03*
X1386550Y1013100D03*
X1386550Y1018100D03*
D10*
X1380050Y1024600D03*
X1375050Y1024600D03*
X1370050Y1024600D03*
X1365050Y1024600D03*
X1360050Y1024600D03*
X1355050Y1024600D03*
X1350050Y1024600D03*
X1345050Y1024600D03*
X1340050Y1024600D03*
X1335050Y1024600D03*
X1330050Y1024600D03*
X1325050Y1024600D03*
D11*
X1318550Y1018100D03*
X1318550Y1013100D03*
X1318550Y1008100D03*
X1318550Y1003100D03*
X1318550Y998100D03*
X1318550Y993100D03*
X1318550Y988100D03*
X1318550Y983100D03*
X1318550Y978100D03*
X1318550Y973100D03*
X1318550Y968100D03*
X1318550Y963100D03*
D12*
X1337550Y978100D03*
X1337550Y1003100D03*
X1367550Y1003100D03*
X1367550Y978100D03*
X1352550Y978100D03*
X1352550Y1003100D03*
D13*
X1324730Y1103100D03*
X1329730Y1103100D03*
X1334730Y1103100D03*
X1339730Y1103100D03*
D14*
X1346730Y1110100D03*
X1346730Y1115100D03*
X1346730Y1120100D03*
X1346730Y1125100D03*
D13*
X1339730Y1132100D03*
X1334730Y1132100D03*
X1329730Y1132100D03*
X1324730Y1132100D03*
D14*
X1317730Y1125100D03*
X1317730Y1120100D03*
X1317730Y1115100D03*
X1317730Y1110100D03*
D15*
X1327230Y1112600D03*
X1327230Y1122600D03*
X1337230Y1122600D03*
X1337230Y1112600D03*
D16*
X1358750Y1156130D03*
X1365250Y1156130D03*
X1371750Y1156130D03*
X1371750Y1178130D03*
X1365250Y1178130D03*
X1358750Y1178130D03*
D15*
X1346835Y1156415D03*
X1346835Y1166415D03*
X1374775Y1114980D03*
X1374775Y1104980D03*
X1355170Y1188720D03*
X1365170Y1188720D03*
D17*
X1343660Y1192520D03*
D18*
X1357660Y1208770D03*
X1329660Y1208770D03*
D15*
X1344850Y1179195D03*
X1334850Y1179195D03*
X1384300Y1178640D03*
X1384300Y1188640D03*
X1308100Y932895D03*
X1308100Y942895D03*
X1327150Y942895D03*
X1327150Y932895D03*
X1317625Y942895D03*
X1317625Y932895D03*
X1336675Y939720D03*
X1336675Y929720D03*
X1355725Y942895D03*
X1355725Y932895D03*
X1346200Y939720D03*
X1346200Y929720D03*
X1315085Y1080850D03*
X1315085Y1090850D03*
X1315165Y1043305D03*
X1325165Y1043305D03*
X1315165Y1057275D03*
X1325165Y1057275D03*
X1315165Y1071245D03*
X1325165Y1071245D03*
X1334770Y1036400D03*
X1334770Y1046400D03*
X1334770Y1066880D03*
X1334770Y1076880D03*
X1344850Y1056640D03*
X1334850Y1056640D03*
D19*
X1334770Y1085342D03*
X1334770Y1093978D03*
D20*
X1328547Y1142365D03*
X1337183Y1142365D03*
D19*
X1337310Y1150112D03*
X1337310Y1158748D03*
D20*
X1383538Y1042670D03*
X1374902Y1042670D03*
X1383538Y1093470D03*
X1374902Y1093470D03*
D21*
X1374775Y1064070D03*
X1374775Y1072070D03*
D15*
X1327230Y1166495D03*
X1337230Y1166495D03*
X1358265Y1097995D03*
X1358265Y1107995D03*
X1358265Y1122125D03*
X1358265Y1132125D03*
D22*
X1315910Y1196315D03*
X1307910Y1196315D03*
X1307910Y1177315D03*
X1315910Y1177315D03*
D15*
X1358265Y1083230D03*
X1358265Y1073230D03*
X1358265Y1049100D03*
X1358265Y1059100D03*
X1331515Y915035D03*
X1321515Y915035D03*
D23*
X1386840Y904485D03*
X1386840Y887485D03*
D15*
X1308100Y923210D03*
X1308100Y913210D03*
D24*
X1341550Y907195D02*
X1350250Y907195D01*
X1341550Y907195D02*
X1341550Y911395D01*
X1350250Y911395D01*
X1350250Y907195D01*
X1350250Y908905D02*
X1341550Y908905D01*
X1341550Y910615D02*
X1350250Y910615D01*
X1350250Y897695D02*
X1341550Y897695D01*
X1341550Y901895D01*
X1350250Y901895D01*
X1350250Y897695D01*
X1350250Y899405D02*
X1341550Y899405D01*
X1341550Y901115D02*
X1350250Y901115D01*
X1350250Y888195D02*
X1341550Y888195D01*
X1341550Y892395D01*
X1350250Y892395D01*
X1350250Y888195D01*
X1350250Y889905D02*
X1341550Y889905D01*
X1341550Y891615D02*
X1350250Y891615D01*
X1367550Y888195D02*
X1376250Y888195D01*
X1367550Y888195D02*
X1367550Y892395D01*
X1376250Y892395D01*
X1376250Y888195D01*
X1376250Y889905D02*
X1367550Y889905D01*
X1367550Y891615D02*
X1376250Y891615D01*
X1376250Y897695D02*
X1367550Y897695D01*
X1367550Y901895D01*
X1376250Y901895D01*
X1376250Y897695D01*
X1376250Y899405D02*
X1367550Y899405D01*
X1367550Y901115D02*
X1376250Y901115D01*
X1376250Y907195D02*
X1367550Y907195D01*
X1367550Y911395D01*
X1376250Y911395D01*
X1376250Y907195D01*
X1376250Y908905D02*
X1367550Y908905D01*
X1367550Y910615D02*
X1376250Y910615D01*
D25*
X1368585Y944855D03*
X1368585Y925855D03*
X1389585Y935355D03*
D15*
X1308100Y903525D03*
X1308100Y893525D03*
X1331515Y904875D03*
X1321515Y904875D03*
X1331515Y894715D03*
X1321515Y894715D03*
D26*
X1401320Y855415D03*
D27*
X1391320Y830415D03*
X1386320Y830415D03*
D26*
X1306320Y855415D03*
D27*
X1381320Y830415D03*
X1376320Y830415D03*
X1371320Y830415D03*
X1366320Y830415D03*
X1361320Y830415D03*
X1356320Y830415D03*
X1351320Y830415D03*
X1346320Y830415D03*
X1341320Y830415D03*
X1336320Y830415D03*
X1331320Y830415D03*
X1326320Y830415D03*
X1321320Y830415D03*
X1316320Y830415D03*
D15*
X1306275Y1147445D03*
X1316275Y1147445D03*
X1306195Y1127840D03*
X1306195Y1137840D03*
X1308735Y1212295D03*
X1308735Y1222295D03*
X1398905Y1212295D03*
X1398905Y1222295D03*
D10*
X1487610Y956600D03*
X1492610Y956600D03*
X1497610Y956600D03*
X1502610Y956600D03*
X1507610Y956600D03*
X1512610Y956600D03*
X1517610Y956600D03*
X1522610Y956600D03*
X1527610Y956600D03*
X1532610Y956600D03*
X1537610Y956600D03*
X1542610Y956600D03*
D11*
X1549110Y963100D03*
X1549110Y968100D03*
X1549110Y973100D03*
X1549110Y978100D03*
X1549110Y983100D03*
X1549110Y988100D03*
X1549110Y993100D03*
X1549110Y998100D03*
X1549110Y1003100D03*
X1549110Y1008100D03*
X1549110Y1013100D03*
X1549110Y1018100D03*
D10*
X1542610Y1024600D03*
X1537610Y1024600D03*
X1532610Y1024600D03*
X1527610Y1024600D03*
X1522610Y1024600D03*
X1517610Y1024600D03*
X1512610Y1024600D03*
X1507610Y1024600D03*
X1502610Y1024600D03*
X1497610Y1024600D03*
X1492610Y1024600D03*
X1487610Y1024600D03*
D11*
X1481110Y1018100D03*
X1481110Y1013100D03*
X1481110Y1008100D03*
X1481110Y1003100D03*
X1481110Y998100D03*
X1481110Y993100D03*
X1481110Y988100D03*
X1481110Y983100D03*
X1481110Y978100D03*
X1481110Y973100D03*
X1481110Y968100D03*
X1481110Y963100D03*
D12*
X1500110Y978100D03*
X1500110Y1003100D03*
X1530110Y1003100D03*
X1530110Y978100D03*
X1515110Y978100D03*
X1515110Y1003100D03*
D13*
X1487290Y1103100D03*
X1492290Y1103100D03*
X1497290Y1103100D03*
X1502290Y1103100D03*
D14*
X1509290Y1110100D03*
X1509290Y1115100D03*
X1509290Y1120100D03*
X1509290Y1125100D03*
D13*
X1502290Y1132100D03*
X1497290Y1132100D03*
X1492290Y1132100D03*
X1487290Y1132100D03*
D14*
X1480290Y1125100D03*
X1480290Y1120100D03*
X1480290Y1115100D03*
X1480290Y1110100D03*
D15*
X1489790Y1112600D03*
X1489790Y1122600D03*
X1499790Y1122600D03*
X1499790Y1112600D03*
D16*
X1521310Y1156130D03*
X1527810Y1156130D03*
X1534310Y1156130D03*
X1534310Y1178130D03*
X1527810Y1178130D03*
X1521310Y1178130D03*
D15*
X1509395Y1156415D03*
X1509395Y1166415D03*
X1537335Y1114980D03*
X1537335Y1104980D03*
X1517730Y1188720D03*
X1527730Y1188720D03*
D17*
X1506220Y1192520D03*
D18*
X1520220Y1208770D03*
X1492220Y1208770D03*
D15*
X1507410Y1179195D03*
X1497410Y1179195D03*
X1546860Y1178640D03*
X1546860Y1188640D03*
X1470660Y932895D03*
X1470660Y942895D03*
X1489710Y942895D03*
X1489710Y932895D03*
X1480185Y942895D03*
X1480185Y932895D03*
X1499235Y939720D03*
X1499235Y929720D03*
X1518285Y942895D03*
X1518285Y932895D03*
X1508760Y939720D03*
X1508760Y929720D03*
X1477645Y1080850D03*
X1477645Y1090850D03*
X1477725Y1043305D03*
X1487725Y1043305D03*
X1477725Y1057275D03*
X1487725Y1057275D03*
X1477725Y1071245D03*
X1487725Y1071245D03*
X1497330Y1036400D03*
X1497330Y1046400D03*
X1497330Y1066880D03*
X1497330Y1076880D03*
X1507410Y1056640D03*
X1497410Y1056640D03*
D19*
X1497330Y1085342D03*
X1497330Y1093978D03*
D20*
X1491107Y1142365D03*
X1499743Y1142365D03*
D19*
X1499870Y1150112D03*
X1499870Y1158748D03*
D20*
X1546098Y1042670D03*
X1537462Y1042670D03*
X1546098Y1093470D03*
X1537462Y1093470D03*
D21*
X1537335Y1064070D03*
X1537335Y1072070D03*
D15*
X1489790Y1166495D03*
X1499790Y1166495D03*
X1520825Y1097995D03*
X1520825Y1107995D03*
X1520825Y1122125D03*
X1520825Y1132125D03*
D22*
X1478470Y1196315D03*
X1470470Y1196315D03*
X1470470Y1177315D03*
X1478470Y1177315D03*
D15*
X1520825Y1083230D03*
X1520825Y1073230D03*
X1520825Y1049100D03*
X1520825Y1059100D03*
X1494075Y915035D03*
X1484075Y915035D03*
D23*
X1549400Y904485D03*
X1549400Y887485D03*
D15*
X1470660Y923210D03*
X1470660Y913210D03*
D24*
X1504110Y907195D02*
X1512810Y907195D01*
X1504110Y907195D02*
X1504110Y911395D01*
X1512810Y911395D01*
X1512810Y907195D01*
X1512810Y908905D02*
X1504110Y908905D01*
X1504110Y910615D02*
X1512810Y910615D01*
X1512810Y897695D02*
X1504110Y897695D01*
X1504110Y901895D01*
X1512810Y901895D01*
X1512810Y897695D01*
X1512810Y899405D02*
X1504110Y899405D01*
X1504110Y901115D02*
X1512810Y901115D01*
X1512810Y888195D02*
X1504110Y888195D01*
X1504110Y892395D01*
X1512810Y892395D01*
X1512810Y888195D01*
X1512810Y889905D02*
X1504110Y889905D01*
X1504110Y891615D02*
X1512810Y891615D01*
X1530110Y888195D02*
X1538810Y888195D01*
X1530110Y888195D02*
X1530110Y892395D01*
X1538810Y892395D01*
X1538810Y888195D01*
X1538810Y889905D02*
X1530110Y889905D01*
X1530110Y891615D02*
X1538810Y891615D01*
X1538810Y897695D02*
X1530110Y897695D01*
X1530110Y901895D01*
X1538810Y901895D01*
X1538810Y897695D01*
X1538810Y899405D02*
X1530110Y899405D01*
X1530110Y901115D02*
X1538810Y901115D01*
X1538810Y907195D02*
X1530110Y907195D01*
X1530110Y911395D01*
X1538810Y911395D01*
X1538810Y907195D01*
X1538810Y908905D02*
X1530110Y908905D01*
X1530110Y910615D02*
X1538810Y910615D01*
D25*
X1531145Y944855D03*
X1531145Y925855D03*
X1552145Y935355D03*
D15*
X1470660Y903525D03*
X1470660Y893525D03*
X1494075Y904875D03*
X1484075Y904875D03*
X1494075Y894715D03*
X1484075Y894715D03*
D26*
X1563880Y855415D03*
D27*
X1553880Y830415D03*
X1548880Y830415D03*
D26*
X1468880Y855415D03*
D27*
X1543880Y830415D03*
X1538880Y830415D03*
X1533880Y830415D03*
X1528880Y830415D03*
X1523880Y830415D03*
X1518880Y830415D03*
X1513880Y830415D03*
X1508880Y830415D03*
X1503880Y830415D03*
X1498880Y830415D03*
X1493880Y830415D03*
X1488880Y830415D03*
X1483880Y830415D03*
X1478880Y830415D03*
D15*
X1468835Y1147445D03*
X1478835Y1147445D03*
X1468755Y1127840D03*
X1468755Y1137840D03*
X1471295Y1212295D03*
X1471295Y1222295D03*
X1561465Y1212295D03*
X1561465Y1222295D03*
M02*
