M48
;GenerationSoftware,Autodesk,EAGLE,9.6.2*%
;CreationDate,2021-05-04T09:33:58Z*%
FMAT,2
ICI,OFF
METRIC,TZ,000.000
T1C0.200
%
G90
M71
T1
X6604Y21336
X6604Y25781
X6604Y24511
X6604Y23241
X6604Y21971
X8319Y22606
X8319Y21336
X8319Y25146
X8319Y26416
X4445Y19177
X4445Y16764
X2857Y16764
X2857Y19177
X2794Y14351
X4445Y14351
X5969Y14351
X7620Y14351
X8319Y23876
X8319Y27686
X6604Y27051
X6604Y28321
X6604Y29591
X4382Y21717
X4382Y22606
X4382Y24511
X4382Y25781
X4382Y27051
X2540Y26987
X2540Y25527
X2540Y24130
X2540Y22733
X2540Y21336
X2794Y29464
X3556Y29464
X2731Y10287
X6286Y11239
X1460Y7874
X1460Y6667
X6604Y31115
X7747Y33655
X2667Y35497
X5842Y31686
X5524Y8001
X5524Y7366
X6477Y32385
X9335Y36767
X2096Y38418
X3365Y37148
X5334Y37275
X4128Y34989
X6477Y34163
X8319Y30099
X8319Y33020
X1460Y31686
X8001Y1651
X9843Y1524
X4890Y5842
X8319Y38481
X8700Y12001
X889Y29210
X889Y38227
X7620Y16764
X5334Y2096
X1841Y3111
X7429Y5715
X7302Y19177
X7366Y36640
X5931Y26759
X1334Y4382
X9335Y18577
X9349Y34925
X9335Y17971
X9335Y35560
X2286Y32067
X5842Y9970
X5207Y9970
X8416Y34354
X8748Y34021
X9362Y16145
X8382Y13017
X9271Y5144
X9335Y13970
X7620Y11811
X9362Y9081
X9335Y14541
X9335Y15113
X3594Y12700
X7620Y39116
X6437Y5167
X4102Y12700
X7179Y38799
X6850Y5723
X4610Y12700
X6610Y38608
X5398Y6286
X2578Y12700
X7556Y4636
X6540Y4318
X1905Y13208
X6477Y3175
X2070Y12700
X9017Y20003
X9335Y19177
X862Y16194
X5969Y12698
X5407Y12700
X5905Y21844
X2667Y20830
X4013Y20830
X6331Y20893
X1433Y21118
X902Y15684
X854Y16701
X1143Y19768
X851Y19352
X889Y29718
X1524Y38238
X9323Y36195
X4445Y2159
X1841Y31305
X2286Y35052
X9335Y17399
X889Y28705
X2223Y35941
X5842Y29210
X5842Y24320
X5778Y6794
X3227Y9843
X3086Y12700
X6604Y38103
X2727Y36169
X6928Y37713
X5905Y1460
X7306Y37319
X5334Y1461
X3384Y36621
X2540Y6350
X1573Y3923
X2731Y37148
X4572Y1460
X2159Y37275
X4445Y3492
X2159Y37846
X4000Y2857
X8001Y9081
X6350Y9081
X8636Y1524
X8636Y2794
X2096Y1460
X2096Y39180
X8576Y39116
X9208Y38673
X8636Y5144
X8128Y5144
X1587Y39180
X1492Y1460
X9779Y38227
X10287Y38227
X22860Y21336
X22860Y25781
X22860Y24511
X22860Y23241
X22860Y21971
X24574Y22606
X24574Y21336
X24574Y25146
X24574Y26416
X20701Y19177
X20701Y16764
X19114Y16764
X19114Y19177
X19050Y14351
X20701Y14351
X22225Y14351
X23876Y14351
X24574Y23876
X24574Y27686
X22860Y27051
X22860Y28321
X22860Y29591
X20638Y21717
X20638Y22606
X20638Y24511
X20638Y25781
X20638Y27051
X18796Y26987
X18796Y25527
X18796Y24130
X18796Y22733
X18796Y21336
X19050Y29464
X19812Y29464
X18987Y10287
X22542Y11239
X17717Y7874
X17717Y6667
X22860Y31115
X24003Y33655
X18923Y35497
X22098Y31686
X21781Y8001
X21781Y7366
X22733Y32385
X25590Y36767
X18352Y38418
X19622Y37148
X21590Y37275
X20384Y34989
X22733Y34163
X24574Y30099
X24574Y33020
X17717Y31686
X24257Y1651
X26098Y1524
X21146Y5842
X24574Y38481
X24955Y12001
X17145Y29210
X17145Y38227
X23876Y16764
X21590Y2096
X18098Y3111
X23685Y5715
X23558Y19177
X23622Y36640
X22187Y26759
X17590Y4382
X25590Y18577
X25605Y34925
X25590Y17971
X25590Y35560
X18542Y32067
X22098Y9970
X21463Y9970
X24672Y34354
X25004Y34021
X25617Y16145
X24638Y13017
X25527Y5144
X25590Y13970
X23876Y11811
X25617Y9081
X25590Y14541
X25590Y15113
X19850Y12700
X23876Y39116
X22693Y5167
X20358Y12700
X23435Y38799
X23106Y5723
X20866Y12700
X22866Y38608
X21654Y6286
X18834Y12700
X23812Y4636
X22796Y4318
X18161Y13208
X22733Y3175
X18326Y12700
X25273Y20003
X25590Y19177
X17119Y16194
X22225Y12698
X21663Y12700
X22161Y21844
X18923Y20830
X20269Y20830
X22587Y20893
X17689Y21118
X17158Y15684
X17110Y16701
X17399Y19768
X17107Y19352
X17145Y29718
X17780Y38238
X25579Y36195
X20701Y2159
X18098Y31305
X18542Y35052
X25590Y17399
X17145Y28705
X18479Y35941
X22098Y29210
X22098Y24320
X22034Y6794
X19483Y9843
X19342Y12700
X22860Y38103
X18983Y36169
X23184Y37713
X22161Y1460
X23562Y37319
X21590Y1461
X19641Y36621
X18796Y6350
X17829Y3923
X18987Y37148
X20828Y1460
X18415Y37275
X20701Y3492
X18415Y37846
X20257Y2857
X24257Y9081
X22606Y9081
X24892Y1524
X24892Y2794
X18352Y1460
X18352Y39180
X24832Y39116
X25463Y38673
X24892Y5144
X24384Y5144
X17844Y39180
X17748Y1460
X26035Y38227
X26543Y38227
X39116Y21336
X39116Y25781
X39116Y24511
X39116Y23241
X39116Y21971
X40831Y22606
X40831Y21336
X40831Y25146
X40831Y26416
X36957Y19177
X36957Y16764
X35370Y16764
X35370Y19177
X35306Y14351
X36957Y14351
X38481Y14351
X40132Y14351
X40831Y23876
X40831Y27686
X39116Y27051
X39116Y28321
X39116Y29591
X36894Y21717
X36894Y22606
X36894Y24511
X36894Y25781
X36894Y27051
X35052Y26987
X35052Y25527
X35052Y24130
X35052Y22733
X35052Y21336
X35306Y29464
X36068Y29464
X35243Y10287
X38799Y11239
X33973Y7874
X33973Y6667
X39116Y31115
X40259Y33655
X35179Y35497
X38354Y31686
X38037Y8001
X38037Y7366
X38989Y32385
X41847Y36767
X34608Y38418
X35878Y37148
X37846Y37275
X36640Y34989
X38989Y34163
X40831Y30099
X40831Y33020
X33973Y31686
X40513Y1651
X42355Y1524
X37402Y5842
X40831Y38481
X41212Y12001
X33401Y29210
X33401Y38227
X40132Y16764
X37846Y2096
X34354Y3111
X39942Y5715
X39815Y19177
X39878Y36640
X38443Y26759
X33846Y4382
X41847Y18577
X41861Y34925
X41847Y17971
X41847Y35560
X34798Y32067
X38354Y9970
X37719Y9970
X40928Y34354
X41260Y34021
X41874Y16145
X40894Y13017
X41783Y5144
X41847Y13970
X40132Y11811
X41874Y9081
X41847Y14541
X41847Y15113
X36106Y12700
X40132Y39116
X38949Y5167
X36614Y12700
X39691Y38799
X39362Y5723
X37122Y12700
X39122Y38608
X37910Y6286
X35090Y12700
X40069Y4636
X39053Y4318
X34417Y13208
X38989Y3175
X34582Y12700
X41529Y20003
X41847Y19177
X33375Y16194
X38481Y12698
X37919Y12700
X38418Y21844
X35179Y20830
X36525Y20830
X38843Y20893
X33945Y21118
X33414Y15684
X33366Y16701
X33655Y19768
X33363Y19352
X33401Y29718
X34036Y38238
X41835Y36195
X36957Y2159
X34354Y31305
X34798Y35052
X41847Y17399
X33401Y28705
X34735Y35941
X38354Y29210
X38354Y24320
X38291Y6794
X35739Y9843
X35598Y12700
X39116Y38103
X35239Y36169
X39440Y37713
X38418Y1460
X39818Y37319
X37846Y1461
X35897Y36621
X35052Y6350
X34085Y3923
X35243Y37148
X37084Y1460
X34671Y37275
X36957Y3492
X34671Y37846
X36513Y2857
X40513Y9081
X38862Y9081
X41148Y1524
X41148Y2794
X34608Y1460
X34608Y39180
X41088Y39116
X41720Y38673
X41148Y5144
X40640Y5144
X34100Y39180
X34004Y1460
X42291Y38227
X42799Y38227
X55372Y21336
X55372Y25781
X55372Y24511
X55372Y23241
X55372Y21971
X57086Y22606
X57086Y21336
X57086Y25146
X57086Y26416
X53213Y19177
X53213Y16764
X51625Y16764
X51625Y19177
X51562Y14351
X53213Y14351
X54737Y14351
X56388Y14351
X57086Y23876
X57086Y27686
X55372Y27051
X55372Y28321
X55372Y29591
X53149Y21717
X53149Y22606
X53149Y24511
X53149Y25781
X53149Y27051
X51308Y26987
X51308Y25527
X51308Y24130
X51308Y22733
X51308Y21336
X51562Y29464
X52324Y29464
X51498Y10287
X55054Y11239
X50228Y7874
X50228Y6667
X55372Y31115
X56515Y33655
X51435Y35497
X54610Y31686
X54292Y8001
X54292Y7366
X55245Y32385
X58102Y36767
X50863Y38418
X52133Y37148
X54102Y37275
X52895Y34989
X55245Y34163
X57086Y30099
X57086Y33020
X50228Y31686
X56769Y1651
X58610Y1524
X53657Y5842
X57086Y38481
X57467Y12001
X49657Y29210
X49657Y38227
X56388Y16764
X54102Y2096
X50609Y3111
X56197Y5715
X56070Y19177
X56134Y36640
X54699Y26759
X50101Y4382
X58102Y18577
X58117Y34925
X58102Y17971
X58102Y35560
X51054Y32067
X54610Y9970
X53975Y9970
X57184Y34354
X57516Y34021
X58129Y16145
X57150Y13017
X58039Y5144
X58102Y13970
X56388Y11811
X58129Y9081
X58102Y14541
X58102Y15113
X52362Y12700
X56388Y39116
X55205Y5167
X52870Y12700
X55947Y38799
X55618Y5723
X53378Y12700
X55378Y38608
X54165Y6286
X51346Y12700
X56324Y4636
X55308Y4318
X50673Y13208
X55245Y3175
X50838Y12700
X57785Y20003
X58102Y19177
X49630Y16194
X54737Y12698
X54175Y12700
X54673Y21844
X51435Y20830
X52781Y20830
X55099Y20893
X50201Y21118
X49670Y15684
X49622Y16701
X49911Y19768
X49619Y19352
X49657Y29718
X50292Y38238
X58091Y36195
X53213Y2159
X50609Y31305
X51054Y35052
X58102Y17399
X49657Y28705
X50990Y35941
X54610Y29210
X54610Y24320
X54546Y6794
X51995Y9843
X51854Y12700
X55372Y38103
X51495Y36169
X55696Y37713
X54673Y1460
X56074Y37319
X54102Y1461
X52152Y36621
X51308Y6350
X50341Y3923
X51498Y37148
X53340Y1460
X50927Y37275
X53213Y3492
X50927Y37846
X52768Y2857
X56769Y9081
X55118Y9081
X57404Y1524
X57404Y2794
X50863Y1460
X50863Y39180
X57344Y39116
X57975Y38673
X57404Y5144
X56896Y5144
X50355Y39180
X50260Y1460
X58547Y38227
X59055Y38227
X71628Y21336
X71628Y25781
X71628Y24511
X71628Y23241
X71628Y21971
X73343Y22606
X73343Y21336
X73343Y25146
X73343Y26416
X69469Y19177
X69469Y16764
X67882Y16764
X67882Y19177
X67818Y14351
X69469Y14351
X70993Y14351
X72644Y14351
X73343Y23876
X73343Y27686
X71628Y27051
X71628Y28321
X71628Y29591
X69406Y21717
X69406Y22606
X69406Y24511
X69406Y25781
X69406Y27051
X67564Y26987
X67564Y25527
X67564Y24130
X67564Y22733
X67564Y21336
X67818Y29464
X68580Y29464
X67755Y10287
X71311Y11239
X66485Y7874
X66485Y6667
X71628Y31115
X72771Y33655
X67691Y35497
X70866Y31686
X70549Y8001
X70549Y7366
X71501Y32385
X74359Y36767
X67120Y38418
X68390Y37148
X70358Y37275
X69152Y34989
X71501Y34163
X73343Y30099
X73343Y33020
X66485Y31686
X73025Y1651
X74867Y1524
X69914Y5842
X73343Y38481
X73724Y12001
X65913Y29210
X65913Y38227
X72644Y16764
X70358Y2096
X66866Y3111
X72454Y5715
X72327Y19177
X72390Y36640
X70955Y26759
X66358Y4382
X74359Y18577
X74373Y34925
X74359Y17971
X74359Y35560
X67310Y32067
X70866Y9970
X70231Y9970
X73440Y34354
X73772Y34021
X74386Y16145
X73406Y13017
X74295Y5144
X74359Y13970
X72644Y11811
X74386Y9081
X74359Y14541
X74359Y15113
X68618Y12700
X72644Y39116
X71461Y5167
X69126Y12700
X72203Y38799
X71874Y5723
X69634Y12700
X71634Y38608
X70422Y6286
X67602Y12700
X72581Y4636
X71565Y4318
X66929Y13208
X71501Y3175
X67094Y12700
X74041Y20003
X74359Y19177
X65887Y16194
X70993Y12698
X70431Y12700
X70930Y21844
X67691Y20830
X69037Y20830
X71355Y20893
X66457Y21118
X65926Y15684
X65878Y16701
X66167Y19768
X65875Y19352
X65913Y29718
X66548Y38238
X74347Y36195
X69469Y2159
X66866Y31305
X67310Y35052
X74359Y17399
X65913Y28705
X67247Y35941
X70866Y29210
X70866Y24320
X70803Y6794
X68251Y9843
X68110Y12700
X71628Y38103
X67751Y36169
X71952Y37713
X70930Y1460
X72330Y37319
X70358Y1461
X68409Y36621
X67564Y6350
X66597Y3923
X67755Y37148
X69596Y1460
X67183Y37275
X69469Y3492
X67183Y37846
X69025Y2857
X73025Y9081
X71374Y9081
X73660Y1524
X73660Y2794
X67120Y1460
X67120Y39180
X73600Y39116
X74232Y38673
X73660Y5144
X73152Y5144
X66612Y39180
X66516Y1460
X74803Y38227
X75311Y38227
X87884Y21336
X87884Y25781
X87884Y24511
X87884Y23241
X87884Y21971
X89598Y22606
X89598Y21336
X89598Y25146
X89598Y26416
X85725Y19177
X85725Y16764
X84138Y16764
X84138Y19177
X84074Y14351
X85725Y14351
X87249Y14351
X88900Y14351
X89598Y23876
X89598Y27686
X87884Y27051
X87884Y28321
X87884Y29591
X85662Y21717
X85662Y22606
X85662Y24511
X85662Y25781
X85662Y27051
X83820Y26987
X83820Y25527
X83820Y24130
X83820Y22733
X83820Y21336
X84074Y29464
X84836Y29464
X84011Y10287
X87566Y11239
X82741Y7874
X82741Y6667
X87884Y31115
X89027Y33655
X83947Y35497
X87122Y31686
X86805Y8001
X86805Y7366
X87757Y32385
X90614Y36767
X83376Y38418
X84646Y37148
X86614Y37275
X85408Y34989
X87757Y34163
X89598Y30099
X89598Y33020
X82741Y31686
X89281Y1651
X91122Y1524
X86170Y5842
X89598Y38481
X89979Y12001
X82169Y29210
X82169Y38227
X88900Y16764
X86614Y2096
X83122Y3111
X88709Y5715
X88582Y19177
X88646Y36640
X87211Y26759
X82614Y4382
X90614Y18577
X90629Y34925
X90614Y17971
X90614Y35560
X83566Y32067
X87122Y9970
X86487Y9970
X89696Y34354
X90028Y34021
X90641Y16145
X89662Y13017
X90551Y5144
X90614Y13970
X88900Y11811
X90641Y9081
X90614Y14541
X90614Y15113
X84874Y12700
X88900Y39116
X87717Y5167
X85382Y12700
X88459Y38799
X88130Y5723
X85890Y12700
X87890Y38608
X86678Y6286
X83858Y12700
X88836Y4636
X87820Y4318
X83185Y13208
X87757Y3175
X83350Y12700
X90297Y20003
X90614Y19177
X82143Y16194
X87249Y12698
X86687Y12700
X87186Y21844
X83947Y20830
X85293Y20830
X87611Y20893
X82713Y21118
X82182Y15684
X82134Y16701
X82423Y19768
X82131Y19352
X82169Y29718
X82804Y38238
X90603Y36195
X85725Y2159
X83122Y31305
X83566Y35052
X90614Y17399
X82169Y28705
X83503Y35941
X87122Y29210
X87122Y24320
X87059Y6794
X84507Y9843
X84366Y12700
X87884Y38103
X84007Y36169
X88208Y37713
X87186Y1460
X88586Y37319
X86614Y1461
X84665Y36621
X83820Y6350
X82853Y3923
X84011Y37148
X85852Y1460
X83439Y37275
X85725Y3492
X83439Y37846
X85281Y2857
X89281Y9081
X87630Y9081
X89916Y1524
X89916Y2794
X83376Y1460
X83376Y39180
X89856Y39116
X90487Y38673
X89916Y5144
X89408Y5144
X82868Y39180
X82772Y1460
X91059Y38227
X91567Y38227
X104140Y21336
X104140Y25781
X104140Y24511
X104140Y23241
X104140Y21971
X105854Y22606
X105854Y21336
X105854Y25146
X105854Y26416
X101981Y19177
X101981Y16764
X100393Y16764
X100393Y19177
X100330Y14351
X101981Y14351
X103505Y14351
X105156Y14351
X105854Y23876
X105854Y27686
X104140Y27051
X104140Y28321
X104140Y29591
X101917Y21717
X101917Y22606
X101917Y24511
X101917Y25781
X101917Y27051
X100076Y26987
X100076Y25527
X100076Y24130
X100076Y22733
X100076Y21336
X100330Y29464
X101092Y29464
X100266Y10287
X103822Y11239
X98996Y7874
X98996Y6667
X104140Y31115
X105283Y33655
X100203Y35497
X103378Y31686
X103060Y8001
X103060Y7366
X104013Y32385
X106870Y36767
X99631Y38418
X100901Y37148
X102870Y37275
X101663Y34989
X104013Y34163
X105854Y30099
X105854Y33020
X98996Y31686
X105537Y1651
X107378Y1524
X102425Y5842
X105854Y38481
X106235Y12001
X98425Y29210
X98425Y38227
X105156Y16764
X102870Y2096
X99377Y3111
X104965Y5715
X104838Y19177
X104902Y36640
X103467Y26759
X98869Y4382
X106870Y18577
X106885Y34925
X106870Y17971
X106870Y35560
X99822Y32067
X103378Y9970
X102743Y9970
X105952Y34354
X106284Y34021
X106897Y16145
X105918Y13017
X106807Y5144
X106870Y13970
X105156Y11811
X106897Y9081
X106870Y14541
X106870Y15113
X101130Y12700
X105156Y39116
X103973Y5167
X101638Y12700
X104715Y38799
X104386Y5723
X102146Y12700
X104146Y38608
X102933Y6286
X100114Y12700
X105092Y4636
X104076Y4318
X99441Y13208
X104013Y3175
X99606Y12700
X106553Y20003
X106870Y19177
X98398Y16194
X103505Y12698
X102943Y12700
X103441Y21844
X100203Y20830
X101549Y20830
X103867Y20893
X98969Y21118
X98438Y15684
X98390Y16701
X98679Y19768
X98387Y19352
X98425Y29718
X99060Y38238
X106859Y36195
X101981Y2159
X99377Y31305
X99822Y35052
X106870Y17399
X98425Y28705
X99758Y35941
X103378Y29210
X103378Y24320
X103314Y6794
X100763Y9843
X100622Y12700
X104140Y38103
X100263Y36169
X104464Y37713
X103441Y1460
X104842Y37319
X102870Y1461
X100920Y36621
X100076Y6350
X99109Y3923
X100266Y37148
X102108Y1460
X99695Y37275
X101981Y3492
X99695Y37846
X101536Y2857
X105537Y9081
X103886Y9081
X106172Y1524
X106172Y2794
X99631Y1460
X99631Y39180
X106112Y39116
X106743Y38673
X106172Y5144
X105664Y5144
X99123Y39180
X99028Y1460
X107315Y38227
X107823Y38227
X120396Y21336
X120396Y25781
X120396Y24511
X120396Y23241
X120396Y21971
X122110Y22606
X122110Y21336
X122110Y25146
X122110Y26416
X118237Y19177
X118237Y16764
X116649Y16764
X116649Y19177
X116586Y14351
X118237Y14351
X119761Y14351
X121412Y14351
X122110Y23876
X122110Y27686
X120396Y27051
X120396Y28321
X120396Y29591
X118173Y21717
X118173Y22606
X118173Y24511
X118173Y25781
X118173Y27051
X116332Y26987
X116332Y25527
X116332Y24130
X116332Y22733
X116332Y21336
X116586Y29464
X117348Y29464
X116522Y10287
X120078Y11239
X115252Y7874
X115252Y6667
X120396Y31115
X121539Y33655
X116459Y35497
X119634Y31686
X119316Y8001
X119316Y7366
X120269Y32385
X123126Y36767
X115887Y38418
X117157Y37148
X119126Y37275
X117919Y34989
X120269Y34163
X122110Y30099
X122110Y33020
X115252Y31686
X121793Y1651
X123634Y1524
X118681Y5842
X122110Y38481
X122491Y12001
X114681Y29210
X114681Y38227
X121412Y16764
X119126Y2096
X115633Y3111
X121221Y5715
X121094Y19177
X121158Y36640
X119723Y26759
X115125Y4382
X123126Y18577
X123141Y34925
X123126Y17971
X123126Y35560
X116078Y32067
X119634Y9970
X118999Y9970
X122208Y34354
X122540Y34021
X123153Y16145
X122174Y13017
X123063Y5144
X123126Y13970
X121412Y11811
X123153Y9081
X123126Y14541
X123126Y15113
X117386Y12700
X121412Y39116
X120229Y5167
X117894Y12700
X120971Y38799
X120642Y5723
X118402Y12700
X120402Y38608
X119189Y6286
X116370Y12700
X121348Y4636
X120332Y4318
X115697Y13208
X120269Y3175
X115862Y12700
X122809Y20003
X123126Y19177
X114654Y16194
X119761Y12698
X119199Y12700
X119697Y21844
X116459Y20830
X117805Y20830
X120123Y20893
X115225Y21118
X114694Y15684
X114646Y16701
X114935Y19768
X114643Y19352
X114681Y29718
X115316Y38238
X123115Y36195
X118237Y2159
X115633Y31305
X116078Y35052
X123126Y17399
X114681Y28705
X116014Y35941
X119634Y29210
X119634Y24320
X119570Y6794
X117019Y9843
X116878Y12700
X120396Y38103
X116519Y36169
X120720Y37713
X119697Y1460
X121098Y37319
X119126Y1461
X117176Y36621
X116332Y6350
X115365Y3923
X116522Y37148
X118364Y1460
X115951Y37275
X118237Y3492
X115951Y37846
X117792Y2857
X121793Y9081
X120142Y9081
X122428Y1524
X122428Y2794
X115887Y1460
X115887Y39180
X122368Y39116
X122999Y38673
X122428Y5144
X121920Y5144
X115379Y39180
X115284Y1460
X123571Y38227
X124079Y38227
X136652Y21336
X136652Y25781
X136652Y24511
X136652Y23241
X136652Y21971
X138367Y22606
X138367Y21336
X138367Y25146
X138367Y26416
X134493Y19177
X134493Y16764
X132906Y16764
X132906Y19177
X132842Y14351
X134493Y14351
X136017Y14351
X137668Y14351
X138367Y23876
X138367Y27686
X136652Y27051
X136652Y28321
X136652Y29591
X134430Y21717
X134430Y22606
X134430Y24511
X134430Y25781
X134430Y27051
X132588Y26987
X132588Y25527
X132588Y24130
X132588Y22733
X132588Y21336
X132842Y29464
X133604Y29464
X132779Y10287
X136335Y11239
X131509Y7874
X131509Y6667
X136652Y31115
X137795Y33655
X132715Y35497
X135890Y31686
X135573Y8001
X135573Y7366
X136525Y32385
X139383Y36767
X132144Y38418
X133414Y37148
X135382Y37275
X134176Y34989
X136525Y34163
X138367Y30099
X138367Y33020
X131509Y31686
X138049Y1651
X139891Y1524
X134938Y5842
X138367Y38481
X138748Y12001
X130937Y29210
X130937Y38227
X137668Y16764
X135382Y2096
X131890Y3111
X137478Y5715
X137351Y19177
X137414Y36640
X135979Y26759
X131382Y4382
X139383Y18577
X139397Y34925
X139383Y17971
X139383Y35560
X132334Y32067
X135890Y9970
X135255Y9970
X138464Y34354
X138796Y34021
X139410Y16145
X138430Y13017
X139319Y5144
X139383Y13970
X137668Y11811
X139410Y9081
X139383Y14541
X139383Y15113
X133642Y12700
X137668Y39116
X136485Y5167
X134150Y12700
X137227Y38799
X136898Y5723
X134658Y12700
X136658Y38608
X135446Y6286
X132626Y12700
X137605Y4636
X136589Y4318
X131953Y13208
X136525Y3175
X132118Y12700
X139065Y20003
X139383Y19177
X130910Y16194
X136017Y12698
X135455Y12700
X135954Y21844
X132715Y20830
X134061Y20830
X136379Y20893
X131481Y21118
X130950Y15684
X130902Y16701
X131191Y19768
X130899Y19352
X130937Y29718
X131572Y38238
X139371Y36195
X134493Y2159
X131890Y31305
X132334Y35052
X139383Y17399
X130937Y28705
X132271Y35941
X135890Y29210
X135890Y24320
X135827Y6794
X133275Y9843
X133134Y12700
X136652Y38103
X132775Y36169
X136976Y37713
X135954Y1460
X137354Y37319
X135382Y1461
X133433Y36621
X132588Y6350
X131621Y3923
X132779Y37148
X134620Y1460
X132207Y37275
X134493Y3492
X132207Y37846
X134049Y2857
X138049Y9081
X136398Y9081
X138684Y1524
X138684Y2794
X132144Y1460
X132144Y39180
X138624Y39116
X139256Y38673
X138684Y5144
X138176Y5144
X131636Y39180
X131540Y1460
X139827Y38227
X140335Y38227
X152908Y21336
X152908Y25781
X152908Y24511
X152908Y23241
X152908Y21971
X154623Y22606
X154623Y21336
X154623Y25146
X154623Y26416
X150749Y19177
X150749Y16764
X149162Y16764
X149162Y19177
X149098Y14351
X150749Y14351
X152273Y14351
X153924Y14351
X154623Y23876
X154623Y27686
X152908Y27051
X152908Y28321
X152908Y29591
X150686Y21717
X150686Y22606
X150686Y24511
X150686Y25781
X150686Y27051
X148844Y26987
X148844Y25527
X148844Y24130
X148844Y22733
X148844Y21336
X149098Y29464
X149860Y29464
X149035Y10287
X152591Y11239
X147765Y7874
X147765Y6667
X152908Y31115
X154051Y33655
X148971Y35497
X152146Y31686
X151829Y8001
X151829Y7366
X152781Y32385
X155639Y36767
X148400Y38418
X149670Y37148
X151638Y37275
X150432Y34989
X152781Y34163
X154623Y30099
X154623Y33020
X147765Y31686
X154305Y1651
X156147Y1524
X151194Y5842
X154623Y38481
X155004Y12001
X147193Y29210
X147193Y38227
X153924Y16764
X151638Y2096
X148146Y3111
X153734Y5715
X153607Y19177
X153670Y36640
X152235Y26759
X147638Y4382
X155639Y18577
X155653Y34925
X155639Y17971
X155639Y35560
X148590Y32067
X152146Y9970
X151511Y9970
X154720Y34354
X155052Y34021
X155666Y16145
X154686Y13017
X155575Y5144
X155639Y13970
X153924Y11811
X155666Y9081
X155639Y14541
X155639Y15113
X149898Y12700
X153924Y39116
X152741Y5167
X150406Y12700
X153483Y38799
X153154Y5723
X150914Y12700
X152914Y38608
X151702Y6286
X148882Y12700
X153861Y4636
X152845Y4318
X148209Y13208
X152781Y3175
X148374Y12700
X155321Y20003
X155639Y19177
X147167Y16194
X152273Y12698
X151711Y12700
X152210Y21844
X148971Y20830
X150317Y20830
X152635Y20893
X147737Y21118
X147206Y15684
X147158Y16701
X147447Y19768
X147155Y19352
X147193Y29718
X147828Y38238
X155627Y36195
X150749Y2159
X148146Y31305
X148590Y35052
X155639Y17399
X147193Y28705
X148527Y35941
X152146Y29210
X152146Y24320
X152083Y6794
X149531Y9843
X149390Y12700
X152908Y38103
X149031Y36169
X153232Y37713
X152210Y1460
X153610Y37319
X151638Y1461
X149689Y36621
X148844Y6350
X147877Y3923
X149035Y37148
X150876Y1460
X148463Y37275
X150749Y3492
X148463Y37846
X150305Y2857
X154305Y9081
X152654Y9081
X154940Y1524
X154940Y2794
X148400Y1460
X148400Y39180
X154880Y39116
X155512Y38673
X154940Y5144
X154432Y5144
X147892Y39180
X147796Y1460
X156083Y38227
X156591Y38227
X6604Y62484
X6604Y66929
X6604Y65659
X6604Y64389
X6604Y63119
X8319Y63754
X8319Y62484
X8319Y66294
X8319Y67564
X4445Y60325
X4445Y57912
X2857Y57912
X2857Y60325
X2794Y55499
X4445Y55499
X5969Y55499
X7620Y55499
X8319Y65024
X8319Y68834
X6604Y68199
X6604Y69469
X6604Y70739
X4382Y62865
X4382Y63754
X4382Y65659
X4382Y66929
X4382Y68199
X2540Y68136
X2540Y66675
X2540Y65278
X2540Y63881
X2540Y62484
X2794Y70612
X3556Y70612
X2731Y51435
X6286Y52387
X1460Y49022
X1460Y47815
X6604Y72263
X7747Y74803
X2667Y76645
X5842Y72835
X5524Y49149
X5524Y48514
X6477Y73533
X9335Y77915
X2096Y79566
X3365Y78296
X5334Y78423
X4128Y76137
X6477Y75311
X8319Y71247
X8319Y74168
X1460Y72835
X8001Y42799
X9843Y42672
X4890Y46990
X8319Y79629
X8700Y53149
X889Y70358
X889Y79375
X7620Y57912
X5334Y43244
X1841Y44259
X7429Y46863
X7302Y60325
X7366Y77788
X5931Y67907
X1334Y45529
X9335Y59725
X9349Y76073
X9335Y59118
X9335Y76708
X2286Y73216
X5842Y51117
X5207Y51117
X8416Y75502
X8748Y75169
X9362Y57293
X8382Y54165
X9271Y46291
X9335Y55118
X7620Y52959
X9362Y50228
X9335Y55689
X9335Y56261
X3594Y53848
X7620Y80264
X6437Y46315
X4102Y53848
X7179Y79947
X6850Y46871
X4610Y53848
X6610Y79756
X5398Y47434
X2578Y53848
X7556Y45783
X6540Y45466
X1905Y54356
X6477Y44323
X2070Y53848
X9017Y61150
X9335Y60325
X862Y57342
X5969Y53846
X5407Y53848
X5905Y62992
X2667Y61978
X4013Y61978
X6331Y62041
X1433Y62266
X902Y56832
X854Y57848
X1143Y60916
X851Y60500
X889Y70866
X1524Y79386
X9323Y77343
X4445Y43307
X1841Y72454
X2286Y76200
X9335Y58547
X889Y69853
X2223Y77089
X5842Y70358
X5842Y65468
X5778Y47942
X3227Y50990
X3086Y53848
X6604Y79251
X2727Y77317
X6928Y78861
X5905Y42609
X7306Y78467
X5334Y42609
X3384Y77769
X2540Y47498
X1573Y45071
X2731Y78296
X4572Y42609
X2159Y78423
X4445Y44640
X2159Y78994
X4000Y44005
X8001Y50228
X6350Y50228
X8636Y42672
X8636Y43942
X2096Y42609
X2096Y80328
X8576Y80264
X9208Y79821
X8636Y46291
X8128Y46291
X1587Y80328
X1492Y42609
X9779Y79375
X10287Y79375
X22860Y62484
X22860Y66929
X22860Y65659
X22860Y64389
X22860Y63119
X24574Y63754
X24574Y62484
X24574Y66294
X24574Y67564
X20701Y60325
X20701Y57912
X19114Y57912
X19114Y60325
X19050Y55499
X20701Y55499
X22225Y55499
X23876Y55499
X24574Y65024
X24574Y68834
X22860Y68199
X22860Y69469
X22860Y70739
X20638Y62865
X20638Y63754
X20638Y65659
X20638Y66929
X20638Y68199
X18796Y68136
X18796Y66675
X18796Y65278
X18796Y63881
X18796Y62484
X19050Y70612
X19812Y70612
X18987Y51435
X22542Y52387
X17717Y49022
X17717Y47815
X22860Y72263
X24003Y74803
X18923Y76645
X22098Y72835
X21781Y49149
X21781Y48514
X22733Y73533
X25590Y77915
X18352Y79566
X19622Y78296
X21590Y78423
X20384Y76137
X22733Y75311
X24574Y71247
X24574Y74168
X17717Y72835
X24257Y42799
X26098Y42672
X21146Y46990
X24574Y79629
X24955Y53149
X17145Y70358
X17145Y79375
X23876Y57912
X21590Y43244
X18098Y44259
X23685Y46863
X23558Y60325
X23622Y77788
X22187Y67907
X17590Y45529
X25590Y59725
X25605Y76073
X25590Y59118
X25590Y76708
X18542Y73216
X22098Y51117
X21463Y51117
X24672Y75502
X25004Y75169
X25617Y57293
X24638Y54165
X25527Y46291
X25590Y55118
X23876Y52959
X25617Y50228
X25590Y55689
X25590Y56261
X19850Y53848
X23876Y80264
X22693Y46315
X20358Y53848
X23435Y79947
X23106Y46871
X20866Y53848
X22866Y79756
X21654Y47434
X18834Y53848
X23812Y45783
X22796Y45466
X18161Y54356
X22733Y44323
X18326Y53848
X25273Y61150
X25590Y60325
X17119Y57342
X22225Y53846
X21663Y53848
X22161Y62992
X18923Y61978
X20269Y61978
X22587Y62041
X17689Y62266
X17158Y56832
X17110Y57848
X17399Y60916
X17107Y60500
X17145Y70866
X17780Y79386
X25579Y77343
X20701Y43307
X18098Y72454
X18542Y76200
X25590Y58547
X17145Y69853
X18479Y77089
X22098Y70358
X22098Y65468
X22034Y47942
X19483Y50990
X19342Y53848
X22860Y79251
X18983Y77317
X23184Y78861
X22161Y42609
X23562Y78467
X21590Y42609
X19641Y77769
X18796Y47498
X17829Y45071
X18987Y78296
X20828Y42609
X18415Y78423
X20701Y44640
X18415Y78994
X20257Y44005
X24257Y50228
X22606Y50228
X24892Y42672
X24892Y43942
X18352Y42609
X18352Y80328
X24832Y80264
X25463Y79821
X24892Y46291
X24384Y46291
X17844Y80328
X17748Y42609
X26035Y79375
X26543Y79375
X39116Y62484
X39116Y66929
X39116Y65659
X39116Y64389
X39116Y63119
X40831Y63754
X40831Y62484
X40831Y66294
X40831Y67564
X36957Y60325
X36957Y57912
X35370Y57912
X35370Y60325
X35306Y55499
X36957Y55499
X38481Y55499
X40132Y55499
X40831Y65024
X40831Y68834
X39116Y68199
X39116Y69469
X39116Y70739
X36894Y62865
X36894Y63754
X36894Y65659
X36894Y66929
X36894Y68199
X35052Y68136
X35052Y66675
X35052Y65278
X35052Y63881
X35052Y62484
X35306Y70612
X36068Y70612
X35243Y51435
X38799Y52387
X33973Y49022
X33973Y47815
X39116Y72263
X40259Y74803
X35179Y76645
X38354Y72835
X38037Y49149
X38037Y48514
X38989Y73533
X41847Y77915
X34608Y79566
X35878Y78296
X37846Y78423
X36640Y76137
X38989Y75311
X40831Y71247
X40831Y74168
X33973Y72835
X40513Y42799
X42355Y42672
X37402Y46990
X40831Y79629
X41212Y53149
X33401Y70358
X33401Y79375
X40132Y57912
X37846Y43244
X34354Y44259
X39942Y46863
X39815Y60325
X39878Y77788
X38443Y67907
X33846Y45529
X41847Y59725
X41861Y76073
X41847Y59118
X41847Y76708
X34798Y73216
X38354Y51117
X37719Y51117
X40928Y75502
X41260Y75169
X41874Y57293
X40894Y54165
X41783Y46291
X41847Y55118
X40132Y52959
X41874Y50228
X41847Y55689
X41847Y56261
X36106Y53848
X40132Y80264
X38949Y46315
X36614Y53848
X39691Y79947
X39362Y46871
X37122Y53848
X39122Y79756
X37910Y47434
X35090Y53848
X40069Y45783
X39053Y45466
X34417Y54356
X38989Y44323
X34582Y53848
X41529Y61150
X41847Y60325
X33375Y57342
X38481Y53846
X37919Y53848
X38418Y62992
X35179Y61978
X36525Y61978
X38843Y62041
X33945Y62266
X33414Y56832
X33366Y57848
X33655Y60916
X33363Y60500
X33401Y70866
X34036Y79386
X41835Y77343
X36957Y43307
X34354Y72454
X34798Y76200
X41847Y58547
X33401Y69853
X34735Y77089
X38354Y70358
X38354Y65468
X38291Y47942
X35739Y50990
X35598Y53848
X39116Y79251
X35239Y77317
X39440Y78861
X38418Y42609
X39818Y78467
X37846Y42609
X35897Y77769
X35052Y47498
X34085Y45071
X35243Y78296
X37084Y42609
X34671Y78423
X36957Y44640
X34671Y78994
X36513Y44005
X40513Y50228
X38862Y50228
X41148Y42672
X41148Y43942
X34608Y42609
X34608Y80328
X41088Y80264
X41720Y79821
X41148Y46291
X40640Y46291
X34100Y80328
X34004Y42609
X42291Y79375
X42799Y79375
X55372Y62484
X55372Y66929
X55372Y65659
X55372Y64389
X55372Y63119
X57086Y63754
X57086Y62484
X57086Y66294
X57086Y67564
X53213Y60325
X53213Y57912
X51625Y57912
X51625Y60325
X51562Y55499
X53213Y55499
X54737Y55499
X56388Y55499
X57086Y65024
X57086Y68834
X55372Y68199
X55372Y69469
X55372Y70739
X53149Y62865
X53149Y63754
X53149Y65659
X53149Y66929
X53149Y68199
X51308Y68136
X51308Y66675
X51308Y65278
X51308Y63881
X51308Y62484
X51562Y70612
X52324Y70612
X51498Y51435
X55054Y52387
X50228Y49022
X50228Y47815
X55372Y72263
X56515Y74803
X51435Y76645
X54610Y72835
X54292Y49149
X54292Y48514
X55245Y73533
X58102Y77915
X50863Y79566
X52133Y78296
X54102Y78423
X52895Y76137
X55245Y75311
X57086Y71247
X57086Y74168
X50228Y72835
X56769Y42799
X58610Y42672
X53657Y46990
X57086Y79629
X57467Y53149
X49657Y70358
X49657Y79375
X56388Y57912
X54102Y43244
X50609Y44259
X56197Y46863
X56070Y60325
X56134Y77788
X54699Y67907
X50101Y45529
X58102Y59725
X58117Y76073
X58102Y59118
X58102Y76708
X51054Y73216
X54610Y51117
X53975Y51117
X57184Y75502
X57516Y75169
X58129Y57293
X57150Y54165
X58039Y46291
X58102Y55118
X56388Y52959
X58129Y50228
X58102Y55689
X58102Y56261
X52362Y53848
X56388Y80264
X55205Y46315
X52870Y53848
X55947Y79947
X55618Y46871
X53378Y53848
X55378Y79756
X54165Y47434
X51346Y53848
X56324Y45783
X55308Y45466
X50673Y54356
X55245Y44323
X50838Y53848
X57785Y61150
X58102Y60325
X49630Y57342
X54737Y53846
X54175Y53848
X54673Y62992
X51435Y61978
X52781Y61978
X55099Y62041
X50201Y62266
X49670Y56832
X49622Y57848
X49911Y60916
X49619Y60500
X49657Y70866
X50292Y79386
X58091Y77343
X53213Y43307
X50609Y72454
X51054Y76200
X58102Y58547
X49657Y69853
X50990Y77089
X54610Y70358
X54610Y65468
X54546Y47942
X51995Y50990
X51854Y53848
X55372Y79251
X51495Y77317
X55696Y78861
X54673Y42609
X56074Y78467
X54102Y42609
X52152Y77769
X51308Y47498
X50341Y45071
X51498Y78296
X53340Y42609
X50927Y78423
X53213Y44640
X50927Y78994
X52768Y44005
X56769Y50228
X55118Y50228
X57404Y42672
X57404Y43942
X50863Y42609
X50863Y80328
X57344Y80264
X57975Y79821
X57404Y46291
X56896Y46291
X50355Y80328
X50260Y42609
X58547Y79375
X59055Y79375
X71628Y62484
X71628Y66929
X71628Y65659
X71628Y64389
X71628Y63119
X73343Y63754
X73343Y62484
X73343Y66294
X73343Y67564
X69469Y60325
X69469Y57912
X67882Y57912
X67882Y60325
X67818Y55499
X69469Y55499
X70993Y55499
X72644Y55499
X73343Y65024
X73343Y68834
X71628Y68199
X71628Y69469
X71628Y70739
X69406Y62865
X69406Y63754
X69406Y65659
X69406Y66929
X69406Y68199
X67564Y68136
X67564Y66675
X67564Y65278
X67564Y63881
X67564Y62484
X67818Y70612
X68580Y70612
X67755Y51435
X71311Y52387
X66485Y49022
X66485Y47815
X71628Y72263
X72771Y74803
X67691Y76645
X70866Y72835
X70549Y49149
X70549Y48514
X71501Y73533
X74359Y77915
X67120Y79566
X68390Y78296
X70358Y78423
X69152Y76137
X71501Y75311
X73343Y71247
X73343Y74168
X66485Y72835
X73025Y42799
X74867Y42672
X69914Y46990
X73343Y79629
X73724Y53149
X65913Y70358
X65913Y79375
X72644Y57912
X70358Y43244
X66866Y44259
X72454Y46863
X72327Y60325
X72390Y77788
X70955Y67907
X66358Y45529
X74359Y59725
X74373Y76073
X74359Y59118
X74359Y76708
X67310Y73216
X70866Y51117
X70231Y51117
X73440Y75502
X73772Y75169
X74386Y57293
X73406Y54165
X74295Y46291
X74359Y55118
X72644Y52959
X74386Y50228
X74359Y55689
X74359Y56261
X68618Y53848
X72644Y80264
X71461Y46315
X69126Y53848
X72203Y79947
X71874Y46871
X69634Y53848
X71634Y79756
X70422Y47434
X67602Y53848
X72581Y45783
X71565Y45466
X66929Y54356
X71501Y44323
X67094Y53848
X74041Y61150
X74359Y60325
X65887Y57342
X70993Y53846
X70431Y53848
X70930Y62992
X67691Y61978
X69037Y61978
X71355Y62041
X66457Y62266
X65926Y56832
X65878Y57848
X66167Y60916
X65875Y60500
X65913Y70866
X66548Y79386
X74347Y77343
X69469Y43307
X66866Y72454
X67310Y76200
X74359Y58547
X65913Y69853
X67247Y77089
X70866Y70358
X70866Y65468
X70803Y47942
X68251Y50990
X68110Y53848
X71628Y79251
X67751Y77317
X71952Y78861
X70930Y42609
X72330Y78467
X70358Y42609
X68409Y77769
X67564Y47498
X66597Y45071
X67755Y78296
X69596Y42609
X67183Y78423
X69469Y44640
X67183Y78994
X69025Y44005
X73025Y50228
X71374Y50228
X73660Y42672
X73660Y43942
X67120Y42609
X67120Y80328
X73600Y80264
X74232Y79821
X73660Y46291
X73152Y46291
X66612Y80328
X66516Y42609
X74803Y79375
X75311Y79375
X87884Y62484
X87884Y66929
X87884Y65659
X87884Y64389
X87884Y63119
X89598Y63754
X89598Y62484
X89598Y66294
X89598Y67564
X85725Y60325
X85725Y57912
X84138Y57912
X84138Y60325
X84074Y55499
X85725Y55499
X87249Y55499
X88900Y55499
X89598Y65024
X89598Y68834
X87884Y68199
X87884Y69469
X87884Y70739
X85662Y62865
X85662Y63754
X85662Y65659
X85662Y66929
X85662Y68199
X83820Y68136
X83820Y66675
X83820Y65278
X83820Y63881
X83820Y62484
X84074Y70612
X84836Y70612
X84011Y51435
X87566Y52387
X82741Y49022
X82741Y47815
X87884Y72263
X89027Y74803
X83947Y76645
X87122Y72835
X86805Y49149
X86805Y48514
X87757Y73533
X90614Y77915
X83376Y79566
X84646Y78296
X86614Y78423
X85408Y76137
X87757Y75311
X89598Y71247
X89598Y74168
X82741Y72835
X89281Y42799
X91122Y42672
X86170Y46990
X89598Y79629
X89979Y53149
X82169Y70358
X82169Y79375
X88900Y57912
X86614Y43244
X83122Y44259
X88709Y46863
X88582Y60325
X88646Y77788
X87211Y67907
X82614Y45529
X90614Y59725
X90629Y76073
X90614Y59118
X90614Y76708
X83566Y73216
X87122Y51117
X86487Y51117
X89696Y75502
X90028Y75169
X90641Y57293
X89662Y54165
X90551Y46291
X90614Y55118
X88900Y52959
X90641Y50228
X90614Y55689
X90614Y56261
X84874Y53848
X88900Y80264
X87717Y46315
X85382Y53848
X88459Y79947
X88130Y46871
X85890Y53848
X87890Y79756
X86678Y47434
X83858Y53848
X88836Y45783
X87820Y45466
X83185Y54356
X87757Y44323
X83350Y53848
X90297Y61150
X90614Y60325
X82143Y57342
X87249Y53846
X86687Y53848
X87186Y62992
X83947Y61978
X85293Y61978
X87611Y62041
X82713Y62266
X82182Y56832
X82134Y57848
X82423Y60916
X82131Y60500
X82169Y70866
X82804Y79386
X90603Y77343
X85725Y43307
X83122Y72454
X83566Y76200
X90614Y58547
X82169Y69853
X83503Y77089
X87122Y70358
X87122Y65468
X87059Y47942
X84507Y50990
X84366Y53848
X87884Y79251
X84007Y77317
X88208Y78861
X87186Y42609
X88586Y78467
X86614Y42609
X84665Y77769
X83820Y47498
X82853Y45071
X84011Y78296
X85852Y42609
X83439Y78423
X85725Y44640
X83439Y78994
X85281Y44005
X89281Y50228
X87630Y50228
X89916Y42672
X89916Y43942
X83376Y42609
X83376Y80328
X89856Y80264
X90487Y79821
X89916Y46291
X89408Y46291
X82868Y80328
X82772Y42609
X91059Y79375
X91567Y79375
X104140Y62484
X104140Y66929
X104140Y65659
X104140Y64389
X104140Y63119
X105854Y63754
X105854Y62484
X105854Y66294
X105854Y67564
X101981Y60325
X101981Y57912
X100393Y57912
X100393Y60325
X100330Y55499
X101981Y55499
X103505Y55499
X105156Y55499
X105854Y65024
X105854Y68834
X104140Y68199
X104140Y69469
X104140Y70739
X101917Y62865
X101917Y63754
X101917Y65659
X101917Y66929
X101917Y68199
X100076Y68136
X100076Y66675
X100076Y65278
X100076Y63881
X100076Y62484
X100330Y70612
X101092Y70612
X100266Y51435
X103822Y52387
X98996Y49022
X98996Y47815
X104140Y72263
X105283Y74803
X100203Y76645
X103378Y72835
X103060Y49149
X103060Y48514
X104013Y73533
X106870Y77915
X99631Y79566
X100901Y78296
X102870Y78423
X101663Y76137
X104013Y75311
X105854Y71247
X105854Y74168
X98996Y72835
X105537Y42799
X107378Y42672
X102425Y46990
X105854Y79629
X106235Y53149
X98425Y70358
X98425Y79375
X105156Y57912
X102870Y43244
X99377Y44259
X104965Y46863
X104838Y60325
X104902Y77788
X103467Y67907
X98869Y45529
X106870Y59725
X106885Y76073
X106870Y59118
X106870Y76708
X99822Y73216
X103378Y51117
X102743Y51117
X105952Y75502
X106284Y75169
X106897Y57293
X105918Y54165
X106807Y46291
X106870Y55118
X105156Y52959
X106897Y50228
X106870Y55689
X106870Y56261
X101130Y53848
X105156Y80264
X103973Y46315
X101638Y53848
X104715Y79947
X104386Y46871
X102146Y53848
X104146Y79756
X102933Y47434
X100114Y53848
X105092Y45783
X104076Y45466
X99441Y54356
X104013Y44323
X99606Y53848
X106553Y61150
X106870Y60325
X98398Y57342
X103505Y53846
X102943Y53848
X103441Y62992
X100203Y61978
X101549Y61978
X103867Y62041
X98969Y62266
X98438Y56832
X98390Y57848
X98679Y60916
X98387Y60500
X98425Y70866
X99060Y79386
X106859Y77343
X101981Y43307
X99377Y72454
X99822Y76200
X106870Y58547
X98425Y69853
X99758Y77089
X103378Y70358
X103378Y65468
X103314Y47942
X100763Y50990
X100622Y53848
X104140Y79251
X100263Y77317
X104464Y78861
X103441Y42609
X104842Y78467
X102870Y42609
X100920Y77769
X100076Y47498
X99109Y45071
X100266Y78296
X102108Y42609
X99695Y78423
X101981Y44640
X99695Y78994
X101536Y44005
X105537Y50228
X103886Y50228
X106172Y42672
X106172Y43942
X99631Y42609
X99631Y80328
X106112Y80264
X106743Y79821
X106172Y46291
X105664Y46291
X99123Y80328
X99028Y42609
X107315Y79375
X107823Y79375
X120396Y62484
X120396Y66929
X120396Y65659
X120396Y64389
X120396Y63119
X122110Y63754
X122110Y62484
X122110Y66294
X122110Y67564
X118237Y60325
X118237Y57912
X116649Y57912
X116649Y60325
X116586Y55499
X118237Y55499
X119761Y55499
X121412Y55499
X122110Y65024
X122110Y68834
X120396Y68199
X120396Y69469
X120396Y70739
X118173Y62865
X118173Y63754
X118173Y65659
X118173Y66929
X118173Y68199
X116332Y68136
X116332Y66675
X116332Y65278
X116332Y63881
X116332Y62484
X116586Y70612
X117348Y70612
X116522Y51435
X120078Y52387
X115252Y49022
X115252Y47815
X120396Y72263
X121539Y74803
X116459Y76645
X119634Y72835
X119316Y49149
X119316Y48514
X120269Y73533
X123126Y77915
X115887Y79566
X117157Y78296
X119126Y78423
X117919Y76137
X120269Y75311
X122110Y71247
X122110Y74168
X115252Y72835
X121793Y42799
X123634Y42672
X118681Y46990
X122110Y79629
X122491Y53149
X114681Y70358
X114681Y79375
X121412Y57912
X119126Y43244
X115633Y44259
X121221Y46863
X121094Y60325
X121158Y77788
X119723Y67907
X115125Y45529
X123126Y59725
X123141Y76073
X123126Y59118
X123126Y76708
X116078Y73216
X119634Y51117
X118999Y51117
X122208Y75502
X122540Y75169
X123153Y57293
X122174Y54165
X123063Y46291
X123126Y55118
X121412Y52959
X123153Y50228
X123126Y55689
X123126Y56261
X117386Y53848
X121412Y80264
X120229Y46315
X117894Y53848
X120971Y79947
X120642Y46871
X118402Y53848
X120402Y79756
X119189Y47434
X116370Y53848
X121348Y45783
X120332Y45466
X115697Y54356
X120269Y44323
X115862Y53848
X122809Y61150
X123126Y60325
X114654Y57342
X119761Y53846
X119199Y53848
X119697Y62992
X116459Y61978
X117805Y61978
X120123Y62041
X115225Y62266
X114694Y56832
X114646Y57848
X114935Y60916
X114643Y60500
X114681Y70866
X115316Y79386
X123115Y77343
X118237Y43307
X115633Y72454
X116078Y76200
X123126Y58547
X114681Y69853
X116014Y77089
X119634Y70358
X119634Y65468
X119570Y47942
X117019Y50990
X116878Y53848
X120396Y79251
X116519Y77317
X120720Y78861
X119697Y42609
X121098Y78467
X119126Y42609
X117176Y77769
X116332Y47498
X115365Y45071
X116522Y78296
X118364Y42609
X115951Y78423
X118237Y44640
X115951Y78994
X117792Y44005
X121793Y50228
X120142Y50228
X122428Y42672
X122428Y43942
X115887Y42609
X115887Y80328
X122368Y80264
X122999Y79821
X122428Y46291
X121920Y46291
X115379Y80328
X115284Y42609
X123571Y79375
X124079Y79375
X136652Y62484
X136652Y66929
X136652Y65659
X136652Y64389
X136652Y63119
X138367Y63754
X138367Y62484
X138367Y66294
X138367Y67564
X134493Y60325
X134493Y57912
X132906Y57912
X132906Y60325
X132842Y55499
X134493Y55499
X136017Y55499
X137668Y55499
X138367Y65024
X138367Y68834
X136652Y68199
X136652Y69469
X136652Y70739
X134430Y62865
X134430Y63754
X134430Y65659
X134430Y66929
X134430Y68199
X132588Y68136
X132588Y66675
X132588Y65278
X132588Y63881
X132588Y62484
X132842Y70612
X133604Y70612
X132779Y51435
X136335Y52387
X131509Y49022
X131509Y47815
X136652Y72263
X137795Y74803
X132715Y76645
X135890Y72835
X135573Y49149
X135573Y48514
X136525Y73533
X139383Y77915
X132144Y79566
X133414Y78296
X135382Y78423
X134176Y76137
X136525Y75311
X138367Y71247
X138367Y74168
X131509Y72835
X138049Y42799
X139891Y42672
X134938Y46990
X138367Y79629
X138748Y53149
X130937Y70358
X130937Y79375
X137668Y57912
X135382Y43244
X131890Y44259
X137478Y46863
X137351Y60325
X137414Y77788
X135979Y67907
X131382Y45529
X139383Y59725
X139397Y76073
X139383Y59118
X139383Y76708
X132334Y73216
X135890Y51117
X135255Y51117
X138464Y75502
X138796Y75169
X139410Y57293
X138430Y54165
X139319Y46291
X139383Y55118
X137668Y52959
X139410Y50228
X139383Y55689
X139383Y56261
X133642Y53848
X137668Y80264
X136485Y46315
X134150Y53848
X137227Y79947
X136898Y46871
X134658Y53848
X136658Y79756
X135446Y47434
X132626Y53848
X137605Y45783
X136589Y45466
X131953Y54356
X136525Y44323
X132118Y53848
X139065Y61150
X139383Y60325
X130910Y57342
X136017Y53846
X135455Y53848
X135954Y62992
X132715Y61978
X134061Y61978
X136379Y62041
X131481Y62266
X130950Y56832
X130902Y57848
X131191Y60916
X130899Y60500
X130937Y70866
X131572Y79386
X139371Y77343
X134493Y43307
X131890Y72454
X132334Y76200
X139383Y58547
X130937Y69853
X132271Y77089
X135890Y70358
X135890Y65468
X135827Y47942
X133275Y50990
X133134Y53848
X136652Y79251
X132775Y77317
X136976Y78861
X135954Y42609
X137354Y78467
X135382Y42609
X133433Y77769
X132588Y47498
X131621Y45071
X132779Y78296
X134620Y42609
X132207Y78423
X134493Y44640
X132207Y78994
X134049Y44005
X138049Y50228
X136398Y50228
X138684Y42672
X138684Y43942
X132144Y42609
X132144Y80328
X138624Y80264
X139256Y79821
X138684Y46291
X138176Y46291
X131636Y80328
X131540Y42609
X139827Y79375
X140335Y79375
X152908Y62484
X152908Y66929
X152908Y65659
X152908Y64389
X152908Y63119
X154623Y63754
X154623Y62484
X154623Y66294
X154623Y67564
X150749Y60325
X150749Y57912
X149162Y57912
X149162Y60325
X149098Y55499
X150749Y55499
X152273Y55499
X153924Y55499
X154623Y65024
X154623Y68834
X152908Y68199
X152908Y69469
X152908Y70739
X150686Y62865
X150686Y63754
X150686Y65659
X150686Y66929
X150686Y68199
X148844Y68136
X148844Y66675
X148844Y65278
X148844Y63881
X148844Y62484
X149098Y70612
X149860Y70612
X149035Y51435
X152591Y52387
X147765Y49022
X147765Y47815
X152908Y72263
X154051Y74803
X148971Y76645
X152146Y72835
X151829Y49149
X151829Y48514
X152781Y73533
X155639Y77915
X148400Y79566
X149670Y78296
X151638Y78423
X150432Y76137
X152781Y75311
X154623Y71247
X154623Y74168
X147765Y72835
X154305Y42799
X156147Y42672
X151194Y46990
X154623Y79629
X155004Y53149
X147193Y70358
X147193Y79375
X153924Y57912
X151638Y43244
X148146Y44259
X153734Y46863
X153607Y60325
X153670Y77788
X152235Y67907
X147638Y45529
X155639Y59725
X155653Y76073
X155639Y59118
X155639Y76708
X148590Y73216
X152146Y51117
X151511Y51117
X154720Y75502
X155052Y75169
X155666Y57293
X154686Y54165
X155575Y46291
X155639Y55118
X153924Y52959
X155666Y50228
X155639Y55689
X155639Y56261
X149898Y53848
X153924Y80264
X152741Y46315
X150406Y53848
X153483Y79947
X153154Y46871
X150914Y53848
X152914Y79756
X151702Y47434
X148882Y53848
X153861Y45783
X152845Y45466
X148209Y54356
X152781Y44323
X148374Y53848
X155321Y61150
X155639Y60325
X147167Y57342
X152273Y53846
X151711Y53848
X152210Y62992
X148971Y61978
X150317Y61978
X152635Y62041
X147737Y62266
X147206Y56832
X147158Y57848
X147447Y60916
X147155Y60500
X147193Y70866
X147828Y79386
X155627Y77343
X150749Y43307
X148146Y72454
X148590Y76200
X155639Y58547
X147193Y69853
X148527Y77089
X152146Y70358
X152146Y65468
X152083Y47942
X149531Y50990
X149390Y53848
X152908Y79251
X149031Y77317
X153232Y78861
X152210Y42609
X153610Y78467
X151638Y42609
X149689Y77769
X148844Y47498
X147877Y45071
X149035Y78296
X150876Y42609
X148463Y78423
X150749Y44640
X148463Y78994
X150305Y44005
X154305Y50228
X152654Y50228
X154940Y42672
X154940Y43942
X148400Y42609
X148400Y80328
X154880Y80264
X155512Y79821
X154940Y46291
X154432Y46291
X147892Y80328
X147796Y42609
X156083Y79375
X156591Y79375
X6604Y103632
X6604Y108077
X6604Y106807
X6604Y105537
X6604Y104267
X8319Y104902
X8319Y103632
X8319Y107442
X8319Y108712
X4445Y101473
X4445Y99060
X2857Y99060
X2857Y101473
X2794Y96647
X4445Y96647
X5969Y96647
X7620Y96647
X8319Y106172
X8319Y109982
X6604Y109347
X6604Y110617
X6604Y111887
X4382Y104013
X4382Y104902
X4382Y106807
X4382Y108077
X4382Y109347
X2540Y109283
X2540Y107823
X2540Y106426
X2540Y105029
X2540Y103632
X2794Y111760
X3556Y111760
X2731Y92583
X6286Y93535
X1460Y90170
X1460Y88963
X6604Y113411
X7747Y115951
X2667Y117792
X5842Y113982
X5524Y90297
X5524Y89662
X6477Y114681
X9335Y119062
X2096Y120713
X3365Y119443
X5334Y119570
X4128Y117284
X6477Y116459
X8319Y112395
X8319Y115316
X1460Y113982
X8001Y83947
X9843Y83820
X4890Y88138
X8319Y120777
X8700Y94297
X889Y111506
X889Y120523
X7620Y99060
X5334Y84392
X1841Y85408
X7429Y88011
X7302Y101473
X7366Y118935
X5931Y109055
X1334Y86678
X9335Y100873
X9349Y117221
X9335Y100266
X9335Y117856
X2286Y114363
X5842Y92265
X5207Y92265
X8416Y116649
X8748Y116317
X9362Y98441
X8382Y95313
X9271Y87439
X9335Y96266
X7620Y94107
X9362Y91376
X9335Y96837
X9335Y97409
X3594Y94996
X7620Y121412
X6437Y87463
X4102Y94996
X7179Y121094
X6850Y88019
X4610Y94996
X6610Y120904
X5398Y88582
X2578Y94996
X7556Y86932
X6540Y86614
X1905Y95504
X6477Y85471
X2070Y94996
X9017Y102298
X9335Y101473
X862Y98490
X5969Y94994
X5407Y94996
X5905Y104140
X2667Y103126
X4013Y103126
X6331Y103189
X1433Y103414
X902Y97980
X854Y98996
X1143Y102064
X851Y101648
X889Y112014
X1524Y120534
X9323Y118491
X4445Y84455
X1841Y113601
X2286Y117348
X9335Y99695
X889Y111001
X2223Y118237
X5842Y111506
X5842Y106616
X5778Y89090
X3227Y92138
X3086Y94996
X6604Y120399
X2727Y118465
X6928Y120009
X5905Y83757
X7306Y119615
X5334Y83757
X3384Y118916
X2540Y88646
X1573Y86219
X2731Y119443
X4572Y83757
X2159Y119570
X4445Y85789
X2159Y120142
X4000Y85154
X8001Y91376
X6350Y91376
X8636Y83820
X8636Y85090
X2096Y83757
X2096Y121475
X8576Y121412
X9208Y120969
X8636Y87439
X8128Y87439
X1587Y121475
X1492Y83757
X9779Y120523
X10287Y120523
X22860Y103632
X22860Y108077
X22860Y106807
X22860Y105537
X22860Y104267
X24574Y104902
X24574Y103632
X24574Y107442
X24574Y108712
X20701Y101473
X20701Y99060
X19114Y99060
X19114Y101473
X19050Y96647
X20701Y96647
X22225Y96647
X23876Y96647
X24574Y106172
X24574Y109982
X22860Y109347
X22860Y110617
X22860Y111887
X20638Y104013
X20638Y104902
X20638Y106807
X20638Y108077
X20638Y109347
X18796Y109283
X18796Y107823
X18796Y106426
X18796Y105029
X18796Y103632
X19050Y111760
X19812Y111760
X18987Y92583
X22542Y93535
X17717Y90170
X17717Y88963
X22860Y113411
X24003Y115951
X18923Y117792
X22098Y113982
X21781Y90297
X21781Y89662
X22733Y114681
X25590Y119062
X18352Y120713
X19622Y119443
X21590Y119570
X20384Y117284
X22733Y116459
X24574Y112395
X24574Y115316
X17717Y113982
X24257Y83947
X26098Y83820
X21146Y88138
X24574Y120777
X24955Y94297
X17145Y111506
X17145Y120523
X23876Y99060
X21590Y84392
X18098Y85408
X23685Y88011
X23558Y101473
X23622Y118935
X22187Y109055
X17590Y86678
X25590Y100873
X25605Y117221
X25590Y100266
X25590Y117856
X18542Y114363
X22098Y92265
X21463Y92265
X24672Y116649
X25004Y116317
X25617Y98441
X24638Y95313
X25527Y87439
X25590Y96266
X23876Y94107
X25617Y91376
X25590Y96837
X25590Y97409
X19850Y94996
X23876Y121412
X22693Y87463
X20358Y94996
X23435Y121094
X23106Y88019
X20866Y94996
X22866Y120904
X21654Y88582
X18834Y94996
X23812Y86932
X22796Y86614
X18161Y95504
X22733Y85471
X18326Y94996
X25273Y102298
X25590Y101473
X17119Y98490
X22225Y94994
X21663Y94996
X22161Y104140
X18923Y103126
X20269Y103126
X22587Y103189
X17689Y103414
X17158Y97980
X17110Y98996
X17399Y102064
X17107Y101648
X17145Y112014
X17780Y120534
X25579Y118491
X20701Y84455
X18098Y113601
X18542Y117348
X25590Y99695
X17145Y111001
X18479Y118237
X22098Y111506
X22098Y106616
X22034Y89090
X19483Y92138
X19342Y94996
X22860Y120399
X18983Y118465
X23184Y120009
X22161Y83757
X23562Y119615
X21590Y83757
X19641Y118916
X18796Y88646
X17829Y86219
X18987Y119443
X20828Y83757
X18415Y119570
X20701Y85789
X18415Y120142
X20257Y85154
X24257Y91376
X22606Y91376
X24892Y83820
X24892Y85090
X18352Y83757
X18352Y121475
X24832Y121412
X25463Y120969
X24892Y87439
X24384Y87439
X17844Y121475
X17748Y83757
X26035Y120523
X26543Y120523
X39116Y103632
X39116Y108077
X39116Y106807
X39116Y105537
X39116Y104267
X40831Y104902
X40831Y103632
X40831Y107442
X40831Y108712
X36957Y101473
X36957Y99060
X35370Y99060
X35370Y101473
X35306Y96647
X36957Y96647
X38481Y96647
X40132Y96647
X40831Y106172
X40831Y109982
X39116Y109347
X39116Y110617
X39116Y111887
X36894Y104013
X36894Y104902
X36894Y106807
X36894Y108077
X36894Y109347
X35052Y109283
X35052Y107823
X35052Y106426
X35052Y105029
X35052Y103632
X35306Y111760
X36068Y111760
X35243Y92583
X38799Y93535
X33973Y90170
X33973Y88963
X39116Y113411
X40259Y115951
X35179Y117792
X38354Y113982
X38037Y90297
X38037Y89662
X38989Y114681
X41847Y119062
X34608Y120713
X35878Y119443
X37846Y119570
X36640Y117284
X38989Y116459
X40831Y112395
X40831Y115316
X33973Y113982
X40513Y83947
X42355Y83820
X37402Y88138
X40831Y120777
X41212Y94297
X33401Y111506
X33401Y120523
X40132Y99060
X37846Y84392
X34354Y85408
X39942Y88011
X39815Y101473
X39878Y118935
X38443Y109055
X33846Y86678
X41847Y100873
X41861Y117221
X41847Y100266
X41847Y117856
X34798Y114363
X38354Y92265
X37719Y92265
X40928Y116649
X41260Y116317
X41874Y98441
X40894Y95313
X41783Y87439
X41847Y96266
X40132Y94107
X41874Y91376
X41847Y96837
X41847Y97409
X36106Y94996
X40132Y121412
X38949Y87463
X36614Y94996
X39691Y121094
X39362Y88019
X37122Y94996
X39122Y120904
X37910Y88582
X35090Y94996
X40069Y86932
X39053Y86614
X34417Y95504
X38989Y85471
X34582Y94996
X41529Y102298
X41847Y101473
X33375Y98490
X38481Y94994
X37919Y94996
X38418Y104140
X35179Y103126
X36525Y103126
X38843Y103189
X33945Y103414
X33414Y97980
X33366Y98996
X33655Y102064
X33363Y101648
X33401Y112014
X34036Y120534
X41835Y118491
X36957Y84455
X34354Y113601
X34798Y117348
X41847Y99695
X33401Y111001
X34735Y118237
X38354Y111506
X38354Y106616
X38291Y89090
X35739Y92138
X35598Y94996
X39116Y120399
X35239Y118465
X39440Y120009
X38418Y83757
X39818Y119615
X37846Y83757
X35897Y118916
X35052Y88646
X34085Y86219
X35243Y119443
X37084Y83757
X34671Y119570
X36957Y85789
X34671Y120142
X36513Y85154
X40513Y91376
X38862Y91376
X41148Y83820
X41148Y85090
X34608Y83757
X34608Y121475
X41088Y121412
X41720Y120969
X41148Y87439
X40640Y87439
X34100Y121475
X34004Y83757
X42291Y120523
X42799Y120523
X55372Y103632
X55372Y108077
X55372Y106807
X55372Y105537
X55372Y104267
X57086Y104902
X57086Y103632
X57086Y107442
X57086Y108712
X53213Y101473
X53213Y99060
X51625Y99060
X51625Y101473
X51562Y96647
X53213Y96647
X54737Y96647
X56388Y96647
X57086Y106172
X57086Y109982
X55372Y109347
X55372Y110617
X55372Y111887
X53149Y104013
X53149Y104902
X53149Y106807
X53149Y108077
X53149Y109347
X51308Y109283
X51308Y107823
X51308Y106426
X51308Y105029
X51308Y103632
X51562Y111760
X52324Y111760
X51498Y92583
X55054Y93535
X50228Y90170
X50228Y88963
X55372Y113411
X56515Y115951
X51435Y117792
X54610Y113982
X54292Y90297
X54292Y89662
X55245Y114681
X58102Y119062
X50863Y120713
X52133Y119443
X54102Y119570
X52895Y117284
X55245Y116459
X57086Y112395
X57086Y115316
X50228Y113982
X56769Y83947
X58610Y83820
X53657Y88138
X57086Y120777
X57467Y94297
X49657Y111506
X49657Y120523
X56388Y99060
X54102Y84392
X50609Y85408
X56197Y88011
X56070Y101473
X56134Y118935
X54699Y109055
X50101Y86678
X58102Y100873
X58117Y117221
X58102Y100266
X58102Y117856
X51054Y114363
X54610Y92265
X53975Y92265
X57184Y116649
X57516Y116317
X58129Y98441
X57150Y95313
X58039Y87439
X58102Y96266
X56388Y94107
X58129Y91376
X58102Y96837
X58102Y97409
X52362Y94996
X56388Y121412
X55205Y87463
X52870Y94996
X55947Y121094
X55618Y88019
X53378Y94996
X55378Y120904
X54165Y88582
X51346Y94996
X56324Y86932
X55308Y86614
X50673Y95504
X55245Y85471
X50838Y94996
X57785Y102298
X58102Y101473
X49630Y98490
X54737Y94994
X54175Y94996
X54673Y104140
X51435Y103126
X52781Y103126
X55099Y103189
X50201Y103414
X49670Y97980
X49622Y98996
X49911Y102064
X49619Y101648
X49657Y112014
X50292Y120534
X58091Y118491
X53213Y84455
X50609Y113601
X51054Y117348
X58102Y99695
X49657Y111001
X50990Y118237
X54610Y111506
X54610Y106616
X54546Y89090
X51995Y92138
X51854Y94996
X55372Y120399
X51495Y118465
X55696Y120009
X54673Y83757
X56074Y119615
X54102Y83757
X52152Y118916
X51308Y88646
X50341Y86219
X51498Y119443
X53340Y83757
X50927Y119570
X53213Y85789
X50927Y120142
X52768Y85154
X56769Y91376
X55118Y91376
X57404Y83820
X57404Y85090
X50863Y83757
X50863Y121475
X57344Y121412
X57975Y120969
X57404Y87439
X56896Y87439
X50355Y121475
X50260Y83757
X58547Y120523
X59055Y120523
X71628Y103632
X71628Y108077
X71628Y106807
X71628Y105537
X71628Y104267
X73343Y104902
X73343Y103632
X73343Y107442
X73343Y108712
X69469Y101473
X69469Y99060
X67882Y99060
X67882Y101473
X67818Y96647
X69469Y96647
X70993Y96647
X72644Y96647
X73343Y106172
X73343Y109982
X71628Y109347
X71628Y110617
X71628Y111887
X69406Y104013
X69406Y104902
X69406Y106807
X69406Y108077
X69406Y109347
X67564Y109283
X67564Y107823
X67564Y106426
X67564Y105029
X67564Y103632
X67818Y111760
X68580Y111760
X67755Y92583
X71311Y93535
X66485Y90170
X66485Y88963
X71628Y113411
X72771Y115951
X67691Y117792
X70866Y113982
X70549Y90297
X70549Y89662
X71501Y114681
X74359Y119062
X67120Y120713
X68390Y119443
X70358Y119570
X69152Y117284
X71501Y116459
X73343Y112395
X73343Y115316
X66485Y113982
X73025Y83947
X74867Y83820
X69914Y88138
X73343Y120777
X73724Y94297
X65913Y111506
X65913Y120523
X72644Y99060
X70358Y84392
X66866Y85408
X72454Y88011
X72327Y101473
X72390Y118935
X70955Y109055
X66358Y86678
X74359Y100873
X74373Y117221
X74359Y100266
X74359Y117856
X67310Y114363
X70866Y92265
X70231Y92265
X73440Y116649
X73772Y116317
X74386Y98441
X73406Y95313
X74295Y87439
X74359Y96266
X72644Y94107
X74386Y91376
X74359Y96837
X74359Y97409
X68618Y94996
X72644Y121412
X71461Y87463
X69126Y94996
X72203Y121094
X71874Y88019
X69634Y94996
X71634Y120904
X70422Y88582
X67602Y94996
X72581Y86932
X71565Y86614
X66929Y95504
X71501Y85471
X67094Y94996
X74041Y102298
X74359Y101473
X65887Y98490
X70993Y94994
X70431Y94996
X70930Y104140
X67691Y103126
X69037Y103126
X71355Y103189
X66457Y103414
X65926Y97980
X65878Y98996
X66167Y102064
X65875Y101648
X65913Y112014
X66548Y120534
X74347Y118491
X69469Y84455
X66866Y113601
X67310Y117348
X74359Y99695
X65913Y111001
X67247Y118237
X70866Y111506
X70866Y106616
X70803Y89090
X68251Y92138
X68110Y94996
X71628Y120399
X67751Y118465
X71952Y120009
X70930Y83757
X72330Y119615
X70358Y83757
X68409Y118916
X67564Y88646
X66597Y86219
X67755Y119443
X69596Y83757
X67183Y119570
X69469Y85789
X67183Y120142
X69025Y85154
X73025Y91376
X71374Y91376
X73660Y83820
X73660Y85090
X67120Y83757
X67120Y121475
X73600Y121412
X74232Y120969
X73660Y87439
X73152Y87439
X66612Y121475
X66516Y83757
X74803Y120523
X75311Y120523
X87884Y103632
X87884Y108077
X87884Y106807
X87884Y105537
X87884Y104267
X89598Y104902
X89598Y103632
X89598Y107442
X89598Y108712
X85725Y101473
X85725Y99060
X84138Y99060
X84138Y101473
X84074Y96647
X85725Y96647
X87249Y96647
X88900Y96647
X89598Y106172
X89598Y109982
X87884Y109347
X87884Y110617
X87884Y111887
X85662Y104013
X85662Y104902
X85662Y106807
X85662Y108077
X85662Y109347
X83820Y109283
X83820Y107823
X83820Y106426
X83820Y105029
X83820Y103632
X84074Y111760
X84836Y111760
X84011Y92583
X87566Y93535
X82741Y90170
X82741Y88963
X87884Y113411
X89027Y115951
X83947Y117792
X87122Y113982
X86805Y90297
X86805Y89662
X87757Y114681
X90614Y119062
X83376Y120713
X84646Y119443
X86614Y119570
X85408Y117284
X87757Y116459
X89598Y112395
X89598Y115316
X82741Y113982
X89281Y83947
X91122Y83820
X86170Y88138
X89598Y120777
X89979Y94297
X82169Y111506
X82169Y120523
X88900Y99060
X86614Y84392
X83122Y85408
X88709Y88011
X88582Y101473
X88646Y118935
X87211Y109055
X82614Y86678
X90614Y100873
X90629Y117221
X90614Y100266
X90614Y117856
X83566Y114363
X87122Y92265
X86487Y92265
X89696Y116649
X90028Y116317
X90641Y98441
X89662Y95313
X90551Y87439
X90614Y96266
X88900Y94107
X90641Y91376
X90614Y96837
X90614Y97409
X84874Y94996
X88900Y121412
X87717Y87463
X85382Y94996
X88459Y121094
X88130Y88019
X85890Y94996
X87890Y120904
X86678Y88582
X83858Y94996
X88836Y86932
X87820Y86614
X83185Y95504
X87757Y85471
X83350Y94996
X90297Y102298
X90614Y101473
X82143Y98490
X87249Y94994
X86687Y94996
X87186Y104140
X83947Y103126
X85293Y103126
X87611Y103189
X82713Y103414
X82182Y97980
X82134Y98996
X82423Y102064
X82131Y101648
X82169Y112014
X82804Y120534
X90603Y118491
X85725Y84455
X83122Y113601
X83566Y117348
X90614Y99695
X82169Y111001
X83503Y118237
X87122Y111506
X87122Y106616
X87059Y89090
X84507Y92138
X84366Y94996
X87884Y120399
X84007Y118465
X88208Y120009
X87186Y83757
X88586Y119615
X86614Y83757
X84665Y118916
X83820Y88646
X82853Y86219
X84011Y119443
X85852Y83757
X83439Y119570
X85725Y85789
X83439Y120142
X85281Y85154
X89281Y91376
X87630Y91376
X89916Y83820
X89916Y85090
X83376Y83757
X83376Y121475
X89856Y121412
X90487Y120969
X89916Y87439
X89408Y87439
X82868Y121475
X82772Y83757
X91059Y120523
X91567Y120523
X104140Y103632
X104140Y108077
X104140Y106807
X104140Y105537
X104140Y104267
X105854Y104902
X105854Y103632
X105854Y107442
X105854Y108712
X101981Y101473
X101981Y99060
X100393Y99060
X100393Y101473
X100330Y96647
X101981Y96647
X103505Y96647
X105156Y96647
X105854Y106172
X105854Y109982
X104140Y109347
X104140Y110617
X104140Y111887
X101917Y104013
X101917Y104902
X101917Y106807
X101917Y108077
X101917Y109347
X100076Y109283
X100076Y107823
X100076Y106426
X100076Y105029
X100076Y103632
X100330Y111760
X101092Y111760
X100266Y92583
X103822Y93535
X98996Y90170
X98996Y88963
X104140Y113411
X105283Y115951
X100203Y117792
X103378Y113982
X103060Y90297
X103060Y89662
X104013Y114681
X106870Y119062
X99631Y120713
X100901Y119443
X102870Y119570
X101663Y117284
X104013Y116459
X105854Y112395
X105854Y115316
X98996Y113982
X105537Y83947
X107378Y83820
X102425Y88138
X105854Y120777
X106235Y94297
X98425Y111506
X98425Y120523
X105156Y99060
X102870Y84392
X99377Y85408
X104965Y88011
X104838Y101473
X104902Y118935
X103467Y109055
X98869Y86678
X106870Y100873
X106885Y117221
X106870Y100266
X106870Y117856
X99822Y114363
X103378Y92265
X102743Y92265
X105952Y116649
X106284Y116317
X106897Y98441
X105918Y95313
X106807Y87439
X106870Y96266
X105156Y94107
X106897Y91376
X106870Y96837
X106870Y97409
X101130Y94996
X105156Y121412
X103973Y87463
X101638Y94996
X104715Y121094
X104386Y88019
X102146Y94996
X104146Y120904
X102933Y88582
X100114Y94996
X105092Y86932
X104076Y86614
X99441Y95504
X104013Y85471
X99606Y94996
X106553Y102298
X106870Y101473
X98398Y98490
X103505Y94994
X102943Y94996
X103441Y104140
X100203Y103126
X101549Y103126
X103867Y103189
X98969Y103414
X98438Y97980
X98390Y98996
X98679Y102064
X98387Y101648
X98425Y112014
X99060Y120534
X106859Y118491
X101981Y84455
X99377Y113601
X99822Y117348
X106870Y99695
X98425Y111001
X99758Y118237
X103378Y111506
X103378Y106616
X103314Y89090
X100763Y92138
X100622Y94996
X104140Y120399
X100263Y118465
X104464Y120009
X103441Y83757
X104842Y119615
X102870Y83757
X100920Y118916
X100076Y88646
X99109Y86219
X100266Y119443
X102108Y83757
X99695Y119570
X101981Y85789
X99695Y120142
X101536Y85154
X105537Y91376
X103886Y91376
X106172Y83820
X106172Y85090
X99631Y83757
X99631Y121475
X106112Y121412
X106743Y120969
X106172Y87439
X105664Y87439
X99123Y121475
X99028Y83757
X107315Y120523
X107823Y120523
X120396Y103632
X120396Y108077
X120396Y106807
X120396Y105537
X120396Y104267
X122110Y104902
X122110Y103632
X122110Y107442
X122110Y108712
X118237Y101473
X118237Y99060
X116649Y99060
X116649Y101473
X116586Y96647
X118237Y96647
X119761Y96647
X121412Y96647
X122110Y106172
X122110Y109982
X120396Y109347
X120396Y110617
X120396Y111887
X118173Y104013
X118173Y104902
X118173Y106807
X118173Y108077
X118173Y109347
X116332Y109283
X116332Y107823
X116332Y106426
X116332Y105029
X116332Y103632
X116586Y111760
X117348Y111760
X116522Y92583
X120078Y93535
X115252Y90170
X115252Y88963
X120396Y113411
X121539Y115951
X116459Y117792
X119634Y113982
X119316Y90297
X119316Y89662
X120269Y114681
X123126Y119062
X115887Y120713
X117157Y119443
X119126Y119570
X117919Y117284
X120269Y116459
X122110Y112395
X122110Y115316
X115252Y113982
X121793Y83947
X123634Y83820
X118681Y88138
X122110Y120777
X122491Y94297
X114681Y111506
X114681Y120523
X121412Y99060
X119126Y84392
X115633Y85408
X121221Y88011
X121094Y101473
X121158Y118935
X119723Y109055
X115125Y86678
X123126Y100873
X123141Y117221
X123126Y100266
X123126Y117856
X116078Y114363
X119634Y92265
X118999Y92265
X122208Y116649
X122540Y116317
X123153Y98441
X122174Y95313
X123063Y87439
X123126Y96266
X121412Y94107
X123153Y91376
X123126Y96837
X123126Y97409
X117386Y94996
X121412Y121412
X120229Y87463
X117894Y94996
X120971Y121094
X120642Y88019
X118402Y94996
X120402Y120904
X119189Y88582
X116370Y94996
X121348Y86932
X120332Y86614
X115697Y95504
X120269Y85471
X115862Y94996
X122809Y102298
X123126Y101473
X114654Y98490
X119761Y94994
X119199Y94996
X119697Y104140
X116459Y103126
X117805Y103126
X120123Y103189
X115225Y103414
X114694Y97980
X114646Y98996
X114935Y102064
X114643Y101648
X114681Y112014
X115316Y120534
X123115Y118491
X118237Y84455
X115633Y113601
X116078Y117348
X123126Y99695
X114681Y111001
X116014Y118237
X119634Y111506
X119634Y106616
X119570Y89090
X117019Y92138
X116878Y94996
X120396Y120399
X116519Y118465
X120720Y120009
X119697Y83757
X121098Y119615
X119126Y83757
X117176Y118916
X116332Y88646
X115365Y86219
X116522Y119443
X118364Y83757
X115951Y119570
X118237Y85789
X115951Y120142
X117792Y85154
X121793Y91376
X120142Y91376
X122428Y83820
X122428Y85090
X115887Y83757
X115887Y121475
X122368Y121412
X122999Y120969
X122428Y87439
X121920Y87439
X115379Y121475
X115284Y83757
X123571Y120523
X124079Y120523
X136652Y103632
X136652Y108077
X136652Y106807
X136652Y105537
X136652Y104267
X138367Y104902
X138367Y103632
X138367Y107442
X138367Y108712
X134493Y101473
X134493Y99060
X132906Y99060
X132906Y101473
X132842Y96647
X134493Y96647
X136017Y96647
X137668Y96647
X138367Y106172
X138367Y109982
X136652Y109347
X136652Y110617
X136652Y111887
X134430Y104013
X134430Y104902
X134430Y106807
X134430Y108077
X134430Y109347
X132588Y109283
X132588Y107823
X132588Y106426
X132588Y105029
X132588Y103632
X132842Y111760
X133604Y111760
X132779Y92583
X136335Y93535
X131509Y90170
X131509Y88963
X136652Y113411
X137795Y115951
X132715Y117792
X135890Y113982
X135573Y90297
X135573Y89662
X136525Y114681
X139383Y119062
X132144Y120713
X133414Y119443
X135382Y119570
X134176Y117284
X136525Y116459
X138367Y112395
X138367Y115316
X131509Y113982
X138049Y83947
X139891Y83820
X134938Y88138
X138367Y120777
X138748Y94297
X130937Y111506
X130937Y120523
X137668Y99060
X135382Y84392
X131890Y85408
X137478Y88011
X137351Y101473
X137414Y118935
X135979Y109055
X131382Y86678
X139383Y100873
X139397Y117221
X139383Y100266
X139383Y117856
X132334Y114363
X135890Y92265
X135255Y92265
X138464Y116649
X138796Y116317
X139410Y98441
X138430Y95313
X139319Y87439
X139383Y96266
X137668Y94107
X139410Y91376
X139383Y96837
X139383Y97409
X133642Y94996
X137668Y121412
X136485Y87463
X134150Y94996
X137227Y121094
X136898Y88019
X134658Y94996
X136658Y120904
X135446Y88582
X132626Y94996
X137605Y86932
X136589Y86614
X131953Y95504
X136525Y85471
X132118Y94996
X139065Y102298
X139383Y101473
X130910Y98490
X136017Y94994
X135455Y94996
X135954Y104140
X132715Y103126
X134061Y103126
X136379Y103189
X131481Y103414
X130950Y97980
X130902Y98996
X131191Y102064
X130899Y101648
X130937Y112014
X131572Y120534
X139371Y118491
X134493Y84455
X131890Y113601
X132334Y117348
X139383Y99695
X130937Y111001
X132271Y118237
X135890Y111506
X135890Y106616
X135827Y89090
X133275Y92138
X133134Y94996
X136652Y120399
X132775Y118465
X136976Y120009
X135954Y83757
X137354Y119615
X135382Y83757
X133433Y118916
X132588Y88646
X131621Y86219
X132779Y119443
X134620Y83757
X132207Y119570
X134493Y85789
X132207Y120142
X134049Y85154
X138049Y91376
X136398Y91376
X138684Y83820
X138684Y85090
X132144Y83757
X132144Y121475
X138624Y121412
X139256Y120969
X138684Y87439
X138176Y87439
X131636Y121475
X131540Y83757
X139827Y120523
X140335Y120523
X152908Y103632
X152908Y108077
X152908Y106807
X152908Y105537
X152908Y104267
X154623Y104902
X154623Y103632
X154623Y107442
X154623Y108712
X150749Y101473
X150749Y99060
X149162Y99060
X149162Y101473
X149098Y96647
X150749Y96647
X152273Y96647
X153924Y96647
X154623Y106172
X154623Y109982
X152908Y109347
X152908Y110617
X152908Y111887
X150686Y104013
X150686Y104902
X150686Y106807
X150686Y108077
X150686Y109347
X148844Y109283
X148844Y107823
X148844Y106426
X148844Y105029
X148844Y103632
X149098Y111760
X149860Y111760
X149035Y92583
X152591Y93535
X147765Y90170
X147765Y88963
X152908Y113411
X154051Y115951
X148971Y117792
X152146Y113982
X151829Y90297
X151829Y89662
X152781Y114681
X155639Y119062
X148400Y120713
X149670Y119443
X151638Y119570
X150432Y117284
X152781Y116459
X154623Y112395
X154623Y115316
X147765Y113982
X154305Y83947
X156147Y83820
X151194Y88138
X154623Y120777
X155004Y94297
X147193Y111506
X147193Y120523
X153924Y99060
X151638Y84392
X148146Y85408
X153734Y88011
X153607Y101473
X153670Y118935
X152235Y109055
X147638Y86678
X155639Y100873
X155653Y117221
X155639Y100266
X155639Y117856
X148590Y114363
X152146Y92265
X151511Y92265
X154720Y116649
X155052Y116317
X155666Y98441
X154686Y95313
X155575Y87439
X155639Y96266
X153924Y94107
X155666Y91376
X155639Y96837
X155639Y97409
X149898Y94996
X153924Y121412
X152741Y87463
X150406Y94996
X153483Y121094
X153154Y88019
X150914Y94996
X152914Y120904
X151702Y88582
X148882Y94996
X153861Y86932
X152845Y86614
X148209Y95504
X152781Y85471
X148374Y94996
X155321Y102298
X155639Y101473
X147167Y98490
X152273Y94994
X151711Y94996
X152210Y104140
X148971Y103126
X150317Y103126
X152635Y103189
X147737Y103414
X147206Y97980
X147158Y98996
X147447Y102064
X147155Y101648
X147193Y112014
X147828Y120534
X155627Y118491
X150749Y84455
X148146Y113601
X148590Y117348
X155639Y99695
X147193Y111001
X148527Y118237
X152146Y111506
X152146Y106616
X152083Y89090
X149531Y92138
X149390Y94996
X152908Y120399
X149031Y118465
X153232Y120009
X152210Y83757
X153610Y119615
X151638Y83757
X149689Y118916
X148844Y88646
X147877Y86219
X149035Y119443
X150876Y83757
X148463Y119570
X150749Y85789
X148463Y120142
X150305Y85154
X154305Y91376
X152654Y91376
X154940Y83820
X154940Y85090
X148400Y83757
X148400Y121475
X154880Y121412
X155512Y120969
X154940Y87439
X154432Y87439
X147892Y121475
X147796Y83757
X156083Y120523
X156591Y120523
M30