G04 EAGLE Gerber RS-274X export*
G75*
%MOMM*%
%FSLAX34Y34*%
%LPD*%
%INSoldermask Bottom*%
%IPPOS*%
%AMOC8*
5,1,8,0,0,1.08239X$1,22.5*%
G01*
%ADD10C,0.762000*%
%ADD11R,0.727000X0.727000*%
%ADD12R,0.527000X0.877000*%
%ADD13R,0.627000X0.677000*%
%ADD14R,0.787400X0.482600*%
%ADD15R,0.677000X1.327000*%
%ADD16R,0.727000X0.377000*%
%ADD17R,0.427000X0.927000*%
%ADD18R,0.527000X0.927000*%
%ADD19C,0.889000*%
%ADD20R,1.227000X0.527000*%
%ADD21C,1.127000*%
%ADD22C,1.270000*%
%ADD23C,1.627000*%


D10*
X100330Y400050D03*
X6350Y5080D03*
D11*
X8970Y98425D03*
X18970Y98425D03*
D12*
X20470Y73030D03*
X13970Y73030D03*
X7470Y73030D03*
X7470Y89530D03*
X20470Y89530D03*
D11*
X18335Y60325D03*
X8335Y60325D03*
X18970Y21590D03*
X8970Y21590D03*
X80565Y200025D03*
X70565Y200025D03*
X90805Y206455D03*
X90805Y216455D03*
X73660Y210265D03*
X73660Y220265D03*
X86360Y184705D03*
X86360Y174705D03*
X67310Y184705D03*
X67310Y174705D03*
X76835Y184705D03*
X76835Y174705D03*
X36115Y119380D03*
X26115Y119380D03*
X26115Y109855D03*
X36115Y109855D03*
X17780Y221060D03*
X17780Y231060D03*
X30560Y200025D03*
X40560Y200025D03*
X19605Y204470D03*
X9605Y204470D03*
X8382Y150415D03*
X8382Y140415D03*
X41910Y160575D03*
X41910Y150575D03*
X22860Y160575D03*
X22860Y150575D03*
X32385Y160575D03*
X32385Y150575D03*
D13*
X32400Y184455D03*
X32400Y174955D03*
X18400Y174955D03*
X18400Y184455D03*
D11*
X52070Y184705D03*
X52070Y174705D03*
X42545Y184705D03*
X42545Y174705D03*
X8255Y176229D03*
X8255Y186229D03*
X18970Y340995D03*
X8970Y340995D03*
X8970Y331470D03*
X18970Y331470D03*
X17145Y278210D03*
X17145Y288210D03*
X26670Y278210D03*
X26670Y288210D03*
D14*
X16510Y305943D03*
X16510Y297307D03*
D11*
X34925Y302340D03*
X34925Y312340D03*
X44450Y302340D03*
X44450Y312340D03*
X29290Y321945D03*
X39290Y321945D03*
X29290Y331470D03*
X39290Y331470D03*
X29290Y340995D03*
X39290Y340995D03*
X25400Y302340D03*
X25400Y312340D03*
X62230Y160575D03*
X62230Y150575D03*
X81280Y160575D03*
X81280Y150575D03*
X71755Y160575D03*
X71755Y150575D03*
X87710Y21590D03*
X97710Y21590D03*
D15*
X81305Y313991D03*
X90805Y313991D03*
X100305Y313991D03*
X100305Y287989D03*
X81305Y287989D03*
D11*
X18335Y50800D03*
X8335Y50800D03*
X30480Y72470D03*
X30480Y82470D03*
X100330Y328375D03*
X100330Y338375D03*
D16*
X93260Y133230D03*
X93260Y128230D03*
X93260Y123230D03*
X93260Y118230D03*
X66760Y118230D03*
X66760Y123230D03*
X66760Y128230D03*
X66760Y133230D03*
D11*
X88820Y97790D03*
X78820Y97790D03*
X88820Y107315D03*
X78820Y107315D03*
D17*
X90840Y398945D03*
X85840Y398945D03*
D18*
X100840Y373945D03*
X5840Y373945D03*
D17*
X80840Y398945D03*
X75840Y398945D03*
X70840Y398945D03*
X65840Y398945D03*
X60840Y398945D03*
X55840Y398945D03*
X50840Y398945D03*
X45840Y398945D03*
X40840Y398945D03*
X35840Y398945D03*
X30840Y398945D03*
X25840Y398945D03*
X20840Y398945D03*
X15840Y398945D03*
D19*
X100330Y177800D03*
X100330Y101600D03*
X100330Y76200D03*
X100330Y50800D03*
X100330Y254000D03*
X6350Y279400D03*
X6350Y355600D03*
X100330Y203200D03*
D20*
X75840Y41500D03*
X75840Y35000D03*
X75840Y28500D03*
X75840Y22000D03*
X30840Y22000D03*
X30840Y28500D03*
X30840Y35000D03*
X30840Y41500D03*
D11*
X31195Y55245D03*
X41195Y55245D03*
D19*
X6350Y38100D03*
D10*
X262890Y400050D03*
X168910Y5080D03*
D11*
X171530Y98425D03*
X181530Y98425D03*
D12*
X183030Y73030D03*
X176530Y73030D03*
X170030Y73030D03*
X170030Y89530D03*
X183030Y89530D03*
D11*
X180895Y60325D03*
X170895Y60325D03*
X181530Y21590D03*
X171530Y21590D03*
X243125Y200025D03*
X233125Y200025D03*
X253365Y206455D03*
X253365Y216455D03*
X236220Y210265D03*
X236220Y220265D03*
X248920Y184705D03*
X248920Y174705D03*
X229870Y184705D03*
X229870Y174705D03*
X239395Y184705D03*
X239395Y174705D03*
X198675Y119380D03*
X188675Y119380D03*
X188675Y109855D03*
X198675Y109855D03*
X180340Y221060D03*
X180340Y231060D03*
X193120Y200025D03*
X203120Y200025D03*
X182165Y204470D03*
X172165Y204470D03*
X170942Y150415D03*
X170942Y140415D03*
X204470Y160575D03*
X204470Y150575D03*
X185420Y160575D03*
X185420Y150575D03*
X194945Y160575D03*
X194945Y150575D03*
D13*
X194960Y184455D03*
X194960Y174955D03*
X180960Y174955D03*
X180960Y184455D03*
D11*
X214630Y184705D03*
X214630Y174705D03*
X205105Y184705D03*
X205105Y174705D03*
X170815Y176229D03*
X170815Y186229D03*
X181530Y340995D03*
X171530Y340995D03*
X171530Y331470D03*
X181530Y331470D03*
X179705Y278210D03*
X179705Y288210D03*
X189230Y278210D03*
X189230Y288210D03*
D14*
X179070Y305943D03*
X179070Y297307D03*
D11*
X197485Y302340D03*
X197485Y312340D03*
X207010Y302340D03*
X207010Y312340D03*
X191850Y321945D03*
X201850Y321945D03*
X191850Y331470D03*
X201850Y331470D03*
X191850Y340995D03*
X201850Y340995D03*
X187960Y302340D03*
X187960Y312340D03*
X224790Y160575D03*
X224790Y150575D03*
X243840Y160575D03*
X243840Y150575D03*
X234315Y160575D03*
X234315Y150575D03*
X250270Y21590D03*
X260270Y21590D03*
D15*
X243865Y313991D03*
X253365Y313991D03*
X262865Y313991D03*
X262865Y287989D03*
X243865Y287989D03*
D11*
X180895Y50800D03*
X170895Y50800D03*
X193040Y72470D03*
X193040Y82470D03*
X262890Y328375D03*
X262890Y338375D03*
D16*
X255820Y133230D03*
X255820Y128230D03*
X255820Y123230D03*
X255820Y118230D03*
X229320Y118230D03*
X229320Y123230D03*
X229320Y128230D03*
X229320Y133230D03*
D11*
X251380Y97790D03*
X241380Y97790D03*
X251380Y107315D03*
X241380Y107315D03*
D17*
X253400Y398945D03*
X248400Y398945D03*
D18*
X263400Y373945D03*
X168400Y373945D03*
D17*
X243400Y398945D03*
X238400Y398945D03*
X233400Y398945D03*
X228400Y398945D03*
X223400Y398945D03*
X218400Y398945D03*
X213400Y398945D03*
X208400Y398945D03*
X203400Y398945D03*
X198400Y398945D03*
X193400Y398945D03*
X188400Y398945D03*
X183400Y398945D03*
X178400Y398945D03*
D19*
X262890Y177800D03*
X262890Y101600D03*
X262890Y76200D03*
X262890Y50800D03*
X262890Y254000D03*
X168910Y279400D03*
X168910Y355600D03*
X262890Y203200D03*
D20*
X238400Y41500D03*
X238400Y35000D03*
X238400Y28500D03*
X238400Y22000D03*
X193400Y22000D03*
X193400Y28500D03*
X193400Y35000D03*
X193400Y41500D03*
D11*
X193755Y55245D03*
X203755Y55245D03*
D19*
X168910Y38100D03*
D10*
X425450Y400050D03*
X331470Y5080D03*
D11*
X334090Y98425D03*
X344090Y98425D03*
D12*
X345590Y73030D03*
X339090Y73030D03*
X332590Y73030D03*
X332590Y89530D03*
X345590Y89530D03*
D11*
X343455Y60325D03*
X333455Y60325D03*
X344090Y21590D03*
X334090Y21590D03*
X405685Y200025D03*
X395685Y200025D03*
X415925Y206455D03*
X415925Y216455D03*
X398780Y210265D03*
X398780Y220265D03*
X411480Y184705D03*
X411480Y174705D03*
X392430Y184705D03*
X392430Y174705D03*
X401955Y184705D03*
X401955Y174705D03*
X361235Y119380D03*
X351235Y119380D03*
X351235Y109855D03*
X361235Y109855D03*
X342900Y221060D03*
X342900Y231060D03*
X355680Y200025D03*
X365680Y200025D03*
X344725Y204470D03*
X334725Y204470D03*
X333502Y150415D03*
X333502Y140415D03*
X367030Y160575D03*
X367030Y150575D03*
X347980Y160575D03*
X347980Y150575D03*
X357505Y160575D03*
X357505Y150575D03*
D13*
X357520Y184455D03*
X357520Y174955D03*
X343520Y174955D03*
X343520Y184455D03*
D11*
X377190Y184705D03*
X377190Y174705D03*
X367665Y184705D03*
X367665Y174705D03*
X333375Y176229D03*
X333375Y186229D03*
X344090Y340995D03*
X334090Y340995D03*
X334090Y331470D03*
X344090Y331470D03*
X342265Y278210D03*
X342265Y288210D03*
X351790Y278210D03*
X351790Y288210D03*
D14*
X341630Y305943D03*
X341630Y297307D03*
D11*
X360045Y302340D03*
X360045Y312340D03*
X369570Y302340D03*
X369570Y312340D03*
X354410Y321945D03*
X364410Y321945D03*
X354410Y331470D03*
X364410Y331470D03*
X354410Y340995D03*
X364410Y340995D03*
X350520Y302340D03*
X350520Y312340D03*
X387350Y160575D03*
X387350Y150575D03*
X406400Y160575D03*
X406400Y150575D03*
X396875Y160575D03*
X396875Y150575D03*
X412830Y21590D03*
X422830Y21590D03*
D15*
X406425Y313991D03*
X415925Y313991D03*
X425425Y313991D03*
X425425Y287989D03*
X406425Y287989D03*
D11*
X343455Y50800D03*
X333455Y50800D03*
X355600Y72470D03*
X355600Y82470D03*
X425450Y328375D03*
X425450Y338375D03*
D16*
X418380Y133230D03*
X418380Y128230D03*
X418380Y123230D03*
X418380Y118230D03*
X391880Y118230D03*
X391880Y123230D03*
X391880Y128230D03*
X391880Y133230D03*
D11*
X413940Y97790D03*
X403940Y97790D03*
X413940Y107315D03*
X403940Y107315D03*
D17*
X415960Y398945D03*
X410960Y398945D03*
D18*
X425960Y373945D03*
X330960Y373945D03*
D17*
X405960Y398945D03*
X400960Y398945D03*
X395960Y398945D03*
X390960Y398945D03*
X385960Y398945D03*
X380960Y398945D03*
X375960Y398945D03*
X370960Y398945D03*
X365960Y398945D03*
X360960Y398945D03*
X355960Y398945D03*
X350960Y398945D03*
X345960Y398945D03*
X340960Y398945D03*
D19*
X425450Y177800D03*
X425450Y101600D03*
X425450Y76200D03*
X425450Y50800D03*
X425450Y254000D03*
X331470Y279400D03*
X331470Y355600D03*
X425450Y203200D03*
D20*
X400960Y41500D03*
X400960Y35000D03*
X400960Y28500D03*
X400960Y22000D03*
X355960Y22000D03*
X355960Y28500D03*
X355960Y35000D03*
X355960Y41500D03*
D11*
X356315Y55245D03*
X366315Y55245D03*
D19*
X331470Y38100D03*
D10*
X588010Y400050D03*
X494030Y5080D03*
D11*
X496650Y98425D03*
X506650Y98425D03*
D12*
X508150Y73030D03*
X501650Y73030D03*
X495150Y73030D03*
X495150Y89530D03*
X508150Y89530D03*
D11*
X506015Y60325D03*
X496015Y60325D03*
X506650Y21590D03*
X496650Y21590D03*
X568245Y200025D03*
X558245Y200025D03*
X578485Y206455D03*
X578485Y216455D03*
X561340Y210265D03*
X561340Y220265D03*
X574040Y184705D03*
X574040Y174705D03*
X554990Y184705D03*
X554990Y174705D03*
X564515Y184705D03*
X564515Y174705D03*
X523795Y119380D03*
X513795Y119380D03*
X513795Y109855D03*
X523795Y109855D03*
X505460Y221060D03*
X505460Y231060D03*
X518240Y200025D03*
X528240Y200025D03*
X507285Y204470D03*
X497285Y204470D03*
X496062Y150415D03*
X496062Y140415D03*
X529590Y160575D03*
X529590Y150575D03*
X510540Y160575D03*
X510540Y150575D03*
X520065Y160575D03*
X520065Y150575D03*
D13*
X520080Y184455D03*
X520080Y174955D03*
X506080Y174955D03*
X506080Y184455D03*
D11*
X539750Y184705D03*
X539750Y174705D03*
X530225Y184705D03*
X530225Y174705D03*
X495935Y176229D03*
X495935Y186229D03*
X506650Y340995D03*
X496650Y340995D03*
X496650Y331470D03*
X506650Y331470D03*
X504825Y278210D03*
X504825Y288210D03*
X514350Y278210D03*
X514350Y288210D03*
D14*
X504190Y305943D03*
X504190Y297307D03*
D11*
X522605Y302340D03*
X522605Y312340D03*
X532130Y302340D03*
X532130Y312340D03*
X516970Y321945D03*
X526970Y321945D03*
X516970Y331470D03*
X526970Y331470D03*
X516970Y340995D03*
X526970Y340995D03*
X513080Y302340D03*
X513080Y312340D03*
X549910Y160575D03*
X549910Y150575D03*
X568960Y160575D03*
X568960Y150575D03*
X559435Y160575D03*
X559435Y150575D03*
X575390Y21590D03*
X585390Y21590D03*
D15*
X568985Y313991D03*
X578485Y313991D03*
X587985Y313991D03*
X587985Y287989D03*
X568985Y287989D03*
D11*
X506015Y50800D03*
X496015Y50800D03*
X518160Y72470D03*
X518160Y82470D03*
X588010Y328375D03*
X588010Y338375D03*
D16*
X580940Y133230D03*
X580940Y128230D03*
X580940Y123230D03*
X580940Y118230D03*
X554440Y118230D03*
X554440Y123230D03*
X554440Y128230D03*
X554440Y133230D03*
D11*
X576500Y97790D03*
X566500Y97790D03*
X576500Y107315D03*
X566500Y107315D03*
D17*
X578520Y398945D03*
X573520Y398945D03*
D18*
X588520Y373945D03*
X493520Y373945D03*
D17*
X568520Y398945D03*
X563520Y398945D03*
X558520Y398945D03*
X553520Y398945D03*
X548520Y398945D03*
X543520Y398945D03*
X538520Y398945D03*
X533520Y398945D03*
X528520Y398945D03*
X523520Y398945D03*
X518520Y398945D03*
X513520Y398945D03*
X508520Y398945D03*
X503520Y398945D03*
D19*
X588010Y177800D03*
X588010Y101600D03*
X588010Y76200D03*
X588010Y50800D03*
X588010Y254000D03*
X494030Y279400D03*
X494030Y355600D03*
X588010Y203200D03*
D20*
X563520Y41500D03*
X563520Y35000D03*
X563520Y28500D03*
X563520Y22000D03*
X518520Y22000D03*
X518520Y28500D03*
X518520Y35000D03*
X518520Y41500D03*
D11*
X518875Y55245D03*
X528875Y55245D03*
D19*
X494030Y38100D03*
D10*
X750570Y400050D03*
X656590Y5080D03*
D11*
X659210Y98425D03*
X669210Y98425D03*
D12*
X670710Y73030D03*
X664210Y73030D03*
X657710Y73030D03*
X657710Y89530D03*
X670710Y89530D03*
D11*
X668575Y60325D03*
X658575Y60325D03*
X669210Y21590D03*
X659210Y21590D03*
X730805Y200025D03*
X720805Y200025D03*
X741045Y206455D03*
X741045Y216455D03*
X723900Y210265D03*
X723900Y220265D03*
X736600Y184705D03*
X736600Y174705D03*
X717550Y184705D03*
X717550Y174705D03*
X727075Y184705D03*
X727075Y174705D03*
X686355Y119380D03*
X676355Y119380D03*
X676355Y109855D03*
X686355Y109855D03*
X668020Y221060D03*
X668020Y231060D03*
X680800Y200025D03*
X690800Y200025D03*
X669845Y204470D03*
X659845Y204470D03*
X658622Y150415D03*
X658622Y140415D03*
X692150Y160575D03*
X692150Y150575D03*
X673100Y160575D03*
X673100Y150575D03*
X682625Y160575D03*
X682625Y150575D03*
D13*
X682640Y184455D03*
X682640Y174955D03*
X668640Y174955D03*
X668640Y184455D03*
D11*
X702310Y184705D03*
X702310Y174705D03*
X692785Y184705D03*
X692785Y174705D03*
X658495Y176229D03*
X658495Y186229D03*
X669210Y340995D03*
X659210Y340995D03*
X659210Y331470D03*
X669210Y331470D03*
X667385Y278210D03*
X667385Y288210D03*
X676910Y278210D03*
X676910Y288210D03*
D14*
X666750Y305943D03*
X666750Y297307D03*
D11*
X685165Y302340D03*
X685165Y312340D03*
X694690Y302340D03*
X694690Y312340D03*
X679530Y321945D03*
X689530Y321945D03*
X679530Y331470D03*
X689530Y331470D03*
X679530Y340995D03*
X689530Y340995D03*
X675640Y302340D03*
X675640Y312340D03*
X712470Y160575D03*
X712470Y150575D03*
X731520Y160575D03*
X731520Y150575D03*
X721995Y160575D03*
X721995Y150575D03*
X737950Y21590D03*
X747950Y21590D03*
D15*
X731545Y313991D03*
X741045Y313991D03*
X750545Y313991D03*
X750545Y287989D03*
X731545Y287989D03*
D11*
X668575Y50800D03*
X658575Y50800D03*
X680720Y72470D03*
X680720Y82470D03*
X750570Y328375D03*
X750570Y338375D03*
D16*
X743500Y133230D03*
X743500Y128230D03*
X743500Y123230D03*
X743500Y118230D03*
X717000Y118230D03*
X717000Y123230D03*
X717000Y128230D03*
X717000Y133230D03*
D11*
X739060Y97790D03*
X729060Y97790D03*
X739060Y107315D03*
X729060Y107315D03*
D17*
X741080Y398945D03*
X736080Y398945D03*
D18*
X751080Y373945D03*
X656080Y373945D03*
D17*
X731080Y398945D03*
X726080Y398945D03*
X721080Y398945D03*
X716080Y398945D03*
X711080Y398945D03*
X706080Y398945D03*
X701080Y398945D03*
X696080Y398945D03*
X691080Y398945D03*
X686080Y398945D03*
X681080Y398945D03*
X676080Y398945D03*
X671080Y398945D03*
X666080Y398945D03*
D19*
X750570Y177800D03*
X750570Y101600D03*
X750570Y76200D03*
X750570Y50800D03*
X750570Y254000D03*
X656590Y279400D03*
X656590Y355600D03*
X750570Y203200D03*
D20*
X726080Y41500D03*
X726080Y35000D03*
X726080Y28500D03*
X726080Y22000D03*
X681080Y22000D03*
X681080Y28500D03*
X681080Y35000D03*
X681080Y41500D03*
D11*
X681435Y55245D03*
X691435Y55245D03*
D19*
X656590Y38100D03*
D10*
X913130Y400050D03*
X819150Y5080D03*
D11*
X821770Y98425D03*
X831770Y98425D03*
D12*
X833270Y73030D03*
X826770Y73030D03*
X820270Y73030D03*
X820270Y89530D03*
X833270Y89530D03*
D11*
X831135Y60325D03*
X821135Y60325D03*
X831770Y21590D03*
X821770Y21590D03*
X893365Y200025D03*
X883365Y200025D03*
X903605Y206455D03*
X903605Y216455D03*
X886460Y210265D03*
X886460Y220265D03*
X899160Y184705D03*
X899160Y174705D03*
X880110Y184705D03*
X880110Y174705D03*
X889635Y184705D03*
X889635Y174705D03*
X848915Y119380D03*
X838915Y119380D03*
X838915Y109855D03*
X848915Y109855D03*
X830580Y221060D03*
X830580Y231060D03*
X843360Y200025D03*
X853360Y200025D03*
X832405Y204470D03*
X822405Y204470D03*
X821182Y150415D03*
X821182Y140415D03*
X854710Y160575D03*
X854710Y150575D03*
X835660Y160575D03*
X835660Y150575D03*
X845185Y160575D03*
X845185Y150575D03*
D13*
X845200Y184455D03*
X845200Y174955D03*
X831200Y174955D03*
X831200Y184455D03*
D11*
X864870Y184705D03*
X864870Y174705D03*
X855345Y184705D03*
X855345Y174705D03*
X821055Y176229D03*
X821055Y186229D03*
X831770Y340995D03*
X821770Y340995D03*
X821770Y331470D03*
X831770Y331470D03*
X829945Y278210D03*
X829945Y288210D03*
X839470Y278210D03*
X839470Y288210D03*
D14*
X829310Y305943D03*
X829310Y297307D03*
D11*
X847725Y302340D03*
X847725Y312340D03*
X857250Y302340D03*
X857250Y312340D03*
X842090Y321945D03*
X852090Y321945D03*
X842090Y331470D03*
X852090Y331470D03*
X842090Y340995D03*
X852090Y340995D03*
X838200Y302340D03*
X838200Y312340D03*
X875030Y160575D03*
X875030Y150575D03*
X894080Y160575D03*
X894080Y150575D03*
X884555Y160575D03*
X884555Y150575D03*
X900510Y21590D03*
X910510Y21590D03*
D15*
X894105Y313991D03*
X903605Y313991D03*
X913105Y313991D03*
X913105Y287989D03*
X894105Y287989D03*
D11*
X831135Y50800D03*
X821135Y50800D03*
X843280Y72470D03*
X843280Y82470D03*
X913130Y328375D03*
X913130Y338375D03*
D16*
X906060Y133230D03*
X906060Y128230D03*
X906060Y123230D03*
X906060Y118230D03*
X879560Y118230D03*
X879560Y123230D03*
X879560Y128230D03*
X879560Y133230D03*
D11*
X901620Y97790D03*
X891620Y97790D03*
X901620Y107315D03*
X891620Y107315D03*
D17*
X903640Y398945D03*
X898640Y398945D03*
D18*
X913640Y373945D03*
X818640Y373945D03*
D17*
X893640Y398945D03*
X888640Y398945D03*
X883640Y398945D03*
X878640Y398945D03*
X873640Y398945D03*
X868640Y398945D03*
X863640Y398945D03*
X858640Y398945D03*
X853640Y398945D03*
X848640Y398945D03*
X843640Y398945D03*
X838640Y398945D03*
X833640Y398945D03*
X828640Y398945D03*
D19*
X913130Y177800D03*
X913130Y101600D03*
X913130Y76200D03*
X913130Y50800D03*
X913130Y254000D03*
X819150Y279400D03*
X819150Y355600D03*
X913130Y203200D03*
D20*
X888640Y41500D03*
X888640Y35000D03*
X888640Y28500D03*
X888640Y22000D03*
X843640Y22000D03*
X843640Y28500D03*
X843640Y35000D03*
X843640Y41500D03*
D11*
X843995Y55245D03*
X853995Y55245D03*
D19*
X819150Y38100D03*
D10*
X1075690Y400050D03*
X981710Y5080D03*
D11*
X984330Y98425D03*
X994330Y98425D03*
D12*
X995830Y73030D03*
X989330Y73030D03*
X982830Y73030D03*
X982830Y89530D03*
X995830Y89530D03*
D11*
X993695Y60325D03*
X983695Y60325D03*
X994330Y21590D03*
X984330Y21590D03*
X1055925Y200025D03*
X1045925Y200025D03*
X1066165Y206455D03*
X1066165Y216455D03*
X1049020Y210265D03*
X1049020Y220265D03*
X1061720Y184705D03*
X1061720Y174705D03*
X1042670Y184705D03*
X1042670Y174705D03*
X1052195Y184705D03*
X1052195Y174705D03*
X1011475Y119380D03*
X1001475Y119380D03*
X1001475Y109855D03*
X1011475Y109855D03*
X993140Y221060D03*
X993140Y231060D03*
X1005920Y200025D03*
X1015920Y200025D03*
X994965Y204470D03*
X984965Y204470D03*
X983742Y150415D03*
X983742Y140415D03*
X1017270Y160575D03*
X1017270Y150575D03*
X998220Y160575D03*
X998220Y150575D03*
X1007745Y160575D03*
X1007745Y150575D03*
D13*
X1007760Y184455D03*
X1007760Y174955D03*
X993760Y174955D03*
X993760Y184455D03*
D11*
X1027430Y184705D03*
X1027430Y174705D03*
X1017905Y184705D03*
X1017905Y174705D03*
X983615Y176229D03*
X983615Y186229D03*
X994330Y340995D03*
X984330Y340995D03*
X984330Y331470D03*
X994330Y331470D03*
X992505Y278210D03*
X992505Y288210D03*
X1002030Y278210D03*
X1002030Y288210D03*
D14*
X991870Y305943D03*
X991870Y297307D03*
D11*
X1010285Y302340D03*
X1010285Y312340D03*
X1019810Y302340D03*
X1019810Y312340D03*
X1004650Y321945D03*
X1014650Y321945D03*
X1004650Y331470D03*
X1014650Y331470D03*
X1004650Y340995D03*
X1014650Y340995D03*
X1000760Y302340D03*
X1000760Y312340D03*
X1037590Y160575D03*
X1037590Y150575D03*
X1056640Y160575D03*
X1056640Y150575D03*
X1047115Y160575D03*
X1047115Y150575D03*
X1063070Y21590D03*
X1073070Y21590D03*
D15*
X1056665Y313991D03*
X1066165Y313991D03*
X1075665Y313991D03*
X1075665Y287989D03*
X1056665Y287989D03*
D11*
X993695Y50800D03*
X983695Y50800D03*
X1005840Y72470D03*
X1005840Y82470D03*
X1075690Y328375D03*
X1075690Y338375D03*
D16*
X1068620Y133230D03*
X1068620Y128230D03*
X1068620Y123230D03*
X1068620Y118230D03*
X1042120Y118230D03*
X1042120Y123230D03*
X1042120Y128230D03*
X1042120Y133230D03*
D11*
X1064180Y97790D03*
X1054180Y97790D03*
X1064180Y107315D03*
X1054180Y107315D03*
D17*
X1066200Y398945D03*
X1061200Y398945D03*
D18*
X1076200Y373945D03*
X981200Y373945D03*
D17*
X1056200Y398945D03*
X1051200Y398945D03*
X1046200Y398945D03*
X1041200Y398945D03*
X1036200Y398945D03*
X1031200Y398945D03*
X1026200Y398945D03*
X1021200Y398945D03*
X1016200Y398945D03*
X1011200Y398945D03*
X1006200Y398945D03*
X1001200Y398945D03*
X996200Y398945D03*
X991200Y398945D03*
D19*
X1075690Y177800D03*
X1075690Y101600D03*
X1075690Y76200D03*
X1075690Y50800D03*
X1075690Y254000D03*
X981710Y279400D03*
X981710Y355600D03*
X1075690Y203200D03*
D20*
X1051200Y41500D03*
X1051200Y35000D03*
X1051200Y28500D03*
X1051200Y22000D03*
X1006200Y22000D03*
X1006200Y28500D03*
X1006200Y35000D03*
X1006200Y41500D03*
D11*
X1006555Y55245D03*
X1016555Y55245D03*
D19*
X981710Y38100D03*
D10*
X1238250Y400050D03*
X1144270Y5080D03*
D11*
X1146890Y98425D03*
X1156890Y98425D03*
D12*
X1158390Y73030D03*
X1151890Y73030D03*
X1145390Y73030D03*
X1145390Y89530D03*
X1158390Y89530D03*
D11*
X1156255Y60325D03*
X1146255Y60325D03*
X1156890Y21590D03*
X1146890Y21590D03*
X1218485Y200025D03*
X1208485Y200025D03*
X1228725Y206455D03*
X1228725Y216455D03*
X1211580Y210265D03*
X1211580Y220265D03*
X1224280Y184705D03*
X1224280Y174705D03*
X1205230Y184705D03*
X1205230Y174705D03*
X1214755Y184705D03*
X1214755Y174705D03*
X1174035Y119380D03*
X1164035Y119380D03*
X1164035Y109855D03*
X1174035Y109855D03*
X1155700Y221060D03*
X1155700Y231060D03*
X1168480Y200025D03*
X1178480Y200025D03*
X1157525Y204470D03*
X1147525Y204470D03*
X1146302Y150415D03*
X1146302Y140415D03*
X1179830Y160575D03*
X1179830Y150575D03*
X1160780Y160575D03*
X1160780Y150575D03*
X1170305Y160575D03*
X1170305Y150575D03*
D13*
X1170320Y184455D03*
X1170320Y174955D03*
X1156320Y174955D03*
X1156320Y184455D03*
D11*
X1189990Y184705D03*
X1189990Y174705D03*
X1180465Y184705D03*
X1180465Y174705D03*
X1146175Y176229D03*
X1146175Y186229D03*
X1156890Y340995D03*
X1146890Y340995D03*
X1146890Y331470D03*
X1156890Y331470D03*
X1155065Y278210D03*
X1155065Y288210D03*
X1164590Y278210D03*
X1164590Y288210D03*
D14*
X1154430Y305943D03*
X1154430Y297307D03*
D11*
X1172845Y302340D03*
X1172845Y312340D03*
X1182370Y302340D03*
X1182370Y312340D03*
X1167210Y321945D03*
X1177210Y321945D03*
X1167210Y331470D03*
X1177210Y331470D03*
X1167210Y340995D03*
X1177210Y340995D03*
X1163320Y302340D03*
X1163320Y312340D03*
X1200150Y160575D03*
X1200150Y150575D03*
X1219200Y160575D03*
X1219200Y150575D03*
X1209675Y160575D03*
X1209675Y150575D03*
X1225630Y21590D03*
X1235630Y21590D03*
D15*
X1219225Y313991D03*
X1228725Y313991D03*
X1238225Y313991D03*
X1238225Y287989D03*
X1219225Y287989D03*
D11*
X1156255Y50800D03*
X1146255Y50800D03*
X1168400Y72470D03*
X1168400Y82470D03*
X1238250Y328375D03*
X1238250Y338375D03*
D16*
X1231180Y133230D03*
X1231180Y128230D03*
X1231180Y123230D03*
X1231180Y118230D03*
X1204680Y118230D03*
X1204680Y123230D03*
X1204680Y128230D03*
X1204680Y133230D03*
D11*
X1226740Y97790D03*
X1216740Y97790D03*
X1226740Y107315D03*
X1216740Y107315D03*
D17*
X1228760Y398945D03*
X1223760Y398945D03*
D18*
X1238760Y373945D03*
X1143760Y373945D03*
D17*
X1218760Y398945D03*
X1213760Y398945D03*
X1208760Y398945D03*
X1203760Y398945D03*
X1198760Y398945D03*
X1193760Y398945D03*
X1188760Y398945D03*
X1183760Y398945D03*
X1178760Y398945D03*
X1173760Y398945D03*
X1168760Y398945D03*
X1163760Y398945D03*
X1158760Y398945D03*
X1153760Y398945D03*
D19*
X1238250Y177800D03*
X1238250Y101600D03*
X1238250Y76200D03*
X1238250Y50800D03*
X1238250Y254000D03*
X1144270Y279400D03*
X1144270Y355600D03*
X1238250Y203200D03*
D20*
X1213760Y41500D03*
X1213760Y35000D03*
X1213760Y28500D03*
X1213760Y22000D03*
X1168760Y22000D03*
X1168760Y28500D03*
X1168760Y35000D03*
X1168760Y41500D03*
D11*
X1169115Y55245D03*
X1179115Y55245D03*
D19*
X1144270Y38100D03*
D10*
X1400810Y400050D03*
X1306830Y5080D03*
D11*
X1309450Y98425D03*
X1319450Y98425D03*
D12*
X1320950Y73030D03*
X1314450Y73030D03*
X1307950Y73030D03*
X1307950Y89530D03*
X1320950Y89530D03*
D11*
X1318815Y60325D03*
X1308815Y60325D03*
X1319450Y21590D03*
X1309450Y21590D03*
X1381045Y200025D03*
X1371045Y200025D03*
X1391285Y206455D03*
X1391285Y216455D03*
X1374140Y210265D03*
X1374140Y220265D03*
X1386840Y184705D03*
X1386840Y174705D03*
X1367790Y184705D03*
X1367790Y174705D03*
X1377315Y184705D03*
X1377315Y174705D03*
X1336595Y119380D03*
X1326595Y119380D03*
X1326595Y109855D03*
X1336595Y109855D03*
X1318260Y221060D03*
X1318260Y231060D03*
X1331040Y200025D03*
X1341040Y200025D03*
X1320085Y204470D03*
X1310085Y204470D03*
X1308862Y150415D03*
X1308862Y140415D03*
X1342390Y160575D03*
X1342390Y150575D03*
X1323340Y160575D03*
X1323340Y150575D03*
X1332865Y160575D03*
X1332865Y150575D03*
D13*
X1332880Y184455D03*
X1332880Y174955D03*
X1318880Y174955D03*
X1318880Y184455D03*
D11*
X1352550Y184705D03*
X1352550Y174705D03*
X1343025Y184705D03*
X1343025Y174705D03*
X1308735Y176229D03*
X1308735Y186229D03*
X1319450Y340995D03*
X1309450Y340995D03*
X1309450Y331470D03*
X1319450Y331470D03*
X1317625Y278210D03*
X1317625Y288210D03*
X1327150Y278210D03*
X1327150Y288210D03*
D14*
X1316990Y305943D03*
X1316990Y297307D03*
D11*
X1335405Y302340D03*
X1335405Y312340D03*
X1344930Y302340D03*
X1344930Y312340D03*
X1329770Y321945D03*
X1339770Y321945D03*
X1329770Y331470D03*
X1339770Y331470D03*
X1329770Y340995D03*
X1339770Y340995D03*
X1325880Y302340D03*
X1325880Y312340D03*
X1362710Y160575D03*
X1362710Y150575D03*
X1381760Y160575D03*
X1381760Y150575D03*
X1372235Y160575D03*
X1372235Y150575D03*
X1388190Y21590D03*
X1398190Y21590D03*
D15*
X1381785Y313991D03*
X1391285Y313991D03*
X1400785Y313991D03*
X1400785Y287989D03*
X1381785Y287989D03*
D11*
X1318815Y50800D03*
X1308815Y50800D03*
X1330960Y72470D03*
X1330960Y82470D03*
X1400810Y328375D03*
X1400810Y338375D03*
D16*
X1393740Y133230D03*
X1393740Y128230D03*
X1393740Y123230D03*
X1393740Y118230D03*
X1367240Y118230D03*
X1367240Y123230D03*
X1367240Y128230D03*
X1367240Y133230D03*
D11*
X1389300Y97790D03*
X1379300Y97790D03*
X1389300Y107315D03*
X1379300Y107315D03*
D17*
X1391320Y398945D03*
X1386320Y398945D03*
D18*
X1401320Y373945D03*
X1306320Y373945D03*
D17*
X1381320Y398945D03*
X1376320Y398945D03*
X1371320Y398945D03*
X1366320Y398945D03*
X1361320Y398945D03*
X1356320Y398945D03*
X1351320Y398945D03*
X1346320Y398945D03*
X1341320Y398945D03*
X1336320Y398945D03*
X1331320Y398945D03*
X1326320Y398945D03*
X1321320Y398945D03*
X1316320Y398945D03*
D19*
X1400810Y177800D03*
X1400810Y101600D03*
X1400810Y76200D03*
X1400810Y50800D03*
X1400810Y254000D03*
X1306830Y279400D03*
X1306830Y355600D03*
X1400810Y203200D03*
D20*
X1376320Y41500D03*
X1376320Y35000D03*
X1376320Y28500D03*
X1376320Y22000D03*
X1331320Y22000D03*
X1331320Y28500D03*
X1331320Y35000D03*
X1331320Y41500D03*
D11*
X1331675Y55245D03*
X1341675Y55245D03*
D19*
X1306830Y38100D03*
D10*
X1563370Y400050D03*
X1469390Y5080D03*
D11*
X1472010Y98425D03*
X1482010Y98425D03*
D12*
X1483510Y73030D03*
X1477010Y73030D03*
X1470510Y73030D03*
X1470510Y89530D03*
X1483510Y89530D03*
D11*
X1481375Y60325D03*
X1471375Y60325D03*
X1482010Y21590D03*
X1472010Y21590D03*
X1543605Y200025D03*
X1533605Y200025D03*
X1553845Y206455D03*
X1553845Y216455D03*
X1536700Y210265D03*
X1536700Y220265D03*
X1549400Y184705D03*
X1549400Y174705D03*
X1530350Y184705D03*
X1530350Y174705D03*
X1539875Y184705D03*
X1539875Y174705D03*
X1499155Y119380D03*
X1489155Y119380D03*
X1489155Y109855D03*
X1499155Y109855D03*
X1480820Y221060D03*
X1480820Y231060D03*
X1493600Y200025D03*
X1503600Y200025D03*
X1482645Y204470D03*
X1472645Y204470D03*
X1471422Y150415D03*
X1471422Y140415D03*
X1504950Y160575D03*
X1504950Y150575D03*
X1485900Y160575D03*
X1485900Y150575D03*
X1495425Y160575D03*
X1495425Y150575D03*
D13*
X1495440Y184455D03*
X1495440Y174955D03*
X1481440Y174955D03*
X1481440Y184455D03*
D11*
X1515110Y184705D03*
X1515110Y174705D03*
X1505585Y184705D03*
X1505585Y174705D03*
X1471295Y176229D03*
X1471295Y186229D03*
X1482010Y340995D03*
X1472010Y340995D03*
X1472010Y331470D03*
X1482010Y331470D03*
X1480185Y278210D03*
X1480185Y288210D03*
X1489710Y278210D03*
X1489710Y288210D03*
D14*
X1479550Y305943D03*
X1479550Y297307D03*
D11*
X1497965Y302340D03*
X1497965Y312340D03*
X1507490Y302340D03*
X1507490Y312340D03*
X1492330Y321945D03*
X1502330Y321945D03*
X1492330Y331470D03*
X1502330Y331470D03*
X1492330Y340995D03*
X1502330Y340995D03*
X1488440Y302340D03*
X1488440Y312340D03*
X1525270Y160575D03*
X1525270Y150575D03*
X1544320Y160575D03*
X1544320Y150575D03*
X1534795Y160575D03*
X1534795Y150575D03*
X1550750Y21590D03*
X1560750Y21590D03*
D15*
X1544345Y313991D03*
X1553845Y313991D03*
X1563345Y313991D03*
X1563345Y287989D03*
X1544345Y287989D03*
D11*
X1481375Y50800D03*
X1471375Y50800D03*
X1493520Y72470D03*
X1493520Y82470D03*
X1563370Y328375D03*
X1563370Y338375D03*
D16*
X1556300Y133230D03*
X1556300Y128230D03*
X1556300Y123230D03*
X1556300Y118230D03*
X1529800Y118230D03*
X1529800Y123230D03*
X1529800Y128230D03*
X1529800Y133230D03*
D11*
X1551860Y97790D03*
X1541860Y97790D03*
X1551860Y107315D03*
X1541860Y107315D03*
D17*
X1553880Y398945D03*
X1548880Y398945D03*
D18*
X1563880Y373945D03*
X1468880Y373945D03*
D17*
X1543880Y398945D03*
X1538880Y398945D03*
X1533880Y398945D03*
X1528880Y398945D03*
X1523880Y398945D03*
X1518880Y398945D03*
X1513880Y398945D03*
X1508880Y398945D03*
X1503880Y398945D03*
X1498880Y398945D03*
X1493880Y398945D03*
X1488880Y398945D03*
X1483880Y398945D03*
X1478880Y398945D03*
D19*
X1563370Y177800D03*
X1563370Y101600D03*
X1563370Y76200D03*
X1563370Y50800D03*
X1563370Y254000D03*
X1469390Y279400D03*
X1469390Y355600D03*
X1563370Y203200D03*
D20*
X1538880Y41500D03*
X1538880Y35000D03*
X1538880Y28500D03*
X1538880Y22000D03*
X1493880Y22000D03*
X1493880Y28500D03*
X1493880Y35000D03*
X1493880Y41500D03*
D11*
X1494235Y55245D03*
X1504235Y55245D03*
D19*
X1469390Y38100D03*
D10*
X100330Y811530D03*
X6350Y416560D03*
D11*
X8970Y509905D03*
X18970Y509905D03*
D12*
X20470Y484510D03*
X13970Y484510D03*
X7470Y484510D03*
X7470Y501010D03*
X20470Y501010D03*
D11*
X18335Y471805D03*
X8335Y471805D03*
X18970Y433070D03*
X8970Y433070D03*
X80565Y611505D03*
X70565Y611505D03*
X90805Y617935D03*
X90805Y627935D03*
X73660Y621745D03*
X73660Y631745D03*
X86360Y596185D03*
X86360Y586185D03*
X67310Y596185D03*
X67310Y586185D03*
X76835Y596185D03*
X76835Y586185D03*
X36115Y530860D03*
X26115Y530860D03*
X26115Y521335D03*
X36115Y521335D03*
X17780Y632540D03*
X17780Y642540D03*
X30560Y611505D03*
X40560Y611505D03*
X19605Y615950D03*
X9605Y615950D03*
X8382Y561895D03*
X8382Y551895D03*
X41910Y572055D03*
X41910Y562055D03*
X22860Y572055D03*
X22860Y562055D03*
X32385Y572055D03*
X32385Y562055D03*
D13*
X32400Y595935D03*
X32400Y586435D03*
X18400Y586435D03*
X18400Y595935D03*
D11*
X52070Y596185D03*
X52070Y586185D03*
X42545Y596185D03*
X42545Y586185D03*
X8255Y587709D03*
X8255Y597709D03*
X18970Y752475D03*
X8970Y752475D03*
X8970Y742950D03*
X18970Y742950D03*
X17145Y689690D03*
X17145Y699690D03*
X26670Y689690D03*
X26670Y699690D03*
D14*
X16510Y717423D03*
X16510Y708787D03*
D11*
X34925Y713820D03*
X34925Y723820D03*
X44450Y713820D03*
X44450Y723820D03*
X29290Y733425D03*
X39290Y733425D03*
X29290Y742950D03*
X39290Y742950D03*
X29290Y752475D03*
X39290Y752475D03*
X25400Y713820D03*
X25400Y723820D03*
X62230Y572055D03*
X62230Y562055D03*
X81280Y572055D03*
X81280Y562055D03*
X71755Y572055D03*
X71755Y562055D03*
X87710Y433070D03*
X97710Y433070D03*
D15*
X81305Y725471D03*
X90805Y725471D03*
X100305Y725471D03*
X100305Y699469D03*
X81305Y699469D03*
D11*
X18335Y462280D03*
X8335Y462280D03*
X30480Y483950D03*
X30480Y493950D03*
X100330Y739855D03*
X100330Y749855D03*
D16*
X93260Y544710D03*
X93260Y539710D03*
X93260Y534710D03*
X93260Y529710D03*
X66760Y529710D03*
X66760Y534710D03*
X66760Y539710D03*
X66760Y544710D03*
D11*
X88820Y509270D03*
X78820Y509270D03*
X88820Y518795D03*
X78820Y518795D03*
D17*
X90840Y810425D03*
X85840Y810425D03*
D18*
X100840Y785425D03*
X5840Y785425D03*
D17*
X80840Y810425D03*
X75840Y810425D03*
X70840Y810425D03*
X65840Y810425D03*
X60840Y810425D03*
X55840Y810425D03*
X50840Y810425D03*
X45840Y810425D03*
X40840Y810425D03*
X35840Y810425D03*
X30840Y810425D03*
X25840Y810425D03*
X20840Y810425D03*
X15840Y810425D03*
D19*
X100330Y589280D03*
X100330Y513080D03*
X100330Y487680D03*
X100330Y462280D03*
X100330Y665480D03*
X6350Y690880D03*
X6350Y767080D03*
X100330Y614680D03*
D20*
X75840Y452980D03*
X75840Y446480D03*
X75840Y439980D03*
X75840Y433480D03*
X30840Y433480D03*
X30840Y439980D03*
X30840Y446480D03*
X30840Y452980D03*
D11*
X31195Y466725D03*
X41195Y466725D03*
D19*
X6350Y449580D03*
D10*
X262890Y811530D03*
X168910Y416560D03*
D11*
X171530Y509905D03*
X181530Y509905D03*
D12*
X183030Y484510D03*
X176530Y484510D03*
X170030Y484510D03*
X170030Y501010D03*
X183030Y501010D03*
D11*
X180895Y471805D03*
X170895Y471805D03*
X181530Y433070D03*
X171530Y433070D03*
X243125Y611505D03*
X233125Y611505D03*
X253365Y617935D03*
X253365Y627935D03*
X236220Y621745D03*
X236220Y631745D03*
X248920Y596185D03*
X248920Y586185D03*
X229870Y596185D03*
X229870Y586185D03*
X239395Y596185D03*
X239395Y586185D03*
X198675Y530860D03*
X188675Y530860D03*
X188675Y521335D03*
X198675Y521335D03*
X180340Y632540D03*
X180340Y642540D03*
X193120Y611505D03*
X203120Y611505D03*
X182165Y615950D03*
X172165Y615950D03*
X170942Y561895D03*
X170942Y551895D03*
X204470Y572055D03*
X204470Y562055D03*
X185420Y572055D03*
X185420Y562055D03*
X194945Y572055D03*
X194945Y562055D03*
D13*
X194960Y595935D03*
X194960Y586435D03*
X180960Y586435D03*
X180960Y595935D03*
D11*
X214630Y596185D03*
X214630Y586185D03*
X205105Y596185D03*
X205105Y586185D03*
X170815Y587709D03*
X170815Y597709D03*
X181530Y752475D03*
X171530Y752475D03*
X171530Y742950D03*
X181530Y742950D03*
X179705Y689690D03*
X179705Y699690D03*
X189230Y689690D03*
X189230Y699690D03*
D14*
X179070Y717423D03*
X179070Y708787D03*
D11*
X197485Y713820D03*
X197485Y723820D03*
X207010Y713820D03*
X207010Y723820D03*
X191850Y733425D03*
X201850Y733425D03*
X191850Y742950D03*
X201850Y742950D03*
X191850Y752475D03*
X201850Y752475D03*
X187960Y713820D03*
X187960Y723820D03*
X224790Y572055D03*
X224790Y562055D03*
X243840Y572055D03*
X243840Y562055D03*
X234315Y572055D03*
X234315Y562055D03*
X250270Y433070D03*
X260270Y433070D03*
D15*
X243865Y725471D03*
X253365Y725471D03*
X262865Y725471D03*
X262865Y699469D03*
X243865Y699469D03*
D11*
X180895Y462280D03*
X170895Y462280D03*
X193040Y483950D03*
X193040Y493950D03*
X262890Y739855D03*
X262890Y749855D03*
D16*
X255820Y544710D03*
X255820Y539710D03*
X255820Y534710D03*
X255820Y529710D03*
X229320Y529710D03*
X229320Y534710D03*
X229320Y539710D03*
X229320Y544710D03*
D11*
X251380Y509270D03*
X241380Y509270D03*
X251380Y518795D03*
X241380Y518795D03*
D17*
X253400Y810425D03*
X248400Y810425D03*
D18*
X263400Y785425D03*
X168400Y785425D03*
D17*
X243400Y810425D03*
X238400Y810425D03*
X233400Y810425D03*
X228400Y810425D03*
X223400Y810425D03*
X218400Y810425D03*
X213400Y810425D03*
X208400Y810425D03*
X203400Y810425D03*
X198400Y810425D03*
X193400Y810425D03*
X188400Y810425D03*
X183400Y810425D03*
X178400Y810425D03*
D19*
X262890Y589280D03*
X262890Y513080D03*
X262890Y487680D03*
X262890Y462280D03*
X262890Y665480D03*
X168910Y690880D03*
X168910Y767080D03*
X262890Y614680D03*
D20*
X238400Y452980D03*
X238400Y446480D03*
X238400Y439980D03*
X238400Y433480D03*
X193400Y433480D03*
X193400Y439980D03*
X193400Y446480D03*
X193400Y452980D03*
D11*
X193755Y466725D03*
X203755Y466725D03*
D19*
X168910Y449580D03*
D10*
X425450Y811530D03*
X331470Y416560D03*
D11*
X334090Y509905D03*
X344090Y509905D03*
D12*
X345590Y484510D03*
X339090Y484510D03*
X332590Y484510D03*
X332590Y501010D03*
X345590Y501010D03*
D11*
X343455Y471805D03*
X333455Y471805D03*
X344090Y433070D03*
X334090Y433070D03*
X405685Y611505D03*
X395685Y611505D03*
X415925Y617935D03*
X415925Y627935D03*
X398780Y621745D03*
X398780Y631745D03*
X411480Y596185D03*
X411480Y586185D03*
X392430Y596185D03*
X392430Y586185D03*
X401955Y596185D03*
X401955Y586185D03*
X361235Y530860D03*
X351235Y530860D03*
X351235Y521335D03*
X361235Y521335D03*
X342900Y632540D03*
X342900Y642540D03*
X355680Y611505D03*
X365680Y611505D03*
X344725Y615950D03*
X334725Y615950D03*
X333502Y561895D03*
X333502Y551895D03*
X367030Y572055D03*
X367030Y562055D03*
X347980Y572055D03*
X347980Y562055D03*
X357505Y572055D03*
X357505Y562055D03*
D13*
X357520Y595935D03*
X357520Y586435D03*
X343520Y586435D03*
X343520Y595935D03*
D11*
X377190Y596185D03*
X377190Y586185D03*
X367665Y596185D03*
X367665Y586185D03*
X333375Y587709D03*
X333375Y597709D03*
X344090Y752475D03*
X334090Y752475D03*
X334090Y742950D03*
X344090Y742950D03*
X342265Y689690D03*
X342265Y699690D03*
X351790Y689690D03*
X351790Y699690D03*
D14*
X341630Y717423D03*
X341630Y708787D03*
D11*
X360045Y713820D03*
X360045Y723820D03*
X369570Y713820D03*
X369570Y723820D03*
X354410Y733425D03*
X364410Y733425D03*
X354410Y742950D03*
X364410Y742950D03*
X354410Y752475D03*
X364410Y752475D03*
X350520Y713820D03*
X350520Y723820D03*
X387350Y572055D03*
X387350Y562055D03*
X406400Y572055D03*
X406400Y562055D03*
X396875Y572055D03*
X396875Y562055D03*
X412830Y433070D03*
X422830Y433070D03*
D15*
X406425Y725471D03*
X415925Y725471D03*
X425425Y725471D03*
X425425Y699469D03*
X406425Y699469D03*
D11*
X343455Y462280D03*
X333455Y462280D03*
X355600Y483950D03*
X355600Y493950D03*
X425450Y739855D03*
X425450Y749855D03*
D16*
X418380Y544710D03*
X418380Y539710D03*
X418380Y534710D03*
X418380Y529710D03*
X391880Y529710D03*
X391880Y534710D03*
X391880Y539710D03*
X391880Y544710D03*
D11*
X413940Y509270D03*
X403940Y509270D03*
X413940Y518795D03*
X403940Y518795D03*
D17*
X415960Y810425D03*
X410960Y810425D03*
D18*
X425960Y785425D03*
X330960Y785425D03*
D17*
X405960Y810425D03*
X400960Y810425D03*
X395960Y810425D03*
X390960Y810425D03*
X385960Y810425D03*
X380960Y810425D03*
X375960Y810425D03*
X370960Y810425D03*
X365960Y810425D03*
X360960Y810425D03*
X355960Y810425D03*
X350960Y810425D03*
X345960Y810425D03*
X340960Y810425D03*
D19*
X425450Y589280D03*
X425450Y513080D03*
X425450Y487680D03*
X425450Y462280D03*
X425450Y665480D03*
X331470Y690880D03*
X331470Y767080D03*
X425450Y614680D03*
D20*
X400960Y452980D03*
X400960Y446480D03*
X400960Y439980D03*
X400960Y433480D03*
X355960Y433480D03*
X355960Y439980D03*
X355960Y446480D03*
X355960Y452980D03*
D11*
X356315Y466725D03*
X366315Y466725D03*
D19*
X331470Y449580D03*
D10*
X588010Y811530D03*
X494030Y416560D03*
D11*
X496650Y509905D03*
X506650Y509905D03*
D12*
X508150Y484510D03*
X501650Y484510D03*
X495150Y484510D03*
X495150Y501010D03*
X508150Y501010D03*
D11*
X506015Y471805D03*
X496015Y471805D03*
X506650Y433070D03*
X496650Y433070D03*
X568245Y611505D03*
X558245Y611505D03*
X578485Y617935D03*
X578485Y627935D03*
X561340Y621745D03*
X561340Y631745D03*
X574040Y596185D03*
X574040Y586185D03*
X554990Y596185D03*
X554990Y586185D03*
X564515Y596185D03*
X564515Y586185D03*
X523795Y530860D03*
X513795Y530860D03*
X513795Y521335D03*
X523795Y521335D03*
X505460Y632540D03*
X505460Y642540D03*
X518240Y611505D03*
X528240Y611505D03*
X507285Y615950D03*
X497285Y615950D03*
X496062Y561895D03*
X496062Y551895D03*
X529590Y572055D03*
X529590Y562055D03*
X510540Y572055D03*
X510540Y562055D03*
X520065Y572055D03*
X520065Y562055D03*
D13*
X520080Y595935D03*
X520080Y586435D03*
X506080Y586435D03*
X506080Y595935D03*
D11*
X539750Y596185D03*
X539750Y586185D03*
X530225Y596185D03*
X530225Y586185D03*
X495935Y587709D03*
X495935Y597709D03*
X506650Y752475D03*
X496650Y752475D03*
X496650Y742950D03*
X506650Y742950D03*
X504825Y689690D03*
X504825Y699690D03*
X514350Y689690D03*
X514350Y699690D03*
D14*
X504190Y717423D03*
X504190Y708787D03*
D11*
X522605Y713820D03*
X522605Y723820D03*
X532130Y713820D03*
X532130Y723820D03*
X516970Y733425D03*
X526970Y733425D03*
X516970Y742950D03*
X526970Y742950D03*
X516970Y752475D03*
X526970Y752475D03*
X513080Y713820D03*
X513080Y723820D03*
X549910Y572055D03*
X549910Y562055D03*
X568960Y572055D03*
X568960Y562055D03*
X559435Y572055D03*
X559435Y562055D03*
X575390Y433070D03*
X585390Y433070D03*
D15*
X568985Y725471D03*
X578485Y725471D03*
X587985Y725471D03*
X587985Y699469D03*
X568985Y699469D03*
D11*
X506015Y462280D03*
X496015Y462280D03*
X518160Y483950D03*
X518160Y493950D03*
X588010Y739855D03*
X588010Y749855D03*
D16*
X580940Y544710D03*
X580940Y539710D03*
X580940Y534710D03*
X580940Y529710D03*
X554440Y529710D03*
X554440Y534710D03*
X554440Y539710D03*
X554440Y544710D03*
D11*
X576500Y509270D03*
X566500Y509270D03*
X576500Y518795D03*
X566500Y518795D03*
D17*
X578520Y810425D03*
X573520Y810425D03*
D18*
X588520Y785425D03*
X493520Y785425D03*
D17*
X568520Y810425D03*
X563520Y810425D03*
X558520Y810425D03*
X553520Y810425D03*
X548520Y810425D03*
X543520Y810425D03*
X538520Y810425D03*
X533520Y810425D03*
X528520Y810425D03*
X523520Y810425D03*
X518520Y810425D03*
X513520Y810425D03*
X508520Y810425D03*
X503520Y810425D03*
D19*
X588010Y589280D03*
X588010Y513080D03*
X588010Y487680D03*
X588010Y462280D03*
X588010Y665480D03*
X494030Y690880D03*
X494030Y767080D03*
X588010Y614680D03*
D20*
X563520Y452980D03*
X563520Y446480D03*
X563520Y439980D03*
X563520Y433480D03*
X518520Y433480D03*
X518520Y439980D03*
X518520Y446480D03*
X518520Y452980D03*
D11*
X518875Y466725D03*
X528875Y466725D03*
D19*
X494030Y449580D03*
D10*
X750570Y811530D03*
X656590Y416560D03*
D11*
X659210Y509905D03*
X669210Y509905D03*
D12*
X670710Y484510D03*
X664210Y484510D03*
X657710Y484510D03*
X657710Y501010D03*
X670710Y501010D03*
D11*
X668575Y471805D03*
X658575Y471805D03*
X669210Y433070D03*
X659210Y433070D03*
X730805Y611505D03*
X720805Y611505D03*
X741045Y617935D03*
X741045Y627935D03*
X723900Y621745D03*
X723900Y631745D03*
X736600Y596185D03*
X736600Y586185D03*
X717550Y596185D03*
X717550Y586185D03*
X727075Y596185D03*
X727075Y586185D03*
X686355Y530860D03*
X676355Y530860D03*
X676355Y521335D03*
X686355Y521335D03*
X668020Y632540D03*
X668020Y642540D03*
X680800Y611505D03*
X690800Y611505D03*
X669845Y615950D03*
X659845Y615950D03*
X658622Y561895D03*
X658622Y551895D03*
X692150Y572055D03*
X692150Y562055D03*
X673100Y572055D03*
X673100Y562055D03*
X682625Y572055D03*
X682625Y562055D03*
D13*
X682640Y595935D03*
X682640Y586435D03*
X668640Y586435D03*
X668640Y595935D03*
D11*
X702310Y596185D03*
X702310Y586185D03*
X692785Y596185D03*
X692785Y586185D03*
X658495Y587709D03*
X658495Y597709D03*
X669210Y752475D03*
X659210Y752475D03*
X659210Y742950D03*
X669210Y742950D03*
X667385Y689690D03*
X667385Y699690D03*
X676910Y689690D03*
X676910Y699690D03*
D14*
X666750Y717423D03*
X666750Y708787D03*
D11*
X685165Y713820D03*
X685165Y723820D03*
X694690Y713820D03*
X694690Y723820D03*
X679530Y733425D03*
X689530Y733425D03*
X679530Y742950D03*
X689530Y742950D03*
X679530Y752475D03*
X689530Y752475D03*
X675640Y713820D03*
X675640Y723820D03*
X712470Y572055D03*
X712470Y562055D03*
X731520Y572055D03*
X731520Y562055D03*
X721995Y572055D03*
X721995Y562055D03*
X737950Y433070D03*
X747950Y433070D03*
D15*
X731545Y725471D03*
X741045Y725471D03*
X750545Y725471D03*
X750545Y699469D03*
X731545Y699469D03*
D11*
X668575Y462280D03*
X658575Y462280D03*
X680720Y483950D03*
X680720Y493950D03*
X750570Y739855D03*
X750570Y749855D03*
D16*
X743500Y544710D03*
X743500Y539710D03*
X743500Y534710D03*
X743500Y529710D03*
X717000Y529710D03*
X717000Y534710D03*
X717000Y539710D03*
X717000Y544710D03*
D11*
X739060Y509270D03*
X729060Y509270D03*
X739060Y518795D03*
X729060Y518795D03*
D17*
X741080Y810425D03*
X736080Y810425D03*
D18*
X751080Y785425D03*
X656080Y785425D03*
D17*
X731080Y810425D03*
X726080Y810425D03*
X721080Y810425D03*
X716080Y810425D03*
X711080Y810425D03*
X706080Y810425D03*
X701080Y810425D03*
X696080Y810425D03*
X691080Y810425D03*
X686080Y810425D03*
X681080Y810425D03*
X676080Y810425D03*
X671080Y810425D03*
X666080Y810425D03*
D19*
X750570Y589280D03*
X750570Y513080D03*
X750570Y487680D03*
X750570Y462280D03*
X750570Y665480D03*
X656590Y690880D03*
X656590Y767080D03*
X750570Y614680D03*
D20*
X726080Y452980D03*
X726080Y446480D03*
X726080Y439980D03*
X726080Y433480D03*
X681080Y433480D03*
X681080Y439980D03*
X681080Y446480D03*
X681080Y452980D03*
D11*
X681435Y466725D03*
X691435Y466725D03*
D19*
X656590Y449580D03*
D10*
X913130Y811530D03*
X819150Y416560D03*
D11*
X821770Y509905D03*
X831770Y509905D03*
D12*
X833270Y484510D03*
X826770Y484510D03*
X820270Y484510D03*
X820270Y501010D03*
X833270Y501010D03*
D11*
X831135Y471805D03*
X821135Y471805D03*
X831770Y433070D03*
X821770Y433070D03*
X893365Y611505D03*
X883365Y611505D03*
X903605Y617935D03*
X903605Y627935D03*
X886460Y621745D03*
X886460Y631745D03*
X899160Y596185D03*
X899160Y586185D03*
X880110Y596185D03*
X880110Y586185D03*
X889635Y596185D03*
X889635Y586185D03*
X848915Y530860D03*
X838915Y530860D03*
X838915Y521335D03*
X848915Y521335D03*
X830580Y632540D03*
X830580Y642540D03*
X843360Y611505D03*
X853360Y611505D03*
X832405Y615950D03*
X822405Y615950D03*
X821182Y561895D03*
X821182Y551895D03*
X854710Y572055D03*
X854710Y562055D03*
X835660Y572055D03*
X835660Y562055D03*
X845185Y572055D03*
X845185Y562055D03*
D13*
X845200Y595935D03*
X845200Y586435D03*
X831200Y586435D03*
X831200Y595935D03*
D11*
X864870Y596185D03*
X864870Y586185D03*
X855345Y596185D03*
X855345Y586185D03*
X821055Y587709D03*
X821055Y597709D03*
X831770Y752475D03*
X821770Y752475D03*
X821770Y742950D03*
X831770Y742950D03*
X829945Y689690D03*
X829945Y699690D03*
X839470Y689690D03*
X839470Y699690D03*
D14*
X829310Y717423D03*
X829310Y708787D03*
D11*
X847725Y713820D03*
X847725Y723820D03*
X857250Y713820D03*
X857250Y723820D03*
X842090Y733425D03*
X852090Y733425D03*
X842090Y742950D03*
X852090Y742950D03*
X842090Y752475D03*
X852090Y752475D03*
X838200Y713820D03*
X838200Y723820D03*
X875030Y572055D03*
X875030Y562055D03*
X894080Y572055D03*
X894080Y562055D03*
X884555Y572055D03*
X884555Y562055D03*
X900510Y433070D03*
X910510Y433070D03*
D15*
X894105Y725471D03*
X903605Y725471D03*
X913105Y725471D03*
X913105Y699469D03*
X894105Y699469D03*
D11*
X831135Y462280D03*
X821135Y462280D03*
X843280Y483950D03*
X843280Y493950D03*
X913130Y739855D03*
X913130Y749855D03*
D16*
X906060Y544710D03*
X906060Y539710D03*
X906060Y534710D03*
X906060Y529710D03*
X879560Y529710D03*
X879560Y534710D03*
X879560Y539710D03*
X879560Y544710D03*
D11*
X901620Y509270D03*
X891620Y509270D03*
X901620Y518795D03*
X891620Y518795D03*
D17*
X903640Y810425D03*
X898640Y810425D03*
D18*
X913640Y785425D03*
X818640Y785425D03*
D17*
X893640Y810425D03*
X888640Y810425D03*
X883640Y810425D03*
X878640Y810425D03*
X873640Y810425D03*
X868640Y810425D03*
X863640Y810425D03*
X858640Y810425D03*
X853640Y810425D03*
X848640Y810425D03*
X843640Y810425D03*
X838640Y810425D03*
X833640Y810425D03*
X828640Y810425D03*
D19*
X913130Y589280D03*
X913130Y513080D03*
X913130Y487680D03*
X913130Y462280D03*
X913130Y665480D03*
X819150Y690880D03*
X819150Y767080D03*
X913130Y614680D03*
D20*
X888640Y452980D03*
X888640Y446480D03*
X888640Y439980D03*
X888640Y433480D03*
X843640Y433480D03*
X843640Y439980D03*
X843640Y446480D03*
X843640Y452980D03*
D11*
X843995Y466725D03*
X853995Y466725D03*
D19*
X819150Y449580D03*
D10*
X1075690Y811530D03*
X981710Y416560D03*
D11*
X984330Y509905D03*
X994330Y509905D03*
D12*
X995830Y484510D03*
X989330Y484510D03*
X982830Y484510D03*
X982830Y501010D03*
X995830Y501010D03*
D11*
X993695Y471805D03*
X983695Y471805D03*
X994330Y433070D03*
X984330Y433070D03*
X1055925Y611505D03*
X1045925Y611505D03*
X1066165Y617935D03*
X1066165Y627935D03*
X1049020Y621745D03*
X1049020Y631745D03*
X1061720Y596185D03*
X1061720Y586185D03*
X1042670Y596185D03*
X1042670Y586185D03*
X1052195Y596185D03*
X1052195Y586185D03*
X1011475Y530860D03*
X1001475Y530860D03*
X1001475Y521335D03*
X1011475Y521335D03*
X993140Y632540D03*
X993140Y642540D03*
X1005920Y611505D03*
X1015920Y611505D03*
X994965Y615950D03*
X984965Y615950D03*
X983742Y561895D03*
X983742Y551895D03*
X1017270Y572055D03*
X1017270Y562055D03*
X998220Y572055D03*
X998220Y562055D03*
X1007745Y572055D03*
X1007745Y562055D03*
D13*
X1007760Y595935D03*
X1007760Y586435D03*
X993760Y586435D03*
X993760Y595935D03*
D11*
X1027430Y596185D03*
X1027430Y586185D03*
X1017905Y596185D03*
X1017905Y586185D03*
X983615Y587709D03*
X983615Y597709D03*
X994330Y752475D03*
X984330Y752475D03*
X984330Y742950D03*
X994330Y742950D03*
X992505Y689690D03*
X992505Y699690D03*
X1002030Y689690D03*
X1002030Y699690D03*
D14*
X991870Y717423D03*
X991870Y708787D03*
D11*
X1010285Y713820D03*
X1010285Y723820D03*
X1019810Y713820D03*
X1019810Y723820D03*
X1004650Y733425D03*
X1014650Y733425D03*
X1004650Y742950D03*
X1014650Y742950D03*
X1004650Y752475D03*
X1014650Y752475D03*
X1000760Y713820D03*
X1000760Y723820D03*
X1037590Y572055D03*
X1037590Y562055D03*
X1056640Y572055D03*
X1056640Y562055D03*
X1047115Y572055D03*
X1047115Y562055D03*
X1063070Y433070D03*
X1073070Y433070D03*
D15*
X1056665Y725471D03*
X1066165Y725471D03*
X1075665Y725471D03*
X1075665Y699469D03*
X1056665Y699469D03*
D11*
X993695Y462280D03*
X983695Y462280D03*
X1005840Y483950D03*
X1005840Y493950D03*
X1075690Y739855D03*
X1075690Y749855D03*
D16*
X1068620Y544710D03*
X1068620Y539710D03*
X1068620Y534710D03*
X1068620Y529710D03*
X1042120Y529710D03*
X1042120Y534710D03*
X1042120Y539710D03*
X1042120Y544710D03*
D11*
X1064180Y509270D03*
X1054180Y509270D03*
X1064180Y518795D03*
X1054180Y518795D03*
D17*
X1066200Y810425D03*
X1061200Y810425D03*
D18*
X1076200Y785425D03*
X981200Y785425D03*
D17*
X1056200Y810425D03*
X1051200Y810425D03*
X1046200Y810425D03*
X1041200Y810425D03*
X1036200Y810425D03*
X1031200Y810425D03*
X1026200Y810425D03*
X1021200Y810425D03*
X1016200Y810425D03*
X1011200Y810425D03*
X1006200Y810425D03*
X1001200Y810425D03*
X996200Y810425D03*
X991200Y810425D03*
D19*
X1075690Y589280D03*
X1075690Y513080D03*
X1075690Y487680D03*
X1075690Y462280D03*
X1075690Y665480D03*
X981710Y690880D03*
X981710Y767080D03*
X1075690Y614680D03*
D20*
X1051200Y452980D03*
X1051200Y446480D03*
X1051200Y439980D03*
X1051200Y433480D03*
X1006200Y433480D03*
X1006200Y439980D03*
X1006200Y446480D03*
X1006200Y452980D03*
D11*
X1006555Y466725D03*
X1016555Y466725D03*
D19*
X981710Y449580D03*
D10*
X1238250Y811530D03*
X1144270Y416560D03*
D11*
X1146890Y509905D03*
X1156890Y509905D03*
D12*
X1158390Y484510D03*
X1151890Y484510D03*
X1145390Y484510D03*
X1145390Y501010D03*
X1158390Y501010D03*
D11*
X1156255Y471805D03*
X1146255Y471805D03*
X1156890Y433070D03*
X1146890Y433070D03*
X1218485Y611505D03*
X1208485Y611505D03*
X1228725Y617935D03*
X1228725Y627935D03*
X1211580Y621745D03*
X1211580Y631745D03*
X1224280Y596185D03*
X1224280Y586185D03*
X1205230Y596185D03*
X1205230Y586185D03*
X1214755Y596185D03*
X1214755Y586185D03*
X1174035Y530860D03*
X1164035Y530860D03*
X1164035Y521335D03*
X1174035Y521335D03*
X1155700Y632540D03*
X1155700Y642540D03*
X1168480Y611505D03*
X1178480Y611505D03*
X1157525Y615950D03*
X1147525Y615950D03*
X1146302Y561895D03*
X1146302Y551895D03*
X1179830Y572055D03*
X1179830Y562055D03*
X1160780Y572055D03*
X1160780Y562055D03*
X1170305Y572055D03*
X1170305Y562055D03*
D13*
X1170320Y595935D03*
X1170320Y586435D03*
X1156320Y586435D03*
X1156320Y595935D03*
D11*
X1189990Y596185D03*
X1189990Y586185D03*
X1180465Y596185D03*
X1180465Y586185D03*
X1146175Y587709D03*
X1146175Y597709D03*
X1156890Y752475D03*
X1146890Y752475D03*
X1146890Y742950D03*
X1156890Y742950D03*
X1155065Y689690D03*
X1155065Y699690D03*
X1164590Y689690D03*
X1164590Y699690D03*
D14*
X1154430Y717423D03*
X1154430Y708787D03*
D11*
X1172845Y713820D03*
X1172845Y723820D03*
X1182370Y713820D03*
X1182370Y723820D03*
X1167210Y733425D03*
X1177210Y733425D03*
X1167210Y742950D03*
X1177210Y742950D03*
X1167210Y752475D03*
X1177210Y752475D03*
X1163320Y713820D03*
X1163320Y723820D03*
X1200150Y572055D03*
X1200150Y562055D03*
X1219200Y572055D03*
X1219200Y562055D03*
X1209675Y572055D03*
X1209675Y562055D03*
X1225630Y433070D03*
X1235630Y433070D03*
D15*
X1219225Y725471D03*
X1228725Y725471D03*
X1238225Y725471D03*
X1238225Y699469D03*
X1219225Y699469D03*
D11*
X1156255Y462280D03*
X1146255Y462280D03*
X1168400Y483950D03*
X1168400Y493950D03*
X1238250Y739855D03*
X1238250Y749855D03*
D16*
X1231180Y544710D03*
X1231180Y539710D03*
X1231180Y534710D03*
X1231180Y529710D03*
X1204680Y529710D03*
X1204680Y534710D03*
X1204680Y539710D03*
X1204680Y544710D03*
D11*
X1226740Y509270D03*
X1216740Y509270D03*
X1226740Y518795D03*
X1216740Y518795D03*
D17*
X1228760Y810425D03*
X1223760Y810425D03*
D18*
X1238760Y785425D03*
X1143760Y785425D03*
D17*
X1218760Y810425D03*
X1213760Y810425D03*
X1208760Y810425D03*
X1203760Y810425D03*
X1198760Y810425D03*
X1193760Y810425D03*
X1188760Y810425D03*
X1183760Y810425D03*
X1178760Y810425D03*
X1173760Y810425D03*
X1168760Y810425D03*
X1163760Y810425D03*
X1158760Y810425D03*
X1153760Y810425D03*
D19*
X1238250Y589280D03*
X1238250Y513080D03*
X1238250Y487680D03*
X1238250Y462280D03*
X1238250Y665480D03*
X1144270Y690880D03*
X1144270Y767080D03*
X1238250Y614680D03*
D20*
X1213760Y452980D03*
X1213760Y446480D03*
X1213760Y439980D03*
X1213760Y433480D03*
X1168760Y433480D03*
X1168760Y439980D03*
X1168760Y446480D03*
X1168760Y452980D03*
D11*
X1169115Y466725D03*
X1179115Y466725D03*
D19*
X1144270Y449580D03*
D10*
X1400810Y811530D03*
X1306830Y416560D03*
D11*
X1309450Y509905D03*
X1319450Y509905D03*
D12*
X1320950Y484510D03*
X1314450Y484510D03*
X1307950Y484510D03*
X1307950Y501010D03*
X1320950Y501010D03*
D11*
X1318815Y471805D03*
X1308815Y471805D03*
X1319450Y433070D03*
X1309450Y433070D03*
X1381045Y611505D03*
X1371045Y611505D03*
X1391285Y617935D03*
X1391285Y627935D03*
X1374140Y621745D03*
X1374140Y631745D03*
X1386840Y596185D03*
X1386840Y586185D03*
X1367790Y596185D03*
X1367790Y586185D03*
X1377315Y596185D03*
X1377315Y586185D03*
X1336595Y530860D03*
X1326595Y530860D03*
X1326595Y521335D03*
X1336595Y521335D03*
X1318260Y632540D03*
X1318260Y642540D03*
X1331040Y611505D03*
X1341040Y611505D03*
X1320085Y615950D03*
X1310085Y615950D03*
X1308862Y561895D03*
X1308862Y551895D03*
X1342390Y572055D03*
X1342390Y562055D03*
X1323340Y572055D03*
X1323340Y562055D03*
X1332865Y572055D03*
X1332865Y562055D03*
D13*
X1332880Y595935D03*
X1332880Y586435D03*
X1318880Y586435D03*
X1318880Y595935D03*
D11*
X1352550Y596185D03*
X1352550Y586185D03*
X1343025Y596185D03*
X1343025Y586185D03*
X1308735Y587709D03*
X1308735Y597709D03*
X1319450Y752475D03*
X1309450Y752475D03*
X1309450Y742950D03*
X1319450Y742950D03*
X1317625Y689690D03*
X1317625Y699690D03*
X1327150Y689690D03*
X1327150Y699690D03*
D14*
X1316990Y717423D03*
X1316990Y708787D03*
D11*
X1335405Y713820D03*
X1335405Y723820D03*
X1344930Y713820D03*
X1344930Y723820D03*
X1329770Y733425D03*
X1339770Y733425D03*
X1329770Y742950D03*
X1339770Y742950D03*
X1329770Y752475D03*
X1339770Y752475D03*
X1325880Y713820D03*
X1325880Y723820D03*
X1362710Y572055D03*
X1362710Y562055D03*
X1381760Y572055D03*
X1381760Y562055D03*
X1372235Y572055D03*
X1372235Y562055D03*
X1388190Y433070D03*
X1398190Y433070D03*
D15*
X1381785Y725471D03*
X1391285Y725471D03*
X1400785Y725471D03*
X1400785Y699469D03*
X1381785Y699469D03*
D11*
X1318815Y462280D03*
X1308815Y462280D03*
X1330960Y483950D03*
X1330960Y493950D03*
X1400810Y739855D03*
X1400810Y749855D03*
D16*
X1393740Y544710D03*
X1393740Y539710D03*
X1393740Y534710D03*
X1393740Y529710D03*
X1367240Y529710D03*
X1367240Y534710D03*
X1367240Y539710D03*
X1367240Y544710D03*
D11*
X1389300Y509270D03*
X1379300Y509270D03*
X1389300Y518795D03*
X1379300Y518795D03*
D17*
X1391320Y810425D03*
X1386320Y810425D03*
D18*
X1401320Y785425D03*
X1306320Y785425D03*
D17*
X1381320Y810425D03*
X1376320Y810425D03*
X1371320Y810425D03*
X1366320Y810425D03*
X1361320Y810425D03*
X1356320Y810425D03*
X1351320Y810425D03*
X1346320Y810425D03*
X1341320Y810425D03*
X1336320Y810425D03*
X1331320Y810425D03*
X1326320Y810425D03*
X1321320Y810425D03*
X1316320Y810425D03*
D19*
X1400810Y589280D03*
X1400810Y513080D03*
X1400810Y487680D03*
X1400810Y462280D03*
X1400810Y665480D03*
X1306830Y690880D03*
X1306830Y767080D03*
X1400810Y614680D03*
D20*
X1376320Y452980D03*
X1376320Y446480D03*
X1376320Y439980D03*
X1376320Y433480D03*
X1331320Y433480D03*
X1331320Y439980D03*
X1331320Y446480D03*
X1331320Y452980D03*
D11*
X1331675Y466725D03*
X1341675Y466725D03*
D19*
X1306830Y449580D03*
D10*
X1563370Y811530D03*
X1469390Y416560D03*
D11*
X1472010Y509905D03*
X1482010Y509905D03*
D12*
X1483510Y484510D03*
X1477010Y484510D03*
X1470510Y484510D03*
X1470510Y501010D03*
X1483510Y501010D03*
D11*
X1481375Y471805D03*
X1471375Y471805D03*
X1482010Y433070D03*
X1472010Y433070D03*
X1543605Y611505D03*
X1533605Y611505D03*
X1553845Y617935D03*
X1553845Y627935D03*
X1536700Y621745D03*
X1536700Y631745D03*
X1549400Y596185D03*
X1549400Y586185D03*
X1530350Y596185D03*
X1530350Y586185D03*
X1539875Y596185D03*
X1539875Y586185D03*
X1499155Y530860D03*
X1489155Y530860D03*
X1489155Y521335D03*
X1499155Y521335D03*
X1480820Y632540D03*
X1480820Y642540D03*
X1493600Y611505D03*
X1503600Y611505D03*
X1482645Y615950D03*
X1472645Y615950D03*
X1471422Y561895D03*
X1471422Y551895D03*
X1504950Y572055D03*
X1504950Y562055D03*
X1485900Y572055D03*
X1485900Y562055D03*
X1495425Y572055D03*
X1495425Y562055D03*
D13*
X1495440Y595935D03*
X1495440Y586435D03*
X1481440Y586435D03*
X1481440Y595935D03*
D11*
X1515110Y596185D03*
X1515110Y586185D03*
X1505585Y596185D03*
X1505585Y586185D03*
X1471295Y587709D03*
X1471295Y597709D03*
X1482010Y752475D03*
X1472010Y752475D03*
X1472010Y742950D03*
X1482010Y742950D03*
X1480185Y689690D03*
X1480185Y699690D03*
X1489710Y689690D03*
X1489710Y699690D03*
D14*
X1479550Y717423D03*
X1479550Y708787D03*
D11*
X1497965Y713820D03*
X1497965Y723820D03*
X1507490Y713820D03*
X1507490Y723820D03*
X1492330Y733425D03*
X1502330Y733425D03*
X1492330Y742950D03*
X1502330Y742950D03*
X1492330Y752475D03*
X1502330Y752475D03*
X1488440Y713820D03*
X1488440Y723820D03*
X1525270Y572055D03*
X1525270Y562055D03*
X1544320Y572055D03*
X1544320Y562055D03*
X1534795Y572055D03*
X1534795Y562055D03*
X1550750Y433070D03*
X1560750Y433070D03*
D15*
X1544345Y725471D03*
X1553845Y725471D03*
X1563345Y725471D03*
X1563345Y699469D03*
X1544345Y699469D03*
D11*
X1481375Y462280D03*
X1471375Y462280D03*
X1493520Y483950D03*
X1493520Y493950D03*
X1563370Y739855D03*
X1563370Y749855D03*
D16*
X1556300Y544710D03*
X1556300Y539710D03*
X1556300Y534710D03*
X1556300Y529710D03*
X1529800Y529710D03*
X1529800Y534710D03*
X1529800Y539710D03*
X1529800Y544710D03*
D11*
X1551860Y509270D03*
X1541860Y509270D03*
X1551860Y518795D03*
X1541860Y518795D03*
D17*
X1553880Y810425D03*
X1548880Y810425D03*
D18*
X1563880Y785425D03*
X1468880Y785425D03*
D17*
X1543880Y810425D03*
X1538880Y810425D03*
X1533880Y810425D03*
X1528880Y810425D03*
X1523880Y810425D03*
X1518880Y810425D03*
X1513880Y810425D03*
X1508880Y810425D03*
X1503880Y810425D03*
X1498880Y810425D03*
X1493880Y810425D03*
X1488880Y810425D03*
X1483880Y810425D03*
X1478880Y810425D03*
D19*
X1563370Y589280D03*
X1563370Y513080D03*
X1563370Y487680D03*
X1563370Y462280D03*
X1563370Y665480D03*
X1469390Y690880D03*
X1469390Y767080D03*
X1563370Y614680D03*
D20*
X1538880Y452980D03*
X1538880Y446480D03*
X1538880Y439980D03*
X1538880Y433480D03*
X1493880Y433480D03*
X1493880Y439980D03*
X1493880Y446480D03*
X1493880Y452980D03*
D11*
X1494235Y466725D03*
X1504235Y466725D03*
D19*
X1469390Y449580D03*
D10*
X100330Y1223010D03*
X6350Y828040D03*
D11*
X8970Y921385D03*
X18970Y921385D03*
D12*
X20470Y895990D03*
X13970Y895990D03*
X7470Y895990D03*
X7470Y912490D03*
X20470Y912490D03*
D11*
X18335Y883285D03*
X8335Y883285D03*
X18970Y844550D03*
X8970Y844550D03*
X80565Y1022985D03*
X70565Y1022985D03*
X90805Y1029415D03*
X90805Y1039415D03*
X73660Y1033225D03*
X73660Y1043225D03*
X86360Y1007665D03*
X86360Y997665D03*
X67310Y1007665D03*
X67310Y997665D03*
X76835Y1007665D03*
X76835Y997665D03*
X36115Y942340D03*
X26115Y942340D03*
X26115Y932815D03*
X36115Y932815D03*
X17780Y1044020D03*
X17780Y1054020D03*
X30560Y1022985D03*
X40560Y1022985D03*
X19605Y1027430D03*
X9605Y1027430D03*
X8382Y973375D03*
X8382Y963375D03*
X41910Y983535D03*
X41910Y973535D03*
X22860Y983535D03*
X22860Y973535D03*
X32385Y983535D03*
X32385Y973535D03*
D13*
X32400Y1007415D03*
X32400Y997915D03*
X18400Y997915D03*
X18400Y1007415D03*
D11*
X52070Y1007665D03*
X52070Y997665D03*
X42545Y1007665D03*
X42545Y997665D03*
X8255Y999189D03*
X8255Y1009189D03*
X18970Y1163955D03*
X8970Y1163955D03*
X8970Y1154430D03*
X18970Y1154430D03*
X17145Y1101170D03*
X17145Y1111170D03*
X26670Y1101170D03*
X26670Y1111170D03*
D14*
X16510Y1128903D03*
X16510Y1120267D03*
D11*
X34925Y1125300D03*
X34925Y1135300D03*
X44450Y1125300D03*
X44450Y1135300D03*
X29290Y1144905D03*
X39290Y1144905D03*
X29290Y1154430D03*
X39290Y1154430D03*
X29290Y1163955D03*
X39290Y1163955D03*
X25400Y1125300D03*
X25400Y1135300D03*
X62230Y983535D03*
X62230Y973535D03*
X81280Y983535D03*
X81280Y973535D03*
X71755Y983535D03*
X71755Y973535D03*
X87710Y844550D03*
X97710Y844550D03*
D15*
X81305Y1136951D03*
X90805Y1136951D03*
X100305Y1136951D03*
X100305Y1110949D03*
X81305Y1110949D03*
D11*
X18335Y873760D03*
X8335Y873760D03*
X30480Y895430D03*
X30480Y905430D03*
X100330Y1151335D03*
X100330Y1161335D03*
D16*
X93260Y956190D03*
X93260Y951190D03*
X93260Y946190D03*
X93260Y941190D03*
X66760Y941190D03*
X66760Y946190D03*
X66760Y951190D03*
X66760Y956190D03*
D11*
X88820Y920750D03*
X78820Y920750D03*
X88820Y930275D03*
X78820Y930275D03*
D17*
X90840Y1221905D03*
X85840Y1221905D03*
D18*
X100840Y1196905D03*
X5840Y1196905D03*
D17*
X80840Y1221905D03*
X75840Y1221905D03*
X70840Y1221905D03*
X65840Y1221905D03*
X60840Y1221905D03*
X55840Y1221905D03*
X50840Y1221905D03*
X45840Y1221905D03*
X40840Y1221905D03*
X35840Y1221905D03*
X30840Y1221905D03*
X25840Y1221905D03*
X20840Y1221905D03*
X15840Y1221905D03*
D19*
X100330Y1000760D03*
X100330Y924560D03*
X100330Y899160D03*
X100330Y873760D03*
X100330Y1076960D03*
X6350Y1102360D03*
X6350Y1178560D03*
X100330Y1026160D03*
D20*
X75840Y864460D03*
X75840Y857960D03*
X75840Y851460D03*
X75840Y844960D03*
X30840Y844960D03*
X30840Y851460D03*
X30840Y857960D03*
X30840Y864460D03*
D11*
X31195Y878205D03*
X41195Y878205D03*
D19*
X6350Y861060D03*
D10*
X262890Y1223010D03*
X168910Y828040D03*
D11*
X171530Y921385D03*
X181530Y921385D03*
D12*
X183030Y895990D03*
X176530Y895990D03*
X170030Y895990D03*
X170030Y912490D03*
X183030Y912490D03*
D11*
X180895Y883285D03*
X170895Y883285D03*
X181530Y844550D03*
X171530Y844550D03*
X243125Y1022985D03*
X233125Y1022985D03*
X253365Y1029415D03*
X253365Y1039415D03*
X236220Y1033225D03*
X236220Y1043225D03*
X248920Y1007665D03*
X248920Y997665D03*
X229870Y1007665D03*
X229870Y997665D03*
X239395Y1007665D03*
X239395Y997665D03*
X198675Y942340D03*
X188675Y942340D03*
X188675Y932815D03*
X198675Y932815D03*
X180340Y1044020D03*
X180340Y1054020D03*
X193120Y1022985D03*
X203120Y1022985D03*
X182165Y1027430D03*
X172165Y1027430D03*
X170942Y973375D03*
X170942Y963375D03*
X204470Y983535D03*
X204470Y973535D03*
X185420Y983535D03*
X185420Y973535D03*
X194945Y983535D03*
X194945Y973535D03*
D13*
X194960Y1007415D03*
X194960Y997915D03*
X180960Y997915D03*
X180960Y1007415D03*
D11*
X214630Y1007665D03*
X214630Y997665D03*
X205105Y1007665D03*
X205105Y997665D03*
X170815Y999189D03*
X170815Y1009189D03*
X181530Y1163955D03*
X171530Y1163955D03*
X171530Y1154430D03*
X181530Y1154430D03*
X179705Y1101170D03*
X179705Y1111170D03*
X189230Y1101170D03*
X189230Y1111170D03*
D14*
X179070Y1128903D03*
X179070Y1120267D03*
D11*
X197485Y1125300D03*
X197485Y1135300D03*
X207010Y1125300D03*
X207010Y1135300D03*
X191850Y1144905D03*
X201850Y1144905D03*
X191850Y1154430D03*
X201850Y1154430D03*
X191850Y1163955D03*
X201850Y1163955D03*
X187960Y1125300D03*
X187960Y1135300D03*
X224790Y983535D03*
X224790Y973535D03*
X243840Y983535D03*
X243840Y973535D03*
X234315Y983535D03*
X234315Y973535D03*
X250270Y844550D03*
X260270Y844550D03*
D15*
X243865Y1136951D03*
X253365Y1136951D03*
X262865Y1136951D03*
X262865Y1110949D03*
X243865Y1110949D03*
D11*
X180895Y873760D03*
X170895Y873760D03*
X193040Y895430D03*
X193040Y905430D03*
X262890Y1151335D03*
X262890Y1161335D03*
D16*
X255820Y956190D03*
X255820Y951190D03*
X255820Y946190D03*
X255820Y941190D03*
X229320Y941190D03*
X229320Y946190D03*
X229320Y951190D03*
X229320Y956190D03*
D11*
X251380Y920750D03*
X241380Y920750D03*
X251380Y930275D03*
X241380Y930275D03*
D17*
X253400Y1221905D03*
X248400Y1221905D03*
D18*
X263400Y1196905D03*
X168400Y1196905D03*
D17*
X243400Y1221905D03*
X238400Y1221905D03*
X233400Y1221905D03*
X228400Y1221905D03*
X223400Y1221905D03*
X218400Y1221905D03*
X213400Y1221905D03*
X208400Y1221905D03*
X203400Y1221905D03*
X198400Y1221905D03*
X193400Y1221905D03*
X188400Y1221905D03*
X183400Y1221905D03*
X178400Y1221905D03*
D19*
X262890Y1000760D03*
X262890Y924560D03*
X262890Y899160D03*
X262890Y873760D03*
X262890Y1076960D03*
X168910Y1102360D03*
X168910Y1178560D03*
X262890Y1026160D03*
D20*
X238400Y864460D03*
X238400Y857960D03*
X238400Y851460D03*
X238400Y844960D03*
X193400Y844960D03*
X193400Y851460D03*
X193400Y857960D03*
X193400Y864460D03*
D11*
X193755Y878205D03*
X203755Y878205D03*
D19*
X168910Y861060D03*
D10*
X425450Y1223010D03*
X331470Y828040D03*
D11*
X334090Y921385D03*
X344090Y921385D03*
D12*
X345590Y895990D03*
X339090Y895990D03*
X332590Y895990D03*
X332590Y912490D03*
X345590Y912490D03*
D11*
X343455Y883285D03*
X333455Y883285D03*
X344090Y844550D03*
X334090Y844550D03*
X405685Y1022985D03*
X395685Y1022985D03*
X415925Y1029415D03*
X415925Y1039415D03*
X398780Y1033225D03*
X398780Y1043225D03*
X411480Y1007665D03*
X411480Y997665D03*
X392430Y1007665D03*
X392430Y997665D03*
X401955Y1007665D03*
X401955Y997665D03*
X361235Y942340D03*
X351235Y942340D03*
X351235Y932815D03*
X361235Y932815D03*
X342900Y1044020D03*
X342900Y1054020D03*
X355680Y1022985D03*
X365680Y1022985D03*
X344725Y1027430D03*
X334725Y1027430D03*
X333502Y973375D03*
X333502Y963375D03*
X367030Y983535D03*
X367030Y973535D03*
X347980Y983535D03*
X347980Y973535D03*
X357505Y983535D03*
X357505Y973535D03*
D13*
X357520Y1007415D03*
X357520Y997915D03*
X343520Y997915D03*
X343520Y1007415D03*
D11*
X377190Y1007665D03*
X377190Y997665D03*
X367665Y1007665D03*
X367665Y997665D03*
X333375Y999189D03*
X333375Y1009189D03*
X344090Y1163955D03*
X334090Y1163955D03*
X334090Y1154430D03*
X344090Y1154430D03*
X342265Y1101170D03*
X342265Y1111170D03*
X351790Y1101170D03*
X351790Y1111170D03*
D14*
X341630Y1128903D03*
X341630Y1120267D03*
D11*
X360045Y1125300D03*
X360045Y1135300D03*
X369570Y1125300D03*
X369570Y1135300D03*
X354410Y1144905D03*
X364410Y1144905D03*
X354410Y1154430D03*
X364410Y1154430D03*
X354410Y1163955D03*
X364410Y1163955D03*
X350520Y1125300D03*
X350520Y1135300D03*
X387350Y983535D03*
X387350Y973535D03*
X406400Y983535D03*
X406400Y973535D03*
X396875Y983535D03*
X396875Y973535D03*
X412830Y844550D03*
X422830Y844550D03*
D15*
X406425Y1136951D03*
X415925Y1136951D03*
X425425Y1136951D03*
X425425Y1110949D03*
X406425Y1110949D03*
D11*
X343455Y873760D03*
X333455Y873760D03*
X355600Y895430D03*
X355600Y905430D03*
X425450Y1151335D03*
X425450Y1161335D03*
D16*
X418380Y956190D03*
X418380Y951190D03*
X418380Y946190D03*
X418380Y941190D03*
X391880Y941190D03*
X391880Y946190D03*
X391880Y951190D03*
X391880Y956190D03*
D11*
X413940Y920750D03*
X403940Y920750D03*
X413940Y930275D03*
X403940Y930275D03*
D17*
X415960Y1221905D03*
X410960Y1221905D03*
D18*
X425960Y1196905D03*
X330960Y1196905D03*
D17*
X405960Y1221905D03*
X400960Y1221905D03*
X395960Y1221905D03*
X390960Y1221905D03*
X385960Y1221905D03*
X380960Y1221905D03*
X375960Y1221905D03*
X370960Y1221905D03*
X365960Y1221905D03*
X360960Y1221905D03*
X355960Y1221905D03*
X350960Y1221905D03*
X345960Y1221905D03*
X340960Y1221905D03*
D19*
X425450Y1000760D03*
X425450Y924560D03*
X425450Y899160D03*
X425450Y873760D03*
X425450Y1076960D03*
X331470Y1102360D03*
X331470Y1178560D03*
X425450Y1026160D03*
D20*
X400960Y864460D03*
X400960Y857960D03*
X400960Y851460D03*
X400960Y844960D03*
X355960Y844960D03*
X355960Y851460D03*
X355960Y857960D03*
X355960Y864460D03*
D11*
X356315Y878205D03*
X366315Y878205D03*
D19*
X331470Y861060D03*
D10*
X588010Y1223010D03*
X494030Y828040D03*
D11*
X496650Y921385D03*
X506650Y921385D03*
D12*
X508150Y895990D03*
X501650Y895990D03*
X495150Y895990D03*
X495150Y912490D03*
X508150Y912490D03*
D11*
X506015Y883285D03*
X496015Y883285D03*
X506650Y844550D03*
X496650Y844550D03*
X568245Y1022985D03*
X558245Y1022985D03*
X578485Y1029415D03*
X578485Y1039415D03*
X561340Y1033225D03*
X561340Y1043225D03*
X574040Y1007665D03*
X574040Y997665D03*
X554990Y1007665D03*
X554990Y997665D03*
X564515Y1007665D03*
X564515Y997665D03*
X523795Y942340D03*
X513795Y942340D03*
X513795Y932815D03*
X523795Y932815D03*
X505460Y1044020D03*
X505460Y1054020D03*
X518240Y1022985D03*
X528240Y1022985D03*
X507285Y1027430D03*
X497285Y1027430D03*
X496062Y973375D03*
X496062Y963375D03*
X529590Y983535D03*
X529590Y973535D03*
X510540Y983535D03*
X510540Y973535D03*
X520065Y983535D03*
X520065Y973535D03*
D13*
X520080Y1007415D03*
X520080Y997915D03*
X506080Y997915D03*
X506080Y1007415D03*
D11*
X539750Y1007665D03*
X539750Y997665D03*
X530225Y1007665D03*
X530225Y997665D03*
X495935Y999189D03*
X495935Y1009189D03*
X506650Y1163955D03*
X496650Y1163955D03*
X496650Y1154430D03*
X506650Y1154430D03*
X504825Y1101170D03*
X504825Y1111170D03*
X514350Y1101170D03*
X514350Y1111170D03*
D14*
X504190Y1128903D03*
X504190Y1120267D03*
D11*
X522605Y1125300D03*
X522605Y1135300D03*
X532130Y1125300D03*
X532130Y1135300D03*
X516970Y1144905D03*
X526970Y1144905D03*
X516970Y1154430D03*
X526970Y1154430D03*
X516970Y1163955D03*
X526970Y1163955D03*
X513080Y1125300D03*
X513080Y1135300D03*
X549910Y983535D03*
X549910Y973535D03*
X568960Y983535D03*
X568960Y973535D03*
X559435Y983535D03*
X559435Y973535D03*
X575390Y844550D03*
X585390Y844550D03*
D15*
X568985Y1136951D03*
X578485Y1136951D03*
X587985Y1136951D03*
X587985Y1110949D03*
X568985Y1110949D03*
D11*
X506015Y873760D03*
X496015Y873760D03*
X518160Y895430D03*
X518160Y905430D03*
X588010Y1151335D03*
X588010Y1161335D03*
D16*
X580940Y956190D03*
X580940Y951190D03*
X580940Y946190D03*
X580940Y941190D03*
X554440Y941190D03*
X554440Y946190D03*
X554440Y951190D03*
X554440Y956190D03*
D11*
X576500Y920750D03*
X566500Y920750D03*
X576500Y930275D03*
X566500Y930275D03*
D17*
X578520Y1221905D03*
X573520Y1221905D03*
D18*
X588520Y1196905D03*
X493520Y1196905D03*
D17*
X568520Y1221905D03*
X563520Y1221905D03*
X558520Y1221905D03*
X553520Y1221905D03*
X548520Y1221905D03*
X543520Y1221905D03*
X538520Y1221905D03*
X533520Y1221905D03*
X528520Y1221905D03*
X523520Y1221905D03*
X518520Y1221905D03*
X513520Y1221905D03*
X508520Y1221905D03*
X503520Y1221905D03*
D19*
X588010Y1000760D03*
X588010Y924560D03*
X588010Y899160D03*
X588010Y873760D03*
X588010Y1076960D03*
X494030Y1102360D03*
X494030Y1178560D03*
X588010Y1026160D03*
D20*
X563520Y864460D03*
X563520Y857960D03*
X563520Y851460D03*
X563520Y844960D03*
X518520Y844960D03*
X518520Y851460D03*
X518520Y857960D03*
X518520Y864460D03*
D11*
X518875Y878205D03*
X528875Y878205D03*
D19*
X494030Y861060D03*
D10*
X750570Y1223010D03*
X656590Y828040D03*
D11*
X659210Y921385D03*
X669210Y921385D03*
D12*
X670710Y895990D03*
X664210Y895990D03*
X657710Y895990D03*
X657710Y912490D03*
X670710Y912490D03*
D11*
X668575Y883285D03*
X658575Y883285D03*
X669210Y844550D03*
X659210Y844550D03*
X730805Y1022985D03*
X720805Y1022985D03*
X741045Y1029415D03*
X741045Y1039415D03*
X723900Y1033225D03*
X723900Y1043225D03*
X736600Y1007665D03*
X736600Y997665D03*
X717550Y1007665D03*
X717550Y997665D03*
X727075Y1007665D03*
X727075Y997665D03*
X686355Y942340D03*
X676355Y942340D03*
X676355Y932815D03*
X686355Y932815D03*
X668020Y1044020D03*
X668020Y1054020D03*
X680800Y1022985D03*
X690800Y1022985D03*
X669845Y1027430D03*
X659845Y1027430D03*
X658622Y973375D03*
X658622Y963375D03*
X692150Y983535D03*
X692150Y973535D03*
X673100Y983535D03*
X673100Y973535D03*
X682625Y983535D03*
X682625Y973535D03*
D13*
X682640Y1007415D03*
X682640Y997915D03*
X668640Y997915D03*
X668640Y1007415D03*
D11*
X702310Y1007665D03*
X702310Y997665D03*
X692785Y1007665D03*
X692785Y997665D03*
X658495Y999189D03*
X658495Y1009189D03*
X669210Y1163955D03*
X659210Y1163955D03*
X659210Y1154430D03*
X669210Y1154430D03*
X667385Y1101170D03*
X667385Y1111170D03*
X676910Y1101170D03*
X676910Y1111170D03*
D14*
X666750Y1128903D03*
X666750Y1120267D03*
D11*
X685165Y1125300D03*
X685165Y1135300D03*
X694690Y1125300D03*
X694690Y1135300D03*
X679530Y1144905D03*
X689530Y1144905D03*
X679530Y1154430D03*
X689530Y1154430D03*
X679530Y1163955D03*
X689530Y1163955D03*
X675640Y1125300D03*
X675640Y1135300D03*
X712470Y983535D03*
X712470Y973535D03*
X731520Y983535D03*
X731520Y973535D03*
X721995Y983535D03*
X721995Y973535D03*
X737950Y844550D03*
X747950Y844550D03*
D15*
X731545Y1136951D03*
X741045Y1136951D03*
X750545Y1136951D03*
X750545Y1110949D03*
X731545Y1110949D03*
D11*
X668575Y873760D03*
X658575Y873760D03*
X680720Y895430D03*
X680720Y905430D03*
X750570Y1151335D03*
X750570Y1161335D03*
D16*
X743500Y956190D03*
X743500Y951190D03*
X743500Y946190D03*
X743500Y941190D03*
X717000Y941190D03*
X717000Y946190D03*
X717000Y951190D03*
X717000Y956190D03*
D11*
X739060Y920750D03*
X729060Y920750D03*
X739060Y930275D03*
X729060Y930275D03*
D17*
X741080Y1221905D03*
X736080Y1221905D03*
D18*
X751080Y1196905D03*
X656080Y1196905D03*
D17*
X731080Y1221905D03*
X726080Y1221905D03*
X721080Y1221905D03*
X716080Y1221905D03*
X711080Y1221905D03*
X706080Y1221905D03*
X701080Y1221905D03*
X696080Y1221905D03*
X691080Y1221905D03*
X686080Y1221905D03*
X681080Y1221905D03*
X676080Y1221905D03*
X671080Y1221905D03*
X666080Y1221905D03*
D19*
X750570Y1000760D03*
X750570Y924560D03*
X750570Y899160D03*
X750570Y873760D03*
X750570Y1076960D03*
X656590Y1102360D03*
X656590Y1178560D03*
X750570Y1026160D03*
D20*
X726080Y864460D03*
X726080Y857960D03*
X726080Y851460D03*
X726080Y844960D03*
X681080Y844960D03*
X681080Y851460D03*
X681080Y857960D03*
X681080Y864460D03*
D11*
X681435Y878205D03*
X691435Y878205D03*
D19*
X656590Y861060D03*
D10*
X913130Y1223010D03*
X819150Y828040D03*
D11*
X821770Y921385D03*
X831770Y921385D03*
D12*
X833270Y895990D03*
X826770Y895990D03*
X820270Y895990D03*
X820270Y912490D03*
X833270Y912490D03*
D11*
X831135Y883285D03*
X821135Y883285D03*
X831770Y844550D03*
X821770Y844550D03*
X893365Y1022985D03*
X883365Y1022985D03*
X903605Y1029415D03*
X903605Y1039415D03*
X886460Y1033225D03*
X886460Y1043225D03*
X899160Y1007665D03*
X899160Y997665D03*
X880110Y1007665D03*
X880110Y997665D03*
X889635Y1007665D03*
X889635Y997665D03*
X848915Y942340D03*
X838915Y942340D03*
X838915Y932815D03*
X848915Y932815D03*
X830580Y1044020D03*
X830580Y1054020D03*
X843360Y1022985D03*
X853360Y1022985D03*
X832405Y1027430D03*
X822405Y1027430D03*
X821182Y973375D03*
X821182Y963375D03*
X854710Y983535D03*
X854710Y973535D03*
X835660Y983535D03*
X835660Y973535D03*
X845185Y983535D03*
X845185Y973535D03*
D13*
X845200Y1007415D03*
X845200Y997915D03*
X831200Y997915D03*
X831200Y1007415D03*
D11*
X864870Y1007665D03*
X864870Y997665D03*
X855345Y1007665D03*
X855345Y997665D03*
X821055Y999189D03*
X821055Y1009189D03*
X831770Y1163955D03*
X821770Y1163955D03*
X821770Y1154430D03*
X831770Y1154430D03*
X829945Y1101170D03*
X829945Y1111170D03*
X839470Y1101170D03*
X839470Y1111170D03*
D14*
X829310Y1128903D03*
X829310Y1120267D03*
D11*
X847725Y1125300D03*
X847725Y1135300D03*
X857250Y1125300D03*
X857250Y1135300D03*
X842090Y1144905D03*
X852090Y1144905D03*
X842090Y1154430D03*
X852090Y1154430D03*
X842090Y1163955D03*
X852090Y1163955D03*
X838200Y1125300D03*
X838200Y1135300D03*
X875030Y983535D03*
X875030Y973535D03*
X894080Y983535D03*
X894080Y973535D03*
X884555Y983535D03*
X884555Y973535D03*
X900510Y844550D03*
X910510Y844550D03*
D15*
X894105Y1136951D03*
X903605Y1136951D03*
X913105Y1136951D03*
X913105Y1110949D03*
X894105Y1110949D03*
D11*
X831135Y873760D03*
X821135Y873760D03*
X843280Y895430D03*
X843280Y905430D03*
X913130Y1151335D03*
X913130Y1161335D03*
D16*
X906060Y956190D03*
X906060Y951190D03*
X906060Y946190D03*
X906060Y941190D03*
X879560Y941190D03*
X879560Y946190D03*
X879560Y951190D03*
X879560Y956190D03*
D11*
X901620Y920750D03*
X891620Y920750D03*
X901620Y930275D03*
X891620Y930275D03*
D17*
X903640Y1221905D03*
X898640Y1221905D03*
D18*
X913640Y1196905D03*
X818640Y1196905D03*
D17*
X893640Y1221905D03*
X888640Y1221905D03*
X883640Y1221905D03*
X878640Y1221905D03*
X873640Y1221905D03*
X868640Y1221905D03*
X863640Y1221905D03*
X858640Y1221905D03*
X853640Y1221905D03*
X848640Y1221905D03*
X843640Y1221905D03*
X838640Y1221905D03*
X833640Y1221905D03*
X828640Y1221905D03*
D19*
X913130Y1000760D03*
X913130Y924560D03*
X913130Y899160D03*
X913130Y873760D03*
X913130Y1076960D03*
X819150Y1102360D03*
X819150Y1178560D03*
X913130Y1026160D03*
D20*
X888640Y864460D03*
X888640Y857960D03*
X888640Y851460D03*
X888640Y844960D03*
X843640Y844960D03*
X843640Y851460D03*
X843640Y857960D03*
X843640Y864460D03*
D11*
X843995Y878205D03*
X853995Y878205D03*
D19*
X819150Y861060D03*
D10*
X1075690Y1223010D03*
X981710Y828040D03*
D11*
X984330Y921385D03*
X994330Y921385D03*
D12*
X995830Y895990D03*
X989330Y895990D03*
X982830Y895990D03*
X982830Y912490D03*
X995830Y912490D03*
D11*
X993695Y883285D03*
X983695Y883285D03*
X994330Y844550D03*
X984330Y844550D03*
X1055925Y1022985D03*
X1045925Y1022985D03*
X1066165Y1029415D03*
X1066165Y1039415D03*
X1049020Y1033225D03*
X1049020Y1043225D03*
X1061720Y1007665D03*
X1061720Y997665D03*
X1042670Y1007665D03*
X1042670Y997665D03*
X1052195Y1007665D03*
X1052195Y997665D03*
X1011475Y942340D03*
X1001475Y942340D03*
X1001475Y932815D03*
X1011475Y932815D03*
X993140Y1044020D03*
X993140Y1054020D03*
X1005920Y1022985D03*
X1015920Y1022985D03*
X994965Y1027430D03*
X984965Y1027430D03*
X983742Y973375D03*
X983742Y963375D03*
X1017270Y983535D03*
X1017270Y973535D03*
X998220Y983535D03*
X998220Y973535D03*
X1007745Y983535D03*
X1007745Y973535D03*
D13*
X1007760Y1007415D03*
X1007760Y997915D03*
X993760Y997915D03*
X993760Y1007415D03*
D11*
X1027430Y1007665D03*
X1027430Y997665D03*
X1017905Y1007665D03*
X1017905Y997665D03*
X983615Y999189D03*
X983615Y1009189D03*
X994330Y1163955D03*
X984330Y1163955D03*
X984330Y1154430D03*
X994330Y1154430D03*
X992505Y1101170D03*
X992505Y1111170D03*
X1002030Y1101170D03*
X1002030Y1111170D03*
D14*
X991870Y1128903D03*
X991870Y1120267D03*
D11*
X1010285Y1125300D03*
X1010285Y1135300D03*
X1019810Y1125300D03*
X1019810Y1135300D03*
X1004650Y1144905D03*
X1014650Y1144905D03*
X1004650Y1154430D03*
X1014650Y1154430D03*
X1004650Y1163955D03*
X1014650Y1163955D03*
X1000760Y1125300D03*
X1000760Y1135300D03*
X1037590Y983535D03*
X1037590Y973535D03*
X1056640Y983535D03*
X1056640Y973535D03*
X1047115Y983535D03*
X1047115Y973535D03*
X1063070Y844550D03*
X1073070Y844550D03*
D15*
X1056665Y1136951D03*
X1066165Y1136951D03*
X1075665Y1136951D03*
X1075665Y1110949D03*
X1056665Y1110949D03*
D11*
X993695Y873760D03*
X983695Y873760D03*
X1005840Y895430D03*
X1005840Y905430D03*
X1075690Y1151335D03*
X1075690Y1161335D03*
D16*
X1068620Y956190D03*
X1068620Y951190D03*
X1068620Y946190D03*
X1068620Y941190D03*
X1042120Y941190D03*
X1042120Y946190D03*
X1042120Y951190D03*
X1042120Y956190D03*
D11*
X1064180Y920750D03*
X1054180Y920750D03*
X1064180Y930275D03*
X1054180Y930275D03*
D17*
X1066200Y1221905D03*
X1061200Y1221905D03*
D18*
X1076200Y1196905D03*
X981200Y1196905D03*
D17*
X1056200Y1221905D03*
X1051200Y1221905D03*
X1046200Y1221905D03*
X1041200Y1221905D03*
X1036200Y1221905D03*
X1031200Y1221905D03*
X1026200Y1221905D03*
X1021200Y1221905D03*
X1016200Y1221905D03*
X1011200Y1221905D03*
X1006200Y1221905D03*
X1001200Y1221905D03*
X996200Y1221905D03*
X991200Y1221905D03*
D19*
X1075690Y1000760D03*
X1075690Y924560D03*
X1075690Y899160D03*
X1075690Y873760D03*
X1075690Y1076960D03*
X981710Y1102360D03*
X981710Y1178560D03*
X1075690Y1026160D03*
D20*
X1051200Y864460D03*
X1051200Y857960D03*
X1051200Y851460D03*
X1051200Y844960D03*
X1006200Y844960D03*
X1006200Y851460D03*
X1006200Y857960D03*
X1006200Y864460D03*
D11*
X1006555Y878205D03*
X1016555Y878205D03*
D19*
X981710Y861060D03*
D10*
X1238250Y1223010D03*
X1144270Y828040D03*
D11*
X1146890Y921385D03*
X1156890Y921385D03*
D12*
X1158390Y895990D03*
X1151890Y895990D03*
X1145390Y895990D03*
X1145390Y912490D03*
X1158390Y912490D03*
D11*
X1156255Y883285D03*
X1146255Y883285D03*
X1156890Y844550D03*
X1146890Y844550D03*
X1218485Y1022985D03*
X1208485Y1022985D03*
X1228725Y1029415D03*
X1228725Y1039415D03*
X1211580Y1033225D03*
X1211580Y1043225D03*
X1224280Y1007665D03*
X1224280Y997665D03*
X1205230Y1007665D03*
X1205230Y997665D03*
X1214755Y1007665D03*
X1214755Y997665D03*
X1174035Y942340D03*
X1164035Y942340D03*
X1164035Y932815D03*
X1174035Y932815D03*
X1155700Y1044020D03*
X1155700Y1054020D03*
X1168480Y1022985D03*
X1178480Y1022985D03*
X1157525Y1027430D03*
X1147525Y1027430D03*
X1146302Y973375D03*
X1146302Y963375D03*
X1179830Y983535D03*
X1179830Y973535D03*
X1160780Y983535D03*
X1160780Y973535D03*
X1170305Y983535D03*
X1170305Y973535D03*
D13*
X1170320Y1007415D03*
X1170320Y997915D03*
X1156320Y997915D03*
X1156320Y1007415D03*
D11*
X1189990Y1007665D03*
X1189990Y997665D03*
X1180465Y1007665D03*
X1180465Y997665D03*
X1146175Y999189D03*
X1146175Y1009189D03*
X1156890Y1163955D03*
X1146890Y1163955D03*
X1146890Y1154430D03*
X1156890Y1154430D03*
X1155065Y1101170D03*
X1155065Y1111170D03*
X1164590Y1101170D03*
X1164590Y1111170D03*
D14*
X1154430Y1128903D03*
X1154430Y1120267D03*
D11*
X1172845Y1125300D03*
X1172845Y1135300D03*
X1182370Y1125300D03*
X1182370Y1135300D03*
X1167210Y1144905D03*
X1177210Y1144905D03*
X1167210Y1154430D03*
X1177210Y1154430D03*
X1167210Y1163955D03*
X1177210Y1163955D03*
X1163320Y1125300D03*
X1163320Y1135300D03*
X1200150Y983535D03*
X1200150Y973535D03*
X1219200Y983535D03*
X1219200Y973535D03*
X1209675Y983535D03*
X1209675Y973535D03*
X1225630Y844550D03*
X1235630Y844550D03*
D15*
X1219225Y1136951D03*
X1228725Y1136951D03*
X1238225Y1136951D03*
X1238225Y1110949D03*
X1219225Y1110949D03*
D11*
X1156255Y873760D03*
X1146255Y873760D03*
X1168400Y895430D03*
X1168400Y905430D03*
X1238250Y1151335D03*
X1238250Y1161335D03*
D16*
X1231180Y956190D03*
X1231180Y951190D03*
X1231180Y946190D03*
X1231180Y941190D03*
X1204680Y941190D03*
X1204680Y946190D03*
X1204680Y951190D03*
X1204680Y956190D03*
D11*
X1226740Y920750D03*
X1216740Y920750D03*
X1226740Y930275D03*
X1216740Y930275D03*
D17*
X1228760Y1221905D03*
X1223760Y1221905D03*
D18*
X1238760Y1196905D03*
X1143760Y1196905D03*
D17*
X1218760Y1221905D03*
X1213760Y1221905D03*
X1208760Y1221905D03*
X1203760Y1221905D03*
X1198760Y1221905D03*
X1193760Y1221905D03*
X1188760Y1221905D03*
X1183760Y1221905D03*
X1178760Y1221905D03*
X1173760Y1221905D03*
X1168760Y1221905D03*
X1163760Y1221905D03*
X1158760Y1221905D03*
X1153760Y1221905D03*
D19*
X1238250Y1000760D03*
X1238250Y924560D03*
X1238250Y899160D03*
X1238250Y873760D03*
X1238250Y1076960D03*
X1144270Y1102360D03*
X1144270Y1178560D03*
X1238250Y1026160D03*
D20*
X1213760Y864460D03*
X1213760Y857960D03*
X1213760Y851460D03*
X1213760Y844960D03*
X1168760Y844960D03*
X1168760Y851460D03*
X1168760Y857960D03*
X1168760Y864460D03*
D11*
X1169115Y878205D03*
X1179115Y878205D03*
D19*
X1144270Y861060D03*
D10*
X1400810Y1223010D03*
X1306830Y828040D03*
D11*
X1309450Y921385D03*
X1319450Y921385D03*
D12*
X1320950Y895990D03*
X1314450Y895990D03*
X1307950Y895990D03*
X1307950Y912490D03*
X1320950Y912490D03*
D11*
X1318815Y883285D03*
X1308815Y883285D03*
X1319450Y844550D03*
X1309450Y844550D03*
X1381045Y1022985D03*
X1371045Y1022985D03*
X1391285Y1029415D03*
X1391285Y1039415D03*
X1374140Y1033225D03*
X1374140Y1043225D03*
X1386840Y1007665D03*
X1386840Y997665D03*
X1367790Y1007665D03*
X1367790Y997665D03*
X1377315Y1007665D03*
X1377315Y997665D03*
X1336595Y942340D03*
X1326595Y942340D03*
X1326595Y932815D03*
X1336595Y932815D03*
X1318260Y1044020D03*
X1318260Y1054020D03*
X1331040Y1022985D03*
X1341040Y1022985D03*
X1320085Y1027430D03*
X1310085Y1027430D03*
X1308862Y973375D03*
X1308862Y963375D03*
X1342390Y983535D03*
X1342390Y973535D03*
X1323340Y983535D03*
X1323340Y973535D03*
X1332865Y983535D03*
X1332865Y973535D03*
D13*
X1332880Y1007415D03*
X1332880Y997915D03*
X1318880Y997915D03*
X1318880Y1007415D03*
D11*
X1352550Y1007665D03*
X1352550Y997665D03*
X1343025Y1007665D03*
X1343025Y997665D03*
X1308735Y999189D03*
X1308735Y1009189D03*
X1319450Y1163955D03*
X1309450Y1163955D03*
X1309450Y1154430D03*
X1319450Y1154430D03*
X1317625Y1101170D03*
X1317625Y1111170D03*
X1327150Y1101170D03*
X1327150Y1111170D03*
D14*
X1316990Y1128903D03*
X1316990Y1120267D03*
D11*
X1335405Y1125300D03*
X1335405Y1135300D03*
X1344930Y1125300D03*
X1344930Y1135300D03*
X1329770Y1144905D03*
X1339770Y1144905D03*
X1329770Y1154430D03*
X1339770Y1154430D03*
X1329770Y1163955D03*
X1339770Y1163955D03*
X1325880Y1125300D03*
X1325880Y1135300D03*
X1362710Y983535D03*
X1362710Y973535D03*
X1381760Y983535D03*
X1381760Y973535D03*
X1372235Y983535D03*
X1372235Y973535D03*
X1388190Y844550D03*
X1398190Y844550D03*
D15*
X1381785Y1136951D03*
X1391285Y1136951D03*
X1400785Y1136951D03*
X1400785Y1110949D03*
X1381785Y1110949D03*
D11*
X1318815Y873760D03*
X1308815Y873760D03*
X1330960Y895430D03*
X1330960Y905430D03*
X1400810Y1151335D03*
X1400810Y1161335D03*
D16*
X1393740Y956190D03*
X1393740Y951190D03*
X1393740Y946190D03*
X1393740Y941190D03*
X1367240Y941190D03*
X1367240Y946190D03*
X1367240Y951190D03*
X1367240Y956190D03*
D11*
X1389300Y920750D03*
X1379300Y920750D03*
X1389300Y930275D03*
X1379300Y930275D03*
D17*
X1391320Y1221905D03*
X1386320Y1221905D03*
D18*
X1401320Y1196905D03*
X1306320Y1196905D03*
D17*
X1381320Y1221905D03*
X1376320Y1221905D03*
X1371320Y1221905D03*
X1366320Y1221905D03*
X1361320Y1221905D03*
X1356320Y1221905D03*
X1351320Y1221905D03*
X1346320Y1221905D03*
X1341320Y1221905D03*
X1336320Y1221905D03*
X1331320Y1221905D03*
X1326320Y1221905D03*
X1321320Y1221905D03*
X1316320Y1221905D03*
D19*
X1400810Y1000760D03*
X1400810Y924560D03*
X1400810Y899160D03*
X1400810Y873760D03*
X1400810Y1076960D03*
X1306830Y1102360D03*
X1306830Y1178560D03*
X1400810Y1026160D03*
D20*
X1376320Y864460D03*
X1376320Y857960D03*
X1376320Y851460D03*
X1376320Y844960D03*
X1331320Y844960D03*
X1331320Y851460D03*
X1331320Y857960D03*
X1331320Y864460D03*
D11*
X1331675Y878205D03*
X1341675Y878205D03*
D19*
X1306830Y861060D03*
D10*
X1563370Y1223010D03*
X1469390Y828040D03*
D11*
X1472010Y921385D03*
X1482010Y921385D03*
D12*
X1483510Y895990D03*
X1477010Y895990D03*
X1470510Y895990D03*
X1470510Y912490D03*
X1483510Y912490D03*
D11*
X1481375Y883285D03*
X1471375Y883285D03*
X1482010Y844550D03*
X1472010Y844550D03*
X1543605Y1022985D03*
X1533605Y1022985D03*
X1553845Y1029415D03*
X1553845Y1039415D03*
X1536700Y1033225D03*
X1536700Y1043225D03*
X1549400Y1007665D03*
X1549400Y997665D03*
X1530350Y1007665D03*
X1530350Y997665D03*
X1539875Y1007665D03*
X1539875Y997665D03*
X1499155Y942340D03*
X1489155Y942340D03*
X1489155Y932815D03*
X1499155Y932815D03*
X1480820Y1044020D03*
X1480820Y1054020D03*
X1493600Y1022985D03*
X1503600Y1022985D03*
X1482645Y1027430D03*
X1472645Y1027430D03*
X1471422Y973375D03*
X1471422Y963375D03*
X1504950Y983535D03*
X1504950Y973535D03*
X1485900Y983535D03*
X1485900Y973535D03*
X1495425Y983535D03*
X1495425Y973535D03*
D13*
X1495440Y1007415D03*
X1495440Y997915D03*
X1481440Y997915D03*
X1481440Y1007415D03*
D11*
X1515110Y1007665D03*
X1515110Y997665D03*
X1505585Y1007665D03*
X1505585Y997665D03*
X1471295Y999189D03*
X1471295Y1009189D03*
X1482010Y1163955D03*
X1472010Y1163955D03*
X1472010Y1154430D03*
X1482010Y1154430D03*
X1480185Y1101170D03*
X1480185Y1111170D03*
X1489710Y1101170D03*
X1489710Y1111170D03*
D14*
X1479550Y1128903D03*
X1479550Y1120267D03*
D11*
X1497965Y1125300D03*
X1497965Y1135300D03*
X1507490Y1125300D03*
X1507490Y1135300D03*
X1492330Y1144905D03*
X1502330Y1144905D03*
X1492330Y1154430D03*
X1502330Y1154430D03*
X1492330Y1163955D03*
X1502330Y1163955D03*
X1488440Y1125300D03*
X1488440Y1135300D03*
X1525270Y983535D03*
X1525270Y973535D03*
X1544320Y983535D03*
X1544320Y973535D03*
X1534795Y983535D03*
X1534795Y973535D03*
X1550750Y844550D03*
X1560750Y844550D03*
D15*
X1544345Y1136951D03*
X1553845Y1136951D03*
X1563345Y1136951D03*
X1563345Y1110949D03*
X1544345Y1110949D03*
D11*
X1481375Y873760D03*
X1471375Y873760D03*
X1493520Y895430D03*
X1493520Y905430D03*
X1563370Y1151335D03*
X1563370Y1161335D03*
D16*
X1556300Y956190D03*
X1556300Y951190D03*
X1556300Y946190D03*
X1556300Y941190D03*
X1529800Y941190D03*
X1529800Y946190D03*
X1529800Y951190D03*
X1529800Y956190D03*
D11*
X1551860Y920750D03*
X1541860Y920750D03*
X1551860Y930275D03*
X1541860Y930275D03*
D17*
X1553880Y1221905D03*
X1548880Y1221905D03*
D18*
X1563880Y1196905D03*
X1468880Y1196905D03*
D17*
X1543880Y1221905D03*
X1538880Y1221905D03*
X1533880Y1221905D03*
X1528880Y1221905D03*
X1523880Y1221905D03*
X1518880Y1221905D03*
X1513880Y1221905D03*
X1508880Y1221905D03*
X1503880Y1221905D03*
X1498880Y1221905D03*
X1493880Y1221905D03*
X1488880Y1221905D03*
X1483880Y1221905D03*
X1478880Y1221905D03*
D19*
X1563370Y1000760D03*
X1563370Y924560D03*
X1563370Y899160D03*
X1563370Y873760D03*
X1563370Y1076960D03*
X1469390Y1102360D03*
X1469390Y1178560D03*
X1563370Y1026160D03*
D20*
X1538880Y864460D03*
X1538880Y857960D03*
X1538880Y851460D03*
X1538880Y844960D03*
X1493880Y844960D03*
X1493880Y851460D03*
X1493880Y857960D03*
X1493880Y864460D03*
D11*
X1494235Y878205D03*
X1504235Y878205D03*
D19*
X1469390Y861060D03*
D21*
X119380Y1250315D03*
X1602105Y1250315D03*
D22*
X110325Y-20955D02*
X110328Y-20733D01*
X110336Y-20511D01*
X110350Y-20289D01*
X110369Y-20067D01*
X110393Y-19847D01*
X110423Y-19626D01*
X110458Y-19407D01*
X110499Y-19188D01*
X110545Y-18971D01*
X110596Y-18755D01*
X110653Y-18540D01*
X110715Y-18326D01*
X110782Y-18115D01*
X110854Y-17904D01*
X110932Y-17696D01*
X111014Y-17490D01*
X111102Y-17286D01*
X111194Y-17083D01*
X111292Y-16884D01*
X111394Y-16687D01*
X111501Y-16492D01*
X111613Y-16300D01*
X111730Y-16111D01*
X111851Y-15924D01*
X111977Y-15741D01*
X112107Y-15561D01*
X112242Y-15384D01*
X112380Y-15211D01*
X112523Y-15041D01*
X112671Y-14874D01*
X112822Y-14711D01*
X112977Y-14552D01*
X113136Y-14397D01*
X113299Y-14246D01*
X113466Y-14098D01*
X113636Y-13955D01*
X113809Y-13817D01*
X113986Y-13682D01*
X114166Y-13552D01*
X114349Y-13426D01*
X114536Y-13305D01*
X114725Y-13188D01*
X114917Y-13076D01*
X115112Y-12969D01*
X115309Y-12867D01*
X115508Y-12769D01*
X115711Y-12677D01*
X115915Y-12589D01*
X116121Y-12507D01*
X116329Y-12429D01*
X116540Y-12357D01*
X116751Y-12290D01*
X116965Y-12228D01*
X117180Y-12171D01*
X117396Y-12120D01*
X117613Y-12074D01*
X117832Y-12033D01*
X118051Y-11998D01*
X118272Y-11968D01*
X118492Y-11944D01*
X118714Y-11925D01*
X118936Y-11911D01*
X119158Y-11903D01*
X119380Y-11900D01*
X119602Y-11903D01*
X119824Y-11911D01*
X120046Y-11925D01*
X120268Y-11944D01*
X120488Y-11968D01*
X120709Y-11998D01*
X120928Y-12033D01*
X121147Y-12074D01*
X121364Y-12120D01*
X121580Y-12171D01*
X121795Y-12228D01*
X122009Y-12290D01*
X122220Y-12357D01*
X122431Y-12429D01*
X122639Y-12507D01*
X122845Y-12589D01*
X123049Y-12677D01*
X123252Y-12769D01*
X123451Y-12867D01*
X123648Y-12969D01*
X123843Y-13076D01*
X124035Y-13188D01*
X124224Y-13305D01*
X124411Y-13426D01*
X124594Y-13552D01*
X124774Y-13682D01*
X124951Y-13817D01*
X125124Y-13955D01*
X125294Y-14098D01*
X125461Y-14246D01*
X125624Y-14397D01*
X125783Y-14552D01*
X125938Y-14711D01*
X126089Y-14874D01*
X126237Y-15041D01*
X126380Y-15211D01*
X126518Y-15384D01*
X126653Y-15561D01*
X126783Y-15741D01*
X126909Y-15924D01*
X127030Y-16111D01*
X127147Y-16300D01*
X127259Y-16492D01*
X127366Y-16687D01*
X127468Y-16884D01*
X127566Y-17083D01*
X127658Y-17286D01*
X127746Y-17490D01*
X127828Y-17696D01*
X127906Y-17904D01*
X127978Y-18115D01*
X128045Y-18326D01*
X128107Y-18540D01*
X128164Y-18755D01*
X128215Y-18971D01*
X128261Y-19188D01*
X128302Y-19407D01*
X128337Y-19626D01*
X128367Y-19847D01*
X128391Y-20067D01*
X128410Y-20289D01*
X128424Y-20511D01*
X128432Y-20733D01*
X128435Y-20955D01*
X128432Y-21177D01*
X128424Y-21399D01*
X128410Y-21621D01*
X128391Y-21843D01*
X128367Y-22063D01*
X128337Y-22284D01*
X128302Y-22503D01*
X128261Y-22722D01*
X128215Y-22939D01*
X128164Y-23155D01*
X128107Y-23370D01*
X128045Y-23584D01*
X127978Y-23795D01*
X127906Y-24006D01*
X127828Y-24214D01*
X127746Y-24420D01*
X127658Y-24624D01*
X127566Y-24827D01*
X127468Y-25026D01*
X127366Y-25223D01*
X127259Y-25418D01*
X127147Y-25610D01*
X127030Y-25799D01*
X126909Y-25986D01*
X126783Y-26169D01*
X126653Y-26349D01*
X126518Y-26526D01*
X126380Y-26699D01*
X126237Y-26869D01*
X126089Y-27036D01*
X125938Y-27199D01*
X125783Y-27358D01*
X125624Y-27513D01*
X125461Y-27664D01*
X125294Y-27812D01*
X125124Y-27955D01*
X124951Y-28093D01*
X124774Y-28228D01*
X124594Y-28358D01*
X124411Y-28484D01*
X124224Y-28605D01*
X124035Y-28722D01*
X123843Y-28834D01*
X123648Y-28941D01*
X123451Y-29043D01*
X123252Y-29141D01*
X123049Y-29233D01*
X122845Y-29321D01*
X122639Y-29403D01*
X122431Y-29481D01*
X122220Y-29553D01*
X122009Y-29620D01*
X121795Y-29682D01*
X121580Y-29739D01*
X121364Y-29790D01*
X121147Y-29836D01*
X120928Y-29877D01*
X120709Y-29912D01*
X120488Y-29942D01*
X120268Y-29966D01*
X120046Y-29985D01*
X119824Y-29999D01*
X119602Y-30007D01*
X119380Y-30010D01*
X119158Y-30007D01*
X118936Y-29999D01*
X118714Y-29985D01*
X118492Y-29966D01*
X118272Y-29942D01*
X118051Y-29912D01*
X117832Y-29877D01*
X117613Y-29836D01*
X117396Y-29790D01*
X117180Y-29739D01*
X116965Y-29682D01*
X116751Y-29620D01*
X116540Y-29553D01*
X116329Y-29481D01*
X116121Y-29403D01*
X115915Y-29321D01*
X115711Y-29233D01*
X115508Y-29141D01*
X115309Y-29043D01*
X115112Y-28941D01*
X114917Y-28834D01*
X114725Y-28722D01*
X114536Y-28605D01*
X114349Y-28484D01*
X114166Y-28358D01*
X113986Y-28228D01*
X113809Y-28093D01*
X113636Y-27955D01*
X113466Y-27812D01*
X113299Y-27664D01*
X113136Y-27513D01*
X112977Y-27358D01*
X112822Y-27199D01*
X112671Y-27036D01*
X112523Y-26869D01*
X112380Y-26699D01*
X112242Y-26526D01*
X112107Y-26349D01*
X111977Y-26169D01*
X111851Y-25986D01*
X111730Y-25799D01*
X111613Y-25610D01*
X111501Y-25418D01*
X111394Y-25223D01*
X111292Y-25026D01*
X111194Y-24827D01*
X111102Y-24624D01*
X111014Y-24420D01*
X110932Y-24214D01*
X110854Y-24006D01*
X110782Y-23795D01*
X110715Y-23584D01*
X110653Y-23370D01*
X110596Y-23155D01*
X110545Y-22939D01*
X110499Y-22722D01*
X110458Y-22503D01*
X110423Y-22284D01*
X110393Y-22063D01*
X110369Y-21843D01*
X110350Y-21621D01*
X110336Y-21399D01*
X110328Y-21177D01*
X110325Y-20955D01*
D23*
X119380Y-20955D03*
M02*
